<svg width="36" height="36" viewBox="0 0 36 36" fill="none" xmlns="http://www.w3.org/2000/svg">
<g clip-path="url(#clip0_1069_7661)">
<path d="M15.9037 17.9827L21.5039 12.3825C22.4881 11.3983 22.4881 9.80274 21.5039 8.8185C20.5197 7.83426 18.9241 7.83426 17.9399 8.8185L12.3397 14.4187C11.3555 15.4029 11.3555 16.9984 12.3397 17.9827C13.324 18.9669 14.9195 18.9669 15.9037 17.9827Z" fill="#FFCCA7"/>
<path d="M23.6641 18.0194C22.6798 17.0352 21.0843 17.0352 20.1001 18.0194L14.4999 23.6196C13.5157 24.6038 13.5157 26.1993 14.4999 27.1836C15.4841 28.1678 17.0797 28.1678 18.0639 27.1836L23.6641 21.5834C24.6483 20.5992 24.6483 19.0037 23.6641 18.0194Z" fill="#FFCCA7"/>
<path d="M15.12 33.3709H6.23376C4.24296 33.3709 2.62944 31.7574 2.62944 29.7666V20.8804H0V30.0093C0 33.3177 2.682 36.0004 5.99112 36.0004H15.12V33.3709Z" fill="#FFCCA7"/>
<path d="M20.8789 33.3709H29.7651C31.7559 33.3709 33.3695 31.7574 33.3695 29.7666V20.8804H35.9989V30.0093C35.9989 33.3177 33.3169 36.0004 30.0078 36.0004H20.8789V33.3709Z" fill="#FFCCA7"/>
<path d="M20.8789 2.62944H29.7651C31.7559 2.62944 33.3695 4.24296 33.3695 6.23376V15.12H35.9989V5.99112C35.9989 2.682 33.3169 0 30.0078 0H20.8789V2.62944Z" fill="#FFCCA7"/>
<path d="M15.12 2.62944H6.23376C4.24296 2.62944 2.62944 4.24296 2.62944 6.23376V15.12H0V5.99112C0 2.682 2.682 0 5.99112 0H15.12V2.62944Z" fill="#FFCCA7"/>
</g>
<defs>
<clipPath id="clip0_1069_7661">
<rect width="36" height="36" fill="white"/>
</clipPath>
</defs>
</svg>
