<svg width="138" height="36" viewBox="0 0 138 36" fill="none" xmlns="http://www.w3.org/2000/svg">
<path d="M15.7855 18.1115L21.6412 12.2557C22.6701 11.2268 22.6701 9.55859 21.6412 8.52899C20.6123 7.5001 18.9441 7.5001 17.9145 8.52899L12.0588 14.3848C11.0299 15.4136 11.0299 17.0819 12.0588 18.1115C13.0876 19.1404 14.7559 19.1404 15.7855 18.1115Z" fill="#FFF1DD"/>
<path d="M23.9393 17.8898C22.9104 16.8609 21.2422 16.8609 20.2126 17.8898L14.3569 23.7456C13.328 24.7745 13.328 26.4427 14.3569 27.4723C15.3857 28.5012 17.054 28.5012 18.0836 27.4723L23.9393 21.6166C24.9682 20.5877 24.9682 18.9194 23.9393 17.8898Z" fill="#FFF1DD"/>
<path d="M13.8052 33.3705H7.54846C4.83191 33.3705 2.62943 31.168 2.62943 28.4514V22.1946C2.62943 21.4681 2.04047 20.8799 1.31472 20.8799C0.588238 20.8799 0 21.4688 0 22.1946V28.6941C0 32.729 3.27095 35.9999 7.30582 35.9999H13.8052C14.5317 35.9999 15.12 35.411 15.12 34.6852C15.12 33.9587 14.531 33.3705 13.8052 33.3705Z" fill="#FFF1DD"/>
<path d="M22.1975 33.3705H28.4543C31.1709 33.3705 33.3733 31.168 33.3733 28.4514V22.1946C33.3733 21.4681 33.9623 20.8799 34.6881 20.8799C35.4145 20.8799 36.0028 21.4688 36.0028 22.1946V28.6941C36.0028 32.729 32.7318 35.9999 28.697 35.9999H22.1975C21.4711 35.9999 20.8828 35.411 20.8828 34.6852C20.8828 33.9587 21.4718 33.3705 22.1975 33.3705Z" fill="#FFF1DD"/>
<path d="M22.1975 2.62994H28.4543C31.1709 2.62994 33.3733 4.83242 33.3733 7.54899V13.8058C33.3733 14.5323 33.9623 15.1205 34.6881 15.1205C35.4145 15.1205 36.0028 14.5316 36.0028 13.8058V7.30635C36.0028 3.27146 32.7318 0.000488281 28.697 0.000488281H22.1975C21.4711 0.000488281 20.8828 0.58945 20.8828 1.31521C20.8828 2.04169 21.4718 2.62994 22.1975 2.62994Z" fill="#FFF1DD"/>
<path d="M13.8052 2.62945H7.54846C4.83191 2.62945 2.62943 4.83194 2.62943 7.5485V13.8053C2.62943 14.5318 2.04047 15.12 1.31472 15.12C0.588958 15.12 0 14.5311 0 13.8053V7.30586C0 3.27097 3.27095 0 7.30582 0H13.8052C14.5317 0 15.12 0.588962 15.12 1.31472C15.12 2.04121 14.531 2.62945 13.8052 2.62945Z" fill="#FFF1DD"/>
<path d="M83.279 32.9715C82.3321 32.9715 81.5171 32.7797 80.834 32.3962C80.1548 32.0087 79.6315 31.4614 79.264 30.7542C78.8964 30.0431 78.7126 29.2022 78.7126 28.2314C78.7126 27.2845 78.8964 26.4536 79.264 25.7385C79.6315 25.0234 80.1489 24.466 80.816 24.0665C81.4872 23.667 82.2742 23.4673 83.1771 23.4673C83.7843 23.4673 84.3496 23.5652 84.873 23.7609C85.4003 23.9527 85.8597 24.2423 86.2512 24.6298C86.6468 25.0174 86.9544 25.5048 87.1741 26.092C87.3938 26.6753 87.5037 27.3585 87.5037 28.1415V28.8426H79.7314V27.2606H85.1007C85.1007 26.893 85.0208 26.5674 84.861 26.2838C84.7012 26.0001 84.4795 25.7784 84.1958 25.6186C83.9162 25.4548 83.5906 25.3729 83.219 25.3729C82.8315 25.3729 82.4879 25.4628 82.1883 25.6426C81.8927 25.8184 81.661 26.0561 81.4932 26.3557C81.3254 26.6513 81.2395 26.9809 81.2355 27.3445V28.8486C81.2355 29.304 81.3194 29.6975 81.4872 30.0291C81.659 30.3607 81.9007 30.6164 82.2123 30.7962C82.5239 30.976 82.8934 31.0659 83.3209 31.0659C83.6045 31.0659 83.8642 31.0259 84.0999 30.946C84.3356 30.8661 84.5374 30.7463 84.7052 30.5864C84.873 30.4266 85.0008 30.2309 85.0887 29.9992L87.4498 30.155C87.3299 30.7223 87.0842 31.2177 86.7127 31.6411C86.3451 32.0606 85.8697 32.3882 85.2864 32.6239C84.7072 32.8556 84.038 32.9715 83.279 32.9715Z" fill="#FFF1DD"/>
<path d="M73.0654 32.793V23.5884H75.5403V25.1944H75.6362C75.804 24.6231 76.0857 24.1916 76.4812 23.9C76.8767 23.6044 77.3321 23.4565 77.8475 23.4565C77.9753 23.4565 78.1131 23.4645 78.2609 23.4805C78.4088 23.4965 78.5386 23.5185 78.6505 23.5464V25.8116C78.5306 25.7757 78.3648 25.7437 78.1531 25.7157C77.9413 25.6878 77.7476 25.6738 77.5718 25.6738C77.1963 25.6738 76.8607 25.7557 76.5651 25.9195C76.2734 26.0793 76.0417 26.303 75.8699 26.5907C75.7021 26.8783 75.6182 27.2099 75.6182 27.5854V32.793H73.0654Z" fill="#FFF1DD"/>
<path d="M67.3228 32.971C66.392 32.971 65.587 32.7732 64.9078 32.3777C64.2327 31.9782 63.7113 31.4229 63.3438 30.7118C62.9763 29.9967 62.7925 29.1677 62.7925 28.2249C62.7925 27.2741 62.9763 26.4431 63.3438 25.732C63.7113 25.0169 64.2327 24.4616 64.9078 24.0661C65.587 23.6665 66.392 23.4668 67.3228 23.4668C68.2537 23.4668 69.0567 23.6665 69.7318 24.0661C70.411 24.4616 70.9343 25.0169 71.3019 25.732C71.6694 26.4431 71.8532 27.2741 71.8532 28.2249C71.8532 29.1677 71.6694 29.9967 71.3019 30.7118C70.9343 31.4229 70.411 31.9782 69.7318 32.3777C69.0567 32.7732 68.2537 32.971 67.3228 32.971ZM67.3348 30.9935C67.7583 30.9935 68.1118 30.8736 68.3955 30.6339C68.6791 30.3902 68.8929 30.0586 69.0367 29.6391C69.1845 29.2197 69.2584 28.7422 69.2584 28.2069C69.2584 27.6716 69.1845 27.1942 69.0367 26.7747C68.8929 26.3552 68.6791 26.0236 68.3955 25.7799C68.1118 25.5362 67.7583 25.4144 67.3348 25.4144C66.9073 25.4144 66.5478 25.5362 66.2562 25.7799C65.9685 26.0236 65.7508 26.3552 65.603 26.7747C65.4592 27.1942 65.3872 27.6716 65.3872 28.2069C65.3872 28.7422 65.4592 29.2197 65.603 29.6391C65.7508 30.0586 65.9685 30.3902 66.2562 30.6339C66.5478 30.8736 66.9073 30.9935 67.3348 30.9935Z" fill="#FFF1DD"/>
<path d="M57.8678 32.971C56.9249 32.971 56.1139 32.7712 55.4348 32.3717C54.7596 31.9682 54.2403 31.4089 53.8767 30.6938C53.5172 29.9787 53.3374 29.1557 53.3374 28.2249C53.3374 27.2821 53.5192 26.4551 53.8827 25.744C54.2503 25.0289 54.7716 24.4715 55.4468 24.072C56.1219 23.6685 56.9249 23.4668 57.8558 23.4668C58.6588 23.4668 59.3619 23.6126 59.9651 23.9043C60.5684 24.1959 61.0458 24.6054 61.3974 25.1327C61.7489 25.6601 61.9427 26.2793 61.9786 26.9904H59.5696C59.5017 26.531 59.3219 26.1615 59.0303 25.8818C58.7427 25.5982 58.3651 25.4563 57.8977 25.4563C57.5022 25.4563 57.1566 25.5642 56.861 25.7799C56.5694 25.9917 56.3417 26.3013 56.1779 26.7088C56.0141 27.1163 55.9322 27.6097 55.9322 28.1889C55.9322 28.7762 56.0121 29.2756 56.1719 29.6871C56.3357 30.0986 56.5654 30.4122 56.861 30.6279C57.1566 30.8436 57.5022 30.9515 57.8977 30.9515C58.1894 30.9515 58.451 30.8916 58.6827 30.7717C58.9184 30.6519 59.1122 30.4781 59.264 30.2504C59.4198 30.0187 59.5217 29.741 59.5696 29.4174H61.9786C61.9387 30.1205 61.7469 30.7398 61.4033 31.2751C61.0638 31.8064 60.5944 32.2219 59.9951 32.5216C59.3958 32.8212 58.6867 32.971 57.8678 32.971Z" fill="#FFF1DD"/>
<path d="M49.8066 24.0499C49.7587 23.5665 49.5529 23.191 49.1894 22.9233C48.8258 22.6557 48.3325 22.5218 47.7092 22.5218C47.2858 22.5218 46.9282 22.5818 46.6366 22.7016C46.3449 22.8175 46.1212 22.9793 45.9654 23.187C45.8136 23.3948 45.7377 23.6305 45.7377 23.8941C45.7297 24.1139 45.7756 24.3056 45.8755 24.4694C45.9794 24.6332 46.1212 24.7751 46.301 24.8949C46.4808 25.0108 46.6885 25.1126 46.9242 25.2005C47.1599 25.2844 47.4116 25.3563 47.6793 25.4163L48.7819 25.6799C49.3172 25.7998 49.8086 25.9596 50.2561 26.1593C50.7035 26.3591 51.091 26.6048 51.4186 26.8964C51.7462 27.1881 51.9999 27.5316 52.1797 27.9271C52.3634 28.3226 52.4573 28.7761 52.4613 29.2874C52.4573 30.0385 52.2656 30.6897 51.886 31.241C51.5105 31.7883 50.9672 32.2138 50.2561 32.5174C49.5489 32.8171 48.696 32.9669 47.6973 32.9669C46.7065 32.9669 45.8436 32.8151 45.1085 32.5114C44.3774 32.2078 43.8061 31.7584 43.3946 31.1631C42.9871 30.5639 42.7734 29.8228 42.7534 28.9399H45.2643C45.2923 29.3514 45.4101 29.6949 45.6178 29.9706C45.8296 30.2423 46.1112 30.448 46.4628 30.5878C46.8183 30.7237 47.2198 30.7916 47.6673 30.7916C48.1067 30.7916 48.4883 30.7277 48.8119 30.5998C49.1395 30.472 49.3931 30.2942 49.5729 30.0665C49.7527 29.8388 49.8426 29.5771 49.8426 29.2815C49.8426 29.0058 49.7607 28.7741 49.5969 28.5863C49.4371 28.3986 49.2014 28.2387 48.8898 28.1069C48.5821 27.9751 48.2046 27.8552 47.7572 27.7474L46.4208 27.4118C45.3861 27.1601 44.5692 26.7666 43.9699 26.2312C43.3706 25.6959 43.073 24.9748 43.077 24.0679C43.073 23.3248 43.2708 22.6757 43.6703 22.1203C44.0738 21.565 44.6271 21.1316 45.3302 20.82C46.0333 20.5083 46.8323 20.3525 47.7272 20.3525C48.6381 20.3525 49.4331 20.5083 50.1122 20.82C50.7954 21.1316 51.3267 21.565 51.7063 22.1203C52.0858 22.6757 52.2815 23.3189 52.2935 24.0499H49.8066Z" fill="#FFF1DD"/>
<path d="M137.516 6.26532V8.18294H131.973V6.26532H137.516ZM133.231 4.06006H135.784V12.6414C135.784 12.8771 135.82 13.0609 135.892 13.1927C135.964 13.3206 136.064 13.4105 136.191 13.4624C136.323 13.5143 136.475 13.5403 136.647 13.5403C136.767 13.5403 136.887 13.5303 137.006 13.5103C137.126 13.4864 137.218 13.4684 137.282 13.4564L137.684 15.356C137.556 15.396 137.376 15.4419 137.144 15.4939C136.912 15.5498 136.631 15.5838 136.299 15.5957C135.684 15.6197 135.145 15.5378 134.681 15.35C134.222 15.1623 133.864 14.8706 133.609 14.4751C133.353 14.0796 133.227 13.5802 133.231 12.977V4.06006Z" fill="#FFF1DD"/>
<path d="M125.126 10.1471V15.4685H122.573V6.26389H125.006V7.88788H125.114C125.318 7.35254 125.659 6.92907 126.139 6.61745C126.618 6.30185 127.199 6.14404 127.882 6.14404C128.522 6.14404 129.079 6.28387 129.554 6.56352C130.03 6.84317 130.399 7.24268 130.663 7.76203C130.927 8.27739 131.058 8.89263 131.058 9.60774V15.4685H128.506V10.0632C128.51 9.49988 128.366 9.06042 128.074 8.74481C127.782 8.42521 127.381 8.26541 126.87 8.26541C126.526 8.26541 126.222 8.33932 125.959 8.48713C125.699 8.63495 125.495 8.85068 125.348 9.13433C125.204 9.41398 125.13 9.75157 125.126 10.1471Z" fill="#FFF1DD"/>
<path d="M117.133 15.6487C116.186 15.6487 115.371 15.457 114.688 15.0734C114.009 14.6859 113.485 14.1386 113.118 13.4315C112.75 12.7204 112.566 11.8794 112.566 10.9086C112.566 9.96179 112.75 9.13082 113.118 8.41571C113.485 7.7006 114.003 7.14329 114.67 6.74379C115.341 6.34428 116.128 6.14453 117.031 6.14453C117.638 6.14453 118.203 6.24241 118.727 6.43817C119.254 6.62993 119.713 6.91957 120.105 7.30709C120.501 7.69461 120.808 8.182 121.028 8.76927C121.248 9.35255 121.357 10.0357 121.357 10.8187V11.5199H113.585V9.93782H118.954C118.954 9.57028 118.875 9.24468 118.715 8.96104C118.555 8.67739 118.333 8.45566 118.05 8.29586C117.77 8.13206 117.444 8.05017 117.073 8.05017C116.685 8.05017 116.342 8.14005 116.042 8.31983C115.746 8.49561 115.515 8.73332 115.347 9.03295C115.179 9.32858 115.093 9.65817 115.089 10.0217V11.5259C115.089 11.9813 115.173 12.3748 115.341 12.7064C115.513 13.038 115.754 13.2937 116.066 13.4734C116.378 13.6532 116.747 13.7431 117.175 13.7431C117.458 13.7431 117.718 13.7031 117.954 13.6232C118.189 13.5433 118.391 13.4235 118.559 13.2637C118.727 13.1039 118.855 12.9081 118.942 12.6764L121.304 12.8322C121.184 13.3995 120.938 13.8949 120.566 14.3184C120.199 14.7379 119.723 15.0655 119.14 15.3012C118.561 15.5329 117.892 15.6487 117.133 15.6487Z" fill="#FFF1DD"/>
<path d="M98.0005 15.469V6.26438H100.433V7.88837H100.541C100.733 7.34904 101.053 6.92356 101.5 6.61195C101.948 6.30034 102.483 6.14453 103.106 6.14453C103.737 6.14453 104.275 6.30234 104.718 6.61794C105.162 6.92956 105.457 7.35303 105.605 7.88837H105.701C105.889 7.36102 106.228 6.93954 106.72 6.62394C107.215 6.30433 107.8 6.14453 108.475 6.14453C109.334 6.14453 110.031 6.41819 110.567 6.96551C111.106 7.50884 111.376 8.27988 111.376 9.27864V15.469H108.829V9.78202C108.829 9.27065 108.693 8.88713 108.421 8.63144C108.15 8.37576 107.81 8.24792 107.403 8.24792C106.939 8.24792 106.578 8.39574 106.318 8.69137C106.058 8.98301 105.929 9.36853 105.929 9.84793V15.469H103.454V9.72808C103.454 9.27664 103.324 8.91709 103.064 8.64942C102.808 8.38175 102.471 8.24792 102.051 8.24792C101.768 8.24792 101.512 8.31983 101.284 8.46365C101.061 8.60348 100.883 8.80123 100.751 9.05692C100.619 9.3086 100.553 9.60424 100.553 9.94381V15.469H98.0005Z" fill="#FFF1DD"/>
<path d="M92.5529 15.6478C91.6061 15.6478 90.7911 15.456 90.1079 15.0725C89.4288 14.685 88.9054 14.1376 88.5379 13.4305C88.1703 12.7194 87.9866 11.8784 87.9866 10.9076C87.9866 9.96082 88.1703 9.12985 88.5379 8.41474C88.9054 7.69962 89.4228 7.14231 90.09 6.74281C90.7611 6.34331 91.5481 6.14355 92.451 6.14355C93.0582 6.14355 93.6235 6.24143 94.1469 6.43719C94.6742 6.62895 95.1337 6.91859 95.5252 7.30611C95.9207 7.69363 96.2283 8.18103 96.448 8.7683C96.6677 9.35157 96.7776 10.0347 96.7776 10.8178V11.5189H89.0053V9.93684H94.3746C94.3746 9.5693 94.2947 9.24371 94.1349 8.96006C93.9751 8.67641 93.7534 8.45468 93.4697 8.29488C93.1901 8.13109 92.8645 8.04919 92.493 8.04919C92.1054 8.04919 91.7619 8.13908 91.4622 8.31885C91.1666 8.49464 90.9349 8.73234 90.7671 9.03197C90.5993 9.3276 90.5134 9.65719 90.5094 10.0207V11.5249C90.5094 11.9803 90.5933 12.3738 90.7611 12.7054C90.9329 13.037 91.1746 13.2927 91.4862 13.4725C91.7978 13.6522 92.1674 13.7421 92.5948 13.7421C92.8785 13.7421 93.1381 13.7022 93.3739 13.6223C93.6096 13.5424 93.8113 13.4225 93.9791 13.2627C94.1469 13.1029 94.2747 12.9072 94.3626 12.6754L96.7237 12.8313C96.6038 13.3985 96.3581 13.8939 95.9866 14.3174C95.6191 14.7369 95.1436 15.0645 94.5604 15.3002C93.9811 15.5319 93.3119 15.6478 92.5529 15.6478Z" fill="#FFF1DD"/>
<path d="M86.7684 3.19873V15.4715H84.2156V3.19873H86.7684Z" fill="#FFF1DD"/>
<path d="M73.9832 18.9207V6.26438H76.5V7.81046H76.6139C76.7257 7.56277 76.8875 7.31108 77.0993 7.0554C77.315 6.79572 77.5946 6.57999 77.9382 6.4082C78.2858 6.23242 78.7173 6.14453 79.2326 6.14453C79.9038 6.14453 80.523 6.32031 81.0903 6.67188C81.6576 7.01945 82.111 7.54479 82.4506 8.24792C82.7902 8.94705 82.96 9.82396 82.96 10.8787C82.96 11.9054 82.7942 12.7723 82.4626 13.4794C82.135 14.1826 81.6875 14.7159 81.1203 15.0794C80.557 15.439 79.9257 15.6188 79.2266 15.6188C78.7312 15.6188 78.3098 15.5369 77.9622 15.3731C77.6186 15.2093 77.337 15.0035 77.1172 14.7558C76.8975 14.5042 76.7297 14.2505 76.6139 13.9948H76.536V18.9207H73.9832ZM76.482 10.8667C76.482 11.414 76.5579 11.8914 76.7098 12.2989C76.8616 12.7064 77.0813 13.024 77.3689 13.2517C77.6566 13.4754 78.0061 13.5873 78.4176 13.5873C78.8331 13.5873 79.1847 13.4734 79.4723 13.2457C79.76 13.014 79.9777 12.6944 80.1255 12.2869C80.2773 11.8754 80.3532 11.402 80.3532 10.8667C80.3532 10.3353 80.2793 9.86791 80.1315 9.46441C79.9837 9.06091 79.7659 8.7453 79.4783 8.51758C79.1907 8.28987 78.8371 8.17601 78.4176 8.17601C78.0021 8.17601 77.6506 8.28587 77.3629 8.5056C77.0793 8.72533 76.8616 9.03694 76.7098 9.44044C76.5579 9.84394 76.482 10.3193 76.482 10.8667Z" fill="#FFF1DD"/>
<path d="M63.751 18.9207V6.26438H66.2678V7.81046H66.3817C66.4936 7.56277 66.6554 7.31108 66.8671 7.0554C67.0828 6.79572 67.3625 6.57999 67.706 6.4082C68.0536 6.23242 68.4851 6.14453 69.0004 6.14453C69.6716 6.14453 70.2908 6.32031 70.8581 6.67188C71.4254 7.01945 71.8788 7.54479 72.2184 8.24792C72.558 8.94705 72.7278 9.82396 72.7278 10.8787C72.7278 11.9054 72.562 12.7723 72.2304 13.4794C71.9028 14.1826 71.4554 14.7159 70.8881 15.0794C70.3248 15.439 69.6936 15.6188 68.9944 15.6188C68.4991 15.6188 68.0776 15.5369 67.73 15.3731C67.3864 15.2093 67.1048 15.0035 66.8851 14.7558C66.6653 14.5042 66.4976 14.2505 66.3817 13.9948H66.3038V18.9207H63.751ZM66.2499 10.8667C66.2499 11.414 66.3258 11.8914 66.4776 12.2989C66.6294 12.7064 66.8491 13.024 67.1368 13.2517C67.4244 13.4754 67.774 13.5873 68.1854 13.5873C68.6009 13.5873 68.9525 13.4734 69.2401 13.2457C69.5278 13.014 69.7455 12.6944 69.8933 12.2869C70.0451 11.8754 70.121 11.402 70.121 10.8667C70.121 10.3353 70.0471 9.86791 69.8993 9.46441C69.7515 9.06091 69.5338 8.7453 69.2461 8.51758C68.9585 8.28987 68.6049 8.17601 68.1854 8.17601C67.77 8.17601 67.4184 8.28587 67.1308 8.5056C66.8471 8.72533 66.6294 9.03694 66.4776 9.44044C66.3258 9.84394 66.2499 10.3193 66.2499 10.8667Z" fill="#FFF1DD"/>
<path d="M59.6136 11.5506V6.26514H62.1664V15.4697H59.7154V13.7978H59.6196C59.4118 14.3371 59.0663 14.7706 58.5829 15.0982C58.1035 15.4258 57.5182 15.5896 56.8271 15.5896C56.2118 15.5896 55.6705 15.4497 55.2031 15.1701C54.7357 14.8904 54.3701 14.4929 54.1064 13.9776C53.8468 13.4622 53.7149 12.845 53.7109 12.1259V6.26514H56.2638V11.6704C56.2677 12.2138 56.4136 12.6432 56.7012 12.9588C56.9888 13.2744 57.3744 13.4322 57.8578 13.4322C58.1654 13.4322 58.453 13.3623 58.7207 13.2225C58.9884 13.0787 59.2041 12.8669 59.3679 12.5873C59.5357 12.3076 59.6176 11.9621 59.6136 11.5506Z" fill="#FFF1DD"/>
<path d="M49.8066 6.7272C49.7587 6.2438 49.5529 5.86826 49.1894 5.60059C48.8258 5.33293 48.3325 5.19909 47.7092 5.19909C47.2858 5.19909 46.9282 5.25902 46.6366 5.37887C46.3449 5.49473 46.1212 5.65652 45.9654 5.86427C45.8136 6.07201 45.7377 6.30772 45.7377 6.57139C45.7297 6.79112 45.7756 6.98288 45.8755 7.14668C45.9794 7.31047 46.1212 7.4523 46.301 7.57215C46.4808 7.688 46.6885 7.78988 46.9242 7.87777C47.1599 7.96166 47.4116 8.03357 47.6793 8.0935L48.7819 8.35717C49.3172 8.47702 49.8086 8.63683 50.2561 8.83658C50.7035 9.03633 51.091 9.28202 51.4186 9.57366C51.7462 9.8653 51.9999 10.2089 52.1797 10.6044C52.3634 10.9999 52.4573 11.4533 52.4613 11.9647C52.4573 12.7158 52.2656 13.367 51.886 13.9183C51.5105 14.4656 50.9672 14.8911 50.2561 15.1947C49.5489 15.4943 48.696 15.6441 47.6973 15.6441C46.7065 15.6441 45.8436 15.4923 45.1085 15.1887C44.3774 14.8851 43.8061 14.4356 43.3946 13.8404C42.9871 13.2411 42.7734 12.5 42.7534 11.6171H45.2643C45.2923 12.0286 45.4101 12.3722 45.6178 12.6478C45.8296 12.9195 46.1112 13.1253 46.4628 13.2651C46.8183 13.4009 47.2198 13.4688 47.6673 13.4688C48.1067 13.4688 48.4883 13.4049 48.8119 13.2771C49.1395 13.1492 49.3931 12.9714 49.5729 12.7437C49.7527 12.516 49.8426 12.2543 49.8426 11.9587C49.8426 11.683 49.7607 11.4513 49.5969 11.2636C49.4371 11.0758 49.2014 10.916 48.8898 10.7842C48.5821 10.6523 48.2046 10.5325 47.7572 10.4246L46.4208 10.089C45.3861 9.83733 44.5692 9.44382 43.9699 8.90849C43.3706 8.37315 43.073 7.65205 43.077 6.74517C43.073 6.0021 43.2708 5.3529 43.6703 4.79759C44.0738 4.24228 44.6271 3.80882 45.3302 3.49721C46.0333 3.18559 46.8323 3.02979 47.7272 3.02979C48.6381 3.02979 49.4331 3.18559 50.1122 3.49721C50.7954 3.80882 51.3267 4.24228 51.7063 4.79759C52.0858 5.3529 52.2815 5.9961 52.2935 6.7272H49.8066Z" fill="#FFF1DD"/>
</svg>
