<svg width="170" height="161" viewBox="0 0 170 161" fill="none" xmlns="http://www.w3.org/2000/svg">
<path d="M61.1833 77.2119L61.9459 71.5751C62.3566 68.5806 60.4207 66.1145 57.6637 66.1145H12.4946L11.0281 77.2119L10.1481 84.0817L1.70093 148.317C0.762351 155.305 5.2206 161 11.6733 161H110.224C116.618 161 122.602 155.305 123.54 148.317L132.926 77.2119H61.1833Z" fill="#969696"/>
<path d="M8.85742 106.042H96.7318L106 8.33771H18.1259L8.85742 106.042Z" fill="#D9D9D9"/>
<path d="M5.63086 102.46H94.7958L101.307 2.17249H23.5812L5.63086 102.46Z" fill="#AF90C1"/>
<path d="M95.5579 105.924H7.74219V10.5689L18.3012 0H95.5579V105.924Z" fill="white"/>
<path d="M47.6913 8.33771H13.7852V62.0044H47.6913V8.33771Z" fill="#D9D9D9"/>
<path d="M45.3443 10.3928L15.9551 59.5383" stroke="white" stroke-miterlimit="10" stroke-linecap="round" stroke-linejoin="round"/>
<path d="M15.9551 10.3928L45.3443 59.5383" stroke="white" stroke-miterlimit="10" stroke-linecap="round" stroke-linejoin="round"/>
<path d="M89.8675 8.33771H53.9082V12.5066H89.8675V8.33771Z" fill="#AF90C1"/>
<path d="M73.5597 15.7947H53.9082V18.4369H73.5597V15.7947Z" fill="#868686"/>
<path d="M33.4366 63.7659H13.7852V66.4081H33.4366V63.7659Z" fill="#868686"/>
<path d="M47.6913 67.5824H13.7852V68.9329H47.6913V67.5824Z" fill="#D9D9D9"/>
<path d="M47.6913 70.1072H13.7852V71.4577H47.6913V70.1072Z" fill="#D9D9D9"/>
<path d="M89.8675 22.7232H53.9082V23.6627H89.8675V22.7232Z" fill="#D9D9D9"/>
<path d="M89.8675 27.6553H53.9082V28.5948H89.8675V27.6553Z" fill="#D9D9D9"/>
<path d="M89.8675 32.5875H53.9082V33.527H89.8675V32.5875Z" fill="#D9D9D9"/>
<path d="M89.8675 37.5197H53.9082V38.4592H89.8675V37.5197Z" fill="#D9D9D9"/>
<path d="M89.8675 42.4518H53.9082V43.3913H89.8675V42.4518Z" fill="#D9D9D9"/>
<path d="M89.8675 47.384H53.9082V48.3235H89.8675V47.384Z" fill="#D9D9D9"/>
<path d="M89.8675 52.3162H53.9082V53.2556H89.8675V52.3162Z" fill="#D9D9D9"/>
<path d="M89.8675 57.3071H53.9082V58.2465H89.8675V57.3071Z" fill="#D9D9D9"/>
<path d="M89.8675 62.2393H53.9082V63.1787H89.8675V62.2393Z" fill="#D9D9D9"/>
<path d="M89.8675 67.1714H53.9082V68.1108H89.8675V67.1714Z" fill="#D9D9D9"/>
<path d="M89.8675 72.1036H53.9082V73.043H89.8675V72.1036Z" fill="#D9D9D9"/>
<path d="M89.8675 77.0358H53.9082V77.9752H89.8675V77.0358Z" fill="#D9D9D9"/>
<path d="M95.5598 83.9643L51.9159 81.8505V78.0339C51.9159 74.8045 49.2762 72.1623 46.0498 72.1623L7.80273 72.1036V78.8559L56.7848 101.344" fill="#D9D9D9"/>
<path d="M50.1553 84.0817V78.9146C50.1553 76.155 47.9262 73.9238 45.1691 73.9238H0V84.1404V90.423V149.374C0 155.774 5.22084 161 11.6149 161H110.166C116.56 161 121.781 155.774 121.781 149.374V84.0817H50.1553Z" fill="#B4B4B4"/>
<path d="M85.9981 17.2286C75.6581 27.1284 75.2984 43.643 85.1889 54.0378C95.0794 64.3876 111.579 64.7476 121.964 54.8478C132.304 44.948 132.663 28.4334 122.773 18.0386C112.837 7.64386 96.3382 7.28387 85.9981 17.2286ZM117.917 22.6285C125.29 30.3234 125.021 42.6081 117.333 49.9879C109.645 57.3677 97.3722 57.0977 89.9993 49.4029C82.6264 41.7081 82.8961 29.4234 90.5837 22.0435C98.3163 14.6637 110.545 14.9337 117.917 22.6285Z" fill="#AF90C1"/>
<path opacity="0.19" d="M83.0304 35.7683C83.0304 47.2003 92.2892 56.4678 103.711 56.4678C115.132 56.4678 124.391 47.2003 124.391 35.7683C124.391 24.3362 115.132 15.0687 103.711 15.0687C92.2892 15.0687 83.0304 24.3362 83.0304 35.7683Z" fill="#006BFF"/>
<path d="M86.2671 18.3086C76.6464 27.9384 76.6464 43.5981 86.2671 53.2278C95.8879 62.8576 111.533 62.8576 121.154 53.2278C130.774 43.5981 130.774 27.9384 121.154 18.3086C111.488 8.63385 95.8879 8.63385 86.2671 18.3086ZM118.321 50.3929C110.229 58.4927 97.1467 58.4927 89.0994 50.3929C81.0072 42.2931 81.0072 29.1984 89.0994 21.1436C97.1916 13.0438 110.274 13.0438 118.321 21.1436C126.369 29.1984 126.369 42.2931 118.321 50.3929Z" fill="#AF90C1"/>
<path d="M150.151 82.2522C147.813 84.5921 143.992 84.5921 141.609 82.2522L124.031 64.6126L132.573 56.0627L150.196 73.7023C152.533 76.0423 152.533 79.8672 150.151 82.2522Z" fill="#AF90C1"/>
<path d="M133.022 57.8627L125.784 65.1076C124.84 66.0526 123.357 66.0526 122.413 65.1076L117.917 60.6077C116.973 59.6627 116.973 58.1777 117.917 57.2327L125.155 49.9879C126.099 49.0429 127.583 49.0429 128.527 49.9879L133.022 54.4878C133.966 55.4328 133.966 56.9628 133.022 57.8627Z" fill="#AF90C1"/>
<path d="M7.74414 10.5689L18.3031 0L16.6606 11.9194L7.74414 10.5689Z" fill="#D9D9D9"/>
<path d="M7.74414 10.5689L18.3031 0V10.5689H7.74414Z" fill="#D9D9D9"/>
</svg>
