<svg xmlns="http://www.w3.org/2000/svg" width="201" height="200" viewBox="0 0 201 200" fill="none">
<path d="M167.601 148.889C172.993 141.527 172.956 131.092 168.537 119.46C180.962 120.162 190.941 117.026 196.35 109.642C209.551 91.6223 190.281 55.1005 153.354 28.0958C116.427 1.09123 75.7744 -6.19385 62.5798 11.865C57.1872 19.2266 57.2246 29.6622 61.6436 41.2938C49.2184 40.5916 39.2393 43.7275 33.8302 51.1117C28.4376 58.4732 28.475 68.9088 32.8941 80.5405C20.4688 79.8383 10.4898 82.9742 5.08063 90.3583C-8.11969 108.378 11.1497 144.9 48.0771 171.905C85.0045 198.909 125.657 206.195 138.851 188.136C144.244 180.774 144.206 170.338 139.787 158.707C152.213 159.409 162.192 156.273 167.601 148.889Z" fill="#efefef" />
<path d="M135.395 80.668H74.6449C73.2926 80.668 72.1963 81.7642 72.1963 83.1166V144.951C72.1963 146.303 73.2926 147.4 74.6449 147.4H135.395C136.747 147.4 137.843 146.303 137.843 144.951V83.1166C137.843 81.7642 136.747 80.668 135.395 80.668Z" fill="#aeaeae"/>
<path d="M133.302 60.5425C133.302 60.5425 133.289 59.3541 133.289 57.6875H70.1348C70.1348 59.3404 70.1348 60.5425 70.108 60.5425C70.108 60.5425 68.9671 62.1681 67.598 64.1353C66.2288 66.116 65.1147 70.0093 65.1147 72.7824V153.939C65.1147 158.775 69.0073 162.737 73.759 162.737H129.638C134.403 162.737 138.295 158.775 138.295 153.926V72.796C138.295 70.0093 137.181 66.1297 135.812 64.1489C134.443 62.1681 133.772 61.2223 133.302 60.5562V60.5425Z" stroke="#aeaeae" stroke-width="3.99806"/>
<path d="M126.57 40.6387H76.8312C76.1551 40.6387 75.6069 41.1868 75.6069 41.863V48.1025C75.6069 48.7786 76.1551 49.3268 76.8312 49.3268H126.57C127.246 49.3268 127.794 48.7786 127.794 48.1025V41.863C127.794 41.1868 127.246 40.6387 126.57 40.6387Z" stroke="#aeaeae" stroke-width="3.99806"/>
<path d="M69.6729 53.6702C69.6729 55.4871 69.6729 57.0444 69.6729 57.6864H133.74C133.74 57.0307 133.726 55.4734 133.726 53.6702C133.726 51.2796 131.458 49.3262 128.679 49.3262H74.7198C71.9413 49.3262 69.6729 51.2796 69.6729 53.6702Z" stroke="##aeaeae" stroke-width="3.99806"/>
<g style="mix-blend-mode:multiply" opacity="0.2">
<path d="M127.794 44.2725H75.6069V45.1059H127.794V44.2725Z" fill="#FFF1DD"/>
</g>
<g style="mix-blend-mode:multiply" opacity="0.2">
<path d="M70.1367 57.7021C70.1367 58.6449 70.1367 59.4101 70.1367 59.9156H133.291C133.291 59.4101 133.291 58.6449 133.291 57.7021H70.1367Z" fill="#FFF1DD"/>
</g> 
</svg>