<svg width="343" height="339" viewBox="0 0 343 339" fill="none" xmlns="http://www.w3.org/2000/svg">
<path d="M37.9043 0.487549C35.369 -0.0399274 33.0039 1.8658 33.0039 4.45213V130.859C33.0039 132.714 34.0929 134.415 35.8114 135.147C43.3492 138.346 69.0254 145.612 146.581 145.612C224.137 145.612 250.375 138.618 257.454 135.334C259.104 134.569 260.159 132.918 260.159 131.097V4.45213C260.159 1.8658 257.794 -0.0399274 255.259 0.487549C241.102 3.41419 197.798 5.55812 146.581 5.55812C95.3652 5.55812 52.0611 3.43121 37.9043 0.487549Z" fill="#FF4800"/>
<path d="M136.534 39.9475C135.046 42.2238 133.367 44.5807 131.498 47.0181C129.669 49.4294 127.596 51.7713 125.278 54.0436C124.619 54.6986 123.976 54.9591 123.347 54.825C122.95 54.7403 122.637 54.587 122.408 54.3651C122.186 54.1102 122.007 53.8126 121.872 53.4726C121.294 51.9658 120.817 50.394 120.44 48.7572C120.063 47.1203 119.744 45.2885 119.485 43.2618C118.166 44.7442 116.727 46.2185 115.169 47.6846C113.644 49.1577 112.028 50.4904 110.321 51.6826C109.993 51.9239 109.67 52.0624 109.351 52.0981C109.065 52.1409 108.843 52.1281 108.685 52.0597C108.011 51.8122 107.557 51.2657 107.322 50.4202C106.585 47.8764 106.295 45.1858 106.451 42.3484C106.606 39.5109 106.975 36.6497 107.556 33.7646C107.612 33.4999 107.768 33.2565 108.023 33.0342C108.278 32.8119 108.6 32.7596 108.99 32.8774C109.578 33.0375 109.992 33.3679 110.231 33.8685C110.477 34.3361 110.57 34.8746 110.509 35.4842C110.399 36.3253 110.28 37.2858 110.154 38.3655C110.034 39.4122 109.941 40.499 109.873 41.626C109.806 42.7529 109.795 43.8574 109.841 44.9394C109.886 46.0213 110.027 46.9851 110.261 47.8307C110.892 47.308 111.569 46.7262 112.294 46.0854C113.019 45.4445 113.734 44.767 114.44 44.0529C115.178 43.3459 115.884 42.6318 116.557 41.9107C117.236 41.1564 117.863 40.4081 118.436 39.6658C118.821 39.1599 119.23 38.8666 119.662 38.7859C120.094 38.7052 120.426 38.6896 120.658 38.739C121.65 38.9507 122.226 39.5751 122.385 40.612C122.651 42.1214 122.899 43.7135 123.13 45.3883C123.394 47.0701 123.725 48.6799 124.123 50.2175C124.916 49.4182 125.75 48.5068 126.626 47.4831C127.501 46.4593 128.364 45.4155 129.213 44.3517C130.07 43.2547 130.894 42.1507 131.684 41.0397C132.508 39.9357 133.251 38.8837 133.914 37.8838C134.164 37.5221 134.516 37.2513 134.969 37.0714C135.423 36.8914 135.849 36.9997 136.249 37.3963C136.563 37.7055 136.73 38.1388 136.749 38.6964C136.809 39.2279 136.737 39.6449 136.534 39.9475ZM156.501 43.5849C156.392 46.3633 156.168 49.117 155.828 51.8459C155.495 54.5418 155.112 57.227 154.68 59.9017C154.649 60.2065 154.56 60.4641 154.411 60.6745C154.269 60.8518 154.098 61.0055 153.898 61.1356C153.73 61.2728 153.553 61.3734 153.366 61.4373C153.213 61.5083 153.086 61.5333 152.987 61.5121C152.623 61.4344 152.295 61.1914 152.001 60.7829C151.748 60.3485 151.649 59.843 151.702 59.2665C151.871 57.9883 152.04 56.71 152.209 55.4318C152.378 54.1535 152.531 52.8718 152.667 51.5865C148.988 51.8047 145.136 51.8648 141.111 51.7668C141.088 52.5228 141.065 53.2788 141.042 54.0348C141.019 54.7908 141.012 55.5504 141.023 56.3134C141.027 56.4528 140.998 56.6714 140.935 56.9691C140.904 57.2739 140.821 57.5846 140.684 57.9013C140.58 58.2251 140.414 58.5182 140.185 58.7806C139.996 59.017 139.739 59.1696 139.413 59.2384C139.141 59.215 138.878 59.0723 138.622 58.8103C138.367 58.5483 138.211 58.3075 138.154 58.0878C137.976 56.9776 137.856 55.6725 137.796 54.1724C137.769 52.6793 137.789 51.1271 137.856 49.5159C137.963 47.8786 138.14 46.2389 138.386 44.5968C138.633 42.9546 138.948 41.3963 139.332 39.9218C139.504 39.4397 139.76 39.1312 140.1 38.9962C140.48 38.8352 140.803 38.783 141.067 38.8394C141.365 38.903 141.592 39.0551 141.748 39.296C141.937 39.5439 142.066 39.8308 142.135 40.1567C142.204 40.4827 142.24 40.8016 142.242 41.1134C142.245 41.4253 142.225 41.6804 142.183 41.8789C141.99 42.9446 141.817 43.9972 141.665 45.0368C141.512 46.0764 141.409 47.1267 141.356 48.1874C143.092 48.3158 144.995 48.3933 147.065 48.4198C149.141 48.4133 151.113 48.3324 152.979 48.1772C153.075 47.4022 153.155 46.6237 153.218 45.8416C153.288 45.0265 153.355 44.228 153.418 43.4459C153.538 42.8836 153.809 42.4226 154.232 42.0632C154.687 41.7108 155.097 41.5734 155.461 41.651C155.725 41.7075 155.962 41.8963 156.17 42.2174C156.411 42.5455 156.522 43.0014 156.501 43.5849ZM173.842 55.0669C173.904 55.426 173.701 55.7285 173.234 55.9746C172.773 56.1877 172.102 56.2521 171.221 56.1678C169.69 56.0487 168.122 55.939 166.518 55.8388C164.921 55.7056 163.287 55.5818 161.617 55.4676C161.191 57.1406 160.831 58.8277 160.537 60.5289C161.298 60.6912 162.222 60.8192 163.309 60.9127C164.436 60.9802 165.586 61.0182 166.76 61.0266C167.934 61.035 169.059 61.0328 170.134 61.0201C171.249 60.9813 172.188 60.9568 172.951 60.9467C173.336 60.9251 173.731 60.9401 174.135 60.9917C174.546 61.0103 174.893 61.0844 175.177 61.2141C175.5 61.3177 175.74 61.49 175.896 61.7308C176.053 61.9716 176.092 62.274 176.014 62.6379C175.993 62.7371 175.846 62.8613 175.572 63.0104C175.298 63.1594 174.954 63.3109 174.541 63.4649C174.168 63.5928 173.761 63.7136 173.322 63.8274C172.923 63.9152 172.564 63.9769 172.245 64.0126C170.053 64.2366 167.911 64.385 165.821 64.4577C163.737 64.4974 161.749 64.3326 159.856 63.9634C158.757 63.7635 157.99 63.3059 157.555 62.5904C157.127 61.8419 157.02 60.8852 157.234 59.7203C157.513 58.0853 157.863 56.4478 158.282 54.8078C157.79 54.357 157.608 53.8339 157.735 53.2385C157.935 52.624 158.324 52.2575 158.903 52.1389C159.174 51.1937 159.428 50.2449 159.666 49.2926C159.911 48.3073 160.169 47.342 160.439 46.3967C160.09 46.2529 159.798 46.0004 159.564 45.6392C159.362 45.285 159.301 44.9259 159.378 44.562C159.442 44.2643 159.564 44.0138 159.746 43.8104C159.935 43.574 160.225 43.4285 160.618 43.3738C161.241 43.3685 162.001 43.3749 162.896 43.393C163.792 43.4112 164.7 43.4493 165.621 43.5076C166.576 43.5729 167.477 43.6441 168.325 43.7213C169.207 43.8056 169.949 43.8947 170.551 43.9887C171.26 44.0708 171.907 44.2781 172.494 44.6107C173.113 44.9503 173.644 45.4613 174.086 46.1437C174.12 46.635 173.946 46.9612 173.566 47.1222C173.219 47.2902 172.79 47.3544 172.28 47.3147C171.769 47.275 171.156 47.2306 170.44 47.1817C169.732 47.0996 168.986 47.027 168.204 46.9639C167.455 46.9079 166.69 46.8483 165.908 46.7852C165.166 46.6961 164.454 46.6306 163.771 46.5887C163.757 46.6548 163.739 46.7375 163.718 46.8368C163.737 46.91 163.739 46.9797 163.725 47.0459C163.475 47.8918 163.242 48.7414 163.026 49.5944C162.809 50.4474 162.592 51.3005 162.376 52.1535C163.815 52.2184 165.28 52.3234 166.77 52.4686C168.268 52.5806 169.454 52.6953 170.329 52.8127C171.037 52.8948 171.698 53.1221 172.31 53.4949C172.922 53.8676 173.433 54.3916 173.842 55.0669ZM187.545 59.2876C187.3 59.7887 187.002 60.5378 186.651 61.5351C186.34 62.5064 186.015 63.5438 185.676 64.6473C185.377 65.7249 185.085 66.7694 184.8 67.7807C184.548 68.7992 184.362 69.5896 184.242 70.152C184.037 71.1113 183.405 71.4781 182.347 71.2522C181.983 71.1746 181.657 71.0012 181.368 70.7321C181.113 70.4701 181.045 70.0579 181.165 69.4956C181.462 68.1062 181.832 66.6116 182.278 65.0118C182.723 63.412 183.211 61.7697 183.744 60.0848C183.038 57.7206 182.391 55.4036 181.803 53.1338C181.248 50.871 180.807 48.8054 180.479 46.937C180.41 46.611 180.362 46.2721 180.333 45.9201C180.344 45.5421 180.382 45.2042 180.445 44.9065C180.542 44.6158 180.678 44.3854 180.852 44.2151C181.034 44.0118 181.297 43.9123 181.642 43.9167C182.013 43.9613 182.353 44.0685 182.663 44.2383C183.013 44.3821 183.281 44.6642 183.468 45.0845C183.585 45.8357 183.746 46.7002 183.953 47.6781C184.159 48.656 184.378 49.6539 184.611 50.6719C184.843 51.69 185.083 52.6749 185.329 53.6268C185.583 54.5455 185.811 55.3379 186.015 56.004C187.927 54.3367 189.767 52.6022 191.535 50.8005C193.336 49.0058 195.017 47.2891 196.577 45.6506C197.148 45.0807 197.672 44.8121 198.15 44.8448C198.627 44.8774 198.986 45.0578 199.227 45.386C199.45 45.6409 199.528 46.0035 199.462 46.4737C199.43 46.9509 199.292 47.3539 199.049 47.6825C198.275 48.5549 197.38 49.5054 196.365 50.534C195.39 51.5365 194.379 52.5485 193.331 53.5701C192.316 54.5986 191.304 55.6107 190.297 56.6061C189.289 57.6016 188.372 58.4955 187.545 59.2876ZM80.884 91.1487C80.7733 91.5055 80.5834 91.8282 80.3143 92.1166C80.0854 92.3791 79.7925 92.4549 79.4357 92.3442C78.8804 92.1911 78.43 91.8702 78.0847 91.3815C77.7724 90.8999 77.6445 90.5267 77.701 90.262C78.3481 87.3911 78.8735 84.4423 79.2772 81.4156C79.721 78.3629 80.0289 75.2985 80.201 72.2224C80.2293 72.0901 80.2941 71.9483 80.3956 71.797C80.49 71.6788 80.6044 71.5476 80.739 71.4033C80.8805 71.226 81.0848 71.0794 81.3516 70.9634C81.6044 70.9136 81.8489 70.983 82.0854 71.1718C82.3548 71.3677 82.5937 71.6261 82.8019 71.9472C83.01 72.2684 83.1781 72.6155 83.306 72.9887C83.4339 73.3618 83.5157 73.7078 83.5514 74.0267C83.5095 74.7095 83.4535 75.4585 83.3833 76.2736C83.3132 77.0887 83.2194 77.9334 83.1021 78.8076C83.9878 78.5469 84.851 78.2296 85.6917 77.8556C86.5324 77.4816 87.2844 77.0368 87.9478 76.5211C88.6443 76.0126 89.212 75.4593 89.6509 74.8612C90.0968 74.23 90.3478 73.54 90.4038 72.791C90.4577 72.2145 90.319 71.6488 89.9877 71.0939C89.6565 70.5391 89.069 70.0505 88.2252 69.6284C86.273 68.7277 84.4406 68.3194 82.7279 68.4036C81.0222 68.4547 79.3227 68.8012 77.6294 69.4429C77.1288 69.6819 76.6894 69.7957 76.3114 69.7843C75.9334 69.7728 75.6227 69.6892 75.3792 69.5335C75.1358 69.3778 74.969 69.1866 74.8791 68.9598C74.7891 68.7331 74.7653 68.5205 74.8076 68.322C75.0361 67.5753 75.5447 66.9748 76.3334 66.5205C77.1622 66.0402 78.0029 65.6662 78.8555 65.3985C79.9538 65.114 81.266 64.9616 82.7921 64.9414C84.3183 64.9211 85.7985 65.1159 87.2329 65.5257C88.7074 65.9095 90.0227 66.5533 91.1787 67.4571C92.3348 68.3609 93.1119 69.5816 93.5102 71.1192C93.7858 72.9073 93.6005 74.4242 92.9543 75.6698C92.3412 76.9224 91.4716 77.9993 90.3455 78.9004C89.2194 79.8015 87.9455 80.5846 86.5239 81.2497C85.1093 81.8817 83.7751 82.4617 82.5211 82.9897C82.2767 84.4593 82.0062 85.8889 81.7098 87.2783C81.4464 88.6747 81.1712 89.9648 80.884 91.1487ZM95.6921 93.3743C95.854 92.1292 96.0678 90.7221 96.3334 89.1532C96.632 87.5914 96.9542 85.9999 97.3001 84.379C97.653 82.725 97.9988 81.104 98.3376 79.5161C98.7095 77.9353 99.0662 76.5069 99.4076 75.2308C99.4782 74.9 99.68 74.6837 100.013 74.5818C100.386 74.4539 100.668 74.4277 100.86 74.5031C101.441 74.6963 101.792 74.996 101.913 75.4023C102.074 75.7825 102.121 76.2939 102.053 76.9366C101.794 77.9881 101.535 79.0396 101.276 80.0911C101.05 81.1497 100.841 82.2118 100.648 83.2775C102.193 83.3304 103.55 83.0493 104.719 82.434C105.921 81.8258 106.85 81.0383 107.506 80.0714C107.756 79.7098 107.974 79.2548 108.16 78.7065C108.379 78.1653 108.516 77.6065 108.57 77.03C108.631 76.4204 108.582 75.8393 108.423 75.2866C108.304 74.7079 108.028 74.2168 107.596 73.8132C106.96 73.2279 106.215 72.8269 105.362 72.6103C104.509 72.3937 103.588 72.3355 102.598 72.4356C101.648 72.5097 100.663 72.7491 99.6432 73.154C98.656 73.566 97.6938 74.1043 96.7565 74.769C96.7499 75.2863 96.5884 75.7188 96.2722 76.0664C95.9629 76.3809 95.5757 76.5749 95.1103 76.6486C94.8316 76.6583 94.5455 76.4589 94.2522 76.0505C93.966 75.6089 93.8617 75.2062 93.9393 74.8423C94.2216 73.5191 94.829 72.4555 95.7615 71.6514C96.7341 70.8213 97.8533 70.1954 99.1193 69.7738C100.385 69.3522 101.698 69.1136 103.059 69.058C104.42 69.0025 105.646 69.0912 106.738 69.3241C108.359 69.6699 109.613 70.439 110.5 71.6313C111.394 72.7904 111.888 74.1236 111.981 75.6308C112.146 78.2601 111.488 80.4542 110.006 82.2132C108.557 83.9792 106.503 85.3394 103.843 86.2939C105.338 87.7195 106.727 89.0708 108.011 90.3477C109.328 91.6317 110.627 92.9985 111.909 94.4479C112.065 94.6887 112.217 95.0323 112.364 95.4787C112.551 95.899 112.397 96.4543 111.904 97.1446C111.607 97.5654 111.203 97.7559 110.693 97.7162C110.223 97.6505 109.791 97.4028 109.399 96.9732C108.798 96.2225 108.102 95.434 107.309 94.6079C106.557 93.7557 105.752 92.9095 104.894 92.0692C104.043 91.1958 103.184 90.3555 102.319 89.5483C101.461 88.7081 100.641 87.928 99.8612 87.2081C99.6119 88.5384 99.3461 89.8652 99.0638 91.1884C98.8216 92.4856 98.5995 93.7698 98.3975 95.041C98.2986 95.5041 98.0957 95.8067 97.7887 95.9487C97.4888 96.0577 97.1404 96.0698 96.7434 95.9851C96.552 95.9097 96.3912 95.7716 96.2611 95.5709C96.138 95.3371 96.0185 95.0868 95.9025 94.82C95.8266 94.5271 95.7638 94.2543 95.714 94.0015C95.6712 93.7157 95.6639 93.5066 95.6921 93.3743ZM133.165 91.2529C132.769 92.1368 132.214 92.9524 131.502 93.6995C130.829 94.4207 130.084 95.0746 129.267 95.6612C128.45 96.2478 127.589 96.7211 126.682 97.081C125.808 97.4479 124.942 97.6956 124.085 97.8239C122.516 98.0426 121.022 97.914 119.602 97.4381C118.222 96.9361 117.089 96.0027 116.204 94.638C115.641 93.5494 115.318 92.3909 115.234 91.1625C115.183 89.9411 115.285 88.735 115.539 87.5441C115.833 86.3272 116.249 85.1881 116.787 84.1269C117.358 83.0727 117.986 82.152 118.673 81.3647C119.495 80.4331 120.393 79.7082 121.368 79.19C122.343 78.6718 123.341 78.4523 124.362 78.5318C124.641 78.5221 124.842 78.6341 124.965 78.8679C125.088 79.1017 125.121 79.3509 125.064 79.6155C125.466 79.3553 126.032 79.2166 126.762 79.1994C127.492 79.1822 128.272 79.3315 129.104 79.6474C130.65 80.1846 131.805 80.9325 132.569 81.891C133.332 82.8495 133.82 83.8874 134.031 85.0046C134.283 86.0959 134.288 87.2038 134.048 88.3286C133.849 89.4273 133.554 90.4021 133.165 91.2529ZM123.809 82.0972C123.084 82.2538 122.426 82.5804 121.836 83.077C121.286 83.5476 120.784 84.1151 120.331 84.7793C119.911 85.4506 119.56 86.2058 119.277 87.0447C119.035 87.8576 118.862 88.6681 118.758 89.4761C118.611 90.6551 118.753 91.6886 119.186 92.5765C119.627 93.4313 120.475 93.9928 121.732 94.261C122.46 94.4163 123.199 94.4357 123.951 94.3193C124.742 94.1768 125.485 93.9376 126.179 93.6015C126.873 93.2654 127.536 92.836 128.166 92.3134C128.803 91.7576 129.345 91.1642 129.791 90.533C130.034 90.2044 130.261 89.786 130.474 89.2779C130.693 88.7367 130.846 88.1814 130.933 87.612C131.027 87.0095 131.014 86.4189 130.896 85.8402C130.777 85.2615 130.509 84.7372 130.09 84.2675C129.501 83.623 128.738 83.1489 127.8 82.8449C126.861 82.541 125.807 82.5408 124.635 82.8442C124.408 82.9342 124.17 82.9178 123.919 82.7952C123.709 82.6466 123.672 82.4139 123.809 82.0972ZM159.052 87.0745C155.68 86.1821 152.348 85.748 149.057 85.7722C145.766 85.7964 142.456 86.0757 139.125 86.6102C138.268 86.7386 137.663 86.5749 137.31 86.1193C136.991 85.6707 136.87 85.2644 136.948 84.9005C137.313 84.3214 137.836 83.8969 138.516 83.627C146.004 81.7658 153.046 81.9887 159.645 84.2957C159.954 84.4656 160.166 84.7701 160.28 85.2094C160.434 85.6227 160.449 85.9547 160.327 86.2052C160.19 86.5219 160.031 86.7819 159.849 86.9852C159.674 87.1555 159.408 87.1852 159.052 87.0745ZM148.311 102.889C148.233 103.253 148.03 103.555 147.702 103.797C147.414 104.012 147.081 104.114 146.703 104.102C146.02 104.06 145.615 103.853 145.487 103.48C145.359 103.107 145.324 102.701 145.383 102.264C145.844 99.9416 146.285 97.6319 146.706 95.3352C147.167 93.0125 147.561 90.6756 147.89 88.3247C147.918 88.1924 147.934 88.04 147.936 87.8675C147.945 87.662 147.984 87.48 148.052 87.3217C148.128 87.1303 148.229 86.979 148.357 86.8678C148.517 86.7637 148.737 86.7068 149.016 86.6971C149.805 86.7272 150.322 86.9759 150.568 87.4435C150.822 87.878 150.909 88.2771 150.832 88.641C150.588 91.0793 150.249 93.4799 149.814 95.8427C149.379 98.2056 148.878 100.554 148.311 102.889ZM175.203 98.3026C175.265 98.6616 175.062 98.9642 174.594 99.2103C174.134 99.4233 173.463 99.4877 172.582 99.4034C171.051 99.2843 169.483 99.1747 167.879 99.0745C166.282 98.9412 164.648 98.8175 162.978 98.7032C162.551 100.376 162.192 102.063 161.898 103.765C162.659 103.927 163.582 104.055 164.669 104.148C165.796 104.216 166.947 104.254 168.121 104.262C169.295 104.271 170.42 104.268 171.494 104.256C172.61 104.217 173.549 104.192 174.312 104.182C174.697 104.161 175.091 104.176 175.495 104.227C175.906 104.246 176.254 104.32 176.537 104.45C176.861 104.553 177.101 104.726 177.257 104.966C177.413 105.207 177.453 105.51 177.375 105.874C177.354 105.973 177.206 106.097 176.932 106.246C176.658 106.395 176.315 106.547 175.901 106.701C175.528 106.828 175.122 106.949 174.683 107.063C174.284 107.151 173.925 107.213 173.606 107.248C171.413 107.472 169.272 107.621 167.181 107.693C165.098 107.733 163.109 107.568 161.217 107.199C160.118 106.999 159.351 106.542 158.916 105.826C158.487 105.078 158.38 104.121 158.594 102.956C158.874 101.321 159.223 99.6834 159.642 98.0435C159.151 97.5927 158.968 97.0696 159.095 96.4741C159.296 95.8597 159.685 95.4932 160.264 95.3745C160.535 94.4293 160.789 93.4805 161.027 92.5283C161.271 91.5429 161.529 90.5776 161.8 89.6324C161.45 89.4886 161.158 89.236 160.924 88.8748C160.723 88.5206 160.661 88.1616 160.739 87.7977C160.802 87.5 160.925 87.2494 161.107 87.0461C161.296 86.8097 161.586 86.6641 161.978 86.6094C162.602 86.6042 163.361 86.6106 164.257 86.6287C165.152 86.6468 166.061 86.685 166.982 86.7432C167.937 86.8085 168.838 86.8798 169.686 86.957C170.567 87.0413 171.309 87.1304 171.912 87.2243C172.621 87.3064 173.268 87.5137 173.854 87.8463C174.473 88.186 175.004 88.697 175.447 89.3793C175.48 89.8707 175.307 90.1969 174.927 90.3578C174.58 90.5259 174.151 90.59 173.64 90.5503C173.13 90.5106 172.517 90.4663 171.801 90.4173C171.092 90.3352 170.347 90.2627 169.565 90.1996C168.816 90.1435 168.05 90.084 167.268 90.0209C166.527 89.9318 165.814 89.8662 165.131 89.8243C165.117 89.8905 165.1 89.9732 165.078 90.0724C165.097 90.1457 165.1 90.2153 165.086 90.2815C164.836 91.1275 164.603 91.977 164.386 92.83C164.17 93.6831 163.953 94.5361 163.737 95.3892C165.175 95.454 166.64 95.5591 168.131 95.7042C169.629 95.8163 170.815 95.931 171.689 96.0483C172.398 96.1304 173.059 96.3578 173.671 96.7305C174.283 97.1032 174.794 97.6273 175.203 98.3026ZM184.22 108.683C184.225 108.822 184.199 109.024 184.142 109.289C184.093 109.52 183.99 109.758 183.835 110.001C183.686 110.212 183.491 110.395 183.25 110.551C183.05 110.681 182.784 110.711 182.453 110.641C181.824 110.022 181.343 109.28 181.009 108.413C180.956 107.364 180.951 106.17 180.995 104.83C181.072 103.498 181.192 102.123 181.356 100.705C181.528 99.2542 181.735 97.7941 181.98 96.3244C182.257 94.8618 182.557 93.4558 182.88 92.1066C182.929 91.875 183.009 91.5808 183.12 91.224C183.264 90.8742 183.437 90.548 183.64 90.2455C183.85 89.9098 184.079 89.6474 184.327 89.4582C184.582 89.2359 184.891 89.1635 185.255 89.2412C185.685 89.3329 186.004 89.5394 186.212 89.8605C186.421 90.1816 186.461 90.6399 186.334 91.2353C186.019 92.5515 185.715 93.974 185.424 95.5027C185.172 97.0055 184.95 98.5318 184.758 100.082C184.566 101.632 184.413 103.156 184.301 104.654C184.229 106.125 184.202 107.469 184.22 108.683ZM210.59 97.4999C209.758 100.262 208.863 103.08 207.904 105.954C206.985 108.802 205.986 111.459 204.906 113.926C204.639 114.527 204.362 114.935 204.074 115.15C203.786 115.365 203.416 115.476 202.965 115.484C202.587 115.472 202.099 115.247 201.501 114.808C200.936 114.376 200.499 113.834 200.189 113.179C199.788 112.299 199.353 111.341 198.882 110.307C198.451 109.246 197.954 108.172 197.391 107.083C196.868 105.969 196.291 104.86 195.662 103.757C195.066 102.662 194.406 101.621 193.682 100.637C193.117 102.799 192.572 104.948 192.047 107.084C191.529 109.187 191.074 111.321 190.681 113.485C190.618 113.783 190.321 113.876 189.792 113.763C189.163 113.629 188.718 113.205 188.455 112.492C188.199 111.745 188.109 111.034 188.184 110.359C188.225 109.676 188.377 108.722 188.638 107.498C188.906 106.241 189.202 104.938 189.524 103.589C189.88 102.247 190.225 100.954 190.559 99.7112C190.893 98.4683 191.171 97.49 191.393 96.7763C191.628 95.9965 191.934 95.4564 192.309 95.156C192.718 94.8627 193.067 94.7644 193.358 94.861C194.005 95.0683 194.393 95.3585 194.521 95.7317C194.689 96.0788 194.74 96.4875 194.674 96.9577C195.682 98.0719 196.576 99.231 197.356 100.435C198.17 101.646 198.881 102.853 199.489 104.055C200.131 105.264 200.689 106.455 201.165 107.629C201.681 108.777 202.165 109.831 202.617 110.792C203.438 108.892 204.225 106.743 204.979 104.344C205.766 101.953 206.577 99.4454 207.414 96.8224C207.451 96.4845 207.717 96.2126 208.21 96.0066C208.711 95.7676 209.14 95.7034 209.497 95.8141C210.409 96.0779 210.773 96.6398 210.59 97.4999Z" fill="#FFF1DD"/>
<path d="M72.0569 146.012C72.1803 146.349 72.3772 146.679 72.412 147.026C73.0194 153.381 75.2617 159.238 78.5887 164.558C91.175 184.661 108.527 198.965 131.033 206.768C133.722 207.699 136.587 208.105 139.374 208.757C139.473 208.562 139.572 208.366 139.667 208.174C139.108 207.698 138.559 207.21 137.985 206.749C136.3 205.392 134.606 204.059 132.926 202.693C132.495 202.342 132.018 201.974 131.782 201.502C131.603 201.142 131.606 200.479 131.834 200.189C132.057 199.901 132.715 199.723 133.089 199.831C133.681 200 134.226 200.407 134.729 200.788C137.917 203.21 141.086 205.65 144.258 208.094C144.575 208.334 144.892 208.593 145.154 208.886C146.167 210.014 146.292 210.885 145.168 211.782C142.161 214.171 139.051 216.437 135.945 218.7C135.223 219.229 134.388 219.171 133.846 218.338C133.321 217.531 133.588 216.768 134.299 216.223C136.202 214.765 138.137 213.347 140.142 211.853C139.882 211.635 139.732 211.405 139.557 211.382C128.436 209.85 118.569 205.193 109.28 199.153C97.8797 191.743 88.094 182.605 80.275 171.456C76.439 165.985 73.2678 160.136 71.8411 153.528C71.4062 151.513 71.3767 149.407 71.2165 147.338C71.1841 146.913 71.3788 146.471 71.4711 146.036C71.6677 146.027 71.8575 146.017 72.0542 146.008L72.0569 146.012Z" fill="#2D459A"/>
<g filter="url(#filter0_d_980_43203)">
<g clip-path="url(#clip0_980_43203)">
<rect x="164" y="99" width="146.099" height="210.877" rx="14.6152" fill="#F9F9F9"/>
<path d="M279.585 184.696C279.481 184.558 279.363 184.419 279.259 184.287C279.044 184.016 278.828 183.739 278.606 183.468C278.475 183.308 278.329 183.149 278.19 182.989C277.982 182.746 277.78 182.503 277.565 182.267C277.413 182.094 277.246 181.927 277.086 181.761C276.871 181.532 276.656 181.296 276.434 181.067C274.678 179.276 273.651 176.895 273.651 174.39V174.05C273.651 173.196 273.526 172.37 273.311 171.579C269.056 172.585 259.18 173.994 237.11 173.994C215.039 173.994 204.872 172.814 200.839 171.843C200.666 172.551 200.569 173.286 200.569 174.05V174.577C200.569 177.076 199.548 179.45 197.799 181.24C197.591 181.448 197.397 181.67 197.196 181.879C197.015 182.073 196.828 182.267 196.647 182.469C196.467 182.67 196.286 182.885 196.113 183.086C195.939 183.288 195.759 183.489 195.592 183.69C195.419 183.898 195.252 184.113 195.086 184.329C194.926 184.53 194.759 184.738 194.6 184.939C194.433 185.161 194.281 185.384 194.114 185.606C193.961 185.814 193.809 186.015 193.663 186.223C193.51 186.445 193.364 186.674 193.212 186.904C193.073 187.112 192.927 187.32 192.795 187.535C192.65 187.764 192.518 187.993 192.379 188.222C192.247 188.437 192.115 188.652 191.99 188.875C191.858 189.104 191.74 189.347 191.609 189.576C191.491 189.798 191.366 190.013 191.255 190.235C191.137 190.471 191.026 190.714 190.908 190.957C190.803 191.179 190.692 191.401 190.588 191.623C190.477 191.866 190.38 192.116 190.276 192.366C190.186 192.588 190.082 192.81 189.998 193.032C189.901 193.289 189.811 193.545 189.714 193.809C189.637 194.024 189.547 194.246 189.478 194.462C189.388 194.718 189.318 194.982 189.235 195.246C189.165 195.468 189.096 195.69 189.034 195.912C188.957 196.176 188.902 196.44 188.832 196.703C188.777 196.925 188.714 197.154 188.666 197.377C188.603 197.654 188.555 197.939 188.499 198.223C188.458 198.438 188.409 198.647 188.374 198.862C188.326 199.16 188.291 199.466 188.249 199.771C188.222 199.972 188.187 200.167 188.166 200.368C188.124 200.715 188.104 201.062 188.083 201.409C188.069 201.569 188.055 201.728 188.041 201.888C188.013 202.394 188 202.908 188 203.415C188 226.311 188 243.537 188 266.434C188 272.076 193.871 277.76 201.193 278.732C225.623 281.369 248.513 281.369 272.985 278.732C273.769 278.628 274.532 278.468 275.268 278.26C281.424 276.511 286.185 271.472 286.185 266.434C286.185 243.537 286.185 226.311 286.185 203.415C286.185 197.05 284.124 191.165 280.494 185.953C280.196 185.529 279.89 185.113 279.578 184.696H279.585Z" fill="white" stroke="#FF4C00" stroke-width="1.09197" stroke-miterlimit="10"/>
<path d="M193.587 206.933C192.572 206.722 191.625 207.485 191.625 208.521V259.141C191.625 259.884 192.061 260.565 192.749 260.858C195.768 262.139 206.05 265.049 237.107 265.049C268.165 265.049 278.672 262.248 281.507 260.933C282.168 260.627 282.59 259.966 282.59 259.237V208.521C282.59 207.485 281.643 206.722 280.628 206.933C274.958 208.105 257.617 208.964 237.107 208.964C216.598 208.964 199.256 208.112 193.587 206.933Z" fill="#FF4800"/>
<path d="M233.129 222.522C232.533 223.434 231.861 224.377 231.112 225.354C230.38 226.319 229.55 227.257 228.621 228.167C228.358 228.429 228.1 228.534 227.848 228.48C227.689 228.446 227.564 228.385 227.472 228.296C227.383 228.194 227.311 228.074 227.257 227.938C227.026 227.335 226.835 226.705 226.684 226.05C226.533 225.394 226.405 224.661 226.302 223.849C225.773 224.443 225.197 225.033 224.573 225.62C223.963 226.21 223.315 226.744 222.632 227.221C222.501 227.318 222.371 227.374 222.243 227.388C222.129 227.405 222.04 227.4 221.976 227.372C221.707 227.273 221.525 227.055 221.431 226.716C221.136 225.697 221.019 224.62 221.082 223.484C221.144 222.347 221.292 221.201 221.524 220.046C221.547 219.94 221.609 219.843 221.711 219.754C221.814 219.665 221.943 219.644 222.099 219.691C222.334 219.755 222.5 219.887 222.596 220.088C222.694 220.275 222.731 220.491 222.707 220.735C222.663 221.072 222.615 221.456 222.565 221.889C222.517 222.308 222.479 222.743 222.452 223.194C222.425 223.646 222.421 224.088 222.439 224.521C222.458 224.954 222.514 225.34 222.608 225.679C222.86 225.47 223.132 225.237 223.422 224.98C223.712 224.723 223.998 224.452 224.281 224.166C224.577 223.883 224.86 223.597 225.129 223.308C225.401 223.006 225.652 222.707 225.882 222.409C226.036 222.207 226.199 222.089 226.372 222.057C226.545 222.025 226.678 222.018 226.771 222.038C227.168 222.123 227.399 222.373 227.463 222.788C227.569 223.393 227.669 224.03 227.761 224.701C227.867 225.374 227.999 226.019 228.159 226.635C228.476 226.315 228.81 225.95 229.161 225.54C229.512 225.13 229.857 224.712 230.197 224.286C230.54 223.846 230.87 223.404 231.187 222.959C231.516 222.517 231.814 222.096 232.08 221.696C232.18 221.551 232.321 221.442 232.502 221.37C232.684 221.298 232.855 221.342 233.015 221.5C233.141 221.624 233.207 221.798 233.215 222.021C233.239 222.234 233.21 222.401 233.129 222.522ZM241.125 223.979C241.081 225.091 240.991 226.194 240.855 227.287C240.722 228.366 240.568 229.442 240.395 230.513C240.383 230.635 240.347 230.738 240.288 230.822C240.231 230.893 240.163 230.955 240.082 231.007C240.015 231.062 239.944 231.102 239.869 231.128C239.808 231.156 239.757 231.166 239.718 231.158C239.572 231.127 239.44 231.029 239.323 230.866C239.221 230.692 239.182 230.489 239.203 230.258C239.271 229.747 239.338 229.235 239.406 228.723C239.474 228.211 239.535 227.698 239.589 227.183C238.116 227.27 236.574 227.294 234.962 227.255C234.952 227.558 234.943 227.861 234.934 228.163C234.925 228.466 234.922 228.77 234.926 229.076C234.928 229.132 234.917 229.219 234.891 229.338C234.879 229.461 234.845 229.585 234.791 229.712C234.749 229.841 234.683 229.959 234.591 230.064C234.515 230.159 234.412 230.22 234.282 230.247C234.173 230.238 234.067 230.181 233.965 230.076C233.863 229.971 233.8 229.874 233.778 229.786C233.706 229.342 233.658 228.819 233.634 228.218C233.623 227.621 233.631 226.999 233.658 226.354C233.701 225.698 233.772 225.041 233.871 224.384C233.969 223.726 234.096 223.102 234.249 222.512C234.318 222.319 234.421 222.195 234.557 222.141C234.709 222.077 234.838 222.056 234.944 222.078C235.063 222.104 235.154 222.165 235.217 222.261C235.293 222.36 235.344 222.475 235.372 222.606C235.399 222.736 235.414 222.864 235.415 222.989C235.416 223.114 235.408 223.216 235.391 223.296C235.314 223.722 235.245 224.144 235.183 224.56C235.122 224.976 235.081 225.397 235.06 225.822C235.755 225.873 236.517 225.904 237.346 225.915C238.178 225.912 238.967 225.88 239.714 225.818C239.753 225.507 239.785 225.196 239.81 224.882C239.838 224.556 239.865 224.236 239.89 223.923C239.938 223.698 240.047 223.513 240.216 223.369C240.398 223.228 240.562 223.173 240.708 223.204C240.814 223.227 240.909 223.302 240.992 223.431C241.089 223.562 241.133 223.745 241.125 223.979ZM248.069 228.577C248.094 228.72 248.013 228.842 247.825 228.94C247.641 229.026 247.372 229.051 247.019 229.018C246.406 228.97 245.779 228.926 245.136 228.886C244.497 228.832 243.842 228.783 243.173 228.737C243.003 229.407 242.859 230.083 242.741 230.764C243.046 230.829 243.416 230.88 243.851 230.918C244.302 230.945 244.763 230.96 245.233 230.963C245.703 230.967 246.154 230.966 246.584 230.961C247.031 230.945 247.407 230.935 247.712 230.931C247.866 230.923 248.024 230.929 248.186 230.949C248.351 230.957 248.49 230.986 248.603 231.038C248.733 231.08 248.829 231.149 248.892 231.245C248.954 231.342 248.97 231.463 248.939 231.609C248.93 231.648 248.871 231.698 248.762 231.758C248.652 231.817 248.514 231.878 248.349 231.94C248.199 231.991 248.037 232.039 247.861 232.085C247.701 232.12 247.557 232.145 247.429 232.159C246.552 232.249 245.694 232.308 244.857 232.337C244.022 232.353 243.226 232.287 242.468 232.139C242.028 232.059 241.721 231.876 241.547 231.59C241.375 231.29 241.332 230.907 241.418 230.44C241.53 229.785 241.67 229.13 241.838 228.473C241.641 228.292 241.568 228.083 241.619 227.845C241.699 227.598 241.855 227.452 242.087 227.404C242.195 227.026 242.297 226.646 242.392 226.264C242.49 225.87 242.593 225.483 242.702 225.105C242.562 225.047 242.445 224.946 242.351 224.801C242.271 224.659 242.246 224.516 242.277 224.37C242.302 224.251 242.351 224.15 242.424 224.069C242.5 223.974 242.616 223.916 242.773 223.894C243.023 223.892 243.327 223.895 243.686 223.902C244.044 223.909 244.408 223.924 244.777 223.948C245.159 223.974 245.52 224.002 245.86 224.033C246.213 224.067 246.51 224.103 246.751 224.14C247.035 224.173 247.294 224.256 247.529 224.389C247.777 224.525 247.99 224.73 248.167 225.003C248.18 225.2 248.111 225.331 247.958 225.395C247.819 225.463 247.648 225.488 247.443 225.472C247.239 225.456 246.994 225.439 246.707 225.419C246.423 225.386 246.124 225.357 245.811 225.332C245.511 225.309 245.205 225.286 244.892 225.26C244.595 225.225 244.309 225.198 244.036 225.182C244.03 225.208 244.023 225.241 244.015 225.281C244.022 225.31 244.023 225.338 244.018 225.365C243.918 225.703 243.824 226.044 243.738 226.385C243.651 226.727 243.564 227.068 243.477 227.41C244.054 227.436 244.64 227.478 245.237 227.536C245.837 227.581 246.312 227.627 246.662 227.674C246.946 227.707 247.21 227.798 247.456 227.947C247.701 228.096 247.905 228.306 248.069 228.577ZM253.557 230.267C253.458 230.468 253.339 230.768 253.198 231.167C253.074 231.556 252.944 231.971 252.808 232.413C252.688 232.845 252.571 233.263 252.457 233.668C252.356 234.076 252.282 234.392 252.234 234.618C252.152 235.002 251.899 235.149 251.475 235.058C251.329 235.027 251.198 234.958 251.083 234.85C250.981 234.745 250.954 234.58 251.002 234.355C251.12 233.798 251.269 233.2 251.447 232.559C251.625 231.919 251.821 231.261 252.034 230.586C251.751 229.639 251.492 228.712 251.257 227.803C251.035 226.896 250.858 226.069 250.727 225.321C250.699 225.191 250.68 225.055 250.668 224.914C250.673 224.762 250.688 224.627 250.713 224.508C250.752 224.392 250.806 224.299 250.876 224.231C250.949 224.15 251.055 224.11 251.193 224.112C251.341 224.129 251.477 224.172 251.601 224.24C251.742 224.298 251.849 224.411 251.924 224.579C251.971 224.88 252.035 225.226 252.118 225.618C252.2 226.009 252.288 226.409 252.381 226.817C252.474 227.224 252.57 227.619 252.669 228C252.771 228.368 252.862 228.685 252.944 228.952C253.71 228.284 254.446 227.59 255.154 226.868C255.876 226.15 256.549 225.462 257.173 224.806C257.402 224.578 257.612 224.47 257.803 224.483C257.994 224.496 258.138 224.569 258.235 224.7C258.324 224.802 258.355 224.947 258.329 225.136C258.316 225.327 258.26 225.488 258.163 225.62C257.853 225.969 257.495 226.35 257.088 226.761C256.698 227.163 256.293 227.568 255.873 227.977C255.467 228.389 255.062 228.794 254.658 229.193C254.255 229.592 253.887 229.95 253.557 230.267ZM210.806 243.203C210.761 243.346 210.685 243.475 210.578 243.59C210.486 243.695 210.369 243.726 210.226 243.682C210.003 243.62 209.823 243.492 209.685 243.296C209.56 243.103 209.509 242.954 209.531 242.848C209.79 241.698 210.001 240.517 210.162 239.305C210.34 238.083 210.463 236.855 210.532 235.624C210.544 235.571 210.57 235.514 210.61 235.453C210.648 235.406 210.694 235.353 210.748 235.296C210.804 235.225 210.886 235.166 210.993 235.119C211.094 235.1 211.192 235.127 211.287 235.203C211.395 235.281 211.49 235.385 211.574 235.513C211.657 235.642 211.724 235.781 211.776 235.93C211.827 236.08 211.86 236.218 211.874 236.346C211.857 236.62 211.835 236.92 211.807 237.246C211.779 237.572 211.741 237.911 211.694 238.261C212.049 238.156 212.394 238.029 212.731 237.879C213.068 237.73 213.369 237.552 213.635 237.345C213.913 237.141 214.141 236.92 214.317 236.68C214.495 236.428 214.596 236.151 214.618 235.851C214.64 235.62 214.584 235.394 214.451 235.172C214.319 234.95 214.084 234.754 213.746 234.585C212.964 234.224 212.23 234.061 211.544 234.094C210.861 234.115 210.181 234.254 209.503 234.511C209.302 234.606 209.126 234.652 208.975 234.647C208.823 234.643 208.699 234.609 208.601 234.547C208.504 234.484 208.437 234.408 208.401 234.317C208.365 234.226 208.356 234.141 208.373 234.062C208.464 233.763 208.668 233.522 208.983 233.34C209.315 233.148 209.652 232.998 209.993 232.891C210.433 232.777 210.959 232.716 211.57 232.708C212.181 232.7 212.774 232.778 213.348 232.942C213.939 233.096 214.465 233.353 214.928 233.715C215.391 234.077 215.703 234.566 215.862 235.182C215.972 235.898 215.898 236.505 215.639 237.004C215.394 237.506 215.046 237.937 214.595 238.298C214.144 238.659 213.634 238.972 213.064 239.239C212.498 239.492 211.964 239.724 211.461 239.935C211.364 240.524 211.255 241.096 211.137 241.653C211.031 242.212 210.921 242.729 210.806 243.203ZM216.736 244.094C216.801 243.595 216.886 243.032 216.993 242.404C217.112 241.778 217.241 241.141 217.38 240.492C217.521 239.829 217.66 239.18 217.795 238.544C217.944 237.911 218.087 237.339 218.224 236.828C218.252 236.696 218.333 236.609 218.466 236.568C218.616 236.517 218.729 236.507 218.805 236.537C219.038 236.614 219.179 236.734 219.227 236.897C219.291 237.049 219.31 237.254 219.283 237.511C219.179 237.933 219.076 238.354 218.972 238.775C218.881 239.199 218.798 239.624 218.72 240.051C219.339 240.072 219.883 239.959 220.351 239.713C220.832 239.469 221.204 239.154 221.467 238.767C221.567 238.622 221.654 238.44 221.729 238.22C221.816 238.004 221.871 237.78 221.893 237.549C221.917 237.305 221.897 237.072 221.834 236.851C221.786 236.619 221.676 236.422 221.503 236.261C221.248 236.026 220.95 235.866 220.608 235.779C220.267 235.692 219.898 235.669 219.501 235.709C219.121 235.739 218.727 235.835 218.318 235.997C217.923 236.162 217.537 236.377 217.162 236.643C217.159 236.851 217.095 237.024 216.968 237.163C216.844 237.289 216.689 237.367 216.503 237.396C216.391 237.4 216.277 237.32 216.159 237.157C216.045 236.98 216.003 236.819 216.034 236.673C216.147 236.143 216.39 235.717 216.764 235.395C217.153 235.063 217.601 234.812 218.108 234.643C218.615 234.474 219.141 234.379 219.686 234.356C220.231 234.334 220.722 234.37 221.159 234.463C221.808 234.601 222.31 234.909 222.666 235.387C223.024 235.851 223.221 236.385 223.259 236.989C223.325 238.041 223.061 238.92 222.468 239.624C221.888 240.332 221.065 240.876 220 241.259C220.598 241.83 221.155 242.371 221.669 242.882C222.196 243.396 222.717 243.943 223.23 244.524C223.292 244.62 223.353 244.758 223.412 244.937C223.487 245.105 223.426 245.327 223.228 245.604C223.109 245.772 222.947 245.849 222.743 245.833C222.555 245.806 222.382 245.707 222.225 245.535C221.984 245.235 221.705 244.919 221.388 244.588C221.087 244.247 220.764 243.908 220.421 243.571C220.08 243.222 219.736 242.885 219.39 242.562C219.046 242.225 218.718 241.913 218.405 241.625C218.305 242.157 218.199 242.689 218.086 243.219C217.989 243.738 217.9 244.252 217.819 244.761C217.78 244.947 217.698 245.068 217.575 245.125C217.455 245.169 217.316 245.173 217.157 245.14C217.08 245.109 217.016 245.054 216.964 244.974C216.914 244.88 216.866 244.78 216.82 244.673C216.79 244.556 216.764 244.446 216.745 244.345C216.727 244.231 216.724 244.147 216.736 244.094ZM231.742 243.244C231.583 243.598 231.361 243.925 231.076 244.224C230.807 244.513 230.508 244.775 230.181 245.01C229.854 245.245 229.509 245.434 229.146 245.578C228.796 245.725 228.449 245.824 228.106 245.876C227.478 245.963 226.879 245.912 226.31 245.721C225.758 245.52 225.304 245.147 224.95 244.6C224.724 244.164 224.595 243.7 224.561 243.208C224.541 242.719 224.582 242.236 224.684 241.759C224.801 241.272 224.968 240.816 225.183 240.391C225.412 239.969 225.664 239.6 225.939 239.285C226.268 238.912 226.627 238.621 227.018 238.414C227.408 238.206 227.808 238.118 228.217 238.15C228.328 238.146 228.409 238.191 228.458 238.285C228.507 238.378 228.521 238.478 228.498 238.584C228.659 238.48 228.885 238.424 229.178 238.418C229.47 238.411 229.783 238.471 230.116 238.597C230.735 238.812 231.197 239.112 231.503 239.495C231.809 239.879 232.004 240.295 232.089 240.742C232.19 241.179 232.192 241.623 232.096 242.073C232.016 242.513 231.898 242.904 231.742 243.244ZM227.995 239.578C227.705 239.641 227.441 239.772 227.205 239.97C226.985 240.159 226.784 240.386 226.603 240.652C226.434 240.921 226.294 241.223 226.181 241.559C226.083 241.885 226.014 242.209 225.973 242.533C225.914 243.005 225.971 243.419 226.144 243.775C226.32 244.117 226.66 244.342 227.164 244.449C227.455 244.511 227.751 244.519 228.052 244.472C228.369 244.415 228.666 244.32 228.944 244.185C229.222 244.05 229.488 243.878 229.74 243.669C229.995 243.447 230.212 243.209 230.391 242.956C230.488 242.825 230.579 242.657 230.664 242.454C230.752 242.237 230.813 242.014 230.848 241.786C230.886 241.545 230.881 241.309 230.833 241.077C230.786 240.845 230.678 240.635 230.511 240.447C230.275 240.189 229.969 239.999 229.593 239.877C229.218 239.756 228.795 239.756 228.326 239.877C228.235 239.913 228.14 239.907 228.039 239.858C227.955 239.798 227.94 239.705 227.995 239.578ZM242.108 241.571C240.758 241.214 239.424 241.04 238.106 241.05C236.788 241.059 235.462 241.171 234.129 241.385C233.785 241.437 233.543 241.371 233.402 241.189C233.274 241.009 233.226 240.846 233.257 240.701C233.403 240.469 233.613 240.299 233.885 240.191C236.883 239.445 239.704 239.535 242.346 240.458C242.47 240.526 242.555 240.648 242.6 240.824C242.662 240.99 242.668 241.123 242.619 241.223C242.564 241.35 242.5 241.454 242.428 241.535C242.358 241.604 242.251 241.616 242.108 241.571ZM237.807 247.904C237.776 248.05 237.695 248.171 237.563 248.268C237.448 248.354 237.315 248.395 237.163 248.39C236.89 248.373 236.727 248.29 236.676 248.141C236.625 247.991 236.611 247.829 236.635 247.654C236.819 246.724 236.996 245.799 237.164 244.879C237.349 243.949 237.507 243.013 237.639 242.072C237.65 242.019 237.656 241.958 237.657 241.889C237.661 241.806 237.676 241.734 237.704 241.67C237.734 241.594 237.774 241.533 237.826 241.488C237.89 241.447 237.978 241.424 238.089 241.42C238.405 241.432 238.613 241.532 238.711 241.719C238.813 241.893 238.848 242.053 238.817 242.199C238.719 243.175 238.583 244.136 238.409 245.082C238.235 246.029 238.034 246.969 237.807 247.904ZM248.576 246.068C248.601 246.211 248.52 246.332 248.333 246.431C248.148 246.516 247.879 246.542 247.527 246.508C246.913 246.461 246.286 246.417 245.643 246.377C245.004 246.323 244.349 246.274 243.681 246.228C243.51 246.898 243.366 247.574 243.248 248.255C243.553 248.32 243.923 248.371 244.358 248.409C244.809 248.436 245.27 248.451 245.74 248.454C246.21 248.457 246.661 248.457 247.091 248.452C247.538 248.436 247.914 248.426 248.219 248.422C248.374 248.413 248.532 248.419 248.693 248.44C248.858 248.448 248.997 248.477 249.111 248.529C249.24 248.571 249.336 248.64 249.399 248.736C249.461 248.833 249.477 248.954 249.446 249.099C249.438 249.139 249.378 249.189 249.269 249.249C249.159 249.308 249.021 249.369 248.856 249.431C248.707 249.482 248.544 249.53 248.368 249.576C248.208 249.611 248.064 249.636 247.937 249.65C247.059 249.74 246.201 249.799 245.364 249.828C244.53 249.844 243.733 249.778 242.975 249.63C242.535 249.55 242.228 249.367 242.054 249.08C241.882 248.781 241.84 248.398 241.925 247.931C242.037 247.276 242.177 246.621 242.345 245.964C242.148 245.783 242.075 245.574 242.126 245.335C242.206 245.089 242.362 244.943 242.594 244.895C242.702 244.516 242.804 244.137 242.899 243.755C242.997 243.361 243.101 242.974 243.209 242.596C243.069 242.538 242.952 242.437 242.858 242.292C242.778 242.15 242.753 242.007 242.784 241.861C242.81 241.742 242.859 241.641 242.931 241.56C243.007 241.465 243.123 241.407 243.28 241.385C243.53 241.383 243.834 241.385 244.193 241.393C244.551 241.4 244.915 241.415 245.284 241.439C245.666 241.465 246.027 241.493 246.367 241.524C246.72 241.558 247.017 241.594 247.258 241.631C247.542 241.664 247.801 241.747 248.036 241.88C248.284 242.016 248.497 242.221 248.674 242.494C248.687 242.691 248.618 242.822 248.466 242.886C248.327 242.953 248.155 242.979 247.951 242.963C247.746 242.947 247.501 242.929 247.214 242.91C246.93 242.877 246.632 242.848 246.318 242.823C246.019 242.8 245.712 242.776 245.399 242.751C245.102 242.715 244.816 242.689 244.543 242.672C244.537 242.699 244.53 242.732 244.522 242.772C244.529 242.801 244.53 242.829 244.525 242.855C244.425 243.194 244.331 243.534 244.245 243.876C244.158 244.218 244.071 244.559 243.984 244.901C244.561 244.927 245.147 244.969 245.744 245.027C246.344 245.072 246.819 245.118 247.169 245.165C247.453 245.198 247.718 245.289 247.963 245.438C248.208 245.587 248.412 245.797 248.576 246.068ZM252.187 250.224C252.189 250.28 252.179 250.361 252.156 250.467C252.136 250.56 252.095 250.655 252.033 250.752C251.973 250.837 251.895 250.91 251.799 250.973C251.719 251.025 251.612 251.037 251.48 251.008C251.228 250.761 251.035 250.463 250.901 250.116C250.88 249.696 250.878 249.218 250.896 248.682C250.926 248.148 250.975 247.597 251.04 247.03C251.109 246.449 251.192 245.864 251.29 245.275C251.401 244.69 251.521 244.127 251.65 243.586C251.67 243.494 251.702 243.376 251.747 243.233C251.804 243.093 251.874 242.962 251.955 242.841C252.039 242.707 252.131 242.602 252.23 242.526C252.332 242.437 252.456 242.408 252.602 242.439C252.774 242.476 252.902 242.558 252.985 242.687C253.068 242.815 253.085 242.999 253.034 243.237C252.907 243.765 252.786 244.334 252.669 244.946C252.568 245.548 252.48 246.159 252.403 246.78C252.326 247.401 252.265 248.011 252.22 248.611C252.191 249.2 252.18 249.738 252.187 250.224ZM262.747 245.746C262.414 246.852 262.055 247.981 261.671 249.132C261.304 250.272 260.903 251.336 260.471 252.324C260.364 252.565 260.253 252.728 260.138 252.814C260.023 252.9 259.874 252.945 259.694 252.948C259.542 252.943 259.347 252.853 259.107 252.677C258.881 252.504 258.706 252.287 258.582 252.025C258.422 251.672 258.247 251.289 258.059 250.875C257.886 250.45 257.687 250.02 257.461 249.584C257.252 249.137 257.021 248.693 256.769 248.252C256.53 247.813 256.266 247.397 255.976 247.002C255.75 247.868 255.532 248.729 255.321 249.584C255.114 250.426 254.932 251.281 254.775 252.148C254.749 252.267 254.63 252.304 254.418 252.259C254.167 252.205 253.988 252.035 253.883 251.75C253.781 251.451 253.744 251.166 253.774 250.895C253.791 250.622 253.852 250.24 253.956 249.75C254.064 249.247 254.182 248.725 254.311 248.185C254.454 247.647 254.592 247.129 254.726 246.632C254.86 246.134 254.971 245.742 255.06 245.456C255.154 245.144 255.276 244.928 255.426 244.808C255.59 244.69 255.73 244.651 255.846 244.689C256.106 244.772 256.261 244.889 256.312 245.038C256.379 245.177 256.4 245.341 256.374 245.529C256.777 245.975 257.135 246.439 257.448 246.922C257.774 247.407 258.058 247.89 258.302 248.371C258.559 248.855 258.782 249.332 258.973 249.802C259.18 250.262 259.373 250.684 259.554 251.069C259.883 250.308 260.198 249.447 260.5 248.487C260.815 247.529 261.14 246.525 261.475 245.475C261.49 245.339 261.597 245.231 261.794 245.148C261.995 245.052 262.166 245.027 262.309 245.071C262.675 245.177 262.82 245.402 262.747 245.746Z" fill="#FFF1DD"/>
<g style="mix-blend-mode:multiply">
<path d="M273.495 171.257C273.495 173.054 257.092 174.514 236.855 174.514C216.618 174.514 200.215 173.054 200.215 171.257C200.215 169.46 216.618 168 236.855 168C257.092 168 273.495 169.46 273.495 171.257Z" fill="#FF4C00"/>
<path d="M273.495 171.257C273.495 173.054 257.092 174.514 236.855 174.514C216.618 174.514 200.215 173.054 200.215 171.257C200.215 169.46 216.618 168 236.855 168C257.092 168 273.495 169.46 273.495 171.257Z" stroke="#FF4C00" stroke-width="1.09197" stroke-miterlimit="10"/>
</g>
<rect width="146" height="38" transform="translate(164 99)" fill="white"/>
<rect x="171.351" y="108.351" width="38.9649" height="18.9474" rx="9.47369" fill="white"/>
<rect x="171.351" y="108.351" width="38.9649" height="18.9474" rx="9.47369" stroke="#E9E9E9" stroke-width="0.701754"/>
<g clip-path="url(#clip1_980_43203)">
<path d="M182.228 124.14C185.716 124.14 188.544 121.313 188.544 117.825C188.544 114.336 185.716 111.509 182.228 111.509C178.74 111.509 175.912 114.336 175.912 117.825C175.912 121.313 178.74 124.14 182.228 124.14Z" fill="#22B51F"/>
<path d="M179.86 117.298C180.296 117.298 180.649 116.945 180.649 116.509C180.649 116.073 180.296 115.719 179.86 115.719C179.424 115.719 179.07 116.073 179.07 116.509C179.07 116.945 179.424 117.298 179.86 117.298Z" fill="#04002C"/>
<path d="M184.597 117.298C185.033 117.298 185.386 116.945 185.386 116.509C185.386 116.073 185.033 115.719 184.597 115.719C184.161 115.719 183.807 116.073 183.807 116.509C183.807 116.945 184.161 117.298 184.597 117.298Z" fill="#04002C"/>
<path d="M184.86 119.403C184.314 120.347 183.397 120.982 182.228 120.982C181.059 120.982 180.142 120.347 179.596 119.403" stroke="#04002C" stroke-width="1.05263" stroke-linecap="round" stroke-linejoin="round"/>
</g>
<path d="M192.987 120.825L195.135 118.046L195.303 118.155C195.225 118.239 195.138 118.307 195.042 118.357C194.952 118.408 194.854 118.444 194.747 118.467C194.646 118.489 194.537 118.5 194.419 118.5C194.043 118.5 193.706 118.416 193.409 118.248C193.111 118.074 192.875 117.838 192.701 117.54C192.533 117.237 192.449 116.895 192.449 116.513C192.449 116.115 192.541 115.761 192.726 115.452C192.912 115.143 193.164 114.899 193.484 114.719C193.804 114.54 194.169 114.45 194.579 114.45C194.994 114.45 195.359 114.54 195.674 114.719C195.994 114.899 196.244 115.146 196.423 115.46C196.609 115.769 196.701 116.123 196.701 116.522C196.701 116.735 196.679 116.945 196.634 117.153C196.589 117.361 196.51 117.577 196.398 117.802C196.286 118.02 196.129 118.262 195.926 118.526L194.175 120.825H192.987ZM194.579 117.667C194.798 117.667 194.992 117.616 195.16 117.515C195.329 117.414 195.463 117.277 195.564 117.103C195.665 116.929 195.716 116.729 195.716 116.505C195.716 116.275 195.665 116.072 195.564 115.898C195.463 115.719 195.326 115.581 195.152 115.486C194.983 115.385 194.792 115.334 194.579 115.334C194.366 115.334 194.172 115.385 193.998 115.486C193.83 115.581 193.695 115.719 193.594 115.898C193.493 116.072 193.442 116.275 193.442 116.505C193.442 116.729 193.49 116.929 193.585 117.103C193.686 117.277 193.824 117.414 193.998 117.515C194.172 117.616 194.366 117.667 194.579 117.667ZM197.84 120.825V119.73H198.809V120.825H197.84ZM202.25 120.926C201.914 120.926 201.596 120.864 201.299 120.74C201.007 120.617 200.754 120.443 200.541 120.218C200.333 119.994 200.184 119.73 200.095 119.427L200.937 119.107C201.049 119.404 201.22 119.635 201.45 119.797C201.681 119.96 201.947 120.042 202.25 120.042C202.497 120.042 202.711 119.994 202.89 119.898C203.076 119.803 203.219 119.668 203.32 119.494C203.427 119.32 203.48 119.11 203.48 118.863C203.48 118.621 203.427 118.413 203.32 118.239C203.219 118.065 203.076 117.933 202.89 117.844C202.711 117.754 202.497 117.709 202.25 117.709C202.149 117.709 202.045 117.717 201.939 117.734C201.838 117.751 201.748 117.773 201.669 117.802L201.45 117.338L203.101 115.393H200.431V114.551H204.212V115.351L202.596 117.288L202.57 116.968C202.947 116.973 203.278 117.058 203.564 117.22C203.85 117.378 204.072 117.597 204.229 117.877C204.392 118.152 204.474 118.472 204.474 118.837C204.474 119.23 204.378 119.587 204.187 119.907C203.996 120.221 203.732 120.471 203.396 120.656C203.064 120.836 202.683 120.926 202.25 120.926Z" fill="#04002C"/>
<path d="M243.496 112.881C243.444 112.722 243.296 112.615 243.129 112.615C242.962 112.615 242.815 112.722 242.763 112.881L242.158 114.744L241.639 116.341H238C237.833 116.341 237.685 116.449 237.634 116.608C237.582 116.766 237.639 116.94 237.774 117.038L240.717 119.177L239.593 122.638C239.541 122.796 239.598 122.97 239.733 123.068C239.868 123.166 240.051 123.166 240.186 123.068L243.129 120.93L246.073 123.068C246.208 123.166 246.391 123.166 246.526 123.068C246.661 122.97 246.717 122.796 246.666 122.638L245.542 119.177L248.485 117.038C248.62 116.94 248.677 116.766 248.625 116.608C248.574 116.449 248.426 116.341 248.259 116.341H244.62L243.496 112.881Z" fill="#FF4C00" stroke="#FF4C00" stroke-width="0.770477" stroke-linejoin="round"/>
<path d="M256.78 112.881C256.728 112.722 256.581 112.615 256.414 112.615C256.247 112.615 256.099 112.722 256.047 112.881L254.923 116.341H251.284C251.117 116.341 250.969 116.449 250.918 116.608C250.866 116.766 250.923 116.94 251.058 117.038L254.001 119.177L252.877 122.638C252.826 122.796 252.882 122.97 253.017 123.068C253.152 123.166 253.335 123.166 253.47 123.068L256.414 120.93L259.357 123.068C259.492 123.166 259.675 123.166 259.81 123.068C259.945 122.97 260.002 122.796 259.95 122.638L258.826 119.177L261.769 117.038C261.904 116.94 261.961 116.766 261.909 116.608C261.858 116.449 261.71 116.341 261.543 116.341H257.904L256.78 112.881Z" fill="#FF4C00" stroke="#FF4C00" stroke-width="0.770477" stroke-linejoin="round"/>
<path d="M270.328 112.881C270.277 112.722 270.129 112.615 269.962 112.615C269.795 112.615 269.647 112.722 269.595 112.881L268.471 116.341H264.832C264.665 116.341 264.518 116.449 264.466 116.608C264.414 116.766 264.471 116.94 264.606 117.038L267.55 119.177L266.425 122.638C266.374 122.796 266.43 122.97 266.565 123.068C266.7 123.166 266.883 123.166 267.018 123.068L269.962 120.93L272.905 123.068C273.04 123.166 273.223 123.166 273.358 123.068C273.493 122.97 273.55 122.796 273.498 122.638L272.374 119.177L275.318 117.038C275.453 116.94 275.509 116.766 275.457 116.608C275.406 116.449 275.258 116.341 275.091 116.341H271.452L270.328 112.881Z" fill="#FF4C00" stroke="#FF4C00" stroke-width="0.770477" stroke-linejoin="round"/>
<path d="M283.876 112.881C283.824 112.722 283.676 112.615 283.51 112.615C283.343 112.615 283.195 112.722 283.143 112.881L282.019 116.341H278.38C278.213 116.341 278.065 116.449 278.014 116.608C277.962 116.766 278.019 116.94 278.154 117.038L281.097 119.177L279.973 122.638C279.921 122.796 279.978 122.97 280.113 123.068C280.248 123.166 280.431 123.166 280.566 123.068L283.51 120.93L286.453 123.068C286.588 123.166 286.771 123.166 286.906 123.068C287.041 122.97 287.098 122.796 287.046 122.638L285.922 119.177L288.865 117.038C289 116.94 289.057 116.766 289.005 116.608C288.954 116.449 288.806 116.341 288.639 116.341H285L283.876 112.881Z" fill="#FF4C00" stroke="#FF4C00" stroke-width="0.770477" stroke-linejoin="round"/>
<path d="M297.424 112.881C297.373 112.722 297.225 112.615 297.058 112.615C296.891 112.615 296.743 112.722 296.692 112.881L295.567 116.341H291.929C291.762 116.341 291.614 116.449 291.562 116.608C291.511 116.766 291.567 116.94 291.702 117.038L294.646 119.177L293.521 122.638C293.47 122.796 293.526 122.97 293.661 123.068C293.796 123.166 293.979 123.166 294.114 123.068L297.058 120.93L300.002 123.068C300.137 123.166 300.319 123.166 300.454 123.068C300.589 122.97 300.646 122.796 300.594 122.638L299.47 119.177L302.414 117.038C302.549 116.94 302.605 116.766 302.554 116.608C302.502 116.449 302.354 116.341 302.187 116.341H298.549L297.424 112.881Z" fill="#FF4C00" stroke="#FF4C00" stroke-width="0.770477" stroke-linejoin="round"/>
</g>
</g>
<defs>
<filter id="filter0_d_980_43203" x="135.669" y="70.6689" width="202.761" height="267.54" filterUnits="userSpaceOnUse" color-interpolation-filters="sRGB">
<feFlood flood-opacity="0" result="BackgroundImageFix"/>
<feColorMatrix in="SourceAlpha" type="matrix" values="0 0 0 0 0 0 0 0 0 0 0 0 0 0 0 0 0 0 127 0" result="hardAlpha"/>
<feOffset/>
<feGaussianBlur stdDeviation="14.1655"/>
<feComposite in2="hardAlpha" operator="out"/>
<feColorMatrix type="matrix" values="0 0 0 0 0 0 0 0 0 0 0 0 0 0 0 0 0 0 0.05 0"/>
<feBlend mode="normal" in2="BackgroundImageFix" result="effect1_dropShadow_980_43203"/>
<feBlend mode="normal" in="SourceGraphic" in2="effect1_dropShadow_980_43203" result="shape"/>
</filter>
<clipPath id="clip0_980_43203">
<rect x="164" y="99" width="146.099" height="210.877" rx="14.6152" fill="white"/>
</clipPath>
<clipPath id="clip1_980_43203">
<rect width="16.8421" height="16.8421" fill="white" transform="translate(173.807 109.403)"/>
</clipPath>
</defs>
</svg>
