<svg width="375" height="253" viewBox="0 0 375 253" fill="none" xmlns="http://www.w3.org/2000/svg">
<rect x="-76" y="40.6055" width="146" height="171.791" rx="13.5802" fill="white"/>
<g filter="url(#filter0_b_980_42946)">
<g clip-path="url(#clip0_980_42946)">
<path d="M-16.658 61.7473C-17.1296 61.7473 -17.5675 61.6597 -17.9718 61.4845C-18.376 61.3026 -18.7196 61.0567 -19.0026 60.7467C-19.2856 60.4368 -19.4944 60.0797 -19.6292 59.6755L-18.6186 59.251C-18.4367 59.7159 -18.1705 60.073 -17.8202 60.3223C-17.4698 60.5716 -17.0656 60.6962 -16.6074 60.6962C-16.3379 60.6962 -16.1021 60.6558 -15.9 60.5749C-15.6979 60.4873 -15.5429 60.3661 -15.4351 60.2111C-15.3206 60.0561 -15.2633 59.8776 -15.2633 59.6755C-15.2633 59.3992 -15.3408 59.1803 -15.4957 59.0186C-15.6507 58.8569 -15.8798 58.7289 -16.183 58.6345L-17.5978 58.1899C-18.1638 58.0147 -18.595 57.7486 -18.8914 57.3915C-19.1879 57.0277 -19.3361 56.6032 -19.3361 56.1181C-19.3361 55.6936 -19.2317 55.3231 -19.0228 55.0064C-18.814 54.683 -18.5276 54.4304 -18.1638 54.2484C-17.7932 54.0665 -17.3721 53.9756 -16.9005 53.9756C-16.4491 53.9756 -16.0381 54.0564 -15.6676 54.2181C-15.297 54.3731 -14.9803 54.5887 -14.7176 54.8649C-14.4481 55.1412 -14.2527 55.4612 -14.1314 55.825L-15.1218 56.2596C-15.27 55.8621 -15.5025 55.5555 -15.8191 55.3399C-16.1291 55.1243 -16.4895 55.0165 -16.9005 55.0165C-17.1498 55.0165 -17.3688 55.0603 -17.5574 55.1479C-17.7461 55.2287 -17.8943 55.35 -18.0021 55.5117C-18.1031 55.6667 -18.1537 55.8486 -18.1537 56.0575C-18.1537 56.3 -18.0762 56.5156 -17.9212 56.7043C-17.7663 56.8929 -17.5305 57.0344 -17.2138 57.1287L-15.9 57.5431C-15.3004 57.725 -14.8489 57.9877 -14.5458 58.3314C-14.2426 58.6682 -14.091 59.0893 -14.091 59.5946C-14.091 60.0124 -14.2022 60.3829 -14.4245 60.7063C-14.6401 61.0297 -14.9399 61.2857 -15.3239 61.4744C-15.708 61.6563 -16.1527 61.7473 -16.658 61.7473ZM-12.6512 61.626V54.0968H-9.91246C-9.40715 54.0968 -8.96248 54.1912 -8.57844 54.3798C-8.18767 54.5617 -7.88448 54.8312 -7.66888 55.1883C-7.45328 55.5387 -7.34548 55.9598 -7.34548 56.4516C-7.34548 56.9367 -7.45665 57.3544 -7.67899 57.7048C-7.89459 58.0551 -8.19441 58.3246 -8.57844 58.5133C-8.96248 58.7019 -9.40715 58.7962 -9.91246 58.7962H-11.4587V61.626H-12.6512ZM-11.4587 57.7351H-9.88214C-9.61264 57.7351 -9.37683 57.6812 -9.17471 57.5734C-8.97258 57.4656 -8.81425 57.3174 -8.69972 57.1287C-8.58518 56.9333 -8.52791 56.7043 -8.52791 56.4415C-8.52791 56.1787 -8.58518 55.953 -8.69972 55.7644C-8.81425 55.569 -8.97258 55.4208 -9.17471 55.3197C-9.37683 55.2119 -9.61264 55.158 -9.88214 55.158H-11.4587V57.7351ZM-2.35823 61.7473C-2.90396 61.7473 -3.41264 61.6496 -3.88426 61.4542C-4.34915 61.2588 -4.76014 60.9859 -5.11722 60.6356C-5.46757 60.2852 -5.74381 59.8742 -5.94593 59.4026C-6.14132 58.931 -6.23901 58.4156 -6.23901 57.8564C-6.23901 57.2971 -6.14132 56.7817 -5.94593 56.3101C-5.74381 55.8317 -5.46757 55.4208 -5.11722 55.0772C-4.76687 54.7268 -4.35589 54.4573 -3.88426 54.2687C-3.41264 54.0733 -2.90396 53.9756 -2.35823 53.9756C-1.80575 53.9756 -1.29707 54.0733 -0.832189 54.2687C-0.360566 54.4573 0.0504197 54.7268 0.400768 55.0772C0.757855 55.4275 1.03409 55.8385 1.22948 56.3101C1.42486 56.7817 1.52256 57.2971 1.52256 57.8564C1.52256 58.4156 1.4215 58.931 1.21937 59.4026C1.02398 59.8742 0.751117 60.2852 0.400768 60.6356C0.0504197 60.9859 -0.360566 61.2588 -0.832189 61.4542C-1.30381 61.6496 -1.81249 61.7473 -2.35823 61.7473ZM-2.35823 60.6558C-1.96745 60.6558 -1.61037 60.585 -1.28697 60.4435C-0.956832 60.3021 -0.67049 60.1067 -0.427941 59.8574C-0.185392 59.6014 0.00325744 59.3049 0.138007 58.968C0.272757 58.6244 0.340131 58.2539 0.340131 57.8564C0.340131 57.4588 0.272757 57.0917 0.138007 56.7548C0.00325744 56.4179 -0.185392 56.1215 -0.427941 55.8654C-0.67049 55.6094 -0.956832 55.4107 -1.28697 55.2692C-1.61037 55.1277 -1.96745 55.0569 -2.35823 55.0569C-2.749 55.0569 -3.10946 55.1277 -3.43959 55.2692C-3.76299 55.4107 -4.04596 55.6094 -4.28851 55.8654C-4.53106 56.1215 -4.71971 56.4179 -4.85446 56.7548C-4.98247 57.0917 -5.04648 57.4588 -5.04648 57.8564C-5.04648 58.2539 -4.98247 58.6244 -4.85446 58.968C-4.71971 59.3049 -4.53106 59.6014 -4.28851 59.8574C-4.04596 60.1067 -3.75962 60.3021 -3.42949 60.4435C-3.09935 60.585 -2.74226 60.6558 -2.35823 60.6558ZM2.95693 61.626V54.0968H5.69571C6.20102 54.0968 6.64569 54.1912 7.02973 54.3798C7.41377 54.5617 7.71358 54.8312 7.92918 55.1883C8.15152 55.5387 8.26269 55.9598 8.26269 56.4516C8.26269 56.9704 8.13131 57.4151 7.86855 57.7856C7.61252 58.1562 7.26554 58.4257 6.82761 58.5941L8.56587 61.626H7.21164L5.36221 58.3415L6.14038 58.7962H4.14946V61.626H2.95693ZM4.14946 57.7351H5.71592C5.99216 57.7351 6.23134 57.6812 6.43346 57.5734C6.63559 57.4656 6.79055 57.3174 6.89835 57.1287C7.01289 56.9333 7.07015 56.7043 7.07015 56.4415C7.07015 56.1787 7.01289 55.953 6.89835 55.7644C6.79055 55.569 6.63559 55.4208 6.43346 55.3197C6.23134 55.2119 5.99216 55.158 5.71592 55.158H4.14946V57.7351ZM10.8071 61.626V55.158H8.80605V54.0968H13.9602V55.158H11.9895V61.626H10.8071Z" fill="#04002C"/>
</g>
</g>
<g clip-path="url(#clip1_980_42946)">
<rect x="-0.13623" y="78.2539" width="58.2783" height="58.2783" rx="5.91576" fill="#F8F8F8"/>
<path d="M41.1985 91.602C41.1985 91.602 41.1942 91.2329 41.1942 90.7153H21.2836C21.2836 91.2287 21.2836 91.602 21.2752 91.602C21.2752 91.602 20.9155 92.1069 20.4838 92.7178C20.0522 93.333 19.7009 94.5422 19.7009 95.4034V120.609C19.7009 122.111 20.9281 123.341 22.4262 123.341H40.0432C41.5455 123.341 42.7727 122.111 42.7727 120.604V95.4077C42.7727 94.5422 42.4215 93.3373 41.9898 92.7221C41.5582 92.1069 41.3467 91.8131 41.1985 91.6063V91.602Z" fill="#FFCCA7"/>
<path d="M38.6335 85.4204H23.8437C23.3843 85.4204 23.012 85.7928 23.012 86.2521V87.287C23.012 87.7463 23.3843 88.1187 23.8437 88.1187H38.6335C39.0928 88.1187 39.4652 87.7463 39.4652 87.287V86.2521C39.4652 85.7928 39.0928 85.4204 38.6335 85.4204Z" fill="#FFCCA7"/>
<path d="M21.137 89.4678C21.137 90.0321 21.137 90.5157 21.137 90.7151H41.3353C41.3353 90.5115 41.3311 90.0278 41.3311 89.4678C41.3311 88.7253 40.6159 88.1187 39.74 88.1187H22.7281C21.8521 88.1187 21.137 88.7253 21.137 89.4678Z" fill="#FFCCA7"/>
<path d="M39.3137 93.7666C39.3137 93.7666 39.3095 93.3975 39.3095 92.8799H19.3989C19.3989 93.3932 19.3989 93.7666 19.3904 93.7666C19.3904 93.7666 19.0307 94.2715 18.599 94.8824C18.1674 95.4976 17.8162 96.7067 17.8162 97.568V122.773C17.8162 124.275 19.0434 125.506 20.5414 125.506H38.1584C39.6607 125.506 40.8879 124.275 40.8879 122.769V97.5722C40.8879 96.7067 40.5367 95.5018 40.1051 94.8866C39.6734 94.2715 39.4619 93.9777 39.3137 93.7708V93.7666Z" stroke="#FF4C00" stroke-width="1.35802"/>
<path d="M36.7485 87.5854H21.9587C21.4993 87.5854 21.127 87.9578 21.127 88.4172V89.452C21.127 89.9114 21.4993 90.2837 21.9587 90.2837H36.7485C37.2078 90.2837 37.5802 89.9114 37.5802 89.452V88.4172C37.5802 87.9578 37.2078 87.5854 36.7485 87.5854Z" stroke="#FF4C00" stroke-width="1.35802"/>
<path d="M19.252 91.6324C19.252 92.1966 19.252 92.6803 19.252 92.8797H39.4503C39.4503 92.676 39.4461 92.1924 39.4461 91.6324C39.4461 90.8899 38.7309 90.2832 37.8549 90.2832H20.8431C19.9671 90.2832 19.252 90.8899 19.252 91.6324Z" stroke="#FF4C00" stroke-width="1.35802"/>
<g style="mix-blend-mode:multiply" opacity="0.2">
<path d="M37.5802 88.7134H21.127V88.9722H37.5802V88.7134Z" fill="#FFF1DD"/>
</g>
<g style="mix-blend-mode:multiply" opacity="0.2">
<path d="M19.4001 92.8848C19.4001 93.1775 19.4001 93.4151 19.4001 93.5721H39.3108C39.3108 93.4151 39.3108 93.1775 39.3108 92.8848H19.4001Z" fill="#FFF1DD"/>
</g>
</g>
<g clip-path="url(#clip2_980_42946)">
<rect x="-0.13623" y="142.853" width="58.2783" height="58.2783" rx="5.91576" fill="#F8F8F8"/>
<path d="M41.1985 156.108C41.1985 156.108 41.1942 155.739 41.1942 155.222H21.2836C21.2836 155.735 21.2836 156.108 21.2752 156.108C21.2752 156.108 20.9155 156.613 20.4838 157.224C20.0522 157.839 19.7009 159.049 19.7009 159.91V185.115C19.7009 186.617 20.9281 187.847 22.4262 187.847H40.0432C41.5455 187.847 42.7727 186.617 42.7727 185.111V159.914C42.7727 159.049 42.4215 157.844 41.9898 157.228C41.5582 156.613 41.3467 156.319 41.1985 156.113V156.108Z" fill="#FFF1DD"/>
<path d="M38.6335 149.927H23.8437C23.3843 149.927 23.012 150.299 23.012 150.758V151.793C23.012 152.253 23.3843 152.625 23.8437 152.625H38.6335C39.0928 152.625 39.4652 152.253 39.4652 151.793V150.758C39.4652 150.299 39.0928 149.927 38.6335 149.927Z" fill="#FFF1DD"/>
<path d="M21.137 153.974C21.137 154.538 21.137 155.022 21.137 155.221H41.3353C41.3353 155.018 41.3311 154.534 41.3311 153.974C41.3311 153.232 40.6159 152.625 39.74 152.625H22.7281C21.8521 152.625 21.137 153.232 21.137 153.974Z" fill="#FFF1DD"/>
<path d="M39.3137 158.273C39.3137 158.273 39.3095 157.904 39.3095 157.386H19.3989C19.3989 157.9 19.3989 158.273 19.3904 158.273C19.3904 158.273 19.0307 158.778 18.599 159.389C18.1674 160.004 17.8162 161.213 17.8162 162.074V187.28C17.8162 188.781 19.0434 190.012 20.5414 190.012H38.1584C39.6607 190.012 40.8879 188.781 40.8879 187.275V162.079C40.8879 161.213 40.5367 160.008 40.1051 159.393C39.6734 158.778 39.4619 158.484 39.3137 158.277V158.273Z" stroke="#FF4C00" stroke-width="1.35802"/>
<path d="M36.7485 152.092H21.9587C21.4993 152.092 21.127 152.464 21.127 152.924V153.958C21.127 154.418 21.4993 154.79 21.9587 154.79H36.7485C37.2078 154.79 37.5802 154.418 37.5802 153.958V152.924C37.5802 152.464 37.2078 152.092 36.7485 152.092Z" stroke="#FF4C00" stroke-width="1.35802"/>
<path d="M19.252 156.139C19.252 156.703 19.252 157.187 19.252 157.386H39.4503C39.4503 157.182 39.4461 156.699 39.4461 156.139C39.4461 155.396 38.7309 154.79 37.8549 154.79H20.8431C19.9671 154.79 19.252 155.396 19.252 156.139Z" stroke="#FF4C00" stroke-width="1.35802"/>
<g style="mix-blend-mode:multiply" opacity="0.2">
<path d="M37.5802 153.22H21.127V153.479H37.5802V153.22Z" fill="#FFF1DD"/>
</g>
<g style="mix-blend-mode:multiply" opacity="0.2">
<path d="M19.4001 157.391C19.4001 157.684 19.4001 157.921 19.4001 158.078H39.3108C39.3108 157.921 39.3108 157.684 39.3108 157.391H19.4001Z" fill="#FFF1DD"/>
</g>
</g>
<rect x="79.9375" width="215.019" height="253.001" rx="16" fill="white"/>
<g filter="url(#filter1_b_980_42946)">
<g clip-path="url(#clip3_980_42946)">
<path d="M153.982 30.7578L150.053 19.6694H151.943L155.158 29.1355H154.786L157.986 19.6694H159.876L155.947 30.7578H153.982ZM161.329 30.7578V19.6694H163.086V30.7578H161.329ZM167.498 30.7578V21.2322H164.551V19.6694H172.142V21.2322H169.239V30.7578H167.498ZM171.88 30.7578L175.78 19.6694H177.953L181.852 30.7578H179.977L179.129 28.2722H174.619L173.756 30.7578H171.88ZM175.125 26.7094H178.593L176.628 20.9048H177.119L175.125 26.7094ZM183.317 30.7578V19.6694H184.954L189.121 25.4443H188.303L192.396 19.6694H194.033V30.7578H192.291V21.7383L192.946 21.9169L188.764 27.6322H188.585L184.492 21.9169L185.073 21.7383V30.7578H183.317ZM196.474 30.7578V19.6694H198.23V30.7578H196.474ZM200.678 30.7578V19.6694H202.092L208.314 28.2573L207.644 28.3615V19.6694H209.385V30.7578H207.971L201.794 22.1104L202.434 21.9913V30.7578H200.678ZM219.745 30.9364C218.961 30.9364 218.232 30.7925 217.557 30.5048C216.892 30.217 216.312 29.8201 215.816 29.3141C215.33 28.7981 214.948 28.1929 214.67 27.4983C214.392 26.8037 214.253 26.0397 214.253 25.2062C214.253 24.3826 214.387 23.6235 214.655 22.929C214.933 22.2245 215.32 21.6192 215.816 21.1132C216.312 20.5972 216.892 20.2003 217.557 19.9225C218.222 19.6347 218.951 19.4908 219.745 19.4908C220.529 19.4908 221.229 19.6248 221.844 19.8927C222.469 20.1606 222.995 20.5129 223.421 20.9494C223.848 21.3761 224.156 21.8425 224.344 22.3485L222.767 23.0927C222.528 22.4973 222.146 22.0161 221.621 21.649C221.105 21.2719 220.479 21.0834 219.745 21.0834C219.011 21.0834 218.361 21.257 217.795 21.6043C217.23 21.9516 216.788 22.4329 216.471 23.048C216.163 23.6632 216.009 24.3826 216.009 25.2062C216.009 26.0298 216.163 26.7541 216.471 27.3792C216.788 27.9944 217.23 28.4756 217.795 28.8229C218.361 29.1603 219.011 29.329 219.745 29.329C220.479 29.329 221.105 29.1454 221.621 28.7783C222.146 28.4111 222.528 27.9299 222.767 27.3346L224.344 28.0787C224.156 28.5749 223.848 29.0412 223.421 29.4778C222.995 29.9144 222.469 30.2666 221.844 30.5346C221.229 30.8025 220.529 30.9364 219.745 30.9364Z" fill="#04002C"/>
</g>
</g>
<g clip-path="url(#clip4_980_42946)">
<rect x="96.5276" y="55.4458" width="85.8282" height="85.8282" rx="8.71232" fill="#F8F8F8"/>
<path d="M157.54 75.1037C157.54 75.1037 157.534 74.5601 157.534 73.7979H128.211C128.211 74.5539 128.211 75.1037 128.199 75.1037C128.199 75.1037 127.669 75.8473 127.033 76.747C126.397 77.653 125.88 79.4337 125.88 80.7021V117.823C125.88 120.035 127.687 121.847 129.894 121.847H155.839C158.051 121.847 159.859 120.035 159.859 117.816V80.7084C159.859 79.4337 159.341 77.6592 158.706 76.7533C158.07 75.8473 157.758 75.4146 157.54 75.11V75.1037Z" fill="#FFF1DD"/>
<path d="M153.761 66H131.98C131.304 66 130.755 66.5484 130.755 67.2249V68.749C130.755 69.4255 131.304 69.9739 131.98 69.9739H153.761C154.438 69.9739 154.986 69.4255 154.986 68.749V67.2249C154.986 66.5484 154.438 66 153.761 66Z" fill="#FFF1DD"/>
<path d="M127.997 71.9606C127.997 72.7916 127.997 73.5039 127.997 73.7975H157.744C157.744 73.4976 157.738 72.7853 157.738 71.9606C157.738 70.8671 156.685 69.9736 155.395 69.9736H130.341C129.051 69.9736 127.997 70.8671 127.997 71.9606Z" fill="#FFF1DD"/>
<path d="M154.767 78.2917C154.767 78.2917 154.761 77.7481 154.761 76.9858H125.438C125.438 77.7419 125.438 78.2917 125.425 78.2917C125.425 78.2917 124.895 79.0353 124.26 79.935C123.624 80.841 123.107 82.6217 123.107 83.8901V121.011C123.107 123.223 124.914 125.035 127.12 125.035H153.065C155.278 125.035 157.085 123.223 157.085 121.004V83.8964C157.085 82.6217 156.568 80.8472 155.932 79.9412C155.297 79.0353 154.985 78.6026 154.767 78.298V78.2917Z" stroke="#FF4C00" stroke-width="2"/>
<path d="M150.988 69.188H129.207C128.53 69.188 127.982 69.7364 127.982 70.4129V71.937C127.982 72.6134 128.53 73.1618 129.207 73.1618H150.988C151.664 73.1618 152.213 72.6134 152.213 71.937V70.4129C152.213 69.7364 151.664 69.188 150.988 69.188Z" stroke="#FF4C00" stroke-width="2"/>
<path d="M125.224 75.1486C125.224 75.9796 125.224 76.6919 125.224 76.9855H154.971C154.971 76.6856 154.964 75.9733 154.964 75.1486C154.964 74.0551 153.911 73.1616 152.621 73.1616H127.567C126.277 73.1616 125.224 74.0551 125.224 75.1486Z" stroke="#FF4C00" stroke-width="2"/>
<g style="mix-blend-mode:multiply" opacity="0.2">
<path d="M152.213 70.8501H127.982V71.2312H152.213V70.8501Z" fill="#FFF1DD"/>
</g>
<g style="mix-blend-mode:multiply" opacity="0.2">
<path d="M125.439 76.9927C125.439 77.4238 125.439 77.7737 125.439 78.0049H154.762C154.762 77.7737 154.762 77.4238 154.762 76.9927H125.439Z" fill="#FFF1DD"/>
</g>
</g>
<g clip-path="url(#clip5_980_42946)">
<rect x="191.665" y="55.4458" width="85.8282" height="85.8282" rx="8.71232" fill="#F8F8F8"/>
<path d="M252.541 75.1037C252.541 75.1037 252.535 74.5601 252.535 73.7979H223.212C223.212 74.5539 223.212 75.1037 223.199 75.1037C223.199 75.1037 222.67 75.8473 222.034 76.747C221.398 77.653 220.881 79.4337 220.881 80.7021V117.823C220.881 120.035 222.688 121.847 224.894 121.847H250.84C253.052 121.847 254.859 120.035 254.859 117.816V80.7084C254.859 79.4337 254.342 77.6592 253.706 76.7533C253.071 75.8473 252.759 75.4146 252.541 75.11V75.1037Z" fill="#FFCCA7"/>
<path d="M248.762 66H226.981C226.304 66 225.756 66.5484 225.756 67.2249V68.749C225.756 69.4255 226.304 69.9739 226.981 69.9739H248.762C249.439 69.9739 249.987 69.4255 249.987 68.749V67.2249C249.987 66.5484 249.439 66 248.762 66Z" fill="#FFCCA7"/>
<path d="M222.998 71.9606C222.998 72.7916 222.998 73.5039 222.998 73.7975H252.745C252.745 73.4976 252.739 72.7853 252.739 71.9606C252.739 70.8671 251.685 69.9736 250.395 69.9736H225.341C224.051 69.9736 222.998 70.8671 222.998 71.9606Z" fill="#FFCCA7"/>
<path d="M249.767 78.2917C249.767 78.2917 249.761 77.7481 249.761 76.9858H220.438C220.438 77.7419 220.438 78.2917 220.426 78.2917C220.426 78.2917 219.896 79.0353 219.26 79.935C218.625 80.841 218.107 82.6217 218.107 83.8901V121.011C218.107 123.223 219.915 125.035 222.121 125.035H248.066C250.279 125.035 252.086 123.223 252.086 121.004V83.8964C252.086 82.6217 251.569 80.8472 250.933 79.9412C250.297 79.0353 249.986 78.6026 249.767 78.298V78.2917Z" stroke="#FF4C00" stroke-width="2"/>
<path d="M245.989 69.188H224.207C223.531 69.188 222.982 69.7364 222.982 70.4129V71.937C222.982 72.6134 223.531 73.1618 224.207 73.1618H245.989C246.665 73.1618 247.214 72.6134 247.214 71.937V70.4129C247.214 69.7364 246.665 69.188 245.989 69.188Z" stroke="#FF4C00" stroke-width="2"/>
<path d="M220.225 75.1486C220.225 75.9796 220.225 76.6919 220.225 76.9855H249.971C249.971 76.6856 249.965 75.9733 249.965 75.1486C249.965 74.0551 248.912 73.1616 247.622 73.1616H222.568C221.278 73.1616 220.225 74.0551 220.225 75.1486Z" stroke="#FF4C00" stroke-width="2"/>
<g style="mix-blend-mode:multiply" opacity="0.2">
<path d="M247.214 70.8501H222.982V71.2312H247.214V70.8501Z" fill="#FFF1DD"/>
</g>
<g style="mix-blend-mode:multiply" opacity="0.2">
<path d="M220.439 76.9927C220.439 77.4238 220.439 77.7737 220.439 78.0049H249.762C249.762 77.7737 249.762 77.4238 249.762 76.9927H220.439Z" fill="#FFF1DD"/>
</g>
</g>
<g clip-path="url(#clip6_980_42946)">
<rect x="96.5276" y="150.583" width="85.8282" height="85.8282" rx="8.71232" fill="#F8F8F8"/>
<path d="M157.54 171.104C157.54 171.104 157.534 170.56 157.534 169.798H128.211C128.211 170.554 128.211 171.104 128.199 171.104C128.199 171.104 127.669 171.847 127.033 172.747C126.397 173.653 125.88 175.434 125.88 176.702V213.823C125.88 216.035 127.687 217.847 129.894 217.847H155.839C158.051 217.847 159.859 216.035 159.859 213.816V176.708C159.859 175.434 159.341 173.659 158.706 172.753C158.07 171.847 157.758 171.415 157.54 171.11V171.104Z" fill="#FFCCA7"/>
<path d="M153.761 162H131.98C131.304 162 130.755 162.548 130.755 163.225V164.749C130.755 165.425 131.304 165.974 131.98 165.974H153.761C154.438 165.974 154.986 165.425 154.986 164.749V163.225C154.986 162.548 154.438 162 153.761 162Z" fill="#FFCCA7"/>
<path d="M127.997 167.961C127.997 168.792 127.997 169.504 127.997 169.798H157.744C157.744 169.498 157.738 168.785 157.738 167.961C157.738 166.867 156.685 165.974 155.395 165.974H130.341C129.051 165.974 127.997 166.867 127.997 167.961Z" fill="#FFCCA7"/>
<path d="M154.767 174.292C154.767 174.292 154.761 173.748 154.761 172.986H125.438C125.438 173.742 125.438 174.292 125.425 174.292C125.425 174.292 124.895 175.035 124.26 175.935C123.624 176.841 123.107 178.622 123.107 179.89V217.011C123.107 219.223 124.914 221.035 127.12 221.035H153.065C155.278 221.035 157.085 219.223 157.085 217.004V179.896C157.085 178.622 156.568 176.847 155.932 175.941C155.297 175.035 154.985 174.603 154.767 174.298V174.292Z" stroke="#FF4C00" stroke-width="2"/>
<path d="M150.988 165.188H129.207C128.53 165.188 127.982 165.736 127.982 166.413V167.937C127.982 168.613 128.53 169.162 129.207 169.162H150.988C151.664 169.162 152.213 168.613 152.213 167.937V166.413C152.213 165.736 151.664 165.188 150.988 165.188Z" stroke="#FF4C00" stroke-width="2"/>
<path d="M125.224 171.149C125.224 171.98 125.224 172.692 125.224 172.986H154.971C154.971 172.686 154.964 171.973 154.964 171.149C154.964 170.055 153.911 169.162 152.621 169.162H127.567C126.277 169.162 125.224 170.055 125.224 171.149Z" stroke="#FF4C00" stroke-width="2"/>
<g style="mix-blend-mode:multiply" opacity="0.2">
<path d="M152.213 166.85H127.982V167.231H152.213V166.85Z" fill="#FFF1DD"/>
</g>
<g style="mix-blend-mode:multiply" opacity="0.2">
<path d="M125.439 172.993C125.439 173.424 125.439 173.774 125.439 174.005H154.762C154.762 173.774 154.762 173.424 154.762 172.993H125.439Z" fill="#FFF1DD"/>
</g>
</g>
<g clip-path="url(#clip7_980_42946)">
<rect x="191.665" y="150.583" width="85.8282" height="85.8282" rx="8.71232" fill="#F8F8F8"/>
<path d="M252.541 170.104C252.541 170.104 252.535 169.56 252.535 168.798H223.212C223.212 169.554 223.212 170.104 223.199 170.104C223.199 170.104 222.67 170.847 222.034 171.747C221.398 172.653 220.881 174.434 220.881 175.702V212.823C220.881 215.035 222.688 216.847 224.894 216.847H250.84C253.052 216.847 254.859 215.035 254.859 212.816V175.708C254.859 174.434 254.342 172.659 253.706 171.753C253.071 170.847 252.759 170.415 252.541 170.11V170.104Z" fill="#FFF1DD"/>
<path d="M248.762 161H226.981C226.304 161 225.756 161.548 225.756 162.225V163.749C225.756 164.425 226.304 164.974 226.981 164.974H248.762C249.439 164.974 249.987 164.425 249.987 163.749V162.225C249.987 161.548 249.439 161 248.762 161Z" fill="#FFF1DD"/>
<path d="M222.998 166.961C222.998 167.792 222.998 168.504 222.998 168.798H252.745C252.745 168.498 252.739 167.785 252.739 166.961C252.739 165.867 251.685 164.974 250.395 164.974H225.341C224.051 164.974 222.998 165.867 222.998 166.961Z" fill="#FFF1DD"/>
<path d="M249.767 173.292C249.767 173.292 249.761 172.748 249.761 171.986H220.438C220.438 172.742 220.438 173.292 220.426 173.292C220.426 173.292 219.896 174.035 219.26 174.935C218.625 175.841 218.107 177.622 218.107 178.89V216.011C218.107 218.223 219.915 220.035 222.121 220.035H248.066C250.279 220.035 252.086 218.223 252.086 216.004V178.896C252.086 177.622 251.569 175.847 250.933 174.941C250.297 174.035 249.986 173.603 249.767 173.298V173.292Z" stroke="#FF4C00" stroke-width="2"/>
<path d="M245.989 164.188H224.207C223.531 164.188 222.982 164.736 222.982 165.413V166.937C222.982 167.613 223.531 168.162 224.207 168.162H245.989C246.665 168.162 247.214 167.613 247.214 166.937V165.413C247.214 164.736 246.665 164.188 245.989 164.188Z" stroke="#FF4C00" stroke-width="2"/>
<path d="M220.225 170.149C220.225 170.98 220.225 171.692 220.225 171.986H249.971C249.971 171.686 249.965 170.973 249.965 170.149C249.965 169.055 248.912 168.162 247.622 168.162H222.568C221.278 168.162 220.225 169.055 220.225 170.149Z" stroke="#FF4C00" stroke-width="2"/>
<g style="mix-blend-mode:multiply" opacity="0.2">
<path d="M247.214 165.85H222.982V166.231H247.214V165.85Z" fill="#FFF1DD"/>
</g>
<g style="mix-blend-mode:multiply" opacity="0.2">
<path d="M220.439 171.993C220.439 172.424 220.439 172.774 220.439 173.005H249.762C249.762 172.774 249.762 172.424 249.762 171.993H220.439Z" fill="#FFF1DD"/>
</g>
</g>
<rect x="304.894" y="40.6055" width="146" height="171.791" rx="13.5802" fill="white"/>
<g filter="url(#filter2_b_980_42946)">
<g clip-path="url(#clip8_980_42946)">
<path d="M355.017 61.626V54.0968H359.919V55.158H356.21V57.4218H359.514V58.4829H356.21V61.626H355.017ZM364.58 61.7473C364.034 61.7473 363.525 61.6496 363.054 61.4542C362.589 61.2588 362.178 60.9859 361.821 60.6356C361.47 60.2852 361.194 59.8742 360.992 59.4026C360.797 58.931 360.699 58.4156 360.699 57.8564C360.699 57.2971 360.797 56.7817 360.992 56.3101C361.194 55.8317 361.47 55.4208 361.821 55.0772C362.171 54.7268 362.582 54.4573 363.054 54.2687C363.525 54.0733 364.034 53.9756 364.58 53.9756C365.132 53.9756 365.641 54.0733 366.106 54.2687C366.577 54.4573 366.988 54.7268 367.339 55.0772C367.696 55.4275 367.972 55.8385 368.168 56.3101C368.363 56.7817 368.461 57.2971 368.461 57.8564C368.461 58.4156 368.36 58.931 368.157 59.4026C367.962 59.8742 367.689 60.2852 367.339 60.6356C366.988 60.9859 366.577 61.2588 366.106 61.4542C365.634 61.6496 365.126 61.7473 364.58 61.7473ZM364.58 60.6558C364.971 60.6558 365.328 60.585 365.651 60.4435C365.981 60.3021 366.268 60.1067 366.51 59.8574C366.753 59.6014 366.941 59.3049 367.076 58.968C367.211 58.6244 367.278 58.2539 367.278 57.8564C367.278 57.4588 367.211 57.0917 367.076 56.7548C366.941 56.4179 366.753 56.1215 366.51 55.8654C366.268 55.6094 365.981 55.4107 365.651 55.2692C365.328 55.1277 364.971 55.0569 364.58 55.0569C364.189 55.0569 363.829 55.1277 363.498 55.2692C363.175 55.4107 362.892 55.6094 362.65 55.8654C362.407 56.1215 362.218 56.4179 362.084 56.7548C361.956 57.0917 361.892 57.4588 361.892 57.8564C361.892 58.2539 361.956 58.6244 362.084 58.968C362.218 59.3049 362.407 59.6014 362.65 59.8574C362.892 60.1067 363.178 60.3021 363.509 60.4435C363.839 60.585 364.196 60.6558 364.58 60.6558ZM369.895 61.626V54.0968H372.634C373.139 54.0968 373.584 54.1912 373.968 54.3798C374.352 54.5617 374.652 54.8312 374.867 55.1883C375.09 55.5387 375.201 55.9598 375.201 56.4516C375.201 56.9704 375.069 57.4151 374.807 57.7856C374.551 58.1562 374.204 58.4257 373.766 58.5941L375.504 61.626H374.15L372.3 58.3415L373.078 58.7962H371.088V61.626H369.895ZM371.088 57.7351H372.654C372.93 57.7351 373.169 57.6812 373.372 57.5734C373.574 57.4656 373.729 57.3174 373.836 57.1287C373.951 56.9333 374.008 56.7043 374.008 56.4415C374.008 56.1787 373.951 55.953 373.836 55.7644C373.729 55.569 373.574 55.4208 373.372 55.3197C373.169 55.2119 372.93 55.158 372.654 55.158H371.088V57.7351ZM381.114 61.7473C380.642 61.7473 380.204 61.6597 379.8 61.4845C379.396 61.3026 379.052 61.0567 378.769 60.7467C378.486 60.4368 378.277 60.0797 378.143 59.6755L379.153 59.251C379.335 59.7159 379.601 60.073 379.952 60.3223C380.302 60.5716 380.706 60.6962 381.164 60.6962C381.434 60.6962 381.67 60.6558 381.872 60.5749C382.074 60.4873 382.229 60.3661 382.337 60.2111C382.451 60.0561 382.509 59.8776 382.509 59.6755C382.509 59.3992 382.431 59.1803 382.276 59.0186C382.121 58.8569 381.892 58.7289 381.589 58.6345L380.174 58.1899C379.608 58.0147 379.177 57.7486 378.88 57.3915C378.584 57.0277 378.436 56.6032 378.436 56.1181C378.436 55.6936 378.54 55.3231 378.749 55.0064C378.958 54.683 379.244 54.4304 379.608 54.2484C379.979 54.0665 380.4 53.9756 380.871 53.9756C381.323 53.9756 381.734 54.0564 382.104 54.2181C382.475 54.3731 382.792 54.5887 383.054 54.8649C383.324 55.1412 383.519 55.4612 383.64 55.825L382.65 56.2596C382.502 55.8621 382.269 55.5555 381.953 55.3399C381.643 55.1243 381.282 55.0165 380.871 55.0165C380.622 55.0165 380.403 55.0603 380.214 55.1479C380.026 55.2287 379.878 55.35 379.77 55.5117C379.669 55.6667 379.618 55.8486 379.618 56.0575C379.618 56.3 379.696 56.5156 379.851 56.7043C380.006 56.8929 380.241 57.0344 380.558 57.1287L381.872 57.5431C382.471 57.725 382.923 57.9877 383.226 58.3314C383.529 58.6682 383.681 59.0893 383.681 59.5946C383.681 60.0124 383.57 60.3829 383.347 60.7063C383.132 61.0297 382.832 61.2857 382.448 61.4744C382.064 61.6563 381.619 61.7473 381.114 61.7473ZM385.121 61.626V54.0968H386.313V58.1798L386 58.0585L389.406 54.0968H390.891L387.88 57.6239L387.94 56.775L391.013 61.626H389.608L387.405 58.1798L386.313 59.4531V61.626H385.121ZM392.002 61.626V54.0968H393.194V61.626H392.002ZM394.857 61.626V54.0968H395.817L400.041 59.9281L399.586 59.9989V54.0968H400.769V61.626H399.809L395.614 55.7543L396.049 55.6734V61.626H394.857Z" fill="#04002C"/>
</g>
</g>
<g clip-path="url(#clip9_980_42946)">
<rect x="316.159" y="78.2539" width="58.2783" height="58.2783" rx="5.91576" fill="#F8F8F8"/>
<path d="M357.591 91.602C357.591 91.602 357.587 91.2329 357.587 90.7153H337.676C337.676 91.2287 337.676 91.602 337.667 91.602C337.667 91.602 337.308 92.1069 336.876 92.7178C336.445 93.333 336.093 94.5422 336.093 95.4034V120.609C336.093 122.111 337.32 123.341 338.819 123.341H356.436C357.938 123.341 359.165 122.111 359.165 120.604V95.4077C359.165 94.5422 358.814 93.3373 358.382 92.7221C357.951 92.1069 357.739 91.8131 357.591 91.6063V91.602Z" fill="#FFF1DD"/>
<path d="M355.026 85.4204H340.236C339.777 85.4204 339.404 85.7928 339.404 86.2521V87.287C339.404 87.7463 339.777 88.1187 340.236 88.1187H355.026C355.485 88.1187 355.858 87.7463 355.858 87.287V86.2521C355.858 85.7928 355.485 85.4204 355.026 85.4204Z" fill="#FFF1DD"/>
<path d="M337.529 89.4678C337.529 90.0321 337.529 90.5157 337.529 90.7151H357.728C357.728 90.5115 357.723 90.0278 357.723 89.4678C357.723 88.7253 357.008 88.1187 356.132 88.1187H339.12C338.244 88.1187 337.529 88.7253 337.529 89.4678Z" fill="#FFF1DD"/>
<path d="M355.706 93.7666C355.706 93.7666 355.702 93.3975 355.702 92.8799H335.791C335.791 93.3932 335.791 93.7666 335.783 93.7666C335.783 93.7666 335.423 94.2715 334.991 94.8824C334.56 95.4976 334.208 96.7067 334.208 97.568V122.773C334.208 124.275 335.436 125.506 336.934 125.506H354.551C356.053 125.506 357.28 124.275 357.28 122.769V97.5722C357.28 96.7067 356.929 95.5018 356.497 94.8866C356.066 94.2715 355.854 93.9777 355.706 93.7708V93.7666Z" stroke="#FF4C00" stroke-width="1.35802"/>
<path d="M353.141 87.5854H338.351C337.892 87.5854 337.519 87.9578 337.519 88.4172V89.452C337.519 89.9114 337.892 90.2837 338.351 90.2837H353.141C353.6 90.2837 353.973 89.9114 353.973 89.452V88.4172C353.973 87.9578 353.6 87.5854 353.141 87.5854Z" stroke="#FF4C00" stroke-width="1.35802"/>
<path d="M335.644 91.6324C335.644 92.1966 335.644 92.6803 335.644 92.8797H355.843C355.843 92.676 355.838 92.1924 355.838 91.6324C355.838 90.8899 355.123 90.2832 354.247 90.2832H337.235C336.359 90.2832 335.644 90.8899 335.644 91.6324Z" stroke="#FF4C00" stroke-width="1.35802"/>
<g style="mix-blend-mode:multiply" opacity="0.2">
<path d="M353.973 88.7134H337.519V88.9722H353.973V88.7134Z" fill="#FFF1DD"/>
</g>
<g style="mix-blend-mode:multiply" opacity="0.2">
<path d="M335.792 92.8848C335.792 93.1775 335.792 93.4151 335.792 93.5721H355.703C355.703 93.4151 355.703 93.1775 355.703 92.8848H335.792Z" fill="#FFF1DD"/>
</g>
</g>
<g clip-path="url(#clip10_980_42946)">
<rect x="316.159" y="142.853" width="58.2783" height="58.2783" rx="5.91576" fill="#F8F8F8"/>
<path d="M357.591 156.788C357.591 156.788 357.587 156.418 357.587 155.901H337.676C337.676 156.414 337.676 156.788 337.667 156.788C337.667 156.788 337.308 157.292 336.876 157.903C336.445 158.519 336.093 159.728 336.093 160.589V185.794C336.093 187.296 337.32 188.526 338.819 188.526H356.436C357.938 188.526 359.165 187.296 359.165 185.79V160.593C359.165 159.728 358.814 158.523 358.382 157.908C357.951 157.292 357.739 156.999 357.591 156.792V156.788Z" fill="#FFCCA7"/>
<path d="M355.026 150.606H340.236C339.777 150.606 339.404 150.978 339.404 151.438V152.473C339.404 152.932 339.777 153.304 340.236 153.304H355.026C355.485 153.304 355.858 152.932 355.858 152.473V151.438C355.858 150.978 355.485 150.606 355.026 150.606Z" fill="#FFCCA7"/>
<path d="M337.529 154.653C337.529 155.218 337.529 155.701 337.529 155.901H357.728C357.728 155.697 357.723 155.213 357.723 154.653C357.723 153.911 357.008 153.304 356.132 153.304H339.12C338.244 153.304 337.529 153.911 337.529 154.653Z" fill="#FFCCA7"/>
<path d="M355.706 158.952C355.706 158.952 355.702 158.583 355.702 158.065H335.791C335.791 158.579 335.791 158.952 335.783 158.952C335.783 158.952 335.423 159.457 334.991 160.068C334.56 160.683 334.208 161.892 334.208 162.754V187.959C334.208 189.461 335.436 190.691 336.934 190.691H354.551C356.053 190.691 357.28 189.461 357.28 187.955V162.758C357.28 161.892 356.929 160.687 356.497 160.072C356.066 159.457 355.854 159.163 355.706 158.956V158.952Z" stroke="#FF4C00" stroke-width="1.35802"/>
<path d="M353.141 152.771H338.351C337.892 152.771 337.519 153.143 337.519 153.603V154.638C337.519 155.097 337.892 155.469 338.351 155.469H353.141C353.6 155.469 353.973 155.097 353.973 154.638V153.603C353.973 153.143 353.6 152.771 353.141 152.771Z" stroke="#FF4C00" stroke-width="1.35802"/>
<path d="M335.644 156.818C335.644 157.382 335.644 157.866 335.644 158.065H355.843C355.843 157.862 355.838 157.378 355.838 156.818C355.838 156.075 355.123 155.469 354.247 155.469H337.235C336.359 155.469 335.644 156.075 335.644 156.818Z" stroke="#FF4C00" stroke-width="1.35802"/>
<g style="mix-blend-mode:multiply" opacity="0.2">
<path d="M353.973 153.899H337.519V154.158H353.973V153.899Z" fill="#FFF1DD"/>
</g>
<g style="mix-blend-mode:multiply" opacity="0.2">
<path d="M335.792 158.07C335.792 158.363 335.792 158.601 335.792 158.758H355.703C355.703 158.601 355.703 158.363 355.703 158.07H335.792Z" fill="#FFF1DD"/>
</g>
</g>
<defs>
<filter id="filter0_b_980_42946" x="-65.2259" y="51.3795" width="124.452" height="16.0998" filterUnits="userSpaceOnUse" color-interpolation-filters="sRGB">
<feFlood flood-opacity="0" result="BackgroundImageFix"/>
<feGaussianBlur in="BackgroundImageFix" stdDeviation="0.245299"/>
<feComposite in2="SourceAlpha" operator="in" result="effect1_backgroundBlur_980_42946"/>
<feBlend mode="normal" in="SourceGraphic" in2="effect1_backgroundBlur_980_42946" result="shape"/>
</filter>
<filter id="filter1_b_980_42946" x="95.8051" y="15.8673" width="183.284" height="23.7111" filterUnits="userSpaceOnUse" color-interpolation-filters="sRGB">
<feFlood flood-opacity="0" result="BackgroundImageFix"/>
<feGaussianBlur in="BackgroundImageFix" stdDeviation="0.361259"/>
<feComposite in2="SourceAlpha" operator="in" result="effect1_backgroundBlur_980_42946"/>
<feBlend mode="normal" in="SourceGraphic" in2="effect1_backgroundBlur_980_42946" result="shape"/>
</filter>
<filter id="filter2_b_980_42946" x="315.668" y="51.3795" width="124.452" height="16.0998" filterUnits="userSpaceOnUse" color-interpolation-filters="sRGB">
<feFlood flood-opacity="0" result="BackgroundImageFix"/>
<feGaussianBlur in="BackgroundImageFix" stdDeviation="0.245299"/>
<feComposite in2="SourceAlpha" operator="in" result="effect1_backgroundBlur_980_42946"/>
<feBlend mode="normal" in="SourceGraphic" in2="effect1_backgroundBlur_980_42946" result="shape"/>
</filter>
<clipPath id="clip0_980_42946">
<rect x="-64.7354" y="51.8701" width="123.47" height="15.1188" rx="7.55941" fill="white"/>
</clipPath>
<clipPath id="clip1_980_42946">
<rect x="-0.13623" y="78.2539" width="58.2783" height="58.2783" rx="5.91576" fill="white"/>
</clipPath>
<clipPath id="clip2_980_42946">
<rect x="-0.13623" y="142.853" width="58.2783" height="58.2783" rx="5.91576" fill="white"/>
</clipPath>
<clipPath id="clip3_980_42946">
<rect x="96.5276" y="16.5898" width="181.839" height="22.2659" rx="11.133" fill="white"/>
</clipPath>
<clipPath id="clip4_980_42946">
<rect x="96.5276" y="55.4458" width="85.8282" height="85.8282" rx="8.71232" fill="white"/>
</clipPath>
<clipPath id="clip5_980_42946">
<rect x="191.665" y="55.4458" width="85.8282" height="85.8282" rx="8.71232" fill="white"/>
</clipPath>
<clipPath id="clip6_980_42946">
<rect x="96.5276" y="150.583" width="85.8282" height="85.8282" rx="8.71232" fill="white"/>
</clipPath>
<clipPath id="clip7_980_42946">
<rect x="191.665" y="150.583" width="85.8282" height="85.8282" rx="8.71232" fill="white"/>
</clipPath>
<clipPath id="clip8_980_42946">
<rect x="316.159" y="51.8701" width="123.47" height="15.1188" rx="7.55941" fill="white"/>
</clipPath>
<clipPath id="clip9_980_42946">
<rect x="316.159" y="78.2539" width="58.2783" height="58.2783" rx="5.91576" fill="white"/>
</clipPath>
<clipPath id="clip10_980_42946">
<rect x="316.159" y="142.853" width="58.2783" height="58.2783" rx="5.91576" fill="white"/>
</clipPath>
</defs>
</svg>
