<svg width="373" height="266" viewBox="0 0 373 266" fill="none" xmlns="http://www.w3.org/2000/svg">
<g filter="url(#filter0_d_980_42781)">
<rect x="15" y="15" width="149.126" height="51.0799" rx="25.5399" fill="white"/>
<path d="M44.3728 52.1543C50.7873 52.1543 55.9873 46.9543 55.9873 40.5398C55.9873 34.1253 50.7873 28.9253 44.3728 28.9253C37.9583 28.9253 32.7583 34.1253 32.7583 40.5398C32.7583 46.9543 37.9583 52.1543 44.3728 52.1543Z" fill="#F6C733"/>
<path d="M44.3728 53.1222C51.3219 53.1222 56.9552 47.4889 56.9552 40.5398C56.9552 33.5907 51.3219 27.9574 44.3728 27.9574C37.4238 27.9574 31.7904 33.5907 31.7904 40.5398C31.7904 47.4889 37.4238 53.1222 44.3728 53.1222Z" stroke="white" stroke-opacity="0.12" stroke-width="1.93575" stroke-miterlimit="10"/>
<path d="M39.5332 44.4087H49.212" stroke="#171616" stroke-width="1.93575" stroke-linecap="round" stroke-linejoin="round"/>
<path d="M40.0172 39.576C40.8191 39.576 41.4691 38.926 41.4691 38.1242C41.4691 37.3224 40.8191 36.6724 40.0172 36.6724C39.2154 36.6724 38.5654 37.3224 38.5654 38.1242C38.5654 38.926 39.2154 39.576 40.0172 39.576Z" fill="#171616"/>
<path d="M48.7277 39.576C49.5295 39.576 50.1795 38.926 50.1795 38.1242C50.1795 37.3224 49.5295 36.6724 48.7277 36.6724C47.9259 36.6724 47.2759 37.3224 47.2759 38.1242C47.2759 38.926 47.9259 39.576 48.7277 39.576Z" fill="#171616"/>
<path d="M71.5311 48.3158C70.5934 48.3158 69.7476 48.1565 68.9938 47.8378C68.2461 47.5191 67.6271 47.0656 67.1368 46.4772C66.6526 45.8827 66.337 45.181 66.1899 44.372L67.8814 44.1054C68.0959 44.9389 68.5403 45.5916 69.2144 46.0635C69.8947 46.5293 70.6945 46.7622 71.6138 46.7622C72.2083 46.7622 72.7446 46.6703 73.2226 46.4864C73.7068 46.2964 74.0898 46.0268 74.3717 45.6774C74.6537 45.3281 74.7946 44.9144 74.7946 44.4364C74.7946 44.1422 74.7425 43.8909 74.6383 43.6825C74.5403 43.468 74.4024 43.2872 74.2247 43.1401C74.053 42.9869 73.8569 42.8582 73.6363 42.754C73.4157 42.6498 73.1858 42.564 72.9468 42.4966L69.573 41.4946C69.2052 41.3843 68.8498 41.2464 68.5066 41.0809C68.1633 40.9093 67.8569 40.6978 67.5872 40.4466C67.3176 40.1892 67.1031 39.8827 66.9437 39.5272C66.7844 39.1657 66.7047 38.7397 66.7047 38.2494C66.7047 37.4649 66.907 36.7969 67.3115 36.2453C67.7221 35.6876 68.2767 35.2617 68.9754 34.9675C69.6741 34.6733 70.4616 34.5293 71.338 34.5354C72.2267 34.5415 73.0204 34.7009 73.719 35.0134C74.4238 35.3199 75.0061 35.7612 75.4657 36.3373C75.9315 36.9134 76.2441 37.6028 76.4034 38.4057L74.6659 38.7091C74.574 38.1697 74.3687 37.707 74.05 37.3209C73.7374 36.9287 73.3452 36.6284 72.8733 36.42C72.4014 36.2055 71.8835 36.0952 71.3196 36.089C70.7803 36.0829 70.2931 36.1687 69.8579 36.3464C69.4228 36.5242 69.0765 36.7724 68.8191 37.0911C68.5617 37.4036 68.433 37.7652 68.433 38.1759C68.433 38.5804 68.5495 38.9082 68.7824 39.1595C69.0152 39.4047 69.3002 39.6008 69.6373 39.7479C69.9805 39.8888 70.3145 40.0053 70.6394 40.0972L73.1583 40.8235C73.4463 40.9031 73.7773 41.0135 74.1511 41.1544C74.5311 41.2954 74.8988 41.4946 75.2543 41.752C75.6097 42.0033 75.9039 42.3403 76.1368 42.7632C76.3697 43.18 76.4861 43.707 76.4861 44.3444C76.4861 44.9818 76.3574 45.5487 76.1 46.0451C75.8488 46.5416 75.4964 46.9583 75.0428 47.2954C74.5893 47.6264 74.0622 47.8776 73.4616 48.0492C72.861 48.227 72.2175 48.3158 71.5311 48.3158ZM82.7169 48.3158C81.7424 48.3158 80.8905 48.1013 80.1612 47.6723C79.438 47.2372 78.8742 46.6335 78.4697 45.8613C78.0652 45.0829 77.863 44.1759 77.863 43.1401C77.863 42.0553 78.0621 41.1177 78.4605 40.327C78.8589 39.5303 79.4135 38.9174 80.1245 38.4884C80.8415 38.0533 81.6811 37.8357 82.6434 37.8357C83.6423 37.8357 84.4912 38.0656 85.1898 38.5252C85.8946 38.9849 86.4217 39.6406 86.771 40.4925C87.1265 41.3444 87.2797 42.3587 87.2307 43.5354H85.5759V42.9471C85.5576 41.7275 85.3093 40.8173 84.8313 40.2167C84.3533 39.61 83.6423 39.3066 82.6985 39.3066C81.6873 39.3066 80.9181 39.6314 80.3911 40.2811C79.864 40.9307 79.6004 41.8623 79.6004 43.0758C79.6004 44.2464 79.864 45.1534 80.3911 45.7969C80.9181 46.4404 81.6689 46.7622 82.6434 46.7622C83.2991 46.7622 83.8691 46.612 84.3533 46.3117C84.8374 46.0114 85.2174 45.5794 85.4932 45.0155L87.0652 45.5579C86.6791 46.4343 86.0969 47.1146 85.3185 47.5988C84.5463 48.0768 83.6791 48.3158 82.7169 48.3158ZM79.0489 43.5354V42.2208H86.3849V43.5354H79.0489ZM89.4613 48.04V34.5262H91.0977V48.04H89.4613ZM98.1584 48.3158C97.1839 48.3158 96.332 48.1013 95.6027 47.6723C94.8795 47.2372 94.3157 46.6335 93.9112 45.8613C93.5067 45.0829 93.3045 44.1759 93.3045 43.1401C93.3045 42.0553 93.5036 41.1177 93.902 40.327C94.3004 39.5303 94.855 38.9174 95.5659 38.4884C96.283 38.0533 97.1226 37.8357 98.0849 37.8357C99.0838 37.8357 99.9327 38.0656 100.631 38.5252C101.336 38.9849 101.863 39.6406 102.213 40.4925C102.568 41.3444 102.721 42.3587 102.672 43.5354H101.017V42.9471C100.999 41.7275 100.751 40.8173 100.273 40.2167C99.7948 39.61 99.0838 39.3066 98.14 39.3066C97.1288 39.3066 96.3596 39.6314 95.8325 40.2811C95.3055 40.9307 95.0419 41.8623 95.0419 43.0758C95.0419 44.2464 95.3055 45.1534 95.8325 45.7969C96.3596 46.4404 97.1104 46.7622 98.0849 46.7622C98.7406 46.7622 99.3106 46.612 99.7948 46.3117C100.279 46.0114 100.659 45.5794 100.935 45.0155L102.507 45.5579C102.121 46.4343 101.538 47.1146 100.76 47.5988C99.9878 48.0768 99.1206 48.3158 98.1584 48.3158ZM94.4904 43.5354V42.2208H101.826V43.5354H94.4904ZM111.519 48.04V43.0666C111.519 42.5947 111.476 42.1411 111.39 41.706C111.311 41.2709 111.167 40.8817 110.958 40.5385C110.756 40.1892 110.48 39.9134 110.131 39.7111C109.788 39.5089 109.353 39.4077 108.826 39.4077C108.415 39.4077 108.041 39.4782 107.704 39.6192C107.373 39.754 107.088 39.9624 106.849 40.2443C106.61 40.5262 106.423 40.8817 106.288 41.3107C106.16 41.7336 106.095 42.2331 106.095 42.8092L105.02 42.4782C105.02 41.516 105.191 40.6917 105.534 40.0053C105.884 39.3127 106.371 38.7826 106.996 38.4149C107.627 38.041 108.369 37.8541 109.221 37.8541C109.864 37.8541 110.413 37.9552 110.866 38.1575C111.32 38.3597 111.697 38.6294 111.997 38.9665C112.297 39.2974 112.533 39.6713 112.705 40.088C112.877 40.4987 112.996 40.9185 113.064 41.3475C113.137 41.7704 113.174 42.1718 113.174 42.5518V48.04H111.519ZM104.44 48.04V38.1115H105.911V40.7683H106.095V48.04H104.44ZM115.748 36.3556V34.6641H117.384V36.3556H115.748ZM115.748 48.04V38.1115H117.384V48.04H115.748ZM123.912 48.2974C123.274 48.2974 122.726 48.1963 122.266 47.9941C121.813 47.7918 121.436 47.5222 121.135 47.1851C120.835 46.848 120.599 46.4742 120.427 46.0635C120.256 45.6529 120.133 45.2331 120.06 44.8041C119.992 44.3751 119.959 43.9736 119.959 43.5998V38.1115H121.613V43.085C121.613 43.5508 121.656 44.0012 121.742 44.4364C121.828 44.8715 121.972 45.2637 122.174 45.6131C122.383 45.9624 122.658 46.2382 123.002 46.4404C123.351 46.6427 123.786 46.7438 124.307 46.7438C124.718 46.7438 125.091 46.6733 125.429 46.5324C125.766 46.3914 126.054 46.183 126.293 45.9072C126.532 45.6253 126.716 45.2699 126.844 44.8408C126.973 44.4118 127.037 43.9123 127.037 43.3424L128.113 43.6733C128.113 44.6294 127.938 45.4537 127.589 46.1463C127.246 46.8388 126.758 47.372 126.127 47.7459C125.502 48.1136 124.764 48.2974 123.912 48.2974ZM127.221 48.04V45.3832H127.037V38.1115H128.683V48.04H127.221ZM143.125 48.04L143.134 41.6876C143.134 40.946 142.935 40.3669 142.537 39.9501C142.144 39.5272 141.633 39.3158 141.001 39.3158C140.634 39.3158 140.284 39.4016 139.953 39.5732C139.622 39.7387 139.353 40.0022 139.144 40.3638C138.936 40.7193 138.832 41.1759 138.832 41.7336L137.968 41.3843C137.955 40.6794 138.099 40.0635 138.4 39.5364C138.706 39.0032 139.123 38.5896 139.65 38.2954C140.177 38.0012 140.772 37.8541 141.434 37.8541C142.469 37.8541 143.284 38.1697 143.879 38.801C144.473 39.4261 144.771 40.2688 144.771 41.3291L144.761 48.04H143.125ZM131.248 48.04V38.1115H132.709V40.7683H132.893V48.04H131.248ZM137.196 48.04L137.205 41.752C137.205 40.992 137.009 40.3975 136.616 39.9685C136.224 39.5334 135.703 39.3158 135.054 39.3158C134.41 39.3158 133.889 39.5364 133.491 39.9777C133.092 40.419 132.893 41.0043 132.893 41.7336L132.029 41.2188C132.029 40.5753 132.182 39.9992 132.489 39.4905C132.795 38.9818 133.212 38.5834 133.739 38.2954C134.266 38.0012 134.864 37.8541 135.532 37.8541C136.2 37.8541 136.782 37.9951 137.278 38.277C137.775 38.5589 138.158 38.9634 138.427 39.4905C138.697 40.0114 138.832 40.6335 138.832 41.3567L138.823 48.04H137.196Z" fill="black"/>
</g>
<g filter="url(#filter1_d_980_42781)">
<rect x="174.48" y="15" width="160.301" height="51.0799" rx="25.5399" fill="white"/>
<path d="M203.851 52.1523C210.264 52.1523 215.463 46.9533 215.463 40.54C215.463 34.1267 210.264 28.9277 203.851 28.9277C197.437 28.9277 192.238 34.1267 192.238 40.54C192.238 46.9533 197.437 52.1523 203.851 52.1523Z" fill="#22B51F" stroke="white" stroke-opacity="0.12" stroke-width="2.44927" stroke-linecap="round" stroke-linejoin="round"/>
<path d="M199.497 39.5735C200.299 39.5735 200.948 38.9236 200.948 38.1219C200.948 37.3203 200.299 36.6704 199.497 36.6704C198.695 36.6704 198.045 37.3203 198.045 38.1219C198.045 38.9236 198.695 39.5735 199.497 39.5735Z" fill="#04002C"/>
<path d="M208.205 39.5735C209.007 39.5735 209.657 38.9236 209.657 38.1219C209.657 37.3203 209.007 36.6704 208.205 36.6704C207.404 36.6704 206.754 37.3203 206.754 38.1219C206.754 38.9236 207.404 39.5735 208.205 39.5735Z" fill="#04002C"/>
<path d="M208.69 43.4443C207.686 45.1801 206.001 46.3474 203.852 46.3474C201.702 46.3474 200.017 45.1801 199.013 43.4443" stroke="#04002C" stroke-width="2.07085" stroke-linecap="round" stroke-linejoin="round"/>
<path d="M226.309 48.04V34.802H231.54C231.669 34.802 231.822 34.8081 232 34.8204C232.177 34.8265 232.349 34.8449 232.514 34.8756C233.231 34.9859 233.832 35.231 234.316 35.611C234.806 35.991 235.174 36.4721 235.419 37.0543C235.664 37.6304 235.787 38.2709 235.787 38.9757C235.787 39.6743 235.661 40.3148 235.41 40.897C235.165 41.4731 234.797 41.9542 234.307 42.3403C233.823 42.7203 233.225 42.9655 232.514 43.0758C232.349 43.1003 232.177 43.1187 232 43.1309C231.822 43.1432 231.669 43.1493 231.54 43.1493H227.945V48.04H226.309ZM227.945 41.5957H231.485C231.601 41.5957 231.733 41.5896 231.88 41.5773C232.033 41.565 232.177 41.5436 232.312 41.513C232.735 41.4149 233.078 41.2372 233.342 40.9798C233.611 40.7162 233.807 40.4098 233.93 40.0604C234.053 39.705 234.114 39.3434 234.114 38.9757C234.114 38.6079 234.053 38.2494 233.93 37.9001C233.807 37.5446 233.611 37.2351 233.342 36.9716C233.078 36.708 232.735 36.5303 232.312 36.4384C232.177 36.4016 232.033 36.3802 231.88 36.374C231.733 36.3618 231.601 36.3556 231.485 36.3556H227.945V41.5957ZM241.76 48.3158C240.773 48.3158 239.921 48.0921 239.204 47.6447C238.493 47.1973 237.945 46.5783 237.559 45.7877C237.172 44.9971 236.979 44.0901 236.979 43.0666C236.979 42.0247 237.176 41.1115 237.568 40.327C237.96 39.5426 238.515 38.9328 239.232 38.4976C239.949 38.0564 240.791 37.8357 241.76 37.8357C242.753 37.8357 243.608 38.0594 244.325 38.5068C245.042 38.9481 245.59 39.564 245.97 40.3546C246.356 41.1391 246.549 42.0431 246.549 43.0666C246.549 44.1023 246.356 45.0155 245.97 45.8061C245.584 46.5906 245.033 47.2065 244.316 47.6539C243.598 48.0952 242.747 48.3158 241.76 48.3158ZM241.76 46.7622C242.789 46.7622 243.556 46.419 244.058 45.7326C244.561 45.0462 244.812 44.1575 244.812 43.0666C244.812 41.945 244.558 41.0533 244.049 40.3914C243.54 39.7234 242.777 39.3894 241.76 39.3894C241.067 39.3894 240.497 39.5456 240.05 39.8582C239.603 40.1708 239.269 40.6028 239.048 41.1544C238.827 41.706 238.717 42.3434 238.717 43.0666C238.717 44.182 238.974 45.0768 239.489 45.751C240.004 46.4251 240.761 46.7622 241.76 46.7622ZM254.117 48.04C253.529 48.1565 252.946 48.2025 252.37 48.1779C251.8 48.1595 251.292 48.0462 250.844 47.8378C250.397 47.6233 250.057 47.2923 249.824 46.8449C249.628 46.4527 249.52 46.0574 249.502 45.659C249.49 45.2545 249.484 44.7979 249.484 44.2893V35.3536H251.12V44.2157C251.12 44.6202 251.123 44.9665 251.129 45.2545C251.141 45.5426 251.206 45.7908 251.322 45.9992C251.543 46.3914 251.892 46.6212 252.37 46.6887C252.854 46.7561 253.437 46.7377 254.117 46.6335V48.04ZM247.47 39.4629V38.1115H254.117V39.4629H247.47ZM258.955 48.3158C258.213 48.3158 257.591 48.181 257.089 47.9113C256.592 47.6355 256.215 47.2739 255.958 46.8266C255.707 46.3792 255.581 45.8889 255.581 45.3557C255.581 44.8347 255.679 44.3843 255.875 44.0043C256.077 43.6182 256.359 43.2995 256.721 43.0482C257.083 42.7908 257.515 42.5885 258.017 42.4415C258.489 42.3128 259.016 42.2024 259.598 42.1105C260.187 42.0124 260.781 41.9236 261.382 41.8439C261.983 41.7642 262.543 41.6876 263.064 41.6141L262.476 41.9542C262.494 41.0717 262.317 40.419 261.943 39.9961C261.575 39.5732 260.938 39.3618 260.031 39.3618C259.43 39.3618 258.903 39.4997 258.449 39.7755C258.002 40.0451 257.686 40.4864 257.502 41.0993L255.949 40.6304C256.188 39.7601 256.651 39.0768 257.337 38.5804C258.023 38.0839 258.927 37.8357 260.049 37.8357C260.95 37.8357 261.722 37.9981 262.366 38.323C263.015 38.6416 263.481 39.1258 263.763 39.7755C263.904 40.0819 263.993 40.4159 264.029 40.7775C264.066 41.133 264.085 41.5068 264.085 41.8991V48.04H262.632V45.659L262.972 45.8797C262.598 46.6825 262.074 47.2893 261.4 47.6999C260.732 48.1105 259.917 48.3158 258.955 48.3158ZM259.203 46.9461C259.791 46.9461 260.3 46.8419 260.729 46.6335C261.164 46.419 261.514 46.1401 261.777 45.7969C262.041 45.4476 262.212 45.0676 262.292 44.657C262.384 44.3506 262.433 44.0104 262.439 43.6366C262.451 43.2566 262.457 42.9655 262.457 42.7632L263.027 43.0114C262.494 43.085 261.97 43.1555 261.455 43.2229C260.941 43.2903 260.453 43.3638 259.994 43.4435C259.534 43.517 259.12 43.6059 258.753 43.7101C258.483 43.7959 258.229 43.9062 257.99 44.0411C257.757 44.1759 257.567 44.3506 257.42 44.5651C257.279 44.7734 257.208 45.0339 257.208 45.3465C257.208 45.6161 257.276 45.8735 257.41 46.1187C257.551 46.3638 257.766 46.563 258.054 46.7162C258.348 46.8695 258.731 46.9461 259.203 46.9461ZM270.226 48.3066C269.043 48.3066 268.071 48.0492 267.311 47.5344C266.558 47.0135 266.095 46.2872 265.923 45.3557L267.596 45.0891C267.731 45.6284 268.041 46.0574 268.525 46.3761C269.009 46.6887 269.61 46.8449 270.327 46.8449C271.007 46.8449 271.54 46.704 271.926 46.4221C272.312 46.1401 272.506 45.7571 272.506 45.2729C272.506 44.991 272.441 44.7642 272.312 44.5926C272.184 44.4149 271.917 44.2494 271.513 44.0962C271.114 43.943 270.511 43.7591 269.702 43.5446C268.825 43.3117 268.136 43.0696 267.633 42.8184C267.131 42.5671 266.772 42.276 266.558 41.945C266.343 41.6141 266.236 41.2126 266.236 40.7407C266.236 40.1585 266.395 39.6498 266.714 39.2147C267.033 38.7734 267.477 38.4333 268.047 38.1943C268.623 37.9552 269.291 37.8357 270.051 37.8357C270.805 37.8357 271.479 37.9552 272.073 38.1943C272.668 38.4333 273.146 38.7734 273.508 39.2147C273.875 39.6498 274.093 40.1585 274.16 40.7407L272.487 41.0441C272.407 40.5109 272.15 40.0911 271.715 39.7847C271.286 39.4782 270.731 39.3158 270.051 39.2974C269.407 39.2729 268.883 39.3863 268.479 39.6376C268.081 39.8888 267.881 40.229 267.881 40.658C267.881 40.897 267.955 41.1023 268.102 41.2739C268.255 41.4455 268.534 41.6079 268.939 41.7612C269.349 41.9144 269.944 42.0891 270.722 42.2852C271.598 42.5058 272.288 42.7479 272.79 43.0114C273.299 43.2688 273.661 43.5753 273.875 43.9307C274.09 44.2801 274.197 44.7121 274.197 45.227C274.197 46.183 273.845 46.9369 273.14 47.4885C272.435 48.0339 271.464 48.3066 270.226 48.3066ZM279.975 48.3066C278.792 48.3066 277.821 48.0492 277.061 47.5344C276.307 47.0135 275.845 46.2872 275.673 45.3557L277.346 45.0891C277.481 45.6284 277.79 46.0574 278.275 46.3761C278.759 46.6887 279.359 46.8449 280.076 46.8449C280.757 46.8449 281.29 46.704 281.676 46.4221C282.062 46.1401 282.255 45.7571 282.255 45.2729C282.255 44.991 282.191 44.7642 282.062 44.5926C281.933 44.4149 281.667 44.2494 281.262 44.0962C280.864 43.943 280.26 43.7591 279.451 43.5446C278.575 43.3117 277.885 43.0696 277.383 42.8184C276.88 42.5671 276.522 42.276 276.307 41.945C276.093 41.6141 275.986 41.2126 275.986 40.7407C275.986 40.1585 276.145 39.6498 276.464 39.2147C276.782 38.7734 277.227 38.4333 277.797 38.1943C278.373 37.9552 279.041 37.8357 279.801 37.8357C280.554 37.8357 281.229 37.9552 281.823 38.1943C282.418 38.4333 282.896 38.7734 283.257 39.2147C283.625 39.6498 283.843 40.1585 283.91 40.7407L282.237 41.0441C282.157 40.5109 281.9 40.0911 281.465 39.7847C281.036 39.4782 280.481 39.3158 279.801 39.2974C279.157 39.2729 278.633 39.3863 278.229 39.6376C277.83 39.8888 277.631 40.229 277.631 40.658C277.631 40.897 277.705 41.1023 277.852 41.2739C278.005 41.4455 278.284 41.6079 278.688 41.7612C279.099 41.9144 279.693 42.0891 280.472 42.2852C281.348 42.5058 282.038 42.7479 282.54 43.0114C283.049 43.2688 283.41 43.5753 283.625 43.9307C283.839 44.2801 283.947 44.7121 283.947 45.227C283.947 46.183 283.594 46.9369 282.89 47.4885C282.185 48.0339 281.213 48.3066 279.975 48.3066ZM286.158 36.3556V34.6641H287.794V36.3556H286.158ZM286.158 48.04V38.1115H287.794V48.04H286.158ZM294.322 48.2974C293.685 48.2974 293.136 48.1963 292.676 47.9941C292.223 47.7918 291.846 47.5222 291.546 47.1851C291.245 46.848 291.009 46.4742 290.838 46.0635C290.666 45.6529 290.544 45.2331 290.47 44.8041C290.403 44.3751 290.369 43.9736 290.369 43.5998V38.1115H292.024V43.085C292.024 43.5508 292.067 44.0012 292.152 44.4364C292.238 44.8715 292.382 45.2637 292.584 45.6131C292.793 45.9624 293.069 46.2382 293.412 46.4404C293.761 46.6427 294.196 46.7438 294.717 46.7438C295.128 46.7438 295.502 46.6733 295.839 46.5324C296.176 46.3914 296.464 46.183 296.703 45.9072C296.942 45.6253 297.126 45.2699 297.255 44.8408C297.383 44.4118 297.448 43.9123 297.448 43.3424L298.523 43.6733C298.523 44.6294 298.349 45.4537 297.999 46.1463C297.656 46.8388 297.169 47.372 296.538 47.7459C295.912 48.1136 295.174 48.2974 294.322 48.2974ZM297.631 48.04V45.3832H297.448V38.1115H299.093V48.04H297.631ZM313.535 48.04L313.545 41.6876C313.545 40.946 313.345 40.3669 312.947 39.9501C312.555 39.5272 312.043 39.3158 311.412 39.3158C311.044 39.3158 310.695 39.4016 310.364 39.5732C310.033 39.7387 309.763 40.0022 309.555 40.3638C309.346 40.7193 309.242 41.1759 309.242 41.7336L308.378 41.3843C308.366 40.6794 308.51 40.0635 308.81 39.5364C309.117 39.0032 309.533 38.5896 310.06 38.2954C310.587 38.0012 311.182 37.8541 311.844 37.8541C312.88 37.8541 313.695 38.1697 314.289 38.801C314.884 39.4261 315.181 40.2688 315.181 41.3291L315.172 48.04H313.535ZM301.658 48.04V38.1115H303.12V40.7683H303.303V48.04H301.658ZM307.606 48.04L307.615 41.752C307.615 40.992 307.419 40.3975 307.027 39.9685C306.634 39.5334 306.113 39.3158 305.464 39.3158C304.82 39.3158 304.299 39.5364 303.901 39.9777C303.503 40.419 303.303 41.0043 303.303 41.7336L302.439 41.2188C302.439 40.5753 302.593 39.9992 302.899 39.4905C303.205 38.9818 303.622 38.5834 304.149 38.2954C304.676 38.0012 305.274 37.8541 305.942 37.8541C306.61 37.8541 307.192 37.9951 307.689 38.277C308.185 38.5589 308.568 38.9634 308.838 39.4905C309.107 40.0114 309.242 40.6335 309.242 41.3567L309.233 48.04H307.606Z" fill="black"/>
</g>
<g filter="url(#filter2_d_980_42781)">
<rect x="15" y="76.4341" width="169.301" height="51.0799" rx="25.5399" fill="white"/>
<path d="M44.3706 113.586C50.7838 113.586 55.9828 108.387 55.9828 101.974C55.9828 95.5608 50.7838 90.3618 44.3706 90.3618C37.9573 90.3618 32.7583 95.5608 32.7583 101.974C32.7583 108.387 37.9573 113.586 44.3706 113.586Z" fill="#22B51F" stroke="white" stroke-opacity="0.12" stroke-width="2.44927" stroke-linecap="round" stroke-linejoin="round"/>
<path d="M40.017 101.008C40.8186 101.008 41.4685 100.358 41.4685 99.556C41.4685 98.7544 40.8186 98.1045 40.017 98.1045C39.2153 98.1045 38.5654 98.7544 38.5654 99.556C38.5654 100.358 39.2153 101.008 40.017 101.008Z" fill="#04002C"/>
<path d="M48.7255 101.008C49.5271 101.008 50.177 100.358 50.177 99.556C50.177 98.7544 49.5271 98.1045 48.7255 98.1045C47.9238 98.1045 47.2739 98.7544 47.2739 99.556C47.2739 100.358 47.9238 101.008 48.7255 101.008Z" fill="#04002C"/>
<path d="M49.2101 104.878C48.2061 106.614 46.5211 107.781 44.3716 107.781C42.2222 107.781 40.5372 106.614 39.5332 104.878" stroke="#04002C" stroke-width="2.07085" stroke-linecap="round" stroke-linejoin="round"/>
<path d="M66.829 109.474V96.2361H68.3183L73.3193 106.781L78.2928 96.2361H79.8005V109.465H78.2468V99.8306L73.7514 109.474H72.8781L68.3827 99.8306V109.474H66.829ZM85.2005 109.75C84.459 109.75 83.8369 109.615 83.3343 109.345C82.8379 109.07 82.461 108.708 82.2036 108.261C81.9523 107.813 81.8267 107.323 81.8267 106.79C81.8267 106.269 81.9247 105.818 82.1208 105.438C82.3231 105.052 82.605 104.734 82.9666 104.482C83.3282 104.225 83.7603 104.023 84.2628 103.876C84.7347 103.747 85.2618 103.637 85.844 103.545C86.4324 103.447 87.0269 103.358 87.6275 103.278C88.2281 103.198 88.7889 103.122 89.3098 103.048L88.7215 103.388C88.7399 102.506 88.5621 101.853 88.1883 101.43C87.8206 101.007 87.1832 100.796 86.2761 100.796C85.6755 100.796 85.1484 100.934 84.6949 101.21C84.2475 101.479 83.9319 101.92 83.748 102.533L82.1944 102.065C82.4334 101.194 82.8961 100.511 83.5825 100.014C84.269 99.518 85.1729 99.2698 86.2945 99.2698C87.1954 99.2698 87.9676 99.4322 88.6112 99.757C89.2608 100.076 89.7266 100.56 90.0085 101.21C90.1495 101.516 90.2383 101.85 90.2751 102.212C90.3119 102.567 90.3303 102.941 90.3303 103.333V109.474H88.8778V107.093L89.2179 107.314C88.844 108.117 88.32 108.723 87.6459 109.134C86.9779 109.545 86.1627 109.75 85.2005 109.75ZM85.4487 108.38C86.0371 108.38 86.5458 108.276 86.9748 108.068C87.4099 107.853 87.7593 107.574 88.0228 107.231C88.2863 106.882 88.4579 106.502 88.5376 106.091C88.6295 105.785 88.6786 105.444 88.6847 105.071C88.697 104.691 88.7031 104.4 88.7031 104.197L89.2731 104.446C88.7399 104.519 88.2159 104.59 87.701 104.657C87.1862 104.724 86.699 104.798 86.2393 104.878C85.7797 104.951 85.366 105.04 84.9983 105.144C84.7286 105.23 84.4743 105.34 84.2353 105.475C84.0024 105.61 83.8124 105.785 83.6653 105.999C83.5243 106.208 83.4538 106.468 83.4538 106.781C83.4538 107.05 83.5213 107.308 83.6561 107.553C83.797 107.798 84.0116 107.997 84.2996 108.15C84.5938 108.304 84.9768 108.38 85.4487 108.38ZM99.7899 109.474V104.501C99.7899 104.029 99.747 103.575 99.6612 103.14C99.5816 102.705 99.4375 102.316 99.2292 101.973C99.0269 101.623 98.7511 101.347 98.4018 101.145C98.0586 100.943 97.6234 100.842 97.0964 100.842C96.6857 100.842 96.3119 100.912 95.9748 101.053C95.6439 101.188 95.3589 101.396 95.1199 101.678C94.8808 101.96 94.6939 102.316 94.5591 102.745C94.4304 103.168 94.366 103.667 94.366 104.243L93.2904 103.912C93.2904 102.95 93.462 102.126 93.8052 101.439C94.1546 100.747 94.6418 100.217 95.2669 99.849C95.8982 99.4751 96.6398 99.2882 97.4917 99.2882C98.1352 99.2882 98.6837 99.3893 99.1372 99.5916C99.5908 99.7938 99.9677 100.063 100.268 100.401C100.568 100.732 100.804 101.105 100.976 101.522C101.147 101.933 101.267 102.353 101.334 102.782C101.408 103.204 101.445 103.606 101.445 103.986V109.474H99.7899ZM92.7113 109.474V99.5456H94.1822V102.202H94.366V109.474H92.7113ZM107.852 114.163C107.331 114.163 106.822 114.083 106.326 113.924C105.83 113.764 105.373 113.522 104.956 113.197C104.546 112.879 104.202 112.474 103.927 111.984L105.425 111.193C105.67 111.677 106.017 112.03 106.464 112.25C106.917 112.471 107.383 112.581 107.861 112.581C108.493 112.581 109.017 112.465 109.433 112.232C109.85 112.005 110.157 111.665 110.353 111.212C110.555 110.758 110.653 110.194 110.647 109.52V106.808H110.84V99.5456H112.292V109.538C112.292 109.808 112.283 110.069 112.265 110.32C112.253 110.571 112.222 110.819 112.173 111.065C112.044 111.769 111.79 112.348 111.41 112.802C111.03 113.262 110.54 113.602 109.939 113.822C109.338 114.049 108.643 114.163 107.852 114.163ZM107.733 109.75C106.807 109.75 106.014 109.52 105.352 109.06C104.69 108.595 104.178 107.966 103.816 107.176C103.461 106.385 103.283 105.494 103.283 104.501C103.283 103.508 103.461 102.616 103.816 101.825C104.178 101.035 104.69 100.413 105.352 99.9593C106.014 99.4996 106.804 99.2698 107.723 99.2698C108.661 99.2698 109.449 99.4966 110.086 99.9501C110.723 100.404 111.205 101.026 111.529 101.816C111.86 102.607 112.026 103.502 112.026 104.501C112.026 105.487 111.86 106.379 111.529 107.176C111.205 107.966 110.723 108.595 110.086 109.06C109.449 109.52 108.664 109.75 107.733 109.75ZM107.935 108.251C108.603 108.251 109.151 108.092 109.58 107.773C110.009 107.449 110.325 107.004 110.527 106.44C110.736 105.87 110.84 105.224 110.84 104.501C110.84 103.765 110.736 103.119 110.527 102.561C110.325 101.997 110.012 101.559 109.59 101.246C109.167 100.928 108.63 100.768 107.981 100.768C107.307 100.768 106.749 100.934 106.308 101.265C105.873 101.596 105.548 102.043 105.333 102.607C105.125 103.171 105.021 103.802 105.021 104.501C105.021 105.205 105.128 105.843 105.342 106.413C105.557 106.977 105.879 107.424 106.308 107.755C106.743 108.086 107.285 108.251 107.935 108.251ZM117.682 109.75C116.94 109.75 116.318 109.615 115.815 109.345C115.319 109.07 114.942 108.708 114.685 108.261C114.433 107.813 114.308 107.323 114.308 106.79C114.308 106.269 114.406 105.818 114.602 105.438C114.804 105.052 115.086 104.734 115.448 104.482C115.809 104.225 116.241 104.023 116.744 103.876C117.216 103.747 117.743 103.637 118.325 103.545C118.913 103.447 119.508 103.358 120.109 103.278C120.709 103.198 121.27 103.122 121.791 103.048L121.202 103.388C121.221 102.506 121.043 101.853 120.669 101.43C120.302 101.007 119.664 100.796 118.757 100.796C118.157 100.796 117.629 100.934 117.176 101.21C116.729 101.479 116.413 101.92 116.229 102.533L114.675 102.065C114.914 101.194 115.377 100.511 116.064 100.014C116.75 99.518 117.654 99.2698 118.776 99.2698C119.676 99.2698 120.449 99.4322 121.092 99.757C121.742 100.076 122.208 100.56 122.49 101.21C122.63 101.516 122.719 101.85 122.756 102.212C122.793 102.567 122.811 102.941 122.811 103.333V109.474H121.359V107.093L121.699 107.314C121.325 108.117 120.801 108.723 120.127 109.134C119.459 109.545 118.644 109.75 117.682 109.75ZM117.93 108.38C118.518 108.38 119.027 108.276 119.456 108.068C119.891 107.853 120.24 107.574 120.504 107.231C120.767 106.882 120.939 106.502 121.019 106.091C121.111 105.785 121.16 105.444 121.166 105.071C121.178 104.691 121.184 104.4 121.184 104.197L121.754 104.446C121.221 104.519 120.697 104.59 120.182 104.657C119.667 104.724 119.18 104.798 118.72 104.878C118.261 104.951 117.847 105.04 117.479 105.144C117.21 105.23 116.955 105.34 116.716 105.475C116.483 105.61 116.293 105.785 116.146 105.999C116.005 106.208 115.935 106.468 115.935 106.781C115.935 107.05 116.002 107.308 116.137 107.553C116.278 107.798 116.493 107.997 116.781 108.15C117.075 108.304 117.458 108.38 117.93 108.38ZM132.271 109.474V104.501C132.271 104.029 132.228 103.575 132.142 103.14C132.063 102.705 131.919 102.316 131.71 101.973C131.508 101.623 131.232 101.347 130.883 101.145C130.54 100.943 130.104 100.842 129.577 100.842C129.167 100.842 128.793 100.912 128.456 101.053C128.125 101.188 127.84 101.396 127.601 101.678C127.362 101.96 127.175 102.316 127.04 102.745C126.911 103.168 126.847 103.667 126.847 104.243L125.771 103.912C125.771 102.95 125.943 102.126 126.286 101.439C126.636 100.747 127.123 100.217 127.748 99.849C128.379 99.4751 129.121 99.2882 129.973 99.2882C130.616 99.2882 131.165 99.3893 131.618 99.5916C132.072 99.7938 132.449 100.063 132.749 100.401C133.049 100.732 133.285 101.105 133.457 101.522C133.628 101.933 133.748 102.353 133.815 102.782C133.889 103.204 133.926 103.606 133.926 103.986V109.474H132.271ZM125.192 109.474V99.5456H126.663V102.202H126.847V109.474H125.192ZM140.528 109.75C139.554 109.75 138.702 109.535 137.973 109.106C137.249 108.671 136.686 108.068 136.281 107.295C135.877 106.517 135.674 105.61 135.674 104.574C135.674 103.489 135.874 102.552 136.272 101.761C136.67 100.964 137.225 100.352 137.936 99.9225C138.653 99.4874 139.493 99.2698 140.455 99.2698C141.454 99.2698 142.303 99.4996 143.001 99.9593C143.706 100.419 144.233 101.075 144.582 101.927C144.938 102.778 145.091 103.793 145.042 104.97H143.387V104.381C143.369 103.162 143.121 102.251 142.643 101.651C142.165 101.044 141.454 100.741 140.51 100.741C139.499 100.741 138.73 101.066 138.202 101.715C137.675 102.365 137.412 103.296 137.412 104.51C137.412 105.68 137.675 106.587 138.202 107.231C138.73 107.875 139.48 108.196 140.455 108.196C141.111 108.196 141.681 108.046 142.165 107.746C142.649 107.446 143.029 107.013 143.305 106.45L144.877 106.992C144.491 107.868 143.908 108.549 143.13 109.033C142.358 109.511 141.491 109.75 140.528 109.75ZM136.86 104.97V103.655H144.196V104.97H136.86ZM150.84 109.741C149.657 109.741 148.685 109.483 147.925 108.969C147.172 108.448 146.709 107.721 146.537 106.79L148.21 106.523C148.345 107.062 148.655 107.491 149.139 107.81C149.623 108.123 150.224 108.279 150.941 108.279C151.621 108.279 152.154 108.138 152.54 107.856C152.926 107.574 153.12 107.191 153.12 106.707C153.12 106.425 153.055 106.198 152.926 106.027C152.798 105.849 152.531 105.684 152.127 105.53C151.728 105.377 151.125 105.193 150.316 104.979C149.439 104.746 148.75 104.504 148.247 104.252C147.745 104.001 147.386 103.71 147.172 103.379C146.957 103.048 146.85 102.647 146.85 102.175C146.85 101.593 147.009 101.084 147.328 100.649C147.647 100.207 148.091 99.8674 148.661 99.6283C149.237 99.3893 149.905 99.2698 150.665 99.2698C151.419 99.2698 152.093 99.3893 152.687 99.6283C153.282 99.8674 153.76 100.207 154.122 100.649C154.489 101.084 154.707 101.593 154.774 102.175L153.101 102.478C153.021 101.945 152.764 101.525 152.329 101.219C151.9 100.912 151.345 100.75 150.665 100.732C150.021 100.707 149.497 100.82 149.093 101.072C148.695 101.323 148.495 101.663 148.495 102.092C148.495 102.331 148.569 102.536 148.716 102.708C148.869 102.88 149.148 103.042 149.553 103.195C149.963 103.348 150.558 103.523 151.336 103.719C152.213 103.94 152.902 104.182 153.405 104.446C153.913 104.703 154.275 105.009 154.489 105.365C154.704 105.714 154.811 106.146 154.811 106.661C154.811 107.617 154.459 108.371 153.754 108.923C153.049 109.468 152.078 109.741 150.84 109.741ZM161.141 109.75C160.166 109.75 159.315 109.535 158.585 109.106C157.862 108.671 157.298 108.068 156.894 107.295C156.489 106.517 156.287 105.61 156.287 104.574C156.287 103.489 156.486 102.552 156.885 101.761C157.283 100.964 157.838 100.352 158.548 99.9225C159.266 99.4874 160.105 99.2698 161.067 99.2698C162.066 99.2698 162.915 99.4996 163.614 99.9593C164.319 100.419 164.846 101.075 165.195 101.927C165.551 102.778 165.704 103.793 165.655 104.97H164V104.381C163.982 103.162 163.733 102.251 163.255 101.651C162.777 101.044 162.066 100.741 161.123 100.741C160.111 100.741 159.342 101.066 158.815 101.715C158.288 102.365 158.024 103.296 158.024 104.51C158.024 105.68 158.288 106.587 158.815 107.231C159.342 107.875 160.093 108.196 161.067 108.196C161.723 108.196 162.293 108.046 162.777 107.746C163.261 107.446 163.641 107.013 163.917 106.45L165.489 106.992C165.103 107.868 164.521 108.549 163.743 109.033C162.97 109.511 162.103 109.75 161.141 109.75ZM157.473 104.97V103.655H164.809V104.97H157.473Z" fill="black"/>
</g>
<g filter="url(#filter3_d_980_42781)">
<rect x="194.655" y="76.4341" width="131.301" height="51.0799" rx="25.5399" fill="white"/>
<path d="M224.025 113.586C230.439 113.586 235.638 108.387 235.638 101.974C235.638 95.5608 230.439 90.3618 224.025 90.3618C217.612 90.3618 212.413 95.5608 212.413 101.974C212.413 108.387 217.612 113.586 224.025 113.586Z" fill="#ED461E" stroke="white" stroke-opacity="0.12" stroke-width="2.44927" stroke-linecap="round" stroke-linejoin="round"/>
<path d="M219.672 101.008C220.473 101.008 221.123 100.358 221.123 99.556C221.123 98.7544 220.473 98.1045 219.672 98.1045C218.87 98.1045 218.22 98.7544 218.22 99.556C218.22 100.358 218.87 101.008 219.672 101.008Z" fill="#04002C"/>
<path d="M228.38 101.008C229.182 101.008 229.832 100.358 229.832 99.556C229.832 98.7544 229.182 98.1045 228.38 98.1045C227.579 98.1045 226.929 98.7544 226.929 99.556C226.929 100.358 227.579 101.008 228.38 101.008Z" fill="#04002C"/>
<path d="M219.187 107.783C220.191 106.047 221.876 104.88 224.026 104.88C226.175 104.88 227.86 106.047 228.864 107.783" stroke="#04002C" stroke-width="2.07085" stroke-linecap="round" stroke-linejoin="round"/>
<path d="M246.668 109.474V96.2361H248.304V107.92H254.445V109.474H246.668ZM258.822 109.75C258.081 109.75 257.459 109.615 256.956 109.345C256.46 109.07 256.083 108.708 255.825 108.261C255.574 107.813 255.448 107.323 255.448 106.79C255.448 106.269 255.547 105.818 255.743 105.438C255.945 105.052 256.227 104.734 256.588 104.482C256.95 104.225 257.382 104.023 257.885 103.876C258.357 103.747 258.884 103.637 259.466 103.545C260.054 103.447 260.649 103.358 261.249 103.278C261.85 103.198 262.411 103.122 262.932 103.048L262.343 103.388C262.362 102.506 262.184 101.853 261.81 101.43C261.442 101.007 260.805 100.796 259.898 100.796C259.297 100.796 258.77 100.934 258.317 101.21C257.869 101.479 257.554 101.92 257.37 102.533L255.816 102.065C256.055 101.194 256.518 100.511 257.204 100.014C257.891 99.518 258.795 99.2698 259.916 99.2698C260.817 99.2698 261.589 99.4322 262.233 99.757C262.883 100.076 263.348 100.56 263.63 101.21C263.771 101.516 263.86 101.85 263.897 102.212C263.934 102.567 263.952 102.941 263.952 103.333V109.474H262.5V107.093L262.84 107.314C262.466 108.117 261.942 108.723 261.268 109.134C260.6 109.545 259.785 109.75 258.822 109.75ZM259.071 108.38C259.659 108.38 260.168 108.276 260.597 108.068C261.032 107.853 261.381 107.574 261.645 107.231C261.908 106.882 262.08 106.502 262.159 106.091C262.251 105.785 262.3 105.444 262.307 105.071C262.319 104.691 262.325 104.4 262.325 104.197L262.895 104.446C262.362 104.519 261.838 104.59 261.323 104.657C260.808 104.724 260.321 104.798 259.861 104.878C259.402 104.951 258.988 105.04 258.62 105.144C258.35 105.23 258.096 105.34 257.857 105.475C257.624 105.61 257.434 105.785 257.287 105.999C257.146 106.208 257.076 106.468 257.076 106.781C257.076 107.05 257.143 107.308 257.278 107.553C257.419 107.798 257.633 107.997 257.921 108.15C258.216 108.304 258.599 108.38 259.071 108.38ZM273.412 109.474V104.501C273.412 104.029 273.369 103.575 273.283 103.14C273.203 102.705 273.059 102.316 272.851 101.973C272.649 101.623 272.373 101.347 272.024 101.145C271.68 100.943 271.245 100.842 270.718 100.842C270.308 100.842 269.934 100.912 269.597 101.053C269.266 101.188 268.981 101.396 268.742 101.678C268.503 101.96 268.316 102.316 268.181 102.745C268.052 103.168 267.988 103.667 267.988 104.243L266.912 103.912C266.912 102.95 267.084 102.126 267.427 101.439C267.776 100.747 268.264 100.217 268.889 99.849C269.52 99.4751 270.262 99.2882 271.113 99.2882C271.757 99.2882 272.306 99.3893 272.759 99.5916C273.213 99.7938 273.59 100.063 273.89 100.401C274.19 100.732 274.426 101.105 274.598 101.522C274.769 101.933 274.889 102.353 274.956 102.782C275.03 103.204 275.067 103.606 275.067 103.986V109.474H273.412ZM266.333 109.474V99.5456H267.804V102.202H267.988V109.474H266.333ZM281.596 109.75C280.609 109.75 279.757 109.526 279.04 109.079C278.329 108.631 277.78 108.012 277.394 107.222C277.008 106.431 276.815 105.524 276.815 104.501C276.815 103.459 277.011 102.546 277.404 101.761C277.796 100.977 278.35 100.367 279.068 99.9317C279.785 99.4904 280.627 99.2698 281.596 99.2698C282.588 99.2698 283.443 99.4935 284.16 99.9409C284.878 100.382 285.426 100.998 285.806 101.789C286.192 102.573 286.385 103.477 286.385 104.501C286.385 105.536 286.192 106.45 285.806 107.24C285.42 108.025 284.868 108.641 284.151 109.088C283.434 109.529 282.582 109.75 281.596 109.75ZM281.596 108.196C282.625 108.196 283.391 107.853 283.894 107.167C284.396 106.48 284.648 105.592 284.648 104.501C284.648 103.379 284.393 102.487 283.885 101.825C283.376 101.157 282.613 100.823 281.596 100.823C280.903 100.823 280.333 100.98 279.886 101.292C279.438 101.605 279.104 102.037 278.884 102.589C278.663 103.14 278.553 103.777 278.553 104.501C278.553 105.616 278.81 106.511 279.325 107.185C279.84 107.859 280.597 108.196 281.596 108.196ZM288.593 109.474V95.9603H290.229V109.474H288.593ZM293.172 97.7897V96.0982H294.808V97.7897H293.172ZM293.172 109.474V99.5456H294.808V109.474H293.172ZM304.636 109.474V104.501C304.636 104.029 304.593 103.575 304.507 103.14C304.428 102.705 304.284 102.316 304.075 101.973C303.873 101.623 303.597 101.347 303.248 101.145C302.905 100.943 302.469 100.842 301.942 100.842C301.532 100.842 301.158 100.912 300.821 101.053C300.49 101.188 300.205 101.396 299.966 101.678C299.727 101.96 299.54 102.316 299.405 102.745C299.276 103.168 299.212 103.667 299.212 104.243L298.136 103.912C298.136 102.95 298.308 102.126 298.651 101.439C299.001 100.747 299.488 100.217 300.113 99.849C300.744 99.4751 301.486 99.2882 302.338 99.2882C302.981 99.2882 303.53 99.3893 303.983 99.5916C304.437 99.7938 304.814 100.063 305.114 100.401C305.414 100.732 305.65 101.105 305.822 101.522C305.993 101.933 306.113 102.353 306.18 102.782C306.254 103.204 306.291 103.606 306.291 103.986V109.474H304.636ZM297.557 109.474V99.5456H299.028V102.202H299.212V109.474H297.557Z" fill="black"/>
</g>
<g filter="url(#filter4_d_980_42781)">
<rect x="15" y="137.868" width="290.305" height="51.0799" rx="25.5399" fill="white"/>
<path d="M44.3728 175.022C50.7873 175.022 55.9873 169.823 55.9873 163.408C55.9873 156.993 50.7873 151.793 44.3728 151.793C37.9583 151.793 32.7583 156.993 32.7583 163.408C32.7583 169.823 37.9583 175.022 44.3728 175.022Z" fill="#F6C733"/>
<path d="M44.3728 175.99C51.3219 175.99 56.9552 170.357 56.9552 163.408C56.9552 156.459 51.3219 150.826 44.3728 150.826C37.4238 150.826 31.7904 156.459 31.7904 163.408C31.7904 170.357 37.4238 175.99 44.3728 175.99Z" stroke="white" stroke-opacity="0.12" stroke-width="1.93575" stroke-miterlimit="10"/>
<path d="M39.5332 167.277H49.212" stroke="#171616" stroke-width="1.93575" stroke-linecap="round" stroke-linejoin="round"/>
<path d="M40.0172 162.444C40.8191 162.444 41.4691 161.794 41.4691 160.992C41.4691 160.191 40.8191 159.541 40.0172 159.541C39.2154 159.541 38.5654 160.191 38.5654 160.992C38.5654 161.794 39.2154 162.444 40.0172 162.444Z" fill="#171616"/>
<path d="M48.7277 162.444C49.5295 162.444 50.1795 161.794 50.1795 160.992C50.1795 160.191 49.5295 159.541 48.7277 159.541C47.9259 159.541 47.2759 160.191 47.2759 160.992C47.2759 161.794 47.9259 162.444 48.7277 162.444Z" fill="#171616"/>
<path d="M70.244 170.908V159.224H65.7302V157.67H76.3942V159.224H71.8804V170.908H70.244ZM84.9274 170.908V165.935C84.9274 165.463 84.8845 165.009 84.7987 164.574C84.719 164.139 84.575 163.75 84.3666 163.407C84.1644 163.057 83.8886 162.782 83.5392 162.579C83.196 162.377 82.7609 162.276 82.2338 162.276C81.8232 162.276 81.4494 162.346 81.1123 162.487C80.7813 162.622 80.4963 162.831 80.2573 163.112C80.0183 163.394 79.8314 163.75 79.6965 164.179C79.5678 164.602 79.5035 165.101 79.5035 165.677L78.4279 165.346C78.4279 164.384 78.5995 163.56 78.9427 162.873C79.292 162.181 79.7793 161.651 80.4044 161.283C81.0357 160.909 81.7772 160.722 82.6291 160.722C83.2727 160.722 83.8212 160.823 84.2747 161.026C84.7282 161.228 85.1051 161.498 85.4054 161.835C85.7058 162.166 85.9417 162.539 86.1133 162.956C86.2849 163.367 86.4044 163.787 86.4718 164.216C86.5454 164.639 86.5822 165.04 86.5822 165.42V170.908H84.9274ZM77.8487 170.908V157.67H79.3196V164.979H79.5035V170.908H77.8487ZM89.1561 159.224V157.532H90.7924V159.224H89.1561ZM89.1561 170.908V160.98H90.7924V170.908H89.1561ZM96.3731 171.184C95.6315 171.184 95.0094 171.049 94.5069 170.78C94.0105 170.504 93.6335 170.142 93.3761 169.695C93.1249 169.247 92.9992 168.757 92.9992 168.224C92.9992 167.703 93.0973 167.252 93.2934 166.872C93.4956 166.486 93.7776 166.168 94.1392 165.916C94.5007 165.659 94.9328 165.457 95.4354 165.31C95.9073 165.181 96.4344 165.071 97.0166 164.979C97.6049 164.881 98.1994 164.792 98.8 164.712C99.4007 164.632 99.9614 164.556 100.482 164.482L99.894 164.822C99.9124 163.94 99.7347 163.287 99.3608 162.864C98.9931 162.441 98.3557 162.23 97.4487 162.23C96.848 162.23 96.321 162.368 95.8675 162.644C95.4201 162.913 95.1044 163.355 94.9206 163.967L93.3669 163.499C93.606 162.628 94.0687 161.945 94.7551 161.449C95.4415 160.952 96.3455 160.704 97.467 160.704C98.368 160.704 99.1402 160.866 99.7837 161.191C100.433 161.51 100.899 161.994 101.181 162.644C101.322 162.95 101.411 163.284 101.448 163.646C101.484 164.001 101.503 164.375 101.503 164.767V170.908H100.05V168.527L100.39 168.748C100.017 169.551 99.4926 170.157 98.8184 170.568C98.1504 170.979 97.3353 171.184 96.3731 171.184ZM96.6213 169.814C97.2096 169.814 97.7183 169.71 98.1473 169.502C98.5825 169.287 98.9318 169.008 99.1953 168.665C99.4589 168.316 99.6305 167.936 99.7102 167.525C99.8021 167.219 99.8511 166.879 99.8572 166.505C99.8695 166.125 99.8756 165.834 99.8756 165.631L100.446 165.88C99.9124 165.953 99.3884 166.024 98.8736 166.091C98.3588 166.158 97.8715 166.232 97.4119 166.312C96.9522 166.385 96.5385 166.474 96.1708 166.578C95.9012 166.664 95.6468 166.774 95.4078 166.909C95.1749 167.044 94.9849 167.219 94.8378 167.433C94.6969 167.642 94.6264 167.902 94.6264 168.215C94.6264 168.484 94.6938 168.742 94.8286 168.987C94.9696 169.232 95.1841 169.431 95.4722 169.584C95.7663 169.738 96.1494 169.814 96.6213 169.814ZM115.761 170.908L115.77 164.556C115.77 163.814 115.571 163.235 115.173 162.818C114.781 162.395 114.269 162.184 113.638 162.184C113.27 162.184 112.921 162.27 112.59 162.441C112.259 162.607 111.989 162.87 111.781 163.232C111.572 163.587 111.468 164.044 111.468 164.602L110.604 164.252C110.592 163.548 110.736 162.932 111.036 162.405C111.342 161.871 111.759 161.458 112.286 161.164C112.813 160.869 113.408 160.722 114.07 160.722C115.106 160.722 115.921 161.038 116.515 161.669C117.11 162.294 117.407 163.137 117.407 164.197L117.398 170.908H115.761ZM103.884 170.908V160.98H105.346V163.636H105.529V170.908H103.884ZM109.832 170.908L109.841 164.62C109.841 163.86 109.645 163.266 109.253 162.837C108.86 162.402 108.339 162.184 107.69 162.184C107.046 162.184 106.525 162.405 106.127 162.846C105.729 163.287 105.529 163.872 105.529 164.602L104.665 164.087C104.665 163.443 104.818 162.867 105.125 162.359C105.431 161.85 105.848 161.452 106.375 161.164C106.902 160.869 107.5 160.722 108.168 160.722C108.836 160.722 109.418 160.863 109.914 161.145C110.411 161.427 110.794 161.832 111.064 162.359C111.333 162.88 111.468 163.502 111.468 164.225L111.459 170.908H109.832ZM119.985 159.224V157.532H121.622V159.224H119.985ZM119.985 170.908V160.98H121.622V170.908H119.985ZM131.449 170.908V165.935C131.449 165.463 131.407 165.009 131.321 164.574C131.241 164.139 131.097 163.75 130.889 163.407C130.686 163.057 130.411 162.782 130.061 162.579C129.718 162.377 129.283 162.276 128.756 162.276C128.345 162.276 127.971 162.346 127.634 162.487C127.303 162.622 127.018 162.831 126.779 163.112C126.54 163.394 126.353 163.75 126.219 164.179C126.09 164.602 126.025 165.101 126.025 165.677L124.95 165.346C124.95 164.384 125.122 163.56 125.465 162.873C125.814 162.181 126.301 161.651 126.926 161.283C127.558 160.909 128.299 160.722 129.151 160.722C129.795 160.722 130.343 160.823 130.797 161.026C131.25 161.228 131.627 161.498 131.927 161.835C132.228 162.166 132.464 162.539 132.635 162.956C132.807 163.367 132.926 163.787 132.994 164.216C133.067 164.639 133.104 165.04 133.104 165.42V170.908H131.449ZM124.371 170.908V160.98H125.842V163.636H126.025V170.908H124.371ZM139.707 171.184C138.732 171.184 137.88 170.969 137.151 170.54C136.428 170.105 135.864 169.502 135.46 168.729C135.055 167.951 134.853 167.044 134.853 166.008C134.853 164.924 135.052 163.986 135.45 163.195C135.849 162.398 136.403 161.786 137.114 161.357C137.831 160.921 138.671 160.704 139.633 160.704C140.632 160.704 141.481 160.934 142.18 161.393C142.885 161.853 143.412 162.509 143.761 163.361C144.116 164.213 144.27 165.227 144.221 166.404H142.566V165.815C142.547 164.596 142.299 163.686 141.821 163.085C141.343 162.478 140.632 162.175 139.688 162.175C138.677 162.175 137.908 162.5 137.381 163.149C136.854 163.799 136.59 164.73 136.59 165.944C136.59 167.115 136.854 168.022 137.381 168.665C137.908 169.309 138.659 169.63 139.633 169.63C140.289 169.63 140.859 169.48 141.343 169.18C141.827 168.88 142.207 168.448 142.483 167.884L144.055 168.426C143.669 169.302 143.087 169.983 142.308 170.467C141.536 170.945 140.669 171.184 139.707 171.184ZM136.039 166.404V165.089H143.375V166.404H136.039ZM149.948 170.908V157.67H151.585V163.508H158.553V157.67H160.189V170.908H158.553V165.061H151.585V170.908H149.948ZM168.211 171.184C166.893 171.184 165.774 170.893 164.855 170.311C163.936 169.728 163.234 168.919 162.75 167.884C162.272 166.848 162.033 165.65 162.033 164.289C162.033 162.929 162.272 161.73 162.75 160.695C163.234 159.659 163.936 158.85 164.855 158.268C165.774 157.685 166.893 157.394 168.211 157.394C169.743 157.394 171.002 157.784 171.989 158.562C172.982 159.34 173.665 160.388 174.039 161.706L172.375 162.147C172.105 161.16 171.624 160.382 170.932 159.812C170.239 159.242 169.332 158.957 168.211 158.957C167.224 158.957 166.403 159.181 165.747 159.628C165.091 160.076 164.598 160.701 164.267 161.504C163.936 162.3 163.767 163.229 163.761 164.289C163.755 165.343 163.917 166.272 164.248 167.075C164.579 167.871 165.076 168.497 165.738 168.95C166.399 169.397 167.224 169.621 168.211 169.621C169.332 169.621 170.239 169.336 170.932 168.766C171.624 168.19 172.105 167.412 172.375 166.431L174.039 166.872C173.665 168.184 172.982 169.232 171.989 170.016C171.002 170.795 169.743 171.184 168.211 171.184ZM176.239 170.908V157.67H177.875V170.908H176.239ZM189.031 174.273C188.313 173.445 187.698 172.517 187.183 171.487C186.668 170.458 186.273 169.376 185.997 168.242C185.721 167.108 185.589 165.975 185.602 164.841C185.589 163.701 185.721 162.564 185.997 161.43C186.273 160.296 186.668 159.218 187.183 158.194C187.698 157.165 188.313 156.236 189.031 155.409L190.244 156.328C189.521 157.186 188.926 158.078 188.461 159.003C188.001 159.929 187.661 160.882 187.44 161.862C187.219 162.837 187.106 163.83 187.1 164.841C187.106 165.84 187.219 166.833 187.44 167.819C187.667 168.8 188.01 169.756 188.47 170.688C188.936 171.613 189.527 172.499 190.244 173.344L189.031 174.273ZM195.541 170.908L191.109 157.67H192.81L196.662 169.171L200.551 157.67H202.251L197.82 170.908H195.541ZM203.459 159.224V157.532H205.095V159.224H203.459ZM203.459 170.908V160.98H205.095V170.908H203.459ZM213.397 170.908C212.809 171.025 212.227 171.071 211.651 171.046C211.081 171.028 210.572 170.914 210.124 170.706C209.677 170.491 209.337 170.16 209.104 169.713C208.908 169.321 208.801 168.926 208.782 168.527C208.77 168.123 208.764 167.666 208.764 167.157V158.222H210.4V167.084C210.4 167.488 210.403 167.835 210.409 168.123C210.422 168.411 210.486 168.659 210.603 168.867C210.823 169.26 211.172 169.489 211.651 169.557C212.135 169.624 212.717 169.606 213.397 169.502V170.908ZM206.751 162.331V160.98H213.397V162.331H206.751ZM218.235 171.184C217.494 171.184 216.872 171.049 216.369 170.78C215.873 170.504 215.496 170.142 215.238 169.695C214.987 169.247 214.861 168.757 214.861 168.224C214.861 167.703 214.959 167.252 215.156 166.872C215.358 166.486 215.64 166.168 216.001 165.916C216.363 165.659 216.795 165.457 217.298 165.31C217.769 165.181 218.296 165.071 218.879 164.979C219.467 164.881 220.062 164.792 220.662 164.712C221.263 164.632 221.824 164.556 222.345 164.482L221.756 164.822C221.775 163.94 221.597 163.287 221.223 162.864C220.855 162.441 220.218 162.23 219.311 162.23C218.71 162.23 218.183 162.368 217.73 162.644C217.282 162.913 216.967 163.355 216.783 163.967L215.229 163.499C215.468 162.628 215.931 161.945 216.617 161.449C217.304 160.952 218.208 160.704 219.329 160.704C220.23 160.704 221.002 160.866 221.646 161.191C222.295 161.51 222.761 161.994 223.043 162.644C223.184 162.95 223.273 163.284 223.31 163.646C223.347 164.001 223.365 164.375 223.365 164.767V170.908H221.912V168.527L222.253 168.748C221.879 169.551 221.355 170.157 220.681 170.568C220.013 170.979 219.197 171.184 218.235 171.184ZM218.483 169.814C219.072 169.814 219.58 169.71 220.009 169.502C220.445 169.287 220.794 169.008 221.057 168.665C221.321 168.316 221.493 167.936 221.572 167.525C221.664 167.219 221.713 166.879 221.719 166.505C221.732 166.125 221.738 165.834 221.738 165.631L222.308 165.88C221.775 165.953 221.251 166.024 220.736 166.091C220.221 166.158 219.734 166.232 219.274 166.312C218.814 166.385 218.401 166.474 218.033 166.578C217.763 166.664 217.509 166.774 217.27 166.909C217.037 167.044 216.847 167.219 216.7 167.433C216.559 167.642 216.489 167.902 216.489 168.215C216.489 168.484 216.556 168.742 216.691 168.987C216.832 169.232 217.046 169.431 217.334 169.584C217.628 169.738 218.012 169.814 218.483 169.814ZM237.623 170.908L237.633 164.556C237.633 163.814 237.433 163.235 237.035 162.818C236.643 162.395 236.131 162.184 235.5 162.184C235.132 162.184 234.783 162.27 234.452 162.441C234.121 162.607 233.851 162.87 233.643 163.232C233.434 163.587 233.33 164.044 233.33 164.602L232.466 164.252C232.454 163.548 232.598 162.932 232.898 162.405C233.205 161.871 233.621 161.458 234.148 161.164C234.675 160.869 235.27 160.722 235.932 160.722C236.968 160.722 237.783 161.038 238.377 161.669C238.972 162.294 239.269 163.137 239.269 164.197L239.26 170.908H237.623ZM225.746 170.908V160.98H227.208V163.636H227.392V170.908H225.746ZM231.694 170.908L231.703 164.62C231.703 163.86 231.507 163.266 231.115 162.837C230.722 162.402 230.202 162.184 229.552 162.184C228.908 162.184 228.387 162.405 227.989 162.846C227.591 163.287 227.392 163.872 227.392 164.602L226.527 164.087C226.527 163.443 226.681 162.867 226.987 162.359C227.293 161.85 227.71 161.452 228.237 161.164C228.764 160.869 229.362 160.722 230.03 160.722C230.698 160.722 231.28 160.863 231.777 161.145C232.273 161.427 232.656 161.832 232.926 162.359C233.195 162.88 233.33 163.502 233.33 164.225L233.321 170.908H231.694ZM241.847 159.224V157.532H243.484V159.224H241.847ZM241.847 170.908V160.98H243.484V170.908H241.847ZM253.312 170.908V165.935C253.312 165.463 253.269 165.009 253.183 164.574C253.103 164.139 252.959 163.75 252.751 163.407C252.549 163.057 252.273 162.782 251.923 162.579C251.58 162.377 251.145 162.276 250.618 162.276C250.207 162.276 249.833 162.346 249.496 162.487C249.165 162.622 248.88 162.831 248.641 163.112C248.402 163.394 248.216 163.75 248.081 164.179C247.952 164.602 247.888 165.101 247.888 165.677L246.812 165.346C246.812 164.384 246.984 163.56 247.327 162.873C247.676 162.181 248.163 161.651 248.789 161.283C249.42 160.909 250.161 160.722 251.013 160.722C251.657 160.722 252.205 160.823 252.659 161.026C253.112 161.228 253.489 161.498 253.79 161.835C254.09 162.166 254.326 162.539 254.497 162.956C254.669 163.367 254.789 163.787 254.856 164.216C254.93 164.639 254.966 165.04 254.966 165.42V170.908H253.312ZM246.233 170.908V160.98H247.704V163.636H247.888V170.908H246.233ZM261.037 170.908V157.67H266.194C266.985 157.67 267.659 157.833 268.217 158.157C268.781 158.482 269.21 158.911 269.504 159.444C269.804 159.972 269.954 160.541 269.954 161.154C269.954 161.871 269.771 162.5 269.403 163.039C269.035 163.578 268.539 163.949 267.914 164.151L267.895 163.701C268.747 163.928 269.409 164.344 269.881 164.951C270.353 165.558 270.589 166.281 270.589 167.121C270.589 167.893 270.429 168.561 270.111 169.125C269.798 169.689 269.345 170.127 268.75 170.439C268.162 170.752 267.463 170.908 266.654 170.908H261.037ZM262.692 169.345H266.342C266.832 169.345 267.27 169.257 267.656 169.079C268.042 168.895 268.346 168.638 268.566 168.307C268.793 167.976 268.906 167.577 268.906 167.111C268.906 166.664 268.805 166.263 268.603 165.907C268.407 165.552 268.128 165.27 267.767 165.061C267.411 164.847 266.997 164.74 266.525 164.74H262.692V169.345ZM262.692 163.195H266.176C266.568 163.195 266.921 163.112 267.233 162.947C267.552 162.775 267.803 162.536 267.987 162.23C268.177 161.924 268.272 161.565 268.272 161.154C268.272 160.584 268.079 160.119 267.693 159.757C267.307 159.395 266.801 159.215 266.176 159.215H262.692V163.195ZM274.728 170.908V159.481L272.237 160.989V159.159L274.728 157.67H276.392V170.908H274.728ZM280.598 173.721L279.385 172.793C280.102 171.947 280.69 171.061 281.15 170.136C281.615 169.204 281.959 168.248 282.179 167.268C282.406 166.281 282.522 165.288 282.529 164.289C282.522 163.278 282.409 162.285 282.188 161.311C281.968 160.33 281.625 159.377 281.159 158.452C280.699 157.526 280.108 156.634 279.385 155.776L280.598 154.857C281.315 155.684 281.931 156.613 282.446 157.643C282.961 158.666 283.356 159.745 283.632 160.879C283.908 162.012 284.039 163.149 284.027 164.289C284.039 165.423 283.908 166.557 283.632 167.691C283.356 168.824 282.961 169.906 282.446 170.936C281.931 171.965 281.315 172.894 280.598 173.721Z" fill="black"/>
</g>
<g filter="url(#filter5_d_980_42781)">
<rect x="15" y="199.302" width="213.301" height="51.0799" rx="25.5399" fill="white"/>
<path d="M44.3706 236.455C50.7838 236.455 55.9828 231.256 55.9828 224.842C55.9828 218.429 50.7838 213.23 44.3706 213.23C37.9573 213.23 32.7583 218.429 32.7583 224.842C32.7583 231.256 37.9573 236.455 44.3706 236.455Z" fill="#ED461E" stroke="white" stroke-opacity="0.12" stroke-width="2.44927" stroke-linecap="round" stroke-linejoin="round"/>
<path d="M40.017 223.876C40.8186 223.876 41.4685 223.226 41.4685 222.424C41.4685 221.623 40.8186 220.973 40.017 220.973C39.2153 220.973 38.5654 221.623 38.5654 222.424C38.5654 223.226 39.2153 223.876 40.017 223.876Z" fill="#04002C"/>
<path d="M48.7255 223.876C49.5271 223.876 50.177 223.226 50.177 222.424C50.177 221.623 49.5271 220.973 48.7255 220.973C47.9238 220.973 47.2739 221.623 47.2739 222.424C47.2739 223.226 47.9238 223.876 48.7255 223.876Z" fill="#04002C"/>
<path d="M39.5326 230.651C40.5366 228.916 42.2216 227.748 44.371 227.748C46.5205 227.748 48.2055 228.916 49.2095 230.651" stroke="#04002C" stroke-width="2.07085" stroke-linecap="round" stroke-linejoin="round"/>
<path d="M70.2397 232.342V220.658H65.7259V219.104H76.3898V220.658H71.876V232.342H70.2397ZM78.0374 220.658V218.966H79.6738V220.658H78.0374ZM78.0374 232.342V222.414H79.6738V232.342H78.0374ZM87.9755 232.342C87.3872 232.459 86.805 232.505 86.2289 232.48C85.6589 232.462 85.1502 232.348 84.7028 232.14C84.2554 231.926 83.9153 231.595 83.6824 231.147C83.4863 230.755 83.379 230.36 83.3606 229.961C83.3484 229.557 83.3422 229.1 83.3422 228.592V219.656H84.9786V228.518C84.9786 228.922 84.9817 229.269 84.9878 229.557C85.0001 229.845 85.0644 230.093 85.1808 230.301C85.4015 230.694 85.7508 230.923 86.2289 230.991C86.713 231.058 87.2953 231.04 87.9755 230.936V232.342ZM81.3289 223.765V222.414H87.9755V223.765H81.3289ZM92.8135 232.618C92.072 232.618 91.4499 232.483 90.9473 232.214C90.4509 231.938 90.074 231.576 89.8166 231.129C89.5653 230.681 89.4397 230.191 89.4397 229.658C89.4397 229.137 89.5377 228.687 89.7339 228.307C89.9361 227.92 90.218 227.602 90.5796 227.35C90.9412 227.093 91.3733 226.891 91.8758 226.744C92.3478 226.615 92.8748 226.505 93.4571 226.413C94.0454 226.315 94.6399 226.226 95.2405 226.146C95.8411 226.066 96.4019 225.99 96.9228 225.916L96.3345 226.256C96.3529 225.374 96.1751 224.721 95.8013 224.298C95.4336 223.875 94.7962 223.664 93.8891 223.664C93.2885 223.664 92.7614 223.802 92.3079 224.078C91.8605 224.347 91.5449 224.789 91.361 225.402L89.8074 224.933C90.0464 224.062 90.5091 223.379 91.1956 222.883C91.882 222.386 92.786 222.138 93.9075 222.138C94.8084 222.138 95.5807 222.3 96.2242 222.625C96.8738 222.944 97.3396 223.428 97.6215 224.078C97.7625 224.384 97.8513 224.718 97.8881 225.08C97.9249 225.435 97.9433 225.809 97.9433 226.201V232.342H96.4908V229.961L96.8309 230.182C96.4571 230.985 95.9331 231.592 95.2589 232.002C94.5909 232.413 93.7758 232.618 92.8135 232.618ZM93.0618 231.248C93.6501 231.248 94.1588 231.144 94.5878 230.936C95.0229 230.721 95.3723 230.442 95.6358 230.099C95.8994 229.75 96.071 229.37 96.1506 228.959C96.2426 228.653 96.2916 228.313 96.2977 227.939C96.31 227.559 96.3161 227.268 96.3161 227.065L96.8861 227.314C96.3529 227.387 95.8289 227.458 95.3141 227.525C94.7992 227.593 94.312 227.666 93.8524 227.746C93.3927 227.819 92.979 227.908 92.6113 228.012C92.3416 228.098 92.0873 228.208 91.8483 228.343C91.6154 228.478 91.4254 228.653 91.2783 228.867C91.1373 229.076 91.0669 229.336 91.0669 229.649C91.0669 229.918 91.1343 230.176 91.2691 230.421C91.4101 230.666 91.6246 230.865 91.9126 231.018C92.2068 231.172 92.5898 231.248 93.0618 231.248ZM107.403 232.342V227.369C107.403 226.897 107.36 226.443 107.274 226.008C107.195 225.573 107.051 225.184 106.842 224.841C106.64 224.491 106.364 224.216 106.015 224.013C105.672 223.811 105.236 223.71 104.709 223.71C104.299 223.71 103.925 223.78 103.588 223.921C103.257 224.056 102.972 224.265 102.733 224.547C102.494 224.828 102.307 225.184 102.172 225.613C102.043 226.036 101.979 226.535 101.979 227.111L100.903 226.78C100.903 225.818 101.075 224.994 101.418 224.308C101.768 223.615 102.255 223.085 102.88 222.717C103.511 222.343 104.253 222.156 105.105 222.156C105.748 222.156 106.297 222.257 106.75 222.46C107.204 222.662 107.581 222.932 107.881 223.269C108.181 223.6 108.417 223.974 108.589 224.39C108.76 224.801 108.88 225.221 108.947 225.65C109.021 226.073 109.058 226.474 109.058 226.854V232.342H107.403ZM100.324 232.342V222.414H101.795V225.071H101.979V232.342H100.324ZM111.632 220.658V218.966H113.268V220.658H111.632ZM111.632 232.342V222.414H113.268V232.342H111.632ZM119.796 232.6C119.158 232.6 118.61 232.499 118.15 232.296C117.696 232.094 117.32 231.824 117.019 231.487C116.719 231.15 116.483 230.776 116.311 230.366C116.14 229.955 116.017 229.535 115.944 229.106C115.876 228.677 115.842 228.276 115.842 227.902V222.414H117.497V227.387C117.497 227.853 117.54 228.303 117.626 228.739C117.712 229.174 117.856 229.566 118.058 229.915C118.266 230.265 118.542 230.54 118.885 230.743C119.235 230.945 119.67 231.046 120.191 231.046C120.601 231.046 120.975 230.976 121.312 230.835C121.649 230.694 121.937 230.485 122.177 230.209C122.416 229.928 122.599 229.572 122.728 229.143C122.857 228.714 122.921 228.215 122.921 227.645L123.997 227.976C123.997 228.932 123.822 229.756 123.473 230.449C123.13 231.141 122.642 231.674 122.011 232.048C121.386 232.416 120.647 232.6 119.796 232.6ZM123.105 232.342V229.685H122.921V222.414H124.567V232.342H123.105ZM139.009 232.342L139.018 225.99C139.018 225.248 138.819 224.669 138.421 224.252C138.028 223.829 137.517 223.618 136.885 223.618C136.518 223.618 136.168 223.704 135.837 223.875C135.506 224.041 135.237 224.304 135.028 224.666C134.82 225.022 134.716 225.478 134.716 226.036L133.852 225.686C133.839 224.982 133.983 224.366 134.284 223.839C134.59 223.305 135.007 222.892 135.534 222.598C136.061 222.303 136.655 222.156 137.317 222.156C138.353 222.156 139.168 222.472 139.763 223.103C140.357 223.728 140.654 224.571 140.654 225.631L140.645 232.342H139.009ZM127.131 232.342V222.414H128.593V225.071H128.777V232.342H127.131ZM133.079 232.342L133.089 226.054C133.089 225.294 132.892 224.7 132.5 224.271C132.108 223.836 131.587 223.618 130.937 223.618C130.294 223.618 129.773 223.839 129.375 224.28C128.976 224.721 128.777 225.307 128.777 226.036L127.913 225.521C127.913 224.878 128.066 224.301 128.373 223.793C128.679 223.284 129.096 222.886 129.623 222.598C130.15 222.303 130.747 222.156 131.415 222.156C132.083 222.156 132.666 222.297 133.162 222.579C133.659 222.861 134.042 223.266 134.311 223.793C134.581 224.314 134.716 224.936 134.716 225.659L134.707 232.342H133.079ZM146.73 232.342V219.104H150.812C150.946 219.104 151.182 219.107 151.519 219.113C151.856 219.12 152.178 219.144 152.485 219.187C153.508 219.322 154.363 219.696 155.05 220.309C155.742 220.915 156.263 221.688 156.612 222.625C156.962 223.563 157.136 224.596 157.136 225.723C157.136 226.851 156.962 227.884 156.612 228.821C156.263 229.759 155.742 230.534 155.05 231.147C154.363 231.754 153.508 232.125 152.485 232.26C152.178 232.296 151.853 232.321 151.51 232.333C151.173 232.339 150.94 232.342 150.812 232.342H146.73ZM148.412 230.779H150.812C151.044 230.779 151.305 230.773 151.593 230.761C151.881 230.743 152.132 230.715 152.347 230.678C153.07 230.544 153.655 230.24 154.103 229.768C154.55 229.296 154.878 228.708 155.086 228.003C155.295 227.298 155.399 226.538 155.399 225.723C155.399 224.89 155.292 224.121 155.077 223.416C154.869 222.711 154.541 222.126 154.093 221.66C153.646 221.194 153.064 220.897 152.347 220.768C152.132 220.725 151.878 220.698 151.584 220.685C151.29 220.673 151.032 220.667 150.812 220.667H148.412V230.779ZM159.428 220.658V218.966H161.065V220.658H159.428ZM159.428 232.342V222.414H161.065V232.342H159.428ZM168.052 232.618C167.065 232.618 166.213 232.394 165.496 231.947C164.785 231.5 164.237 230.881 163.851 230.09C163.465 229.299 163.272 228.392 163.272 227.369C163.272 226.327 163.468 225.414 163.86 224.629C164.252 223.845 164.807 223.235 165.524 222.8C166.241 222.359 167.084 222.138 168.052 222.138C169.045 222.138 169.9 222.362 170.617 222.809C171.334 223.25 171.882 223.866 172.262 224.657C172.649 225.441 172.842 226.345 172.842 227.369C172.842 228.405 172.649 229.318 172.262 230.108C171.876 230.893 171.325 231.509 170.608 231.956C169.891 232.397 169.039 232.618 168.052 232.618ZM168.052 231.064C169.082 231.064 169.848 230.721 170.35 230.035C170.853 229.348 171.104 228.46 171.104 227.369C171.104 226.247 170.85 225.356 170.341 224.694C169.832 224.026 169.069 223.692 168.052 223.692C167.359 223.692 166.789 223.848 166.342 224.16C165.895 224.473 165.561 224.905 165.34 225.457C165.119 226.008 165.009 226.646 165.009 227.369C165.009 228.484 165.266 229.379 165.781 230.053C166.296 230.727 167.053 231.064 168.052 231.064ZM173.529 232.342L177.326 227.323L173.612 222.414H175.561L178.282 226.054L180.975 222.414H182.924L179.21 227.323L183.016 232.342H181.058L178.282 228.592L175.487 232.342H173.529ZM184.673 220.658V218.966H186.31V220.658H184.673ZM184.673 232.342V222.414H186.31V232.342H184.673ZM192.966 232.618C192.041 232.618 191.247 232.388 190.585 231.929C189.923 231.463 189.411 230.835 189.05 230.044C188.694 229.253 188.517 228.362 188.517 227.369C188.517 226.376 188.694 225.484 189.05 224.694C189.411 223.903 189.923 223.281 190.585 222.827C191.247 222.368 192.038 222.138 192.957 222.138C193.895 222.138 194.682 222.365 195.32 222.818C195.957 223.272 196.438 223.894 196.763 224.684C197.094 225.475 197.259 226.37 197.259 227.369C197.259 228.356 197.094 229.247 196.763 230.044C196.438 230.835 195.957 231.463 195.32 231.929C194.682 232.388 193.898 232.618 192.966 232.618ZM193.168 231.12C193.836 231.12 194.385 230.96 194.814 230.642C195.243 230.317 195.559 229.872 195.761 229.309C195.969 228.739 196.073 228.092 196.073 227.369C196.073 226.633 195.969 225.987 195.761 225.429C195.559 224.865 195.246 224.427 194.823 224.114C194.4 223.796 193.864 223.636 193.214 223.636C192.54 223.636 191.982 223.802 191.541 224.133C191.106 224.464 190.781 224.911 190.567 225.475C190.358 226.039 190.254 226.67 190.254 227.369C190.254 228.074 190.361 228.711 190.576 229.281C190.79 229.845 191.112 230.292 191.541 230.623C191.976 230.954 192.519 231.12 193.168 231.12ZM196.073 232.342V225.034H195.889V219.104H197.535V232.342H196.073ZM204.413 232.618C203.439 232.618 202.587 232.404 201.857 231.975C201.134 231.539 200.57 230.936 200.166 230.164C199.761 229.385 199.559 228.478 199.559 227.442C199.559 226.358 199.758 225.42 200.157 224.629C200.555 223.833 201.11 223.22 201.821 222.791C202.538 222.356 203.377 222.138 204.34 222.138C205.338 222.138 206.187 222.368 206.886 222.827C207.591 223.287 208.118 223.943 208.467 224.795C208.823 225.647 208.976 226.661 208.927 227.838H207.272V227.249C207.254 226.03 207.005 225.12 206.527 224.519C206.049 223.912 205.338 223.609 204.395 223.609C203.383 223.609 202.614 223.934 202.087 224.583C201.56 225.233 201.297 226.165 201.297 227.378C201.297 228.549 201.56 229.456 202.087 230.099C202.614 230.743 203.365 231.064 204.34 231.064C204.995 231.064 205.565 230.914 206.049 230.614C206.534 230.314 206.914 229.882 207.189 229.318L208.761 229.86C208.375 230.737 207.793 231.417 207.015 231.901C206.242 232.379 205.375 232.618 204.413 232.618ZM200.745 227.838V226.523H208.081V227.838H200.745Z" fill="black"/>
</g>
<g filter="url(#filter6_d_980_42781)">
<rect x="238.655" y="199.302" width="119.386" height="51.0799" rx="25.5399" fill="white"/>
<path d="M268.025 236.455C274.439 236.455 279.638 231.256 279.638 224.842C279.638 218.429 274.439 213.23 268.025 213.23C261.612 213.23 256.413 218.429 256.413 224.842C256.413 231.256 261.612 236.455 268.025 236.455Z" fill="#22B51F" stroke="white" stroke-opacity="0.12" stroke-width="2.44927" stroke-linecap="round" stroke-linejoin="round"/>
<path d="M263.672 223.876C264.473 223.876 265.123 223.226 265.123 222.424C265.123 221.623 264.473 220.973 263.672 220.973C262.87 220.973 262.22 221.623 262.22 222.424C262.22 223.226 262.87 223.876 263.672 223.876Z" fill="#04002C"/>
<path d="M272.38 223.876C273.182 223.876 273.832 223.226 273.832 222.424C273.832 221.623 273.182 220.973 272.38 220.973C271.579 220.973 270.929 221.623 270.929 222.424C270.929 223.226 271.579 223.876 272.38 223.876Z" fill="#04002C"/>
<path d="M272.865 227.747C271.861 229.482 270.176 230.65 268.026 230.65C265.877 230.65 264.192 229.482 263.188 227.747" stroke="#04002C" stroke-width="2.07085" stroke-linecap="round" stroke-linejoin="round"/>
<path d="M290.484 232.342V219.104H295.641C296.432 219.104 297.106 219.267 297.664 219.591C298.227 219.916 298.656 220.345 298.951 220.879C299.251 221.406 299.401 221.976 299.401 222.588C299.401 223.305 299.217 223.934 298.85 224.473C298.482 225.012 297.985 225.383 297.36 225.585L297.342 225.135C298.194 225.362 298.856 225.778 299.328 226.385C299.799 226.992 300.035 227.715 300.035 228.555C300.035 229.327 299.876 229.995 299.557 230.559C299.245 231.123 298.791 231.561 298.197 231.873C297.608 232.186 296.91 232.342 296.101 232.342H290.484ZM292.139 230.779H295.788C296.279 230.779 296.717 230.691 297.103 230.513C297.489 230.329 297.792 230.072 298.013 229.741C298.24 229.41 298.353 229.011 298.353 228.546C298.353 228.098 298.252 227.697 298.05 227.341C297.854 226.986 297.575 226.704 297.213 226.495C296.858 226.281 296.444 226.174 295.972 226.174H292.139V230.779ZM292.139 224.629H295.623C296.015 224.629 296.367 224.547 296.68 224.381C296.999 224.209 297.25 223.97 297.434 223.664C297.624 223.358 297.719 222.999 297.719 222.588C297.719 222.018 297.526 221.553 297.14 221.191C296.753 220.829 296.248 220.649 295.623 220.649H292.139V224.629ZM302.051 220.658V218.966H303.688V220.658H302.051ZM302.051 232.342V222.414H303.688V232.342H302.051ZM310.675 232.618C309.688 232.618 308.836 232.394 308.119 231.947C307.408 231.5 306.86 230.881 306.474 230.09C306.087 229.299 305.894 228.392 305.894 227.369C305.894 226.327 306.091 225.414 306.483 224.629C306.875 223.845 307.43 223.235 308.147 222.8C308.864 222.359 309.706 222.138 310.675 222.138C311.668 222.138 312.523 222.362 313.24 222.809C313.957 223.25 314.505 223.866 314.885 224.657C315.271 225.441 315.464 226.345 315.464 227.369C315.464 228.405 315.271 229.318 314.885 230.108C314.499 230.893 313.948 231.509 313.23 231.956C312.513 232.397 311.662 232.618 310.675 232.618ZM310.675 231.064C311.704 231.064 312.471 230.721 312.973 230.035C313.476 229.348 313.727 228.46 313.727 227.369C313.727 226.247 313.473 225.356 312.964 224.694C312.455 224.026 311.692 223.692 310.675 223.692C309.982 223.692 309.412 223.848 308.965 224.16C308.518 224.473 308.183 224.905 307.963 225.457C307.742 226.008 307.632 226.646 307.632 227.369C307.632 228.484 307.889 229.379 308.404 230.053C308.919 230.727 309.676 231.064 310.675 231.064ZM323.032 232.342C322.444 232.459 321.861 232.505 321.285 232.48C320.715 232.462 320.207 232.348 319.759 232.14C319.312 231.926 318.972 231.595 318.739 231.147C318.543 230.755 318.435 230.36 318.417 229.961C318.405 229.557 318.399 229.1 318.399 228.592V219.656H320.035V228.518C320.035 228.922 320.038 229.269 320.044 229.557C320.056 229.845 320.121 230.093 320.237 230.301C320.458 230.694 320.807 230.923 321.285 230.991C321.769 231.058 322.352 231.04 323.032 230.936V232.342ZM316.385 223.765V222.414H323.032V223.765H316.385ZM325.231 220.658V218.966H326.868V220.658H325.231ZM325.231 232.342V222.414H326.868V232.342H325.231ZM336.696 232.342V227.369C336.696 226.897 336.653 226.443 336.567 226.008C336.487 225.573 336.343 225.184 336.135 224.841C335.933 224.491 335.657 224.216 335.308 224.013C334.964 223.811 334.529 223.71 334.002 223.71C333.591 223.71 333.218 223.78 332.881 223.921C332.55 224.056 332.265 224.265 332.026 224.547C331.787 224.828 331.6 225.184 331.465 225.613C331.336 226.036 331.272 226.535 331.272 227.111L330.196 226.78C330.196 225.818 330.368 224.994 330.711 224.308C331.06 223.615 331.548 223.085 332.173 222.717C332.804 222.343 333.546 222.156 334.397 222.156C335.041 222.156 335.589 222.257 336.043 222.46C336.497 222.662 336.873 222.932 337.174 223.269C337.474 223.6 337.71 223.974 337.882 224.39C338.053 224.801 338.173 225.221 338.24 225.65C338.314 226.073 338.35 226.474 338.35 226.854V232.342H336.696ZM329.617 232.342V222.414H331.088V225.071H331.272V232.342H329.617Z" fill="black"/>
</g>
<defs>
<filter id="filter0_d_980_42781" x="0.291077" y="0.291077" width="178.543" height="80.4979" filterUnits="userSpaceOnUse" color-interpolation-filters="sRGB">
<feFlood flood-opacity="0" result="BackgroundImageFix"/>
<feColorMatrix in="SourceAlpha" type="matrix" values="0 0 0 0 0 0 0 0 0 0 0 0 0 0 0 0 0 0 127 0" result="hardAlpha"/>
<feOffset/>
<feGaussianBlur stdDeviation="7.35446"/>
<feComposite in2="hardAlpha" operator="out"/>
<feColorMatrix type="matrix" values="0 0 0 0 0 0 0 0 0 0 0 0 0 0 0 0 0 0 0.03 0"/>
<feBlend mode="normal" in2="BackgroundImageFix" result="effect1_dropShadow_980_42781"/>
<feBlend mode="normal" in="SourceGraphic" in2="effect1_dropShadow_980_42781" result="shape"/>
</filter>
<filter id="filter1_d_980_42781" x="159.771" y="0.291077" width="189.718" height="80.4979" filterUnits="userSpaceOnUse" color-interpolation-filters="sRGB">
<feFlood flood-opacity="0" result="BackgroundImageFix"/>
<feColorMatrix in="SourceAlpha" type="matrix" values="0 0 0 0 0 0 0 0 0 0 0 0 0 0 0 0 0 0 127 0" result="hardAlpha"/>
<feOffset/>
<feGaussianBlur stdDeviation="7.35446"/>
<feComposite in2="hardAlpha" operator="out"/>
<feColorMatrix type="matrix" values="0 0 0 0 0 0 0 0 0 0 0 0 0 0 0 0 0 0 0.03 0"/>
<feBlend mode="normal" in2="BackgroundImageFix" result="effect1_dropShadow_980_42781"/>
<feBlend mode="normal" in="SourceGraphic" in2="effect1_dropShadow_980_42781" result="shape"/>
</filter>
<filter id="filter2_d_980_42781" x="0.291077" y="61.7252" width="198.718" height="80.4979" filterUnits="userSpaceOnUse" color-interpolation-filters="sRGB">
<feFlood flood-opacity="0" result="BackgroundImageFix"/>
<feColorMatrix in="SourceAlpha" type="matrix" values="0 0 0 0 0 0 0 0 0 0 0 0 0 0 0 0 0 0 127 0" result="hardAlpha"/>
<feOffset/>
<feGaussianBlur stdDeviation="7.35446"/>
<feComposite in2="hardAlpha" operator="out"/>
<feColorMatrix type="matrix" values="0 0 0 0 0 0 0 0 0 0 0 0 0 0 0 0 0 0 0.03 0"/>
<feBlend mode="normal" in2="BackgroundImageFix" result="effect1_dropShadow_980_42781"/>
<feBlend mode="normal" in="SourceGraphic" in2="effect1_dropShadow_980_42781" result="shape"/>
</filter>
<filter id="filter3_d_980_42781" x="179.946" y="61.7252" width="160.718" height="80.4979" filterUnits="userSpaceOnUse" color-interpolation-filters="sRGB">
<feFlood flood-opacity="0" result="BackgroundImageFix"/>
<feColorMatrix in="SourceAlpha" type="matrix" values="0 0 0 0 0 0 0 0 0 0 0 0 0 0 0 0 0 0 127 0" result="hardAlpha"/>
<feOffset/>
<feGaussianBlur stdDeviation="7.35446"/>
<feComposite in2="hardAlpha" operator="out"/>
<feColorMatrix type="matrix" values="0 0 0 0 0 0 0 0 0 0 0 0 0 0 0 0 0 0 0.03 0"/>
<feBlend mode="normal" in2="BackgroundImageFix" result="effect1_dropShadow_980_42781"/>
<feBlend mode="normal" in="SourceGraphic" in2="effect1_dropShadow_980_42781" result="shape"/>
</filter>
<filter id="filter4_d_980_42781" x="0.291077" y="123.159" width="319.723" height="80.4979" filterUnits="userSpaceOnUse" color-interpolation-filters="sRGB">
<feFlood flood-opacity="0" result="BackgroundImageFix"/>
<feColorMatrix in="SourceAlpha" type="matrix" values="0 0 0 0 0 0 0 0 0 0 0 0 0 0 0 0 0 0 127 0" result="hardAlpha"/>
<feOffset/>
<feGaussianBlur stdDeviation="7.35446"/>
<feComposite in2="hardAlpha" operator="out"/>
<feColorMatrix type="matrix" values="0 0 0 0 0 0 0 0 0 0 0 0 0 0 0 0 0 0 0.03 0"/>
<feBlend mode="normal" in2="BackgroundImageFix" result="effect1_dropShadow_980_42781"/>
<feBlend mode="normal" in="SourceGraphic" in2="effect1_dropShadow_980_42781" result="shape"/>
</filter>
<filter id="filter5_d_980_42781" x="0.291077" y="184.593" width="242.718" height="80.4979" filterUnits="userSpaceOnUse" color-interpolation-filters="sRGB">
<feFlood flood-opacity="0" result="BackgroundImageFix"/>
<feColorMatrix in="SourceAlpha" type="matrix" values="0 0 0 0 0 0 0 0 0 0 0 0 0 0 0 0 0 0 127 0" result="hardAlpha"/>
<feOffset/>
<feGaussianBlur stdDeviation="7.35446"/>
<feComposite in2="hardAlpha" operator="out"/>
<feColorMatrix type="matrix" values="0 0 0 0 0 0 0 0 0 0 0 0 0 0 0 0 0 0 0.03 0"/>
<feBlend mode="normal" in2="BackgroundImageFix" result="effect1_dropShadow_980_42781"/>
<feBlend mode="normal" in="SourceGraphic" in2="effect1_dropShadow_980_42781" result="shape"/>
</filter>
<filter id="filter6_d_980_42781" x="223.946" y="184.593" width="148.804" height="80.4979" filterUnits="userSpaceOnUse" color-interpolation-filters="sRGB">
<feFlood flood-opacity="0" result="BackgroundImageFix"/>
<feColorMatrix in="SourceAlpha" type="matrix" values="0 0 0 0 0 0 0 0 0 0 0 0 0 0 0 0 0 0 127 0" result="hardAlpha"/>
<feOffset/>
<feGaussianBlur stdDeviation="7.35446"/>
<feComposite in2="hardAlpha" operator="out"/>
<feColorMatrix type="matrix" values="0 0 0 0 0 0 0 0 0 0 0 0 0 0 0 0 0 0 0.03 0"/>
<feBlend mode="normal" in2="BackgroundImageFix" result="effect1_dropShadow_980_42781"/>
<feBlend mode="normal" in="SourceGraphic" in2="effect1_dropShadow_980_42781" result="shape"/>
</filter>
</defs>
</svg>
