<svg width="375" height="261" viewBox="0 0 375 261" fill="none" xmlns="http://www.w3.org/2000/svg">
<g clip-path="url(#clip0_980_42877)">
<path d="M248.214 58.8673V211.098C248.214 213.582 245.96 214.55 243.705 215.598C241.793 216.488 239.783 217.318 237.673 218.096C202.945 230.925 142.447 229.14 111.509 215.598C109.228 214.603 107 213.582 107 211.098V58.8673C107 43.9224 118.734 33.1617 133.382 30.9477C134.075 30.8423 134.569 30.2426 134.569 29.5573V23.7915H220.645V29.5507C220.645 29.722 220.678 29.8934 220.737 30.0449C220.909 30.5062 221.318 30.8686 221.838 30.9411C223.157 31.1388 224.442 31.3958 225.708 31.7252C226.446 31.9229 227.178 32.1338 227.897 32.3776C239.42 36.2061 247.97 45.7543 248.214 58.3006C248.214 58.4851 248.214 58.6696 248.214 58.8607V58.8673Z" fill="white"/>
<path d="M134.57 16.4506V29.0233C162.996 34.6178 192.247 34.5321 220.64 28.7729V16.2002C192.247 21.9594 162.996 22.0451 134.57 16.4506Z" fill="white"/>
<path d="M135.638 14.7046L134.57 14.9484V16.4639C162.996 22.0584 192.247 21.9728 220.64 16.2135V14.955L219.572 14.7111C191.95 8.43137 163.267 8.43137 135.638 14.7046Z" fill="#FF4D00"/>
<path d="M248.213 58.8674V211.098C248.213 213.582 245.959 214.551 243.704 215.598C241.792 216.488 239.782 217.318 237.672 218.096C238.641 217.694 239.597 217.259 240.546 216.817C242.794 215.756 245.056 214.768 245.056 212.257V57.9778C245.056 57.7801 245.056 57.5956 245.056 57.4045C244.831 45.8927 237.797 36.8585 227.902 32.3843C239.426 36.2128 247.976 45.7609 248.22 58.3073C248.22 58.4918 248.22 58.6763 248.22 58.8674H248.213Z" fill="white"/>
<path d="M248.214 72.791V175.864C247.759 176.088 247.278 176.299 246.803 176.483C230.883 182.783 206.274 186.4 179.298 186.4C159.158 186.4 139.48 184.397 123.712 180.865C119.585 179.936 115.735 178.908 112.208 177.788C110.922 177.379 109.683 176.951 108.483 176.516C107.982 176.332 107.488 176.121 107 175.883V72.8108L108.431 73.674C109.136 74.1023 109.756 74.3988 110.323 74.5965C110.936 74.8008 111.568 75.0117 112.208 75.2094C115.689 76.3164 119.539 77.318 123.712 78.2207C139.078 81.5353 158.684 83.4264 178.909 83.4264C205.272 83.4264 229.307 80.2042 244.846 74.6097C245.419 74.3989 246.059 74.0826 246.784 73.6476L248.214 72.791Z" fill="white"/>
<path d="M248.215 76.02V172.721C247.484 173.156 246.653 173.571 245.789 173.907C245.546 174.006 245.302 174.098 245.058 174.19C210.494 187.481 143.048 186.143 109.434 173.907C108.564 173.59 107.74 173.182 107.008 172.74V76.0464C107.74 76.4813 108.557 76.9096 109.434 77.2061C142.679 88.54 210.112 89.713 245.058 77.4631C245.302 77.384 245.546 77.2918 245.789 77.2061C246.666 76.8964 247.484 76.4615 248.215 76.02Z" fill="#FF4D00"/>
<g style="mix-blend-mode:soft-light" opacity="0.3">
<path d="M123.711 78.2206V180.865C119.584 179.936 115.734 178.908 112.207 177.788V75.2026C115.688 76.3097 119.538 77.3113 123.711 78.214V78.2206Z" fill="black"/>
</g>
<path d="M248.212 76.02V172.721C247.481 173.156 246.65 173.571 245.786 173.907C245.543 174.006 245.299 174.098 245.055 174.19V77.4631C245.299 77.384 245.543 77.2918 245.786 77.2061C246.663 76.8964 247.481 76.4615 248.212 76.02Z" fill="#FF4D00"/>
<path d="M306.616 234.886V252.914C306.616 253.764 306.201 254.529 305.541 255.003C305.278 255.194 304.974 255.326 304.645 255.405C272.224 262.871 238.524 262.871 206.096 255.405C204.936 255.135 204.125 254.107 204.125 252.914V234.886C204.125 234.655 204.158 234.438 204.217 234.227C204.23 234.187 204.237 234.154 204.25 234.121C204.514 233.271 205.2 232.606 206.096 232.395C231.866 226.464 258.439 225.245 284.538 228.751C291.282 229.647 297.993 230.866 304.645 232.395C305.548 232.599 306.24 233.271 306.504 234.121C306.517 234.154 306.524 234.187 306.53 234.227C306.59 234.431 306.616 234.655 306.616 234.886Z" fill="#FF4D00"/>
<path d="M306.504 234.121C306.49 234.161 306.477 234.194 306.464 234.227C306.181 235.017 305.508 235.637 304.645 235.834C296.899 237.62 289.073 238.978 281.209 239.907C256.184 242.872 230.771 241.508 206.102 235.834C205.206 235.63 204.507 234.965 204.25 234.121C204.514 233.271 205.199 232.606 206.102 232.395C206.867 232.217 207.632 232.045 208.397 231.881C217.098 229.97 225.886 228.599 234.713 227.775C258.063 225.561 281.67 227.103 304.645 232.395C305.548 232.599 306.24 233.271 306.497 234.121H306.504Z" fill="#FF4D00"/>
<g style="mix-blend-mode:soft-light" opacity="0.5">
<path d="M281.217 239.913C256.192 242.878 230.779 241.514 206.11 235.841C205.214 235.637 204.515 234.971 204.258 234.128C204.522 233.278 205.207 232.612 206.11 232.401C206.875 232.223 207.64 232.052 208.404 231.887C208.378 231.933 208.365 231.993 208.345 232.039C208.615 232.889 209.314 233.568 210.217 233.798C213.494 234.615 216.79 235.366 220.093 236.039C236.976 239.472 254.221 240.948 271.394 240.434C274.67 240.335 277.947 240.157 281.217 239.913Z" fill="black"/>
</g>
</g>
<g filter="url(#filter0_d_980_42877)">
<g filter="url(#filter1_d_980_42877)">
<rect x="184" y="32" width="152.343" height="33.3604" rx="16.6802" fill="white"/>
<path d="M204.05 57.1323C208.718 57.1323 212.502 53.3483 212.502 48.6804C212.502 44.0126 208.718 40.2285 204.05 40.2285C199.382 40.2285 195.598 44.0126 195.598 48.6804C195.598 53.3483 199.382 57.1323 204.05 57.1323Z" fill="#22B51F" stroke="white" stroke-opacity="0.12" stroke-width="1.59963" stroke-linecap="round" stroke-linejoin="round"/>
<path d="M200.882 47.9767C201.465 47.9767 201.938 47.5037 201.938 46.9203C201.938 46.3368 201.465 45.8638 200.882 45.8638C200.298 45.8638 199.825 46.3368 199.825 46.9203C199.825 47.5037 200.298 47.9767 200.882 47.9767Z" fill="#04002C"/>
<path d="M207.22 47.9767C207.804 47.9767 208.277 47.5037 208.277 46.9203C208.277 46.3368 207.804 45.8638 207.22 45.8638C206.637 45.8638 206.164 46.3368 206.164 46.9203C206.164 47.5037 206.637 47.9767 207.22 47.9767Z" fill="#04002C"/>
<path d="M207.569 50.7944C206.838 52.0578 205.612 52.9074 204.048 52.9074C202.483 52.9074 201.257 52.0578 200.526 50.7944" stroke="#04002C" stroke-width="1.35248" stroke-linecap="round" stroke-linejoin="round"/>
<path d="M219.586 53.6807L219.586 45.0349H222.954C223.47 45.0349 223.911 45.1409 224.275 45.3531C224.643 45.5652 224.923 45.8454 225.115 46.1936C225.312 46.5379 225.41 46.9101 225.41 47.3104C225.41 47.7787 225.29 48.189 225.049 48.5412C224.809 48.8935 224.485 49.1356 224.077 49.2677L224.065 48.9735C224.621 49.1216 225.053 49.3938 225.362 49.7901C225.67 50.1863 225.824 50.6586 225.824 51.207C225.824 51.7113 225.72 52.1476 225.512 52.5159C225.308 52.8841 225.011 53.1703 224.623 53.3745C224.239 53.5786 223.782 53.6807 223.254 53.6807H219.586ZM220.666 52.66H223.05C223.37 52.66 223.656 52.6019 223.909 52.4859C224.161 52.3658 224.359 52.1977 224.503 51.9815C224.651 51.7654 224.725 51.5052 224.725 51.201C224.725 50.9088 224.659 50.6466 224.527 50.4145C224.399 50.1823 224.217 49.9982 223.981 49.8621C223.748 49.722 223.478 49.652 223.17 49.652H220.666V52.66ZM220.666 48.6433H222.942C223.198 48.6433 223.428 48.5893 223.632 48.4812C223.841 48.3691 224.005 48.213 224.125 48.0129C224.249 47.8127 224.311 47.5786 224.311 47.3104C224.311 46.9381 224.185 46.6339 223.933 46.3978C223.68 46.1616 223.35 46.0435 222.942 46.0435H220.666V48.6433ZM227.14 53.6807V44.8547H228.209V53.6807H227.14ZM232.772 53.8608C232.128 53.8608 231.572 53.7147 231.103 53.4225C230.639 53.1303 230.281 52.726 230.029 52.2097C229.776 51.6933 229.65 51.1009 229.65 50.4325C229.65 49.752 229.778 49.1556 230.035 48.6433C230.291 48.1309 230.653 47.7327 231.121 47.4485C231.59 47.1603 232.14 47.0162 232.772 47.0162C233.421 47.0162 233.979 47.1623 234.448 47.4545C234.916 47.7427 235.274 48.145 235.522 48.6613C235.775 49.1736 235.901 49.764 235.901 50.4325C235.901 51.1089 235.775 51.7053 235.522 52.2217C235.27 52.734 234.91 53.1363 234.442 53.4285C233.973 53.7167 233.417 53.8608 232.772 53.8608ZM232.772 52.8461C233.445 52.8461 233.945 52.622 234.273 52.1737C234.602 51.7254 234.766 51.145 234.766 50.4325C234.766 49.7 234.6 49.1176 234.267 48.6853C233.935 48.249 233.437 48.0309 232.772 48.0309C232.32 48.0309 231.948 48.1329 231.656 48.3371C231.364 48.5412 231.145 48.8234 231.001 49.1836C230.857 49.5439 230.785 49.9602 230.785 50.4325C230.785 51.161 230.953 51.7454 231.289 52.1857C231.626 52.626 232.12 52.8461 232.772 52.8461ZM239.984 53.8608C239.34 53.8608 238.784 53.7147 238.315 53.4225C237.851 53.1303 237.493 52.726 237.241 52.2097C236.988 51.6933 236.862 51.1009 236.862 50.4325C236.862 49.752 236.99 49.1556 237.247 48.6433C237.503 48.1309 237.865 47.7327 238.333 47.4485C238.802 47.1603 239.352 47.0162 239.984 47.0162C240.633 47.0162 241.191 47.1623 241.659 47.4545C242.128 47.7427 242.486 48.145 242.734 48.6613C242.986 49.1736 243.112 49.764 243.112 50.4325C243.112 51.1089 242.986 51.7053 242.734 52.2217C242.482 52.734 242.122 53.1363 241.653 53.4285C241.185 53.7167 240.629 53.8608 239.984 53.8608ZM239.984 52.8461C240.657 52.8461 241.157 52.622 241.485 52.1737C241.814 51.7254 241.978 51.145 241.978 50.4325C241.978 49.7 241.812 49.1176 241.479 48.6853C241.147 48.249 240.649 48.0309 239.984 48.0309C239.532 48.0309 239.16 48.1329 238.868 48.3371C238.575 48.5412 238.357 48.8234 238.213 49.1836C238.069 49.5439 237.997 49.9602 237.997 50.4325C237.997 51.161 238.165 51.7454 238.501 52.1857C238.838 52.626 239.332 52.8461 239.984 52.8461ZM246.98 53.8608C246.376 53.8608 245.857 53.7107 245.425 53.4105C244.993 53.1063 244.659 52.696 244.422 52.1797C244.19 51.6633 244.074 51.0809 244.074 50.4325C244.074 49.7841 244.19 49.2017 244.422 48.6853C244.659 48.169 244.993 47.7627 245.425 47.4665C245.857 47.1663 246.374 47.0162 246.974 47.0162C247.586 47.0162 248.101 47.1643 248.517 47.4605C248.933 47.7567 249.248 48.163 249.46 48.6793C249.676 49.1957 249.784 49.78 249.784 50.4325C249.784 51.0769 249.676 51.6593 249.46 52.1797C249.248 52.696 248.933 53.1063 248.517 53.4105C248.101 53.7107 247.588 53.8608 246.98 53.8608ZM247.112 52.8821C247.548 52.8821 247.907 52.7781 248.187 52.5699C248.467 52.3578 248.673 52.0676 248.805 51.6993C248.941 51.3271 249.009 50.9048 249.009 50.4325C249.009 49.9522 248.941 49.5299 248.805 49.1656C248.673 48.7974 248.469 48.5112 248.193 48.3071C247.917 48.0989 247.566 47.9949 247.142 47.9949C246.702 47.9949 246.338 48.1029 246.049 48.3191C245.765 48.5352 245.553 48.8274 245.413 49.1957C245.277 49.5639 245.209 49.9762 245.209 50.4325C245.209 50.8928 245.279 51.3091 245.419 51.6813C245.559 52.0496 245.769 52.3418 246.049 52.5579C246.334 52.7741 246.688 52.8821 247.112 52.8821ZM249.009 53.6807V48.9075H248.889V45.0349H249.964V53.6807H249.009ZM257.118 53.8608C256.506 53.8608 255.953 53.7567 255.461 53.5486C254.973 53.3404 254.569 53.0442 254.248 52.66C253.932 52.2717 253.726 51.8134 253.63 51.2851L254.735 51.1109C254.875 51.6553 255.165 52.0816 255.605 52.3898C256.05 52.694 256.572 52.8461 257.172 52.8461C257.561 52.8461 257.911 52.7861 258.223 52.666C258.539 52.5419 258.789 52.3658 258.973 52.1376C259.158 51.9095 259.25 51.6393 259.25 51.3271C259.25 51.135 259.216 50.9708 259.148 50.8348C259.084 50.6947 258.994 50.5766 258.877 50.4805C258.765 50.3805 258.637 50.2964 258.493 50.2283C258.349 50.1603 258.199 50.1043 258.043 50.0602L255.839 49.4058C255.599 49.3337 255.367 49.2437 255.143 49.1356C254.919 49.0235 254.719 48.8854 254.543 48.7213C254.366 48.5532 254.226 48.3531 254.122 48.1209C254.018 47.8848 253.966 47.6066 253.966 47.2864C253.966 46.774 254.098 46.3377 254.362 45.9775C254.631 45.6133 254.993 45.3351 255.449 45.1429C255.905 44.9508 256.42 44.8567 256.992 44.8608C257.573 44.8648 258.091 44.9688 258.547 45.173C259.008 45.3731 259.388 45.6613 259.688 46.0375C259.992 46.4138 260.196 46.8641 260.3 47.3884L259.166 47.5866C259.106 47.2343 258.971 46.9321 258.763 46.68C258.559 46.4238 258.303 46.2277 257.995 46.0916C257.687 45.9515 257.348 45.8794 256.98 45.8754C256.628 45.8714 256.31 45.9275 256.026 46.0435C255.741 46.1596 255.515 46.3217 255.347 46.5299C255.179 46.734 255.095 46.9702 255.095 47.2383C255.095 47.5025 255.171 47.7167 255.323 47.8808C255.475 48.0409 255.661 48.169 255.881 48.265C256.106 48.3571 256.324 48.4331 256.536 48.4932L258.181 48.9675C258.369 49.0195 258.585 49.0916 258.829 49.1836C259.078 49.2757 259.318 49.4058 259.55 49.5739C259.782 49.738 259.974 49.9582 260.126 50.2344C260.278 50.5065 260.354 50.8508 260.354 51.267C260.354 51.6833 260.27 52.0536 260.102 52.3778C259.938 52.702 259.708 52.9742 259.412 53.1943C259.116 53.4105 258.771 53.5746 258.379 53.6867C257.987 53.8027 257.567 53.8608 257.118 53.8608ZM264.076 53.8488C263.659 53.8488 263.301 53.7827 263.001 53.6506C262.705 53.5186 262.458 53.3424 262.262 53.1223C262.066 52.9021 261.912 52.658 261.8 52.3898C261.688 52.1216 261.608 51.8474 261.56 51.5672C261.516 51.2871 261.494 51.0249 261.494 50.7807V47.1963H262.575V50.4445C262.575 50.7487 262.603 51.0429 262.659 51.3271C262.715 51.6113 262.809 51.8674 262.941 52.0956C263.077 52.3238 263.257 52.5039 263.481 52.636C263.709 52.7681 263.993 52.8341 264.334 52.8341C264.602 52.8341 264.846 52.7881 265.066 52.696C265.286 52.6039 265.474 52.4679 265.631 52.2877C265.787 52.1036 265.907 51.8715 265.991 51.5913C266.075 51.3111 266.117 50.9849 266.117 50.6126L266.819 50.8288C266.819 51.4532 266.705 51.9915 266.477 52.4438C266.253 52.8961 265.935 53.2444 265.522 53.4885C265.114 53.7287 264.632 53.8488 264.076 53.8488ZM266.237 53.6807V51.9455H266.117V47.1963H267.192V53.6807H266.237ZM271.496 56.7427C271.156 56.7427 270.824 56.6907 270.5 56.5866C270.176 56.4825 269.877 56.3244 269.605 56.1123C269.337 55.9042 269.113 55.64 268.933 55.3198L269.911 54.8034C270.071 55.1196 270.298 55.3498 270.59 55.4939C270.886 55.638 271.19 55.71 271.502 55.71C271.915 55.71 272.257 55.634 272.529 55.4819C272.801 55.3338 273.001 55.1116 273.129 54.8154C273.262 54.5192 273.326 54.151 273.322 53.7107V51.9395H273.448V47.1963H274.396V53.7227C274.396 53.8988 274.39 54.0689 274.378 54.233C274.37 54.3971 274.35 54.5593 274.318 54.7194C274.234 55.1797 274.068 55.5579 273.82 55.8541C273.572 56.1543 273.252 56.3765 272.859 56.5206C272.467 56.6687 272.013 56.7427 271.496 56.7427ZM271.418 53.8608C270.814 53.8608 270.296 53.7107 269.863 53.4105C269.431 53.1063 269.097 52.696 268.861 52.1797C268.628 51.6633 268.512 51.0809 268.512 50.4325C268.512 49.7841 268.628 49.2017 268.861 48.6853C269.097 48.169 269.431 47.7627 269.863 47.4665C270.296 47.1663 270.812 47.0162 271.412 47.0162C272.025 47.0162 272.539 47.1643 272.955 47.4605C273.372 47.7567 273.686 48.163 273.898 48.6793C274.114 49.1957 274.222 49.78 274.222 50.4325C274.222 51.0769 274.114 51.6593 273.898 52.1797C273.686 52.696 273.372 53.1063 272.955 53.4105C272.539 53.7107 272.027 53.8608 271.418 53.8608ZM271.55 52.8821C271.987 52.8821 272.345 52.7781 272.625 52.5699C272.905 52.3578 273.111 52.0676 273.244 51.6993C273.38 51.3271 273.448 50.9048 273.448 50.4325C273.448 49.9522 273.38 49.5299 273.244 49.1656C273.111 48.7974 272.907 48.5112 272.631 48.3071C272.355 48.0989 272.005 47.9949 271.58 47.9949C271.14 47.9949 270.776 48.1029 270.488 48.3191C270.204 48.5352 269.991 48.8274 269.851 49.1957C269.715 49.5639 269.647 49.9762 269.647 50.4325C269.647 50.8928 269.717 51.3091 269.857 51.6813C269.997 52.0496 270.208 52.3418 270.488 52.5579C270.772 52.7741 271.126 52.8821 271.55 52.8821ZM277.916 53.8608C277.432 53.8608 277.025 53.7727 276.697 53.5966C276.373 53.4165 276.127 53.1803 275.959 52.8881C275.795 52.5959 275.713 52.2757 275.713 51.9275C275.713 51.5873 275.777 51.2931 275.905 51.0449C276.037 50.7927 276.221 50.5846 276.457 50.4205C276.693 50.2524 276.975 50.1203 277.304 50.0242C277.612 49.9402 277.956 49.8681 278.336 49.8081C278.721 49.744 279.109 49.686 279.501 49.634C279.893 49.5819 280.26 49.5319 280.6 49.4838L280.216 49.706C280.228 49.1296 280.111 48.7033 279.867 48.4271C279.627 48.151 279.211 48.0129 278.618 48.0129C278.226 48.0129 277.882 48.1029 277.586 48.283C277.294 48.4592 277.087 48.7474 276.967 49.1476L275.953 48.8414C276.109 48.273 276.411 47.8267 276.859 47.5025C277.308 47.1783 277.898 47.0162 278.63 47.0162C279.219 47.0162 279.723 47.1223 280.144 47.3344C280.568 47.5425 280.872 47.8588 281.056 48.283C281.148 48.4832 281.206 48.7013 281.23 48.9375C281.254 49.1696 281.266 49.4138 281.266 49.67V53.6807H280.318V52.1256L280.54 52.2697C280.296 52.7941 279.953 53.1903 279.513 53.4585C279.077 53.7267 278.544 53.8608 277.916 53.8608ZM278.078 52.9662C278.462 52.9662 278.795 52.8981 279.075 52.762C279.359 52.622 279.587 52.4398 279.759 52.2157C279.931 51.9875 280.043 51.7394 280.095 51.4712C280.156 51.271 280.188 51.0489 280.192 50.8047C280.2 50.5566 280.204 50.3664 280.204 50.2344L280.576 50.3965C280.228 50.4445 279.885 50.4905 279.549 50.5346C279.213 50.5786 278.895 50.6266 278.594 50.6787C278.294 50.7267 278.024 50.7847 277.784 50.8528C277.608 50.9088 277.442 50.9809 277.286 51.0689C277.133 51.157 277.009 51.271 276.913 51.4111C276.821 51.5472 276.775 51.7173 276.775 51.9215C276.775 52.0976 276.819 52.2657 276.907 52.4258C276.999 52.5859 277.139 52.716 277.328 52.8161C277.52 52.9162 277.77 52.9662 278.078 52.9662ZM282.827 53.6807V47.1963H283.782V48.7634L283.626 48.5592C283.702 48.3591 283.8 48.175 283.92 48.0069C284.044 47.8387 284.182 47.7007 284.334 47.5926C284.502 47.4565 284.693 47.3524 284.905 47.2804C285.117 47.2083 285.333 47.1663 285.553 47.1543C285.773 47.1383 285.979 47.1523 286.172 47.1963V48.199C285.947 48.1389 285.701 48.1229 285.433 48.151C285.165 48.179 284.917 48.277 284.689 48.4452C284.48 48.5933 284.318 48.7734 284.202 48.9855C284.09 49.1977 284.012 49.4278 283.968 49.676C283.924 49.9201 283.902 50.1703 283.902 50.4265V53.6807H282.827ZM289.831 53.6807V45.0349H290.9V52.666H294.91V53.6807H289.831ZM298.736 53.8608C298.099 53.8608 297.543 53.7207 297.067 53.4405C296.594 53.1563 296.226 52.762 295.962 52.2577C295.698 51.7494 295.566 51.157 295.566 50.4805C295.566 49.772 295.696 49.1596 295.956 48.6433C296.216 48.1229 296.578 47.7227 297.043 47.4425C297.511 47.1583 298.059 47.0162 298.688 47.0162C299.34 47.0162 299.895 47.1663 300.351 47.4665C300.811 47.7667 301.155 48.195 301.384 48.7514C301.616 49.3077 301.716 49.9702 301.684 50.7387H300.603V50.3544C300.591 49.5579 300.429 48.9635 300.117 48.5712C299.805 48.175 299.34 47.9768 298.724 47.9768C298.063 47.9768 297.561 48.189 297.217 48.6133C296.873 49.0376 296.7 49.646 296.7 50.4385C296.7 51.203 296.873 51.7954 297.217 52.2157C297.561 52.636 298.051 52.8461 298.688 52.8461C299.116 52.8461 299.488 52.748 299.805 52.5519C300.121 52.3558 300.369 52.0736 300.549 51.7053L301.576 52.0596C301.324 52.632 300.943 53.0763 300.435 53.3925C299.931 53.7047 299.364 53.8608 298.736 53.8608ZM296.34 50.7387V49.8801H301.131V50.7387H296.34ZM304.539 53.6807L302.186 47.1963H303.266L305.086 52.3178L306.899 47.1963H307.985L305.632 53.6807H304.539ZM311.647 53.8608C311.01 53.8608 310.454 53.7207 309.978 53.4405C309.505 53.1563 309.137 52.762 308.873 52.2577C308.609 51.7494 308.477 51.157 308.477 50.4805C308.477 49.772 308.607 49.1596 308.867 48.6433C309.127 48.1229 309.489 47.7227 309.954 47.4425C310.422 47.1583 310.97 47.0162 311.599 47.0162C312.251 47.0162 312.806 47.1663 313.262 47.4665C313.722 47.7667 314.066 48.195 314.295 48.7514C314.527 49.3077 314.627 49.9702 314.595 50.7387H313.514V50.3544C313.502 49.5579 313.34 48.9635 313.028 48.5712C312.716 48.175 312.251 47.9768 311.635 47.9768C310.974 47.9768 310.472 48.189 310.128 48.6133C309.784 49.0376 309.611 49.646 309.611 50.4385C309.611 51.203 309.784 51.7954 310.128 52.2157C310.472 52.636 310.962 52.8461 311.599 52.8461C312.027 52.8461 312.399 52.748 312.716 52.5519C313.032 52.3558 313.28 52.0736 313.46 51.7053L314.487 52.0596C314.235 52.632 313.854 53.0763 313.346 53.3925C312.842 53.7047 312.275 53.8608 311.647 53.8608ZM309.251 50.7387V49.8801H314.042V50.7387H309.251ZM316.052 53.6807V44.8547H317.12V53.6807H316.052ZM321.371 53.8548C320.599 53.8548 319.965 53.6867 319.468 53.3504C318.976 53.0102 318.674 52.5359 318.562 51.9275L319.654 51.7534C319.742 52.1056 319.945 52.3858 320.261 52.5939C320.577 52.7981 320.969 52.9001 321.438 52.9001C321.882 52.9001 322.23 52.8081 322.482 52.624C322.734 52.4398 322.86 52.1897 322.86 51.8735C322.86 51.6893 322.818 51.5412 322.734 51.4292C322.65 51.3131 322.476 51.205 322.212 51.1049C321.952 51.0049 321.558 50.8848 321.029 50.7447C320.457 50.5926 320.007 50.4345 319.678 50.2704C319.35 50.1063 319.116 49.9161 318.976 49.7C318.836 49.4839 318.766 49.2217 318.766 48.9135C318.766 48.5332 318.87 48.201 319.078 47.9168C319.286 47.6286 319.576 47.4065 319.949 47.2504C320.325 47.0942 320.761 47.0162 321.257 47.0162C321.75 47.0162 322.19 47.0942 322.578 47.2504C322.967 47.4065 323.279 47.6286 323.515 47.9168C323.755 48.201 323.897 48.5332 323.941 48.9135L322.848 49.1116C322.796 48.7634 322.628 48.4892 322.344 48.289C322.064 48.0889 321.702 47.9828 321.257 47.9708C320.837 47.9548 320.495 48.0289 320.231 48.193C319.971 48.3571 319.84 48.5792 319.84 48.8594C319.84 49.0155 319.888 49.1496 319.985 49.2617C320.085 49.3738 320.267 49.4798 320.531 49.5799C320.799 49.68 321.187 49.7941 321.696 49.9221C322.268 50.0662 322.718 50.2243 323.047 50.3965C323.379 50.5646 323.615 50.7647 323.755 50.9969C323.895 51.225 323.965 51.5072 323.965 51.8434C323.965 52.4679 323.735 52.9602 323.275 53.3204C322.814 53.6767 322.18 53.8548 321.371 53.8548Z" fill="black"/>
</g>
</g>
<g filter="url(#filter2_d_980_42877)">
<g filter="url(#filter3_d_980_42877)">
<rect x="24" y="97" width="125.343" height="33.3604" rx="16.6802" fill="white"/>
<path d="M44.05 122.132C48.7179 122.132 52.5019 118.348 52.5019 113.68C52.5019 109.013 48.7179 105.229 44.05 105.229C39.3822 105.229 35.5981 109.013 35.5981 113.68C35.5981 118.348 39.3822 122.132 44.05 122.132Z" fill="#22B51F" stroke="white" stroke-opacity="0.12" stroke-width="1.59963" stroke-linecap="round" stroke-linejoin="round"/>
<path d="M40.8817 112.977C41.4652 112.977 41.9382 112.504 41.9382 111.92C41.9382 111.337 41.4652 110.864 40.8817 110.864C40.2982 110.864 39.8252 111.337 39.8252 111.92C39.8252 112.504 40.2982 112.977 40.8817 112.977Z" fill="#04002C"/>
<path d="M47.2201 112.977C47.8035 112.977 48.2765 112.504 48.2765 111.92C48.2765 111.337 47.8035 110.864 47.2201 110.864C46.6366 110.864 46.1636 111.337 46.1636 111.92C46.1636 112.504 46.6366 112.977 47.2201 112.977Z" fill="#04002C"/>
<path d="M47.5691 115.794C46.8384 117.058 45.612 117.907 44.0475 117.907C42.483 117.907 41.2566 117.058 40.5259 115.794" stroke="#04002C" stroke-width="1.35248" stroke-linecap="round" stroke-linejoin="round"/>
<path d="M59.7058 118.681V110.035H60.7745V117.666H64.7852V118.681H59.7058ZM65.9209 111.05V109.945H66.9896V111.05H65.9209ZM65.9209 118.681V112.196H66.9896V118.681H65.9209ZM70.5442 118.681L68.1907 112.196H69.2714L71.0906 117.318L72.9038 112.196H73.9906L71.637 118.681H70.5442ZM77.6519 118.861C77.0155 118.861 76.4591 118.721 75.9828 118.441C75.5105 118.156 75.1422 117.762 74.878 117.258C74.6139 116.749 74.4818 116.157 74.4818 115.481C74.4818 114.772 74.6118 114.16 74.872 113.643C75.1322 113.123 75.4944 112.723 75.9588 112.442C76.4271 112.158 76.9754 112.016 77.6039 112.016C78.2563 112.016 78.8107 112.166 79.267 112.466C79.7273 112.767 80.0715 113.195 80.2997 113.751C80.5318 114.308 80.6319 114.97 80.5999 115.739H79.5191V115.354C79.5071 114.558 79.345 113.964 79.0328 113.571C78.7206 113.175 78.2563 112.977 77.6399 112.977C76.9794 112.977 76.4771 113.189 76.1329 113.613C75.7886 114.038 75.6165 114.646 75.6165 115.438C75.6165 116.203 75.7886 116.795 76.1329 117.216C76.4771 117.636 76.9674 117.846 77.6039 117.846C78.0321 117.846 78.4044 117.748 78.7206 117.552C79.0368 117.356 79.285 117.074 79.4651 116.705L80.4918 117.06C80.2396 117.632 79.8594 118.076 79.351 118.392C78.8467 118.705 78.2803 118.861 77.6519 118.861ZM75.2563 115.739V114.88H80.0475V115.739H75.2563ZM81.9366 118.681V112.196H82.8912V113.763L82.7351 113.559C82.8112 113.359 82.9093 113.175 83.0293 113.007C83.1534 112.839 83.2915 112.701 83.4436 112.593C83.6117 112.456 83.8019 112.352 84.014 112.28C84.2261 112.208 84.4423 112.166 84.6624 112.154C84.8826 112.138 85.0887 112.152 85.2808 112.196V113.199C85.0567 113.139 84.8105 113.123 84.5424 113.151C84.2742 113.179 84.026 113.277 83.7979 113.445C83.5897 113.593 83.4276 113.773 83.3115 113.986C83.1995 114.198 83.1214 114.428 83.0774 114.676C83.0333 114.92 83.0113 115.17 83.0113 115.426V118.681H81.9366ZM88.8201 118.681V110.035H93.8635V111.104H89.8888V113.823H93.143V114.892H89.8888V118.681H88.8201ZM97.4031 118.849C96.9868 118.849 96.6285 118.783 96.3283 118.651C96.0321 118.519 95.786 118.342 95.5899 118.122C95.3937 117.902 95.2396 117.658 95.1275 117.39C95.0155 117.122 94.9354 116.847 94.8874 116.567C94.8434 116.287 94.8213 116.025 94.8213 115.781V112.196H95.9021V115.444C95.9021 115.749 95.9301 116.043 95.9861 116.327C96.0422 116.611 96.1362 116.867 96.2683 117.096C96.4044 117.324 96.5845 117.504 96.8087 117.636C97.0368 117.768 97.321 117.834 97.6612 117.834C97.9294 117.834 98.1736 117.788 98.3937 117.696C98.6139 117.604 98.802 117.468 98.9581 117.288C99.1142 117.104 99.2343 116.871 99.3184 116.591C99.4024 116.311 99.4444 115.985 99.4444 115.613L100.147 115.829C100.147 116.453 100.033 116.992 99.8047 117.444C99.5805 117.896 99.2623 118.244 98.85 118.489C98.4418 118.729 97.9594 118.849 97.4031 118.849ZM99.5645 118.681V116.946H99.4444V112.196H100.519V118.681H99.5645ZM106.817 118.681V115.432C106.817 115.124 106.789 114.828 106.733 114.544C106.681 114.26 106.587 114.006 106.451 113.781C106.319 113.553 106.139 113.373 105.911 113.241C105.687 113.109 105.402 113.043 105.058 113.043C104.79 113.043 104.546 113.089 104.326 113.181C104.109 113.269 103.923 113.405 103.767 113.589C103.611 113.773 103.489 114.006 103.401 114.286C103.317 114.562 103.275 114.888 103.275 115.264L102.572 115.048C102.572 114.42 102.685 113.881 102.909 113.433C103.137 112.981 103.455 112.635 103.863 112.394C104.276 112.15 104.76 112.028 105.316 112.028C105.737 112.028 106.095 112.094 106.391 112.226C106.687 112.358 106.933 112.535 107.129 112.755C107.326 112.971 107.48 113.215 107.592 113.487C107.704 113.755 107.782 114.03 107.826 114.31C107.874 114.586 107.898 114.848 107.898 115.096V118.681H106.817ZM102.194 118.681V112.196H103.155V113.931H103.275V118.681H102.194ZM112.132 118.861C111.476 118.861 110.917 118.715 110.457 118.422C110.001 118.126 109.652 117.72 109.412 117.204C109.172 116.687 109.048 116.099 109.04 115.438C109.048 114.762 109.174 114.168 109.418 113.655C109.667 113.139 110.021 112.737 110.481 112.448C110.941 112.16 111.496 112.016 112.144 112.016C112.829 112.016 113.417 112.184 113.909 112.521C114.406 112.857 114.738 113.317 114.906 113.901L113.849 114.22C113.713 113.843 113.491 113.551 113.183 113.343C112.879 113.135 112.528 113.031 112.132 113.031C111.688 113.031 111.322 113.135 111.033 113.343C110.745 113.547 110.531 113.831 110.391 114.196C110.251 114.556 110.179 114.97 110.175 115.438C110.183 116.159 110.349 116.741 110.673 117.186C111.001 117.626 111.488 117.846 112.132 117.846C112.556 117.846 112.909 117.75 113.189 117.558C113.469 117.362 113.681 117.08 113.825 116.711L114.906 116.994C114.682 117.598 114.332 118.06 113.855 118.38C113.379 118.701 112.805 118.861 112.132 118.861ZM119.752 118.681C119.368 118.757 118.987 118.787 118.611 118.771C118.239 118.759 117.907 118.685 117.614 118.549C117.322 118.408 117.1 118.192 116.948 117.9C116.82 117.644 116.75 117.386 116.738 117.126C116.73 116.861 116.726 116.563 116.726 116.231V110.395H117.795V116.183C117.795 116.447 117.797 116.673 117.801 116.861C117.809 117.05 117.851 117.212 117.927 117.348C118.071 117.604 118.299 117.754 118.611 117.798C118.927 117.842 119.308 117.83 119.752 117.762V118.681ZM115.411 113.079V112.196H119.752V113.079H115.411ZM121.188 111.05V109.945H122.257V111.05H121.188ZM121.188 118.681V112.196H122.257V118.681H121.188ZM126.82 118.861C126.176 118.861 125.62 118.715 125.151 118.422C124.687 118.13 124.329 117.726 124.077 117.21C123.824 116.693 123.698 116.101 123.698 115.432C123.698 114.752 123.826 114.156 124.083 113.643C124.339 113.131 124.701 112.733 125.169 112.448C125.638 112.16 126.188 112.016 126.82 112.016C127.469 112.016 128.027 112.162 128.496 112.454C128.964 112.743 129.322 113.145 129.57 113.661C129.822 114.174 129.949 114.764 129.949 115.432C129.949 116.109 129.822 116.705 129.57 117.222C129.318 117.734 128.958 118.136 128.49 118.428C128.021 118.717 127.465 118.861 126.82 118.861ZM126.82 117.846C127.493 117.846 127.993 117.622 128.321 117.174C128.65 116.725 128.814 116.145 128.814 115.432C128.814 114.7 128.648 114.118 128.315 113.685C127.983 113.249 127.485 113.031 126.82 113.031C126.368 113.031 125.996 113.133 125.704 113.337C125.412 113.541 125.193 113.823 125.049 114.184C124.905 114.544 124.833 114.96 124.833 115.432C124.833 116.161 125.001 116.745 125.337 117.186C125.674 117.626 126.168 117.846 126.82 117.846ZM135.888 118.681V115.432C135.888 115.124 135.86 114.828 135.804 114.544C135.751 114.26 135.657 114.006 135.521 113.781C135.389 113.553 135.209 113.373 134.981 113.241C134.757 113.109 134.473 113.043 134.128 113.043C133.86 113.043 133.616 113.089 133.396 113.181C133.18 113.269 132.994 113.405 132.838 113.589C132.681 113.773 132.559 114.006 132.471 114.286C132.387 114.562 132.345 114.888 132.345 115.264L131.643 115.048C131.643 114.42 131.755 113.881 131.979 113.433C132.207 112.981 132.525 112.635 132.934 112.394C133.346 112.15 133.83 112.028 134.387 112.028C134.807 112.028 135.165 112.094 135.461 112.226C135.757 112.358 136.004 112.535 136.2 112.755C136.396 112.971 136.55 113.215 136.662 113.487C136.774 113.755 136.852 114.03 136.896 114.31C136.944 114.586 136.968 114.848 136.968 115.096V118.681H135.888ZM131.264 118.681V112.196H132.225V113.931H132.345V118.681H131.264Z" fill="black"/>
</g>
</g>
<g filter="url(#filter4_d_980_42877)">
<g filter="url(#filter5_d_980_42877)">
<rect x="204" y="188" width="151.343" height="33.3604" rx="16.6802" fill="white"/>
<path d="M224.05 213.132C228.718 213.132 232.502 209.348 232.502 204.68C232.502 200.013 228.718 196.229 224.05 196.229C219.382 196.229 215.598 200.013 215.598 204.68C215.598 209.348 219.382 213.132 224.05 213.132Z" fill="#22B51F" stroke="white" stroke-opacity="0.12" stroke-width="1.59963" stroke-linecap="round" stroke-linejoin="round"/>
<path d="M220.882 203.977C221.465 203.977 221.938 203.504 221.938 202.92C221.938 202.337 221.465 201.864 220.882 201.864C220.298 201.864 219.825 202.337 219.825 202.92C219.825 203.504 220.298 203.977 220.882 203.977Z" fill="#04002C"/>
<path d="M227.22 203.977C227.804 203.977 228.277 203.504 228.277 202.92C228.277 202.337 227.804 201.864 227.22 201.864C226.637 201.864 226.164 202.337 226.164 202.92C226.164 203.504 226.637 203.977 227.22 203.977Z" fill="#04002C"/>
<path d="M227.569 206.794C226.838 208.058 225.612 208.907 224.048 208.907C222.483 208.907 221.257 208.058 220.526 206.794" stroke="#04002C" stroke-width="1.35248" stroke-linecap="round" stroke-linejoin="round"/>
<path d="M239.586 209.681L239.586 201.035H240.654V204.847H245.205V201.035H246.274V209.681H245.205V205.862H240.654V209.681H239.586ZM250.72 209.861C250.076 209.861 249.52 209.715 249.051 209.422C248.587 209.13 248.229 208.726 247.976 208.21C247.724 207.693 247.598 207.101 247.598 206.432C247.598 205.752 247.726 205.156 247.982 204.643C248.239 204.131 248.601 203.733 249.069 203.448C249.538 203.16 250.088 203.016 250.72 203.016C251.369 203.016 251.927 203.162 252.395 203.454C252.864 203.743 253.222 204.145 253.47 204.661C253.722 205.174 253.848 205.764 253.848 206.432C253.848 207.109 253.722 207.705 253.47 208.222C253.218 208.734 252.858 209.136 252.389 209.428C251.921 209.717 251.365 209.861 250.72 209.861ZM250.72 208.846C251.393 208.846 251.893 208.622 252.221 208.174C252.55 207.725 252.714 207.145 252.714 206.432C252.714 205.7 252.548 205.118 252.215 204.685C251.883 204.249 251.385 204.031 250.72 204.031C250.268 204.031 249.896 204.133 249.604 204.337C249.311 204.541 249.093 204.823 248.949 205.184C248.805 205.544 248.733 205.96 248.733 206.432C248.733 207.161 248.901 207.745 249.237 208.186C249.574 208.626 250.068 208.846 250.72 208.846ZM255.17 209.681V203.196H256.125V204.763L255.969 204.559C256.045 204.359 256.143 204.175 256.263 204.007C256.387 203.839 256.525 203.701 256.677 203.593C256.845 203.456 257.036 203.352 257.248 203.28C257.46 203.208 257.676 203.166 257.896 203.154C258.116 203.138 258.322 203.152 258.515 203.196V204.199C258.29 204.139 258.044 204.123 257.776 204.151C257.508 204.179 257.26 204.277 257.032 204.445C256.823 204.593 256.661 204.773 256.545 204.986C256.433 205.198 256.355 205.428 256.311 205.676C256.267 205.92 256.245 206.17 256.245 206.426V209.681H255.17ZM267.401 209.681L267.407 205.532C267.407 205.048 267.277 204.669 267.017 204.397C266.761 204.121 266.426 203.983 266.014 203.983C265.774 203.983 265.546 204.039 265.33 204.151C265.114 204.259 264.937 204.431 264.801 204.667C264.665 204.899 264.597 205.198 264.597 205.562L264.033 205.334C264.025 204.873 264.119 204.471 264.315 204.127C264.515 203.779 264.787 203.509 265.132 203.316C265.476 203.124 265.864 203.028 266.296 203.028C266.973 203.028 267.505 203.234 267.893 203.647C268.282 204.055 268.476 204.605 268.476 205.298L268.47 209.681H267.401ZM259.644 209.681V203.196H260.599V204.931H260.719V209.681H259.644ZM263.529 209.681L263.535 205.574C263.535 205.078 263.406 204.689 263.15 204.409C262.894 204.125 262.554 203.983 262.13 203.983C261.709 203.983 261.369 204.127 261.109 204.415C260.849 204.703 260.719 205.086 260.719 205.562L260.154 205.226C260.154 204.805 260.254 204.429 260.454 204.097C260.655 203.765 260.927 203.505 261.271 203.316C261.615 203.124 262.005 203.028 262.442 203.028C262.878 203.028 263.258 203.12 263.583 203.304C263.907 203.489 264.157 203.753 264.333 204.097C264.509 204.437 264.597 204.843 264.597 205.316L264.591 209.681H263.529ZM272.743 209.861C272.098 209.861 271.542 209.715 271.074 209.422C270.609 209.13 270.251 208.726 269.999 208.21C269.747 207.693 269.621 207.101 269.621 206.432C269.621 205.752 269.749 205.156 270.005 204.643C270.261 204.131 270.623 203.733 271.092 203.448C271.56 203.16 272.11 203.016 272.743 203.016C273.391 203.016 273.95 203.162 274.418 203.454C274.886 203.743 275.245 204.145 275.493 204.661C275.745 205.174 275.871 205.764 275.871 206.432C275.871 207.109 275.745 207.705 275.493 208.222C275.241 208.734 274.88 209.136 274.412 209.428C273.944 209.717 273.387 209.861 272.743 209.861ZM272.743 208.846C273.415 208.846 273.916 208.622 274.244 208.174C274.572 207.725 274.736 207.145 274.736 206.432C274.736 205.7 274.57 205.118 274.238 204.685C273.906 204.249 273.407 204.031 272.743 204.031C272.291 204.031 271.918 204.133 271.626 204.337C271.334 204.541 271.116 204.823 270.972 205.184C270.828 205.544 270.756 205.96 270.756 206.432C270.756 207.161 270.924 207.745 271.26 208.186C271.596 208.626 272.09 208.846 272.743 208.846ZM281.81 209.681V206.432C281.81 206.124 281.782 205.828 281.726 205.544C281.674 205.26 281.58 205.006 281.444 204.781C281.312 204.553 281.132 204.373 280.903 204.241C280.679 204.109 280.395 204.043 280.051 204.043C279.783 204.043 279.538 204.089 279.318 204.181C279.102 204.269 278.916 204.405 278.76 204.589C278.604 204.773 278.482 205.006 278.394 205.286C278.31 205.562 278.268 205.888 278.268 206.264L277.565 206.048C277.565 205.42 277.677 204.881 277.901 204.433C278.13 203.981 278.448 203.635 278.856 203.394C279.268 203.15 279.753 203.028 280.309 203.028C280.729 203.028 281.088 203.094 281.384 203.226C281.68 203.358 281.926 203.535 282.122 203.755C282.318 203.971 282.472 204.215 282.585 204.487C282.697 204.755 282.775 205.03 282.819 205.31C282.867 205.586 282.891 205.848 282.891 206.096V209.681H281.81ZM277.187 209.681V203.196H278.148V204.931H278.268V209.681H277.187ZM287.203 209.861C286.567 209.861 286.01 209.721 285.534 209.441C285.062 209.156 284.693 208.762 284.429 208.258C284.165 207.749 284.033 207.157 284.033 206.481C284.033 205.772 284.163 205.16 284.423 204.643C284.683 204.123 285.046 203.723 285.51 203.442C285.978 203.158 286.526 203.016 287.155 203.016C287.807 203.016 288.362 203.166 288.818 203.466C289.278 203.767 289.623 204.195 289.851 204.751C290.083 205.308 290.183 205.97 290.151 206.739H289.07V206.354C289.058 205.558 288.896 204.964 288.584 204.571C288.272 204.175 287.807 203.977 287.191 203.977C286.53 203.977 286.028 204.189 285.684 204.613C285.34 205.038 285.168 205.646 285.168 206.438C285.168 207.203 285.34 207.795 285.684 208.216C286.028 208.636 286.518 208.846 287.155 208.846C287.583 208.846 287.955 208.748 288.272 208.552C288.588 208.356 288.836 208.074 289.016 207.705L290.043 208.06C289.791 208.632 289.41 209.076 288.902 209.392C288.398 209.705 287.831 209.861 287.203 209.861ZM284.807 206.739V205.88H289.599V206.739H284.807ZM293.892 209.681V201.035H298.935V202.104H294.96V204.823H298.215V205.892H294.96V209.681H293.892ZM302.475 209.849C302.058 209.849 301.7 209.783 301.4 209.651C301.104 209.519 300.857 209.342 300.661 209.122C300.465 208.902 300.311 208.658 300.199 208.39C300.087 208.122 300.007 207.847 299.959 207.567C299.915 207.287 299.893 207.025 299.893 206.781V203.196H300.974V206.444C300.974 206.749 301.002 207.043 301.058 207.327C301.114 207.611 301.208 207.867 301.34 208.096C301.476 208.324 301.656 208.504 301.88 208.636C302.108 208.768 302.393 208.834 302.733 208.834C303.001 208.834 303.245 208.788 303.465 208.696C303.685 208.604 303.874 208.468 304.03 208.288C304.186 208.104 304.306 207.871 304.39 207.591C304.474 207.311 304.516 206.985 304.516 206.613L305.218 206.829C305.218 207.453 305.104 207.992 304.876 208.444C304.652 208.896 304.334 209.244 303.922 209.489C303.513 209.729 303.031 209.849 302.475 209.849ZM304.636 209.681V207.946H304.516V203.196H305.591V209.681H304.636ZM311.889 209.681V206.432C311.889 206.124 311.861 205.828 311.805 205.544C311.753 205.26 311.659 205.006 311.523 204.781C311.39 204.553 311.21 204.373 310.982 204.241C310.758 204.109 310.474 204.043 310.13 204.043C309.861 204.043 309.617 204.089 309.397 204.181C309.181 204.269 308.995 204.405 308.839 204.589C308.683 204.773 308.561 205.006 308.472 205.286C308.388 205.562 308.346 205.888 308.346 206.264L307.644 206.048C307.644 205.42 307.756 204.881 307.98 204.433C308.208 203.981 308.527 203.635 308.935 203.394C309.347 203.15 309.831 203.028 310.388 203.028C310.808 203.028 311.166 203.094 311.462 203.226C311.759 203.358 312.005 203.535 312.201 203.755C312.397 203.971 312.551 204.215 312.663 204.487C312.775 204.755 312.853 205.03 312.897 205.31C312.945 205.586 312.97 205.848 312.97 206.096V209.681H311.889ZM307.266 209.681V203.196H308.226V204.931H308.346V209.681H307.266ZM317.204 209.861C316.547 209.861 315.989 209.715 315.529 209.422C315.072 209.126 314.724 208.72 314.484 208.204C314.244 207.687 314.12 207.099 314.112 206.438C314.12 205.762 314.246 205.168 314.49 204.655C314.738 204.139 315.092 203.737 315.553 203.448C316.013 203.16 316.567 203.016 317.216 203.016C317.9 203.016 318.489 203.184 318.981 203.521C319.477 203.857 319.809 204.317 319.978 204.901L318.921 205.22C318.785 204.843 318.563 204.551 318.254 204.343C317.95 204.135 317.6 204.031 317.204 204.031C316.759 204.031 316.393 204.135 316.105 204.343C315.817 204.547 315.603 204.831 315.462 205.196C315.322 205.556 315.25 205.97 315.246 206.438C315.254 207.159 315.42 207.741 315.745 208.186C316.073 208.626 316.559 208.846 317.204 208.846C317.628 208.846 317.98 208.75 318.26 208.558C318.541 208.362 318.753 208.08 318.897 207.711L319.978 207.994C319.753 208.598 319.403 209.06 318.927 209.38C318.45 209.701 317.876 209.861 317.204 209.861ZM324.823 209.681C324.439 209.757 324.059 209.787 323.683 209.771C323.31 209.759 322.978 209.685 322.686 209.549C322.394 209.408 322.172 209.192 322.019 208.9C321.891 208.644 321.821 208.386 321.809 208.126C321.801 207.861 321.797 207.563 321.797 207.231V201.395H322.866V207.183C322.866 207.447 322.868 207.673 322.872 207.861C322.88 208.05 322.922 208.212 322.998 208.348C323.142 208.604 323.37 208.754 323.683 208.798C323.999 208.842 324.379 208.83 324.823 208.762V209.681ZM320.482 204.079V203.196H324.823V204.079H320.482ZM326.26 202.05V200.945H327.329V202.05H326.26ZM326.26 209.681V203.196H327.329V209.681H326.26ZM331.892 209.861C331.248 209.861 330.691 209.715 330.223 209.422C329.759 209.13 329.4 208.726 329.148 208.21C328.896 207.693 328.77 207.101 328.77 206.432C328.77 205.752 328.898 205.156 329.154 204.643C329.41 204.131 329.773 203.733 330.241 203.448C330.709 203.16 331.26 203.016 331.892 203.016C332.54 203.016 333.099 203.162 333.567 203.454C334.035 203.743 334.394 204.145 334.642 204.661C334.894 205.174 335.02 205.764 335.02 206.432C335.02 207.109 334.894 207.705 334.642 208.222C334.39 208.734 334.029 209.136 333.561 209.428C333.093 209.717 332.536 209.861 331.892 209.861ZM331.892 208.846C332.564 208.846 333.065 208.622 333.393 208.174C333.721 207.725 333.885 207.145 333.885 206.432C333.885 205.7 333.719 205.118 333.387 204.685C333.055 204.249 332.556 204.031 331.892 204.031C331.44 204.031 331.067 204.133 330.775 204.337C330.483 204.541 330.265 204.823 330.121 205.184C329.977 205.544 329.905 205.96 329.905 206.432C329.905 207.161 330.073 207.745 330.409 208.186C330.745 208.626 331.24 208.846 331.892 208.846ZM340.959 209.681V206.432C340.959 206.124 340.931 205.828 340.875 205.544C340.823 205.26 340.729 205.006 340.593 204.781C340.461 204.553 340.281 204.373 340.052 204.241C339.828 204.109 339.544 204.043 339.2 204.043C338.932 204.043 338.688 204.089 338.467 204.181C338.251 204.269 338.065 204.405 337.909 204.589C337.753 204.773 337.631 205.006 337.543 205.286C337.459 205.562 337.417 205.888 337.417 206.264L336.714 206.048C336.714 205.42 336.826 204.881 337.05 204.433C337.279 203.981 337.597 203.635 338.005 203.394C338.417 203.15 338.902 203.028 339.458 203.028C339.878 203.028 340.237 203.094 340.533 203.226C340.829 203.358 341.075 203.535 341.271 203.755C341.467 203.971 341.621 204.215 341.734 204.487C341.846 204.755 341.924 205.03 341.968 205.31C342.016 205.586 342.04 205.848 342.04 206.096V209.681H340.959ZM336.336 209.681V203.196H337.297V204.931H337.417V209.681H336.336Z" fill="black"/>
</g>
</g>
<defs>
<filter id="filter0_d_980_42877" x="152.141" y="0.141323" width="216.061" height="97.0777" filterUnits="userSpaceOnUse" color-interpolation-filters="sRGB">
<feFlood flood-opacity="0" result="BackgroundImageFix"/>
<feColorMatrix in="SourceAlpha" type="matrix" values="0 0 0 0 0 0 0 0 0 0 0 0 0 0 0 0 0 0 127 0" result="hardAlpha"/>
<feOffset/>
<feGaussianBlur stdDeviation="15.9293"/>
<feComposite in2="hardAlpha" operator="out"/>
<feColorMatrix type="matrix" values="0 0 0 0 0 0 0 0 0 0 0 0 0 0 0 0 0 0 0.1 0"/>
<feBlend mode="normal" in2="BackgroundImageFix" result="effect1_dropShadow_980_42877"/>
<feBlend mode="normal" in="SourceGraphic" in2="effect1_dropShadow_980_42877" result="shape"/>
</filter>
<filter id="filter1_d_980_42877" x="174.394" y="22.3936" width="171.556" height="52.5732" filterUnits="userSpaceOnUse" color-interpolation-filters="sRGB">
<feFlood flood-opacity="0" result="BackgroundImageFix"/>
<feColorMatrix in="SourceAlpha" type="matrix" values="0 0 0 0 0 0 0 0 0 0 0 0 0 0 0 0 0 0 127 0" result="hardAlpha"/>
<feOffset/>
<feGaussianBlur stdDeviation="4.80322"/>
<feComposite in2="hardAlpha" operator="out"/>
<feColorMatrix type="matrix" values="0 0 0 0 0 0 0 0 0 0 0 0 0 0 0 0 0 0 0.03 0"/>
<feBlend mode="normal" in2="BackgroundImageFix" result="effect1_dropShadow_980_42877"/>
<feBlend mode="normal" in="SourceGraphic" in2="effect1_dropShadow_980_42877" result="shape"/>
</filter>
<filter id="filter2_d_980_42877" x="-7.85868" y="65.1413" width="189.061" height="97.0777" filterUnits="userSpaceOnUse" color-interpolation-filters="sRGB">
<feFlood flood-opacity="0" result="BackgroundImageFix"/>
<feColorMatrix in="SourceAlpha" type="matrix" values="0 0 0 0 0 0 0 0 0 0 0 0 0 0 0 0 0 0 127 0" result="hardAlpha"/>
<feOffset/>
<feGaussianBlur stdDeviation="15.9293"/>
<feComposite in2="hardAlpha" operator="out"/>
<feColorMatrix type="matrix" values="0 0 0 0 0 0 0 0 0 0 0 0 0 0 0 0 0 0 0.1 0"/>
<feBlend mode="normal" in2="BackgroundImageFix" result="effect1_dropShadow_980_42877"/>
<feBlend mode="normal" in="SourceGraphic" in2="effect1_dropShadow_980_42877" result="shape"/>
</filter>
<filter id="filter3_d_980_42877" x="14.3936" y="87.3936" width="144.556" height="52.5732" filterUnits="userSpaceOnUse" color-interpolation-filters="sRGB">
<feFlood flood-opacity="0" result="BackgroundImageFix"/>
<feColorMatrix in="SourceAlpha" type="matrix" values="0 0 0 0 0 0 0 0 0 0 0 0 0 0 0 0 0 0 127 0" result="hardAlpha"/>
<feOffset/>
<feGaussianBlur stdDeviation="4.80322"/>
<feComposite in2="hardAlpha" operator="out"/>
<feColorMatrix type="matrix" values="0 0 0 0 0 0 0 0 0 0 0 0 0 0 0 0 0 0 0.03 0"/>
<feBlend mode="normal" in2="BackgroundImageFix" result="effect1_dropShadow_980_42877"/>
<feBlend mode="normal" in="SourceGraphic" in2="effect1_dropShadow_980_42877" result="shape"/>
</filter>
<filter id="filter4_d_980_42877" x="172.141" y="156.141" width="215.061" height="97.0777" filterUnits="userSpaceOnUse" color-interpolation-filters="sRGB">
<feFlood flood-opacity="0" result="BackgroundImageFix"/>
<feColorMatrix in="SourceAlpha" type="matrix" values="0 0 0 0 0 0 0 0 0 0 0 0 0 0 0 0 0 0 127 0" result="hardAlpha"/>
<feOffset/>
<feGaussianBlur stdDeviation="15.9293"/>
<feComposite in2="hardAlpha" operator="out"/>
<feColorMatrix type="matrix" values="0 0 0 0 0 0 0 0 0 0 0 0 0 0 0 0 0 0 0.1 0"/>
<feBlend mode="normal" in2="BackgroundImageFix" result="effect1_dropShadow_980_42877"/>
<feBlend mode="normal" in="SourceGraphic" in2="effect1_dropShadow_980_42877" result="shape"/>
</filter>
<filter id="filter5_d_980_42877" x="194.394" y="178.394" width="170.556" height="52.5732" filterUnits="userSpaceOnUse" color-interpolation-filters="sRGB">
<feFlood flood-opacity="0" result="BackgroundImageFix"/>
<feColorMatrix in="SourceAlpha" type="matrix" values="0 0 0 0 0 0 0 0 0 0 0 0 0 0 0 0 0 0 127 0" result="hardAlpha"/>
<feOffset/>
<feGaussianBlur stdDeviation="4.80322"/>
<feComposite in2="hardAlpha" operator="out"/>
<feColorMatrix type="matrix" values="0 0 0 0 0 0 0 0 0 0 0 0 0 0 0 0 0 0 0.03 0"/>
<feBlend mode="normal" in2="BackgroundImageFix" result="effect1_dropShadow_980_42877"/>
<feBlend mode="normal" in="SourceGraphic" in2="effect1_dropShadow_980_42877" result="shape"/>
</filter>
<clipPath id="clip0_980_42877">
<rect width="344" height="251" fill="white" transform="translate(16 10)"/>
</clipPath>
</defs>
</svg>
