<svg width="281" height="340" viewBox="0 0 281 340" fill="none" xmlns="http://www.w3.org/2000/svg">
<g filter="url(#filter0_d_980_42746)">
<rect x="29.1172" y="28.6045" width="221.395" height="282.791" rx="20" fill="white"/>
</g>
<path d="M69.581 63.3881C68.8864 63.3881 68.2415 63.2591 67.6461 63.0011C67.0508 62.7332 66.5447 62.371 66.128 61.9146C65.7112 61.4582 65.4036 60.9323 65.2052 60.3369L66.6936 59.7118C66.9615 60.3964 67.3534 60.9223 67.8694 61.2895C68.3854 61.6566 68.9807 61.8402 69.6554 61.8402C70.0523 61.8402 70.3996 61.7806 70.6973 61.6616C70.995 61.5326 71.2232 61.354 71.3819 61.1258C71.5506 60.8975 71.635 60.6346 71.635 60.3369C71.635 59.9301 71.5209 59.6076 71.2926 59.3695C71.0644 59.1313 70.7271 58.9428 70.2805 58.8039L68.1968 58.149C67.3633 57.891 66.7283 57.4991 66.2917 56.9732C65.8551 56.4374 65.6368 55.8123 65.6368 55.0978C65.6368 54.4727 65.7906 53.927 66.0982 53.4606C66.4058 52.9844 66.8275 52.6123 67.3633 52.3444C67.9091 52.0764 68.5292 51.9425 69.2238 51.9425C69.8886 51.9425 70.4939 52.0616 71.0396 52.2997C71.5854 52.5279 72.0517 52.8454 72.4387 53.2523C72.8356 53.6591 73.1233 54.1304 73.3019 54.6662L71.8433 55.3062C71.625 54.7208 71.2827 54.2693 70.8164 53.9518C70.3599 53.6343 69.8291 53.4755 69.2238 53.4755C68.8567 53.4755 68.5342 53.54 68.2564 53.669C67.9785 53.7881 67.7602 53.9667 67.6015 54.2048C67.4526 54.433 67.3782 54.7009 67.3782 55.0085C67.3782 55.3658 67.4923 55.6833 67.7205 55.9611C67.9488 56.2389 68.2961 56.4473 68.7624 56.5862L70.6973 57.1964C71.5804 57.4644 72.2452 57.8513 72.6917 58.3574C73.1382 58.8535 73.3615 59.4737 73.3615 60.2178C73.3615 60.833 73.1978 61.3788 72.8703 61.8551C72.5528 62.3313 72.1112 62.7084 71.5457 62.9862C70.9801 63.2541 70.3252 63.3881 69.581 63.3881ZM79.6344 63.3881C78.8108 63.3881 78.0766 63.2144 77.4316 62.8671C76.7966 62.5199 76.2955 62.0436 75.9283 61.4383C75.5711 60.833 75.3925 60.1434 75.3925 59.3695V52.1211H77.1488V59.2951C77.1488 59.7813 77.253 60.2129 77.4614 60.5899C77.6797 60.967 77.9724 61.2597 78.3395 61.4681C78.7166 61.6764 79.1482 61.7806 79.6344 61.7806C80.1305 61.7806 80.5621 61.6764 80.9293 61.4681C81.3063 61.2597 81.599 60.967 81.8074 60.5899C82.0257 60.2129 82.1349 59.7813 82.1349 59.2951V52.1211H83.8762V59.3695C83.8762 60.1434 83.6976 60.833 83.3404 61.4383C82.9832 62.0436 82.4821 62.5199 81.8372 62.8671C81.2021 63.2144 80.4679 63.3881 79.6344 63.3881ZM86.2266 63.2095V52.1211H90.2601C91.0043 52.1211 91.6592 52.26 92.2247 52.5378C92.8002 52.8058 93.2467 53.2027 93.5643 53.7285C93.8818 54.2445 94.0405 54.8647 94.0405 55.589C94.0405 56.3034 93.8768 56.9186 93.5494 57.4346C93.2319 57.9506 92.7903 58.3475 92.2247 58.6253C91.6592 58.9031 91.0043 59.042 90.2601 59.042H87.9829V63.2095H86.2266ZM87.9829 57.4792H90.3047C90.7016 57.4792 91.0489 57.3999 91.3466 57.2411C91.6443 57.0823 91.8774 56.864 92.0461 56.5862C92.2148 56.2985 92.2992 55.9611 92.2992 55.5741C92.2992 55.1871 92.2148 54.8547 92.0461 54.5769C91.8774 54.2892 91.6443 54.0709 91.3466 53.922C91.0489 53.7633 90.7016 53.6839 90.3047 53.6839H87.9829V57.4792ZM95.9975 63.2095V52.1211H100.031C100.775 52.1211 101.43 52.26 101.996 52.5378C102.571 52.8058 103.018 53.2027 103.335 53.7285C103.653 54.2445 103.811 54.8647 103.811 55.589C103.811 56.3034 103.648 56.9186 103.32 57.4346C103.003 57.9506 102.561 58.3475 101.996 58.6253C101.43 58.9031 100.775 59.042 100.031 59.042H97.7538V63.2095H95.9975ZM97.7538 57.4792H100.076C100.473 57.4792 100.82 57.3999 101.118 57.2411C101.415 57.0823 101.648 56.864 101.817 56.5862C101.986 56.2985 102.07 55.9611 102.07 55.5741C102.07 55.1871 101.986 54.8547 101.817 54.5769C101.648 54.2892 101.415 54.0709 101.118 53.922C100.82 53.7633 100.473 53.6839 100.076 53.6839H97.7538V57.4792ZM105.768 63.2095V52.1211H107.525V61.6467H112.317V63.2095H105.768ZM113.941 63.2095V52.1211H121.248V53.6839H115.697V56.869H120.951V58.4318H115.697V61.6467H121.248V63.2095H113.941ZM123.028 63.2095V52.1211H124.666L128.833 57.896H128.014L132.107 52.1211H133.745V63.2095H132.003V54.1899L132.658 54.3685L128.476 60.0839H128.297L124.204 54.3685L124.785 54.1899V63.2095H123.028ZM136.186 63.2095V52.1211H143.494V53.6839H137.942V56.869H143.196V58.4318H137.942V61.6467H143.494V63.2095H136.186ZM145.274 63.2095V52.1211H146.688L152.909 60.709L152.239 60.8132V52.1211H153.981V63.2095H152.567L146.39 54.562L147.03 54.443V63.2095H145.274ZM158.39 63.2095V53.6839H155.443V52.1211H163.034V53.6839H160.131V63.2095H158.39ZM169.997 63.2095V52.1211H177.216V53.6839H171.753V57.0178H176.62V58.5806H171.753V63.2095H169.997ZM177.114 63.2095L181.014 52.1211H183.187L187.086 63.2095H185.211L184.362 60.7239H179.853L178.989 63.2095H177.114ZM180.359 59.1611H183.827L181.862 53.3564H182.353L180.359 59.1611ZM193.264 63.3881C192.481 63.3881 191.751 63.2442 191.077 62.9564C190.412 62.6687 189.831 62.2718 189.335 61.7658C188.849 61.2498 188.467 60.6445 188.189 59.9499C187.911 59.2554 187.772 58.4913 187.772 57.6578C187.772 56.8343 187.906 56.0752 188.174 55.3806C188.452 54.6761 188.839 54.0709 189.335 53.5648C189.831 53.0489 190.412 52.652 191.077 52.3741C191.741 52.0864 192.471 51.9425 193.264 51.9425C194.048 51.9425 194.748 52.0764 195.363 52.3444C195.988 52.6123 196.514 52.9645 196.941 53.4011C197.367 53.8278 197.675 54.2941 197.864 54.8002L196.286 55.5444C196.048 54.949 195.666 54.4678 195.14 54.1006C194.624 53.7236 193.999 53.5351 193.264 53.5351C192.53 53.5351 191.88 53.7087 191.315 54.056C190.749 54.4033 190.308 54.8845 189.99 55.4997C189.682 56.1149 189.529 56.8343 189.529 57.6578C189.529 58.4814 189.682 59.2058 189.99 59.8309C190.308 60.4461 190.749 60.9273 191.315 61.2746C191.88 61.612 192.53 61.7806 193.264 61.7806C193.999 61.7806 194.624 61.5971 195.14 61.2299C195.666 60.8628 196.048 60.3816 196.286 59.7862L197.864 60.5304C197.675 61.0265 197.367 61.4929 196.941 61.9295C196.514 62.3661 195.988 62.7183 195.363 62.9862C194.748 63.2541 194.048 63.3881 193.264 63.3881ZM201.783 63.2095V53.6839H198.836V52.1211H206.427V53.6839H203.524V63.2095H201.783ZM211.773 63.3881C211.079 63.3881 210.434 63.2591 209.839 63.0011C209.243 62.7332 208.737 62.371 208.32 61.9146C207.904 61.4582 207.596 60.9323 207.398 60.3369L208.886 59.7118C209.154 60.3964 209.546 60.9223 210.062 61.2895C210.578 61.6566 211.173 61.8402 211.848 61.8402C212.245 61.8402 212.592 61.7806 212.89 61.6616C213.187 61.5326 213.416 61.354 213.574 61.1258C213.743 60.8975 213.827 60.6346 213.827 60.3369C213.827 59.9301 213.713 59.6076 213.485 59.3695C213.257 59.1313 212.919 58.9428 212.473 58.8039L210.389 58.149C209.556 57.891 208.921 57.4991 208.484 56.9732C208.048 56.4374 207.829 55.8123 207.829 55.0978C207.829 54.4727 207.983 53.927 208.291 53.4606C208.598 52.9844 209.02 52.6123 209.556 52.3444C210.101 52.0764 210.722 51.9425 211.416 51.9425C212.081 51.9425 212.686 52.0616 213.232 52.2997C213.778 52.5279 214.244 52.8454 214.631 53.2523C215.028 53.6591 215.316 54.1304 215.494 54.6662L214.036 55.3062C213.817 54.7208 213.475 54.2693 213.009 53.9518C212.552 53.6343 212.021 53.4755 211.416 53.4755C211.049 53.4755 210.727 53.54 210.449 53.669C210.171 53.7881 209.953 53.9667 209.794 54.2048C209.645 54.433 209.571 54.7009 209.571 55.0085C209.571 55.3658 209.685 55.6833 209.913 55.9611C210.141 56.2389 210.488 56.4473 210.955 56.5862L212.89 57.1964C213.773 57.4644 214.438 57.8513 214.884 58.3574C215.331 58.8535 215.554 59.4737 215.554 60.2178C215.554 60.833 215.39 61.3788 215.063 61.8551C214.745 62.3313 214.304 62.7084 213.738 62.9862C213.173 63.2541 212.518 63.3881 211.773 63.3881Z" fill="#04002C"/>
<rect x="46.793" y="81.6279" width="186.047" height="11.1628" rx="5.5814" fill="#FFF1DD"/>
<rect x="46.792" y="101.163" width="164.651" height="11.1628" rx="5.5814" fill="#FFF1DD"/>
<rect x="46.792" y="120.698" width="138.605" height="12.093" rx="6.04651" fill="#FFF1DD"/>
<rect x="46.792" y="141.163" width="186.047" height="11.1628" rx="5.5814" fill="#FFF1DD"/>
<rect x="46.792" y="160.698" width="170.233" height="12.093" rx="6.04651" fill="#FFF1DD"/>
<rect x="46.792" y="181.163" width="186.047" height="11.1628" rx="5.5814" fill="#FFF1DD"/>
<rect x="46.792" y="200.698" width="138.605" height="12.093" rx="6.04651" fill="#FFF1DD"/>
<rect x="46.792" y="221.163" width="186.047" height="11.1628" rx="5.5814" fill="#FFF1DD"/>
<rect x="46.792" y="240.698" width="164.651" height="12.093" rx="6.04651" fill="#FFF1DD"/>
<rect x="46.792" y="261.163" width="145.116" height="11.1628" rx="5.5814" fill="#FFF1DD"/>
<rect x="46.792" y="280.698" width="186.047" height="11.1628" rx="5.5814" fill="#FFF1DD"/>
<path d="M12.7888 47.2093C11.5286 47.2093 10.5063 46.186 10.5063 44.9245V33.7683C10.5063 20.6618 21.1573 10 34.2506 10H45.3956C46.6558 10 47.6781 11.0233 47.6781 12.2848C47.6781 13.5463 46.6558 14.5696 45.3956 14.5696H34.2506C23.6746 14.5696 15.0713 23.1816 15.0713 33.7683V44.9245C15.0713 46.186 14.0491 47.2093 12.7888 47.2093Z" fill="#FF4D00"/>
<path d="M12.7888 292.791C11.5286 292.791 10.5063 293.814 10.5063 295.075V306.232C10.5063 319.338 21.1573 330 34.2506 330H45.3956C46.6558 330 47.6781 328.977 47.6781 327.715C47.6781 326.454 46.6558 325.43 45.3956 325.43H34.2506C23.6746 325.43 15.0713 316.818 15.0713 306.232V295.075C15.0713 293.814 14.0491 292.791 12.7888 292.791Z" fill="#FF4D00"/>
<path d="M266.567 47.2093C267.827 47.2093 268.85 46.186 268.85 44.9245V33.7683C268.85 20.6618 258.199 10 245.105 10H233.96C232.7 10 231.678 11.0233 231.678 12.2848C231.678 13.5463 232.7 14.5696 233.96 14.5696H245.105C255.681 14.5696 264.285 23.1816 264.285 33.7683V44.9245C264.285 46.186 265.307 47.2093 266.567 47.2093Z" fill="#FF4D00"/>
<path d="M266.567 292.791C267.827 292.791 268.85 293.814 268.85 295.075V306.232C268.85 319.338 258.199 330 245.105 330H233.96C232.7 330 231.678 328.977 231.678 327.715C231.678 326.454 232.7 325.43 233.96 325.43H245.105C255.681 325.43 264.285 316.818 264.285 306.232V295.075C264.285 293.814 265.307 292.791 266.567 292.791Z" fill="#FF4D00"/>
<path d="M4.00098 167.897H278.599" stroke="#FF4D00" stroke-width="4.65116" stroke-linecap="round"/>
<rect x="4.00098" y="108.604" width="276.279" height="56.7442" fill="url(#paint0_linear_980_42746)"/>
<defs>
<filter id="filter0_d_980_42746" x="0.650562" y="0.137867" width="278.329" height="339.724" filterUnits="userSpaceOnUse" color-interpolation-filters="sRGB">
<feFlood flood-opacity="0" result="BackgroundImageFix"/>
<feColorMatrix in="SourceAlpha" type="matrix" values="0 0 0 0 0 0 0 0 0 0 0 0 0 0 0 0 0 0 127 0" result="hardAlpha"/>
<feOffset/>
<feGaussianBlur stdDeviation="14.2333"/>
<feComposite in2="hardAlpha" operator="out"/>
<feColorMatrix type="matrix" values="0 0 0 0 0 0 0 0 0 0 0 0 0 0 0 0 0 0 0.05 0"/>
<feBlend mode="normal" in2="BackgroundImageFix" result="effect1_dropShadow_980_42746"/>
<feBlend mode="normal" in="SourceGraphic" in2="effect1_dropShadow_980_42746" result="shape"/>
</filter>
<linearGradient id="paint0_linear_980_42746" x1="142.141" y1="108.604" x2="142.141" y2="165.349" gradientUnits="userSpaceOnUse">
<stop stop-color="white" stop-opacity="0"/>
<stop offset="1" stop-color="white"/>
</linearGradient>
</defs>
</svg>
