<svg width="20" height="20" viewBox="0 0 20 20" fill="none" xmlns="http://www.w3.org/2000/svg">
<g clip-path="url(#clip0_946_34426)">
<path d="M3.52734 17.9773C3.43631 18.0539 3.32531 18.1029 3.20739 18.1186C3.08947 18.1343 2.96952 18.116 2.86164 18.0659C2.75376 18.0157 2.66242 17.9359 2.59836 17.8356C2.5343 17.7354 2.50018 17.619 2.5 17.5V5C2.5 4.83424 2.56585 4.67527 2.68306 4.55806C2.80027 4.44085 2.95924 4.375 3.125 4.375H16.875C17.0408 4.375 17.1997 4.44085 17.3169 4.55806C17.4342 4.67527 17.5 4.83424 17.5 5V15C17.5 15.1658 17.4342 15.3247 17.3169 15.4419C17.1997 15.5592 17.0408 15.625 16.875 15.625H6.44531C6.29808 15.625 6.1556 15.6771 6.04297 15.7719L3.52734 17.9773Z" stroke="#9E9D9D" stroke-width="1.5" stroke-linecap="round" stroke-linejoin="round"/>
<path d="M10.235 6.80712L10.9791 8.42285C10.9971 8.46206 11.0265 8.49605 11.0642 8.52115C11.1018 8.54625 11.1463 8.56151 11.1927 8.56528L13.0974 8.7153C13.148 8.719 13.1962 8.73627 13.2359 8.76494C13.2757 8.7936 13.3052 8.83237 13.3208 8.87633C13.3364 8.92029 13.3373 8.96748 13.3234 9.01191C13.3095 9.05634 13.2815 9.09602 13.2429 9.12594L11.7979 10.2744C11.7627 10.3025 11.7366 10.3388 11.7223 10.3793C11.708 10.4199 11.706 10.4632 11.7165 10.5047L12.1496 12.2132C12.161 12.2578 12.1578 12.3045 12.1403 12.3475C12.1228 12.3905 12.0919 12.4278 12.0512 12.4549C12.0106 12.4819 11.9622 12.4975 11.912 12.4996C11.8617 12.5017 11.8119 12.4903 11.7687 12.4668L10.1318 11.5621C10.092 11.54 10.0464 11.5284 9.99984 11.5284C9.95329 11.5284 9.90763 11.54 9.86786 11.5621L8.23097 12.4668C8.18778 12.4903 8.13796 12.5017 8.08772 12.4996C8.03748 12.4975 7.98903 12.4819 7.94842 12.4549C7.90782 12.4278 7.87684 12.3905 7.85936 12.3475C7.84187 12.3045 7.83865 12.2578 7.8501 12.2132L8.28318 10.5047C8.29371 10.4632 8.29171 10.4199 8.27738 10.3793C8.26305 10.3388 8.23694 10.3025 8.20182 10.2744L6.75681 9.12594C6.71817 9.09602 6.69015 9.05634 6.67628 9.01191C6.66241 8.96748 6.66332 8.92029 6.67889 8.87633C6.69446 8.83237 6.72399 8.7936 6.76374 8.76494C6.8035 8.73627 6.8517 8.719 6.90224 8.7153L8.80692 8.56528C8.85339 8.56151 8.89785 8.54625 8.9355 8.52115C8.97316 8.49605 9.00257 8.46206 9.02059 8.42285L9.76471 6.80712C9.78459 6.76535 9.81744 6.72978 9.85921 6.7048C9.90099 6.67982 9.94987 6.6665 9.99984 6.6665C10.0498 6.6665 10.0987 6.67982 10.1405 6.7048C10.1822 6.72978 10.2151 6.76535 10.235 6.80712Z" stroke="#9E9D9D" stroke-width="1.2" stroke-linecap="round" stroke-linejoin="round"/>
</g>
<defs>
<clipPath id="clip0_946_34426">
<rect width="20" height="20" fill="white"/>
</clipPath>
</defs>
</svg>
