<svg width="21" height="20" viewBox="0 0 21 20" fill="none" xmlns="http://www.w3.org/2000/svg">
<g clip-path="url(#clip0_980_43323)">
<path d="M14.349 0C14.3956 0 14.4421 0 14.4913 0C14.6055 1.41044 14.0671 2.46432 13.4128 3.22751C12.7708 3.98542 11.8917 4.7205 10.4699 4.60897C10.375 3.21872 10.9142 2.24301 11.5676 1.48158C12.1736 0.771967 13.2846 0.140517 14.349 0Z" fill="black"/>
<path d="M18.6532 14.6805C18.6532 14.6945 18.6532 14.7068 18.6532 14.72C18.2536 15.9302 17.6836 16.9674 16.988 17.9299C16.3531 18.8038 15.575 19.9797 14.1856 19.9797C12.9851 19.9797 12.1876 19.2078 10.9572 19.1867C9.65568 19.1656 8.93992 19.8322 7.74991 19.9999C7.61379 19.9999 7.47766 19.9999 7.34417 19.9999C6.47033 19.8735 5.7651 19.1814 5.25134 18.5579C3.73639 16.7153 2.5657 14.3353 2.3479 11.2896C2.3479 10.991 2.3479 10.6933 2.3479 10.3947C2.44011 8.21493 3.49926 6.44266 4.90707 5.58374C5.65006 5.12706 6.67144 4.73801 7.80875 4.9119C8.29617 4.98742 8.79413 5.15429 9.23061 5.3194C9.64426 5.47836 10.1615 5.76027 10.6516 5.74534C10.9836 5.73568 11.3138 5.56267 11.6484 5.44059C12.6285 5.08667 13.5893 4.68092 14.8557 4.8715C16.3777 5.10159 17.4579 5.77783 18.1254 6.82118C16.8379 7.64057 15.82 8.87536 15.9939 10.984C16.1485 12.8994 17.2621 14.0201 18.6532 14.6805Z" fill="black"/>
</g>
<defs>
<clipPath id="clip0_980_43323">
<rect width="20" height="20" fill="white" transform="translate(0.5)"/>
</clipPath>
</defs>
</svg>
