<svg width="16" height="17" viewBox="0 0 16 17" fill="none" xmlns="http://www.w3.org/2000/svg">
<g clip-path="url(#clip0_1267_31348)">
<path d="M2 3.5H5V10H2C1.86739 10 1.74021 9.94732 1.64645 9.85355C1.55268 9.75979 1.5 9.63261 1.5 9.5V4C1.5 3.86739 1.55268 3.74021 1.64645 3.64645C1.74021 3.55268 1.86739 3.5 2 3.5Z" stroke="#9E9D9D" stroke-linecap="round" stroke-linejoin="round"/>
<path d="M5 10L7.5 15C8.03043 15 8.53914 14.7893 8.91421 14.4142C9.28929 14.0391 9.5 13.5304 9.5 13V11.5H13.5C13.6419 11.5 13.7821 11.4697 13.9113 11.4114C14.0406 11.353 14.156 11.2677 14.2498 11.1613C14.3436 11.0549 14.4137 10.9298 14.4555 10.7942C14.4972 10.6586 14.5096 10.5157 14.4919 10.375L13.7419 4.375C13.7114 4.13339 13.5939 3.91119 13.4113 3.75009C13.2286 3.58899 12.9935 3.50007 12.75 3.5H5" stroke="#9E9D9D" stroke-linecap="round" stroke-linejoin="round"/>
</g>
<defs>
<clipPath id="clip0_1267_31348">
<rect width="16" height="16" fill="white" transform="translate(0 0.5)"/>
</clipPath>
</defs>
</svg>
