<svg width="188" height="180" viewBox="0 0 188 180" fill="none" xmlns="http://www.w3.org/2000/svg">
<path d="M180 90C180 101.311 164.921 109.515 160.873 119.36C156.649 129.554 161.326 145.962 153.647 153.642C145.969 161.323 129.529 156.645 119.372 160.869C109.564 164.953 101.326 180 90.0175 180C78.7086 180 70.5061 164.919 60.6632 160.869C50.4712 156.645 34.0663 161.323 26.3874 153.642C18.7086 145.962 23.4206 129.519 19.1623 119.36C15.0785 109.55 0 101.311 0 90C0 78.6889 15.0785 70.4849 19.1623 60.64C23.3857 50.4461 18.7086 34.038 26.3874 26.3576C34.0663 18.6773 50.5061 23.3553 60.6632 19.1311C70.4712 15.0465 78.7086 0 90.0175 0C101.326 0 109.529 15.0815 119.372 19.1311C129.564 23.3553 145.969 18.6773 153.647 26.3576C161.326 34.038 156.649 50.481 160.873 60.64C164.956 70.45 180 78.6889 180 90Z" fill="#FFF1DD"/>
<circle cx="120" cy="104" r="46" fill="#FFCCA7"/>
<path d="M150.82 136.82L182 168" stroke="#FFCCA7" stroke-width="8" stroke-linecap="round" stroke-linejoin="round"/>
<path d="M107 143C131.853 143 152 122.853 152 98C152 73.1472 131.853 53 107 53C82.1472 53 62 73.1472 62 98C62 122.853 82.1472 143 107 143Z" stroke="#FF4C00" stroke-width="8" stroke-linecap="round" stroke-linejoin="round"/>
<path d="M138.82 129.82L170 161" stroke="#FF4C00" stroke-width="8" stroke-linecap="round" stroke-linejoin="round"/>
</svg>
