<svg width="201" height="200" viewBox="0 0 201 200" fill="none" xmlns="http://www.w3.org/2000/svg">
<path d="M167.601 148.889C172.993 141.527 172.956 131.092 168.537 119.46C180.962 120.162 190.941 117.026 196.35 109.642C209.551 91.6223 190.281 55.1005 153.354 28.0958C116.427 1.09123 75.7744 -6.19385 62.5798 11.865C57.1872 19.2266 57.2246 29.6622 61.6436 41.2938C49.2184 40.5916 39.2393 43.7275 33.8302 51.1117C28.4376 58.4732 28.475 68.9088 32.8941 80.5405C20.4688 79.8383 10.4898 82.9742 5.08063 90.3583C-8.11969 108.378 11.1497 144.9 48.0771 171.905C85.0045 198.909 125.657 206.195 138.851 188.136C144.244 180.774 144.206 170.338 139.787 158.707C152.213 159.409 162.192 156.273 167.601 148.889Z" fill="#FFF1DD"/>
<path d="M135.395 80.668H74.6449C73.2926 80.668 72.1963 81.7642 72.1963 83.1166V144.951C72.1963 146.303 73.2926 147.4 74.6449 147.4H135.395C136.747 147.4 137.843 146.303 137.843 144.951V83.1166C137.843 81.7642 136.747 80.668 135.395 80.668Z" fill="#FFCCA7"/>
<path d="M133.302 60.5425C133.302 60.5425 133.289 59.3541 133.289 57.6875H70.1348C70.1348 59.3404 70.1348 60.5425 70.108 60.5425C70.108 60.5425 68.9671 62.1681 67.598 64.1353C66.2288 66.116 65.1147 70.0093 65.1147 72.7824V153.939C65.1147 158.775 69.0073 162.737 73.759 162.737H129.638C134.403 162.737 138.295 158.775 138.295 153.926V72.796C138.295 70.0093 137.181 66.1297 135.812 64.1489C134.443 62.1681 133.772 61.2223 133.302 60.5562V60.5425Z" stroke="#FF4C00" stroke-width="3.99806"/>
<path d="M126.57 40.6387H76.8312C76.1551 40.6387 75.6069 41.1868 75.6069 41.863V48.1025C75.6069 48.7786 76.1551 49.3268 76.8312 49.3268H126.57C127.246 49.3268 127.794 48.7786 127.794 48.1025V41.863C127.794 41.1868 127.246 40.6387 126.57 40.6387Z" stroke="#FF4C00" stroke-width="3.99806"/>
<path d="M69.6729 53.6702C69.6729 55.4871 69.6729 57.0444 69.6729 57.6864H133.74C133.74 57.0307 133.726 55.4734 133.726 53.6702C133.726 51.2796 131.458 49.3262 128.679 49.3262H74.7198C71.9413 49.3262 69.6729 51.2796 69.6729 53.6702Z" stroke="#FF4C00" stroke-width="3.99806"/>
<g style="mix-blend-mode:multiply" opacity="0.2">
<path d="M127.794 44.2725H75.6069V45.1059H127.794V44.2725Z" fill="#FFF1DD"/>
</g>
<g style="mix-blend-mode:multiply" opacity="0.2">
<path d="M70.1367 57.7021C70.1367 58.6449 70.1367 59.4101 70.1367 59.9156H133.291C133.291 59.4101 133.291 58.6449 133.291 57.7021H70.1367Z" fill="#FFF1DD"/>
</g>
<path d="M88.286 22.1033C88.2999 20.3043 85.9778 17.1959 81.7885 13.1921C81.086 12.5247 80.5553 11.5377 78.7907 11.8883C79.0083 13.8911 80.7286 14.4501 81.5991 15.6772C82.4764 16.9214 83.3971 18.1385 84.4631 19.2151C85.5119 20.2724 85.7737 22.2013 88.286 22.1033Z" fill="#FF4C00"/>
<path d="M74.3735 28.8407C73.8841 27.1092 70.7856 24.7731 65.6439 22.0989C64.7829 21.6544 63.9974 20.8549 62.4009 21.6846C63.1695 23.547 64.9777 23.6032 66.1566 24.5383C67.3466 25.4879 68.5709 26.3994 69.8954 27.1354C71.198 27.8576 71.9885 29.6368 74.3735 28.8407Z" fill="#FF4C00"/>
<path d="M100.609 19.9219C101.198 17.8113 97.9906 6.33172 96.0468 4.47185C95.9549 5.59705 95.7325 6.34524 95.8676 7.01034C96.6427 10.7369 97.4749 14.4547 98.377 18.1553C98.5975 19.0449 98.606 20.2762 100.609 19.9219Z" fill="#FF4C00"/>
<path d="M112.921 21.6342C112.956 19.4432 119.295 9.34893 121.688 8.11823C121.456 9.22313 121.457 10.0037 121.138 10.6029C119.335 13.9554 117.48 17.2834 115.563 20.5749C115.099 21.3651 114.741 22.5432 112.921 21.6342Z" fill="#FF4C00"/>
<path d="M127.961 25.8891C128.283 24.0615 135.266 17.7107 137.558 17.4789C137.205 18.3288 137.102 18.9842 136.739 19.3805C134.689 21.5912 132.596 23.7636 130.453 25.8847C129.935 26.3926 129.46 27.2616 127.961 25.8891Z" fill="#FF4C00"/>
</svg>
