<svg width="222" height="222" viewBox="0 0 222 222" fill="none" xmlns="http://www.w3.org/2000/svg">
<circle cx="111" cy="111" r="111" fill="#FFF1DD"/>
<path d="M145.23 99.5186H84.4798C83.1275 99.5186 82.0312 100.615 82.0312 101.967V163.802C82.0312 165.154 83.1275 166.25 84.4798 166.25H145.23C146.582 166.25 147.678 165.154 147.678 163.802V101.967C147.678 100.615 146.582 99.5186 145.23 99.5186Z" fill="#FFCCA7"/>
<path d="M143.141 79.3931C143.141 79.3931 143.127 78.2047 143.127 76.5381H79.9732C79.9732 78.191 79.9732 79.3931 79.9464 79.3931C79.9464 79.3931 78.8054 81.0187 77.4363 82.9858C76.0672 84.9666 74.9531 88.8599 74.9531 91.6329V172.79C74.9531 177.626 78.8457 181.587 83.5974 181.587H139.476C144.241 181.587 148.134 177.626 148.134 172.776V91.6466C148.134 88.8599 147.02 84.9803 145.651 82.9995C144.281 81.0187 143.611 80.0728 143.141 79.4068V79.3931Z" stroke="#FF4C00" stroke-width="3.99806"/>
<path d="M136.409 59.4893H86.6696C85.9934 59.4893 85.4453 60.0374 85.4453 60.7136V66.953C85.4453 67.6292 85.9934 68.1773 86.6696 68.1773H136.409C137.085 68.1773 137.633 67.6292 137.633 66.953V60.7136C137.633 60.0374 137.085 59.4893 136.409 59.4893Z" stroke="#FF4C00" stroke-width="3.99806"/>
<path d="M79.5078 72.5208C79.5078 74.3376 79.5078 75.8949 79.5078 76.537H143.574C143.574 75.8813 143.561 74.324 143.561 72.5208C143.561 70.1302 141.293 68.1768 138.514 68.1768H84.5548C81.7763 68.1768 79.5078 70.1302 79.5078 72.5208Z" stroke="#FF4C00" stroke-width="3.99806"/>
<g style="mix-blend-mode:multiply" opacity="0.2">
<path d="M137.633 63.123H85.4453V63.9565H137.633V63.123Z" fill="#FFF1DD"/>
</g>
<g style="mix-blend-mode:multiply" opacity="0.2">
<path d="M79.9766 76.5527C79.9766 77.4955 79.9766 78.2607 79.9766 78.7662H143.13C143.13 78.2607 143.13 77.4955 143.13 76.5527H79.9766Z" fill="#FFF1DD"/>
</g>
<path d="M98.118 40.9539C98.1319 39.1549 95.8098 36.0465 91.6205 32.0427C90.918 31.3753 90.3873 30.3883 88.6227 30.7389C88.8403 32.7417 90.5606 33.3007 91.4312 34.5278C92.3084 35.772 93.2292 36.9891 94.2951 38.0657C95.344 39.123 95.6058 41.0519 98.118 40.9539Z" fill="#FF4C00"/>
<path d="M84.2085 47.6913C83.7191 45.9598 80.6206 43.6237 75.4789 40.9495C74.6178 40.505 73.8324 39.7054 72.2358 40.5352C73.0045 42.3976 74.8127 42.4538 75.9915 43.3889C77.1816 44.3385 78.4059 45.25 79.7304 45.986C81.033 46.7082 81.8234 48.4873 84.2085 47.6913Z" fill="#FF4C00"/>
<path d="M110.442 38.7725C111.031 36.6619 107.824 25.1823 105.88 23.3224C105.788 24.4476 105.565 25.1958 105.701 25.8609C106.476 29.5875 107.308 33.3053 108.21 37.0059C108.43 37.8954 108.439 39.1267 110.442 38.7725Z" fill="#FF4C00"/>
<path d="M122.755 40.4848C122.791 38.2938 129.13 28.1995 131.522 26.9688C131.291 28.0737 131.291 28.8543 130.972 29.4535C129.17 32.806 127.315 36.134 125.398 39.4255C124.933 40.2157 124.575 41.3938 122.755 40.4848Z" fill="#FF4C00"/>
<path d="M137.798 44.7396C138.12 42.9121 145.102 36.5613 147.395 36.3295C147.042 37.1794 146.938 37.8348 146.575 38.2311C144.526 40.4418 142.433 42.6142 140.29 44.7353C139.772 45.2432 139.296 46.1122 137.798 44.7396Z" fill="#FF4C00"/>
</svg>
