<svg width="37" height="36" viewBox="0 0 37 36" fill="none" xmlns="http://www.w3.org/2000/svg">
<g clip-path="url(#clip0_947_1914)">
<path d="M16.4037 17.9827L22.0039 12.3825C22.9881 11.3983 22.9881 9.80274 22.0039 8.8185C21.0197 7.83426 19.4241 7.83426 18.4399 8.8185L12.8397 14.4187C11.8555 15.4029 11.8555 16.9984 12.8397 17.9827C13.824 18.9669 15.4195 18.9669 16.4037 17.9827Z" fill="#FFCCA7"/>
<path d="M24.1641 18.0194C23.1798 17.0352 21.5843 17.0352 20.6001 18.0194L14.9999 23.6196C14.0157 24.6038 14.0157 26.1993 14.9999 27.1836C15.9841 28.1678 17.5797 28.1678 18.5639 27.1836L24.1641 21.5834C25.1483 20.5992 25.1483 19.0037 24.1641 18.0194Z" fill="#FFCCA7"/>
<path d="M15.62 33.3709H6.73376C4.74296 33.3709 3.12944 31.7574 3.12944 29.7666V20.8804H0.5V30.0093C0.5 33.3177 3.182 36.0004 6.49112 36.0004H15.62V33.3709Z" fill="#FFCCA7"/>
<path d="M21.3789 33.3709H30.2651C32.2559 33.3709 33.8695 31.7574 33.8695 29.7666V20.8804H36.4989V30.0093C36.4989 33.3177 33.8169 36.0004 30.5078 36.0004H21.3789V33.3709Z" fill="#FFCCA7"/>
<path d="M21.3789 2.62944H30.2651C32.2559 2.62944 33.8695 4.24296 33.8695 6.23376V15.12H36.4989V5.99112C36.4989 2.682 33.8169 0 30.5078 0H21.3789V2.62944Z" fill="#FFCCA7"/>
<path d="M15.62 2.62944H6.73376C4.74296 2.62944 3.12944 4.24296 3.12944 6.23376V15.12H0.5V5.99112C0.5 2.682 3.182 0 6.49112 0H15.62V2.62944Z" fill="#FFCCA7"/>
</g>
<defs>
<clipPath id="clip0_947_1914">
<rect width="36" height="36" fill="white" transform="translate(0.5)"/>
</clipPath>
</defs>
</svg>
