<svg width="180" height="180" viewBox="0 0 180 180" fill="none" xmlns="http://www.w3.org/2000/svg">
<path d="M180 90C180 101.311 164.921 109.515 160.873 119.36C156.649 129.554 161.326 145.962 153.647 153.642C145.969 161.323 129.529 156.645 119.372 160.869C109.564 164.953 101.326 180 90.0175 180C78.7086 180 70.5061 164.919 60.6632 160.869C50.4712 156.645 34.0663 161.323 26.3874 153.642C18.7086 145.962 23.4206 129.519 19.1623 119.36C15.0785 109.55 0 101.311 0 90C0 78.6889 15.0785 70.4849 19.1623 60.64C23.3857 50.4461 18.7086 34.038 26.3874 26.3576C34.0663 18.6773 50.5061 23.3553 60.6632 19.1311C70.4712 15.0465 78.7086 0 90.0175 0C101.326 0 109.529 15.0815 119.372 19.1311C129.564 23.3553 145.969 18.6773 153.647 26.3576C161.326 34.038 156.649 50.481 160.873 60.64C164.956 70.45 180 78.6889 180 90Z" fill="#FFF1DD"/>
<g clip-path="url(#clip0_2901_12540)">
<path d="M94.5 136C123.495 136 147 112.495 147 83.5C147 54.5051 123.495 31 94.5 31C65.5051 31 42 54.5051 42 83.5C42 112.495 65.5051 136 94.5 136Z" fill="#FFCCA7"/>
<path d="M68.125 94.375L81.25 107.5L111.875 76.875" stroke="#FF4C00" stroke-width="4" stroke-linecap="round" stroke-linejoin="round"/>
<path d="M90 142.5C118.995 142.5 142.5 118.995 142.5 90C142.5 61.0051 118.995 37.5 90 37.5C61.0051 37.5 37.5 61.0051 37.5 90C37.5 118.995 61.0051 142.5 90 142.5Z" stroke="#FF4C00" stroke-width="4" stroke-linecap="round" stroke-linejoin="round"/>
</g>
<defs>
<clipPath id="clip0_2901_12540">
<rect width="140" height="140" fill="white" transform="translate(20 20)"/>
</clipPath>
</defs>
</svg>
