<svg width="251" height="243" viewBox="0 0 251 243" fill="none" xmlns="http://www.w3.org/2000/svg">
<circle cx="135.427" cy="125.757" r="88.5537" fill="#FFCCA7"/>
<path d="M106.164 170.678L78.4871 145.697C77.0107 144.365 77.0107 142.174 78.4871 140.841L87.2455 132.936C88.722 131.604 91.1493 131.604 92.6257 132.936L108.841 147.572L166.372 95.6464C167.848 94.3138 170.276 94.3138 171.752 95.6464L180.511 103.552C181.987 104.884 181.987 107.075 180.511 108.408L111.519 170.678C110.043 172.01 107.615 172.01 106.139 170.678H106.164Z" fill="#FF4C00"/>
<circle cx="129.5" cy="133.163" r="87.3633" stroke="#FF4C00" stroke-width="5"/>
<path d="M53.2386 9.89724C53.7423 10.79 54.3042 11.6439 54.9048 12.459C55.5055 13.2741 56.1642 14.0504 56.8617 14.7878C57.5592 15.5253 58.3149 16.224 59.0899 16.8644C59.8649 17.5048 60.698 18.1065 61.5699 18.6499C62.4418 19.1933 63.3331 19.6978 64.2631 20.1248C65.1931 20.5712 66.1618 20.9399 67.1694 21.2698C66.1812 21.5997 65.2125 21.9685 64.2631 22.4148C63.3331 22.8612 62.4224 23.3464 61.5699 23.8898C60.698 24.4332 59.8843 25.0348 59.0899 25.6752C58.2955 26.3157 57.5592 27.0143 56.8617 27.7518C56.1642 28.4893 55.5055 29.2656 54.9048 30.0807C54.3042 30.8958 53.7423 31.7497 53.2386 32.6424C52.7348 33.5351 52.2892 34.4667 51.9017 35.4176C51.5142 36.3686 51.1848 37.3583 50.8941 38.3675L50.8166 38.6392L50.7391 38.9109L50.6616 39.1826L50.5841 39.4543L50.5066 39.726L50.4291 39.9977L50.3516 40.2694L50.2741 40.5411L50.1966 40.2694L50.1191 39.9977L50.0416 39.726L49.9641 39.4543L49.8866 39.1826L49.8091 38.9109L49.7316 38.6392L49.6541 38.3675C49.3829 37.3583 49.0535 36.3686 48.6466 35.4176C48.2591 34.4667 47.8135 33.5351 47.3097 32.6424C46.806 31.7497 46.2441 30.8958 45.6434 30.0807C45.0428 29.2656 44.3841 28.4893 43.6865 27.7518C42.989 27.0143 42.2334 26.3157 41.4584 25.6752C40.664 25.0348 39.8502 24.4332 38.9784 23.8898C38.1065 23.3464 37.2152 22.8418 36.2852 22.4148C35.3552 21.9685 34.3864 21.5997 33.3789 21.2698C34.367 20.9399 35.3358 20.5712 36.2852 20.1248C37.2152 19.6784 38.1258 19.1933 38.9784 18.6499C39.8309 18.1065 40.664 17.5048 41.4584 16.8644C42.2528 16.224 42.989 15.5253 43.6865 14.7878C44.3841 14.0504 45.0428 13.2741 45.6434 12.459C46.2441 11.6439 46.806 10.79 47.3097 9.89724C47.8135 9.00451 48.2591 8.07297 48.6466 7.12202C49.0341 6.17107 49.3635 5.1813 49.6541 4.17213L49.7316 3.90043L49.8091 3.62873L49.8866 3.35703L49.9641 3.08533L50.0416 2.81363L50.1191 2.54193L50.1966 2.27023L50.2741 1.99854L50.3516 2.27023L50.4291 2.54193L50.5066 2.81363L50.5841 3.08533L50.6616 3.35703L50.7391 3.62873L50.8166 3.90043L50.8941 4.17213C51.1654 5.1813 51.4948 6.17107 51.9017 7.12202C52.2892 8.07297 52.7348 9.00451 53.2386 9.89724Z" fill="#FFCCA7"/>
<path d="M220.297 202.938C220.801 203.83 221.363 204.684 221.963 205.5C222.564 206.315 223.223 207.091 223.92 207.828C224.618 208.566 225.373 209.264 226.148 209.905C226.923 210.545 227.757 211.147 228.629 211.69C229.5 212.234 230.392 212.738 231.322 213.165C232.252 213.612 233.22 213.98 234.228 214.31C233.24 214.64 232.271 215.009 231.322 215.455C230.392 215.902 229.481 216.387 228.629 216.93C227.757 217.474 226.943 218.075 226.148 218.716C225.354 219.356 224.618 220.055 223.92 220.792C223.223 221.53 222.564 222.306 221.963 223.121C221.363 223.936 220.801 224.79 220.297 225.683C219.793 226.576 219.348 227.507 218.96 228.458C218.573 229.409 218.243 230.399 217.953 231.408L217.875 231.68L217.798 231.951L217.72 232.223L217.643 232.495L217.565 232.767L217.488 233.038L217.41 233.31L217.333 233.582L217.255 233.31L217.178 233.038L217.1 232.767L217.023 232.495L216.945 232.223L216.868 231.951L216.79 231.68L216.713 231.408C216.441 230.399 216.112 229.409 215.705 228.458C215.318 227.507 214.872 226.576 214.368 225.683C213.865 224.79 213.303 223.936 212.702 223.121C212.101 222.306 211.443 221.53 210.745 220.792C210.048 220.055 209.292 219.356 208.517 218.716C207.723 218.075 206.909 217.474 206.037 216.93C205.165 216.387 204.274 215.882 203.344 215.455C202.414 215.009 201.445 214.64 200.438 214.31C201.426 213.98 202.394 213.612 203.344 213.165C204.274 212.719 205.184 212.234 206.037 211.69C206.889 211.147 207.723 210.545 208.517 209.905C209.311 209.264 210.048 208.566 210.745 207.828C211.443 207.091 212.101 206.315 212.702 205.5C213.303 204.684 213.865 203.83 214.368 202.938C214.872 202.045 215.318 201.113 215.705 200.163C216.093 199.212 216.422 198.222 216.713 197.213L216.79 196.941L216.868 196.669L216.945 196.398L217.023 196.126L217.1 195.854L217.178 195.582L217.255 195.311L217.333 195.039L217.41 195.311L217.488 195.582L217.565 195.854L217.643 196.126L217.72 196.398L217.798 196.669L217.875 196.941L217.953 197.213C218.224 198.222 218.553 199.212 218.96 200.163C219.348 201.113 219.793 202.045 220.297 202.938Z" fill="#FFCCA7"/>
<path d="M231.897 61.1217C232.272 61.7854 232.69 62.4203 233.136 63.0263C233.583 63.6323 234.073 64.2095 234.591 64.7578C235.11 65.3061 235.672 65.8256 236.248 66.3017C236.824 66.7779 237.443 67.2252 238.092 67.6292C238.74 68.0332 239.403 68.4084 240.094 68.7258C240.785 69.0577 241.506 69.3319 242.255 69.5771C241.52 69.8224 240.8 70.0966 240.094 70.4285C239.403 70.7603 238.725 71.1211 238.092 71.5251C237.443 71.9291 236.838 72.3764 236.248 72.8526C235.657 73.3287 235.11 73.8482 234.591 74.3965C234.073 74.9448 233.583 75.5219 233.136 76.128C232.69 76.734 232.272 77.3689 231.897 78.0326C231.523 78.6964 231.191 79.389 230.903 80.096C230.615 80.803 230.37 81.5389 230.154 82.2892L230.097 82.4912L230.039 82.6932L229.981 82.8952L229.924 83.0972L229.866 83.2992L229.808 83.5013L229.751 83.7033L229.693 83.9053L229.636 83.7033L229.578 83.5013L229.52 83.2992L229.463 83.0972L229.405 82.8952L229.348 82.6932L229.29 82.4912L229.232 82.2892C229.031 81.5389 228.786 80.803 228.483 80.096C228.195 79.389 227.864 78.6964 227.489 78.0326C227.115 77.3689 226.697 76.734 226.25 76.128C225.804 75.5219 225.314 74.9448 224.795 74.3965C224.277 73.8482 223.715 73.3287 223.139 72.8526C222.548 72.3764 221.943 71.9291 221.295 71.5251C220.647 71.1211 219.984 70.7459 219.293 70.4285C218.601 70.0966 217.881 69.8224 217.132 69.5771C217.866 69.3319 218.587 69.0577 219.293 68.7258C219.984 68.394 220.661 68.0332 221.295 67.6292C221.929 67.2252 222.548 66.7779 223.139 66.3017C223.729 65.8256 224.277 65.3061 224.795 64.7578C225.314 64.2095 225.804 63.6323 226.25 63.0263C226.697 62.4203 227.115 61.7854 227.489 61.1217C227.864 60.4579 228.195 59.7653 228.483 59.0583C228.771 58.3513 229.016 57.6154 229.232 56.8651L229.29 56.6631L229.348 56.4611L229.405 56.2591L229.463 56.0571L229.52 55.855L229.578 55.653L229.636 55.451L229.693 55.249L229.751 55.451L229.808 55.653L229.866 55.855L229.924 56.0571L229.981 56.2591L230.039 56.4611L230.097 56.6631L230.154 56.8651C230.356 57.6154 230.601 58.3513 230.903 59.0583C231.191 59.7653 231.523 60.4579 231.897 61.1217Z" fill="#FFCCA7"/>
<path d="M15.4335 174.898C15.8081 175.562 16.2258 176.197 16.6724 176.803C17.119 177.409 17.6088 177.986 18.1274 178.534C18.646 179.082 19.2078 179.602 19.784 180.078C20.3602 180.554 20.9796 181.002 21.6279 181.406C22.2761 181.81 22.9388 182.185 23.6302 182.502C24.3217 182.834 25.042 183.108 25.7911 183.354C25.0564 183.599 24.3361 183.873 23.6302 184.205C22.9388 184.537 22.2617 184.897 21.6279 185.301C20.9796 185.705 20.3746 186.153 19.784 186.629C19.1934 187.105 18.646 187.625 18.1274 188.173C17.6088 188.721 17.119 189.298 16.6724 189.904C16.2258 190.51 15.8081 191.145 15.4335 191.809C15.059 192.473 14.7277 193.165 14.4396 193.872C14.1515 194.579 13.9066 195.315 13.6905 196.066L13.6329 196.268L13.5752 196.47L13.5176 196.672L13.46 196.874L13.4024 197.076L13.3448 197.278L13.2871 197.48L13.2295 197.682L13.1719 197.48L13.1143 197.278L13.0566 197.076L12.999 196.874L12.9414 196.672L12.8838 196.47L12.8262 196.268L12.7685 196.066C12.5669 195.315 12.322 194.579 12.0195 193.872C11.7313 193.165 11.4 192.473 11.0255 191.809C10.6509 191.145 10.2332 190.51 9.78661 189.904C9.34004 189.298 8.85026 188.721 8.33166 188.173C7.81307 187.625 7.25125 187.105 6.67504 186.629C6.08441 186.153 5.47938 185.705 4.83114 185.301C4.1829 184.897 3.52025 184.522 2.82878 184.205C2.13732 183.873 1.41705 183.599 0.667969 183.354C1.40265 183.108 2.12292 182.834 2.82878 182.502C3.52025 182.17 4.1973 181.81 4.83114 181.406C5.46498 181.002 6.08441 180.554 6.67504 180.078C7.26566 179.602 7.81307 179.082 8.33166 178.534C8.85026 177.986 9.34004 177.409 9.78661 176.803C10.2332 176.197 10.6509 175.562 11.0255 174.898C11.4 174.234 11.7313 173.542 12.0195 172.835C12.3076 172.128 12.5525 171.392 12.7685 170.641L12.8262 170.439L12.8838 170.237L12.9414 170.035L12.999 169.833L13.0566 169.631L13.1143 169.429L13.1719 169.227L13.2295 169.025L13.2871 169.227L13.3448 169.429L13.4024 169.631L13.46 169.833L13.5176 170.035L13.5752 170.237L13.6329 170.439L13.6905 170.641C13.8922 171.392 14.1371 172.128 14.4396 172.835C14.7277 173.542 15.059 174.234 15.4335 174.898Z" fill="#FFCCA7"/>
<path d="M60.5112 10.9667C61.1212 12.0476 61.8015 13.0816 62.5288 14.0685C63.2561 15.0555 64.0537 15.9954 64.8982 16.8883C65.7428 17.7813 66.6577 18.6272 67.5961 19.4027C68.5345 20.1781 69.5433 20.9066 70.599 21.5645C71.6547 22.2225 72.7339 22.8335 73.8599 23.3504C74.986 23.8909 76.159 24.3374 77.3789 24.7368C76.1825 25.1363 75.0095 25.5828 73.8599 26.1232C72.7339 26.6637 71.6312 27.2512 70.599 27.9091C69.5433 28.5671 68.558 29.2955 67.5961 30.071C66.6343 30.8464 65.7428 31.6924 64.8982 32.5853C64.0537 33.4783 63.2561 34.4182 62.5288 35.4051C61.8015 36.3921 61.1212 37.426 60.5112 38.5069C59.9013 39.5879 59.3617 40.7158 58.8925 41.8672C58.4233 43.0187 58.0245 44.2171 57.6726 45.439L57.5788 45.768L57.4849 46.097L57.3911 46.4259L57.2972 46.7549L57.2034 47.0839L57.1096 47.4129L57.0157 47.7419L56.9219 48.0708L56.828 47.7419L56.7342 47.4129L56.6404 47.0839L56.5465 46.7549L56.4527 46.4259L56.3588 46.097L56.265 45.768L56.1712 45.439C55.8427 44.2171 55.4439 43.0187 54.9512 41.8672C54.4821 40.7158 53.9425 39.5879 53.3325 38.5069C52.7226 37.426 52.0422 36.3921 51.315 35.4051C50.5877 34.4182 49.7901 33.4783 48.9455 32.5853C48.101 31.6924 47.186 30.8464 46.2476 30.071C45.2858 29.2955 44.3005 28.5671 43.2448 27.9091C42.1891 27.2512 41.1099 26.6402 39.9838 26.1232C38.8578 25.5828 37.6848 25.1363 36.4648 24.7368C37.6613 24.3374 38.8343 23.8909 39.9838 23.3504C41.1099 22.81 42.2125 22.2225 43.2448 21.5645C44.277 20.9066 45.2858 20.1781 46.2476 19.4027C47.2095 18.6272 48.101 17.7813 48.9455 16.8883C49.7901 15.9954 50.5877 15.0555 51.315 14.0685C52.0422 13.0816 52.7226 12.0476 53.3325 10.9667C53.9425 9.88579 54.4821 8.75786 54.9512 7.60643C55.4204 6.45501 55.8193 5.25658 56.1712 4.03466L56.265 3.70568L56.3588 3.37671L56.4527 3.04773L56.5465 2.71875L56.6404 2.38977L56.7342 2.06079L56.828 1.73181L56.9219 1.40283L57.0157 1.73181L57.1096 2.06079L57.2034 2.38977L57.2972 2.71875L57.3911 3.04773L57.4849 3.37671L57.5788 3.70568L57.6726 4.03466C58.001 5.25658 58.3999 6.45501 58.8925 7.60643C59.3617 8.75786 59.9013 9.88579 60.5112 10.9667Z" stroke="#FF4C00" stroke-width="2" stroke-linejoin="round"/>
<path d="M227.57 204.007C228.18 205.088 228.86 206.122 229.587 207.109C230.315 208.096 231.112 209.036 231.957 209.929C232.801 210.822 233.716 211.668 234.655 212.443C235.593 213.219 236.602 213.947 237.658 214.605C238.713 215.263 239.792 215.874 240.919 216.391C242.045 216.931 243.218 217.378 244.438 217.777C243.241 218.177 242.068 218.623 240.919 219.164C239.792 219.704 238.69 220.292 237.658 220.95C236.602 221.608 235.617 222.336 234.655 223.112C233.693 223.887 232.801 224.733 231.957 225.626C231.112 226.519 230.315 227.459 229.587 228.446C228.86 229.433 228.18 230.467 227.57 231.547C226.96 232.628 226.42 233.756 225.951 234.908C225.482 236.059 225.083 237.258 224.731 238.48L224.637 238.809L224.544 239.137L224.45 239.466L224.356 239.795L224.262 240.124L224.168 240.453L224.074 240.782L223.98 241.111L223.887 240.782L223.793 240.453L223.699 240.124L223.605 239.795L223.511 239.466L223.417 239.137L223.324 238.809L223.23 238.48C222.901 237.258 222.503 236.059 222.01 234.908C221.541 233.756 221.001 232.628 220.391 231.547C219.781 230.467 219.101 229.433 218.374 228.446C217.646 227.459 216.849 226.519 216.004 225.626C215.16 224.733 214.245 223.887 213.306 223.112C212.344 222.336 211.359 221.608 210.303 220.95C209.248 220.292 208.168 219.681 207.042 219.164C205.916 218.623 204.743 218.177 203.523 217.777C204.72 217.378 205.893 216.931 207.042 216.391C208.168 215.85 209.271 215.263 210.303 214.605C211.336 213.947 212.344 213.219 213.306 212.443C214.268 211.668 215.16 210.822 216.004 209.929C216.849 209.036 217.646 208.096 218.374 207.109C219.101 206.122 219.781 205.088 220.391 204.007C221.001 202.926 221.541 201.798 222.01 200.647C222.479 199.496 222.878 198.297 223.23 197.075L223.324 196.746L223.417 196.417L223.511 196.088L223.605 195.759L223.699 195.43L223.793 195.101L223.887 194.772L223.98 194.443L224.074 194.772L224.168 195.101L224.262 195.43L224.356 195.759L224.45 196.088L224.544 196.417L224.637 196.746L224.731 197.075C225.06 198.297 225.458 199.496 225.951 200.647C226.42 201.798 226.96 202.926 227.57 204.007Z" stroke="#FF4C00" stroke-width="2" stroke-linejoin="round"/>
<path d="M237.303 61.9164C237.757 62.72 238.262 63.4888 238.803 64.2226C239.344 64.9563 239.937 65.6552 240.565 66.3191C241.193 66.983 241.873 67.6119 242.571 68.1885C243.268 68.765 244.018 69.3066 244.803 69.7958C245.588 70.285 246.391 70.7393 247.228 71.1236C248.065 71.5255 248.937 71.8574 249.844 72.1544C248.955 72.4514 248.082 72.7834 247.228 73.1852C246.391 73.587 245.571 74.0238 244.803 74.513C244.018 75.0022 243.286 75.5438 242.571 76.1203C241.856 76.6969 241.193 77.3258 240.565 77.9897C239.937 78.6536 239.344 79.3525 238.803 80.0863C238.262 80.82 237.757 81.5888 237.303 82.3924C236.85 83.1961 236.448 84.0347 236.1 84.8908C235.751 85.7469 235.454 86.6379 235.193 87.5464L235.123 87.791L235.053 88.0356L234.983 88.2802L234.913 88.5248L234.844 88.7694L234.774 89.014L234.704 89.2586L234.634 89.5032L234.565 89.2586L234.495 89.014L234.425 88.7694L234.355 88.5248L234.286 88.2802L234.216 88.0356L234.146 87.791L234.076 87.5464C233.832 86.6379 233.536 85.7469 233.169 84.8908C232.82 84.0347 232.419 83.1961 231.966 82.3924C231.512 81.5888 231.006 80.82 230.466 80.0863C229.925 79.3525 229.332 78.6536 228.704 77.9897C228.076 77.3258 227.396 76.6969 226.698 76.1203C225.983 75.5438 225.25 75.0022 224.466 74.513C223.681 74.0238 222.878 73.5696 222.041 73.1852C221.204 72.7834 220.332 72.4514 219.425 72.1544C220.314 71.8574 221.186 71.5255 222.041 71.1236C222.878 70.7218 223.698 70.285 224.466 69.7958C225.233 69.3066 225.983 68.765 226.698 68.1885C227.413 67.6119 228.076 66.983 228.704 66.3191C229.332 65.6552 229.925 64.9563 230.466 64.2226C231.006 63.4888 231.512 62.72 231.966 61.9164C232.419 61.1127 232.82 60.2741 233.169 59.418C233.518 58.5619 233.815 57.6709 234.076 56.7624L234.146 56.5178L234.216 56.2732L234.286 56.0286L234.355 55.784L234.425 55.5394L234.495 55.2949L234.565 55.0503L234.634 54.8057L234.704 55.0503L234.774 55.2949L234.844 55.5394L234.913 55.784L234.983 56.0286L235.053 56.2732L235.123 56.5178L235.193 56.7624C235.437 57.6709 235.733 58.5619 236.1 59.418C236.448 60.2741 236.85 61.1127 237.303 61.9164Z" stroke="#FF4C00" stroke-width="2" stroke-linejoin="round"/>
<path d="M20.8394 175.693C21.2929 176.496 21.7987 177.265 22.3394 177.999C22.8801 178.733 23.4731 179.432 24.1011 180.095C24.729 180.759 25.4092 181.388 26.1069 181.965C26.8046 182.541 27.5547 183.083 28.3396 183.572C29.1245 184.061 29.9268 184.516 30.7641 184.9C31.6013 185.302 32.4734 185.634 33.3804 185.931C32.4908 186.228 31.6187 186.56 30.7641 186.962C29.9268 187.363 29.107 187.8 28.3396 188.289C27.5547 188.779 26.8221 189.32 26.1069 189.897C25.3918 190.473 24.729 191.102 24.1011 191.766C23.4731 192.43 22.8801 193.129 22.3394 193.863C21.7987 194.596 21.2929 195.365 20.8394 196.169C20.3859 196.972 19.9847 197.811 19.6358 198.667C19.287 199.523 18.9905 200.414 18.7288 201.323L18.6591 201.567L18.5893 201.812L18.5195 202.057L18.4497 202.301L18.38 202.546L18.3102 202.79L18.2404 203.035L18.1707 203.28L18.1009 203.035L18.0311 202.79L17.9614 202.546L17.8916 202.301L17.8218 202.057L17.7521 201.812L17.6823 201.567L17.6125 201.323C17.3683 200.414 17.0718 199.523 16.7055 198.667C16.3567 197.811 15.9555 196.972 15.502 196.169C15.0485 195.365 14.5427 194.596 14.0019 193.863C13.4612 193.129 12.8682 192.43 12.2403 191.766C11.6123 191.102 10.9321 190.473 10.2344 189.897C9.51926 189.32 8.78668 188.779 8.00178 188.289C7.21687 187.8 6.41452 187.346 5.57729 186.962C4.74006 186.56 3.86794 186.228 2.96094 185.931C3.8505 185.634 4.72262 185.302 5.57729 184.9C6.41452 184.498 7.23431 184.061 8.00178 183.572C8.76924 183.083 9.51926 182.541 10.2344 181.965C10.9495 181.388 11.6123 180.759 12.2403 180.095C12.8682 179.432 13.4612 178.733 14.0019 177.999C14.5427 177.265 15.0485 176.496 15.502 175.693C15.9555 174.889 16.3567 174.05 16.7055 173.194C17.0544 172.338 17.3509 171.447 17.6125 170.539L17.6823 170.294L17.7521 170.05L17.8218 169.805L17.8916 169.56L17.9614 169.316L18.0311 169.071L18.1009 168.827L18.1707 168.582L18.2404 168.827L18.3102 169.071L18.38 169.316L18.4497 169.56L18.5195 169.805L18.5893 170.05L18.6591 170.294L18.7288 170.539C18.973 171.447 19.2695 172.338 19.6358 173.194C19.9847 174.05 20.3859 174.889 20.8394 175.693Z" stroke="#FF4C00" stroke-width="2" stroke-linejoin="round"/>
</svg>
