<svg width="90" height="90" viewBox="0 0 90 90" fill="none" xmlns="http://www.w3.org/2000/svg">
<path d="M86 5H37.5V53.5H18V62.5C18 68.5751 22.9249 73.5 29 73.5H86V5Z" fill="#FFCCA7"/>
<path d="M30.0922 8.21826V57.4045H25.2203L10.9062 43.0903L7.73371 46.2628L18.8753 57.4045H10.3511H7V61.8911H10.3511V69.3688C10.3511 76.2132 15.9195 81.7817 22.764 81.7817H41.7574H83V8.21826H30.0922ZM39.423 12.7049L34.5788 17.4755V12.7049H39.423ZM22.764 77.2951C18.3935 77.2951 14.8377 73.7393 14.8377 69.3688V61.8911H49.6837V69.3688C49.6837 73.7393 46.1279 77.2951 41.7574 77.2951H22.764ZM78.5134 77.2951H51.3018C53.0918 75.1433 54.1702 72.3799 54.1702 69.3688V61.8911H57.5213V57.4045H34.5788V23.7723L45.8172 12.7049H78.5134V77.2951Z" fill="#FF7A00"/>
<path d="M50.2651 32.377H45.6289V37.1977C45.6289 41.8982 49.453 45.7223 54.1535 45.7223H54.303V52.1624H58.7896V45.7223H58.9392C63.6397 45.7223 67.4638 41.8982 67.4638 37.1977V32.377H62.8276C62.6057 32.377 62.3864 32.3882 62.1687 32.405C62.311 31.7828 62.3866 31.1407 62.3866 30.4867C62.3866 28.2097 61.4999 26.069 59.8898 24.4589L56.6115 21.1807L53.2028 24.5894C51.0849 26.7073 50.3188 29.6711 50.9001 32.4032C50.6901 32.3875 50.4789 32.377 50.2651 32.377ZM54.1535 41.2355C51.9269 41.2355 50.1155 39.4241 50.1155 37.1976V36.8635H50.2651C52.4916 36.8635 54.303 38.6749 54.303 40.9014V41.2355H54.1535ZM62.9772 36.8636V37.1977C62.9772 39.4243 61.1658 41.2357 58.9392 41.2357H58.7896V40.9016C58.7896 38.675 60.601 36.8636 62.8276 36.8636H62.9772ZM56.3753 27.7619L56.6115 27.5256L56.7173 27.6314C57.48 28.3941 57.9 29.4081 57.9 30.4867C57.9 31.5652 57.4799 32.5792 56.7171 33.3419L56.4808 33.5782L56.3751 33.4725C54.801 31.898 54.8011 29.3363 56.3753 27.7619Z" fill="#FF7A00"/>
<path d="M64.3398 59.1992H73.4626V63.6858H64.3398V59.1992Z" fill="#FF7A00"/>
<path d="M64.3398 68.1724H73.4626V72.659H64.3398V68.1724Z" fill="#FF7A00"/>
</svg>
