<svg width="24" height="25" viewBox="0 0 24 25" fill="none" xmlns="http://www.w3.org/2000/svg">
<g clip-path="url(#clip0_947_2203)">
<path d="M13.5449 18.8044V14.6305C13.5449 14.446 13.4731 14.2691 13.3452 14.1386C13.2174 14.0082 13.044 13.9349 12.8631 13.9349H10.136C9.9552 13.9349 9.78178 14.0082 9.65392 14.1386C9.52607 14.2691 9.45424 14.446 9.45424 14.6305V18.8044C9.45424 18.9889 9.38241 19.1658 9.25455 19.2963C9.12669 19.4267 8.95328 19.5 8.77246 19.5H4.68178C4.50096 19.5 4.32755 19.4267 4.19969 19.2963C4.07183 19.1658 4 18.9889 4 18.8044V10.7645C4.00001 10.6676 4.01988 10.5717 4.05833 10.4831C4.09678 10.3944 4.15297 10.3149 4.22328 10.2498L11.0411 3.68119C11.1666 3.56461 11.3303 3.5 11.5 3.5C11.6697 3.5 11.8334 3.56461 11.9589 3.68119L18.7767 10.2498C18.847 10.3149 18.9032 10.3944 18.9417 10.4831C18.9801 10.5717 19 10.6676 19 10.7645V18.8044C19 18.9889 18.9282 19.1658 18.8003 19.2963C18.6725 19.4267 18.499 19.5 18.3182 19.5H14.2267C14.0459 19.5 13.8725 19.4267 13.7446 19.2963C13.6167 19.1658 13.5449 18.9889 13.5449 18.8044Z" stroke="currentColor" stroke-width="1.5" stroke-linecap="round" stroke-linejoin="round"/>
</g>
<defs>
<clipPath id="clip0_947_2203">
<rect width="24" height="24" fill="white" transform="translate(0 0.5)"/>
</clipPath>
</defs>
</svg>
