<svg width="24" height="24" viewBox="0 0 24 24" fill="none" xmlns="http://www.w3.org/2000/svg">
<mask id="path-1-inside-1_2904_5199" fill="white">
<path d="M22.3445 3C22.0888 3 3.08852 3 2.65577 3C2.29368 3 2 3.29424 2 3.65687V8.26426C2 8.62689 2.29368 8.92113 2.65561 8.92113H3.35289V20.343C3.35289 20.7056 3.64625 21 4.0085 21H21.0846C21.4465 21 21.7404 20.7056 21.7404 20.343V8.92113H22.3444C22.7063 8.92113 23 8.62689 23 8.26426V3.65687C23.0002 3.29424 22.7065 3 22.3445 3ZM20.429 19.6861H4.66427V8.92113H9.04817V14.1981C9.04817 14.7553 9.70042 15.0599 10.1261 14.7004L12.5001 12.6959L14.874 14.7004C15.298 15.0588 15.952 14.758 15.952 14.1981V8.92113H20.429V19.6861ZM3.31139 4.31374H9.04817V7.60723H3.31139V4.31374ZM14.6406 12.7853L12.9227 11.3348C12.6786 11.1285 12.3216 11.1285 12.0774 11.3348L10.3596 12.7853V4.31374H14.6406V12.7853ZM21.6888 7.60723H15.952V4.31374H21.6888V7.60723Z"/>
</mask>
<path d="M3.35289 8.92113H4.68362V7.59039H3.35289V8.92113ZM21.7404 8.92113V7.59039H20.4096V8.92113H21.7404ZM23 3.65687L21.6693 3.65628V3.65687H23ZM20.429 19.6861V21.0168H21.7597V19.6861H20.429ZM4.66427 19.6861H3.33354V21.0168H4.66427V19.6861ZM4.66427 8.92113V7.59039H3.33354V8.92113H4.66427ZM9.04817 8.92113H10.3789V7.59039H9.04817V8.92113ZM10.1261 14.7004L9.26761 13.6836L9.26742 13.6837L10.1261 14.7004ZM12.5001 12.6959L13.3586 11.6791L12.5001 10.9542L11.6416 11.6791L12.5001 12.6959ZM14.874 14.7004L15.7332 13.6842L15.7326 13.6836L14.874 14.7004ZM15.952 8.92113V7.59039H14.6213V8.92113H15.952ZM20.429 8.92113H21.7597V7.59039H20.429V8.92113ZM3.31139 4.31374V2.983H1.98065V4.31374H3.31139ZM9.04817 4.31374H10.3789V2.983H9.04817V4.31374ZM9.04817 7.60723V8.93797H10.3789V7.60723H9.04817ZM3.31139 7.60723H1.98065V8.93797H3.31139V7.60723ZM14.6406 12.7853L13.7821 13.802L15.9713 15.6506V12.7853H14.6406ZM12.9227 11.3348L12.064 12.3513L12.0642 12.3515L12.9227 11.3348ZM12.0774 11.3348L12.9359 12.3515L12.9362 12.3513L12.0774 11.3348ZM10.3596 12.7853H9.02883V15.6506L11.2181 13.802L10.3596 12.7853ZM10.3596 4.31374V2.983H9.02883V4.31374H10.3596ZM14.6406 4.31374H15.9713V2.983H14.6406V4.31374ZM21.6888 7.60723V8.93797H23.0195V7.60723H21.6888ZM15.952 7.60723H14.6213V8.93797H15.952V7.60723ZM15.952 4.31374V2.983H14.6213V4.31374H15.952ZM21.6888 4.31374H23.0195V2.983H21.6888V4.31374ZM22.3445 1.66927C22.344 1.66927 22.3435 1.66927 22.3428 1.66927C22.3422 1.66927 22.3415 1.66927 22.3407 1.66927C22.3399 1.66927 22.3391 1.66927 22.3381 1.66927C22.3372 1.66927 22.3362 1.66927 22.3351 1.66927C22.3341 1.66927 22.3329 1.66927 22.3317 1.66927C22.3305 1.66927 22.3292 1.66927 22.3279 1.66927C22.3265 1.66927 22.3251 1.66927 22.3236 1.66927C22.3222 1.66927 22.3206 1.66927 22.319 1.66927C22.3173 1.66927 22.3157 1.66927 22.3139 1.66927C22.3121 1.66927 22.3103 1.66927 22.3084 1.66927C22.3065 1.66927 22.3045 1.66927 22.3025 1.66927C22.3004 1.66927 22.2983 1.66927 22.2962 1.66927C22.294 1.66927 22.2917 1.66927 22.2894 1.66927C22.2871 1.66927 22.2847 1.66927 22.2823 1.66927C22.2798 1.66927 22.2773 1.66927 22.2747 1.66927C22.2722 1.66927 22.2695 1.66927 22.2668 1.66927C22.2641 1.66927 22.2613 1.66927 22.2584 1.66927C22.2556 1.66927 22.2527 1.66927 22.2497 1.66927C22.2467 1.66927 22.2437 1.66927 22.2405 1.66927C22.2374 1.66927 22.2342 1.66927 22.231 1.66927C22.2277 1.66927 22.2244 1.66927 22.2211 1.66927C22.2177 1.66927 22.2142 1.66927 22.2107 1.66927C22.2072 1.66927 22.2036 1.66927 22.2 1.66927C22.1963 1.66927 22.1926 1.66927 22.1889 1.66927C22.1851 1.66927 22.1813 1.66927 22.1774 1.66927C22.1735 1.66927 22.1695 1.66927 22.1655 1.66927C22.1614 1.66927 22.1573 1.66927 22.1532 1.66927C22.149 1.66927 22.1448 1.66927 22.1405 1.66927C22.1362 1.66927 22.1319 1.66927 22.1275 1.66927C22.1231 1.66927 22.1186 1.66927 22.114 1.66927C22.1095 1.66927 22.1049 1.66927 22.1002 1.66927C22.0956 1.66927 22.0908 1.66927 22.086 1.66927C22.0813 1.66927 22.0764 1.66927 22.0715 1.66927C22.0666 1.66927 22.0616 1.66927 22.0566 1.66927C22.0515 1.66927 22.0464 1.66927 22.0412 1.66927C22.0361 1.66927 22.0309 1.66927 22.0256 1.66927C22.0203 1.66927 22.0149 1.66927 22.0095 1.66927C22.0041 1.66927 21.9986 1.66927 21.9931 1.66927C21.9876 1.66927 21.982 1.66927 21.9763 1.66927C21.9707 1.66927 21.965 1.66927 21.9592 1.66927C21.9534 1.66927 21.9476 1.66927 21.9417 1.66927C21.9358 1.66927 21.9298 1.66927 21.9238 1.66927C21.9178 1.66927 21.9117 1.66927 21.9056 1.66927C21.8994 1.66927 21.8933 1.66927 21.887 1.66927C21.8807 1.66927 21.8744 1.66927 21.8681 1.66927C21.8617 1.66927 21.8553 1.66927 21.8488 1.66927C21.8423 1.66927 21.8357 1.66927 21.8291 1.66927C21.8225 1.66927 21.8159 1.66927 21.8091 1.66927C21.8024 1.66927 21.7956 1.66927 21.7888 1.66927C21.7819 1.66927 21.775 1.66927 21.7681 1.66927C21.7611 1.66927 21.7541 1.66927 21.7471 1.66927C21.74 1.66927 21.7329 1.66927 21.7257 1.66927C21.7185 1.66927 21.7113 1.66927 21.704 1.66927C21.6967 1.66927 21.6893 1.66927 21.6819 1.66927C21.6745 1.66927 21.667 1.66927 21.6595 1.66927C21.652 1.66927 21.6444 1.66927 21.6367 1.66927C21.6291 1.66927 21.6214 1.66927 21.6137 1.66927C21.6059 1.66927 21.5981 1.66927 21.5903 1.66927C21.5824 1.66927 21.5745 1.66927 21.5665 1.66927C21.5585 1.66927 21.5505 1.66927 21.5424 1.66927C21.5344 1.66927 21.5262 1.66927 21.518 1.66927C21.5099 1.66927 21.5016 1.66927 21.4933 1.66927C21.485 1.66927 21.4767 1.66927 21.4683 1.66927C21.4599 1.66927 21.4514 1.66927 21.4429 1.66927C21.4344 1.66927 21.4258 1.66927 21.4172 1.66927C21.4086 1.66927 21.3999 1.66927 21.3912 1.66927C21.3824 1.66927 21.3736 1.66927 21.3648 1.66927C21.356 1.66927 21.3471 1.66927 21.3382 1.66927C21.3292 1.66927 21.3202 1.66927 21.3112 1.66927C21.3021 1.66927 21.293 1.66927 21.2839 1.66927C21.2747 1.66927 21.2655 1.66927 21.2563 1.66927C21.247 1.66927 21.2377 1.66927 21.2284 1.66927C21.219 1.66927 21.2096 1.66927 21.2002 1.66927C21.1907 1.66927 21.1812 1.66927 21.1716 1.66927C21.1621 1.66927 21.1525 1.66927 21.1428 1.66927C21.1331 1.66927 21.1234 1.66927 21.1137 1.66927C21.1039 1.66927 21.0941 1.66927 21.0842 1.66927C21.0744 1.66927 21.0645 1.66927 21.0545 1.66927C21.0445 1.66927 21.0345 1.66927 21.0245 1.66927C21.0144 1.66927 21.0043 1.66927 20.9941 1.66927C20.984 1.66927 20.9737 1.66927 20.9635 1.66927C20.9532 1.66927 20.9429 1.66927 20.9326 1.66927C20.9222 1.66927 20.9118 1.66927 20.9014 1.66927C20.8909 1.66927 20.8804 1.66927 20.8698 1.66927C20.8593 1.66927 20.8487 1.66927 20.838 1.66927C20.8274 1.66927 20.8167 1.66927 20.806 1.66927C20.7952 1.66927 20.7844 1.66927 20.7736 1.66927C20.7628 1.66927 20.7519 1.66927 20.7409 1.66927C20.73 1.66927 20.719 1.66927 20.708 1.66927C20.697 1.66927 20.6859 1.66927 20.6748 1.66927C20.6637 1.66927 20.6525 1.66927 20.6413 1.66927C20.6301 1.66927 20.6188 1.66927 20.6075 1.66927C20.5962 1.66927 20.5849 1.66927 20.5735 1.66927C20.5621 1.66927 20.5506 1.66927 20.5392 1.66927C20.5277 1.66927 20.5161 1.66927 20.5046 1.66927C20.493 1.66927 20.4814 1.66927 20.4697 1.66927C20.458 1.66927 20.4463 1.66927 20.4346 1.66927C20.4228 1.66927 20.411 1.66927 20.3992 1.66927C20.3873 1.66927 20.3754 1.66927 20.3635 1.66927C20.3516 1.66927 20.3396 1.66927 20.3276 1.66927C20.3155 1.66927 20.3035 1.66927 20.2914 1.66927C20.2793 1.66927 20.2671 1.66927 20.2549 1.66927C20.2427 1.66927 20.2305 1.66927 20.2182 1.66927C20.2059 1.66927 20.1936 1.66927 20.1812 1.66927C20.1689 1.66927 20.1565 1.66927 20.144 1.66927C20.1316 1.66927 20.1191 1.66927 20.1065 1.66927C20.094 1.66927 20.0814 1.66927 20.0688 1.66927C20.0562 1.66927 20.0435 1.66927 20.0308 1.66927C20.0181 1.66927 20.0054 1.66927 19.9926 1.66927C19.9798 1.66927 19.967 1.66927 19.9541 1.66927C19.9412 1.66927 19.9283 1.66927 19.9154 1.66927C19.9024 1.66927 19.8895 1.66927 19.8764 1.66927C19.8634 1.66927 19.8503 1.66927 19.8372 1.66927C19.8241 1.66927 19.811 1.66927 19.7978 1.66927C19.7846 1.66927 19.7714 1.66927 19.7581 1.66927C19.7448 1.66927 19.7315 1.66927 19.7182 1.66927C19.7048 1.66927 19.6914 1.66927 19.678 1.66927C19.6646 1.66927 19.6511 1.66927 19.6376 1.66927C19.6241 1.66927 19.6106 1.66927 19.597 1.66927C19.5834 1.66927 19.5698 1.66927 19.5561 1.66927C19.5425 1.66927 19.5288 1.66927 19.515 1.66927C19.5013 1.66927 19.4875 1.66927 19.4737 1.66927C19.4599 1.66927 19.4461 1.66927 19.4322 1.66927C19.4183 1.66927 19.4044 1.66927 19.3904 1.66927C19.3765 1.66927 19.3625 1.66927 19.3484 1.66927C19.3344 1.66927 19.3203 1.66927 19.3062 1.66927C19.2921 1.66927 19.278 1.66927 19.2638 1.66927C19.2496 1.66927 19.2354 1.66927 19.2212 1.66927C19.2069 1.66927 19.1926 1.66927 19.1783 1.66927C19.164 1.66927 19.1496 1.66927 19.1352 1.66927C19.1208 1.66927 19.1064 1.66927 19.0919 1.66927C19.0775 1.66927 19.063 1.66927 19.0484 1.66927C19.0339 1.66927 19.0193 1.66927 19.0047 1.66927C18.9901 1.66927 18.9755 1.66927 18.9608 1.66927C18.9462 1.66927 18.9315 1.66927 18.9167 1.66927C18.902 1.66927 18.8872 1.66927 18.8724 1.66927C18.8576 1.66927 18.8428 1.66927 18.8279 1.66927C18.813 1.66927 18.7981 1.66927 18.7832 1.66927C18.7682 1.66927 18.7532 1.66927 18.7382 1.66927C18.7232 1.66927 18.7082 1.66927 18.6931 1.66927C18.678 1.66927 18.6629 1.66927 18.6478 1.66927C18.6327 1.66927 18.6175 1.66927 18.6023 1.66927C18.5871 1.66927 18.5719 1.66927 18.5566 1.66927C18.5413 1.66927 18.526 1.66927 18.5107 1.66927C18.4954 1.66927 18.48 1.66927 18.4646 1.66927C18.4492 1.66927 18.4338 1.66927 18.4184 1.66927C18.4029 1.66927 18.3874 1.66927 18.3719 1.66927C18.3564 1.66927 18.3408 1.66927 18.3253 1.66927C18.3097 1.66927 18.2941 1.66927 18.2785 1.66927C18.2628 1.66927 18.2472 1.66927 18.2315 1.66927C18.2158 1.66927 18.2 1.66927 18.1843 1.66927C18.1685 1.66927 18.1527 1.66927 18.1369 1.66927C18.1211 1.66927 18.1053 1.66927 18.0894 1.66927C18.0735 1.66927 18.0576 1.66927 18.0417 1.66927C18.0258 1.66927 18.0098 1.66927 17.9938 1.66927C17.9778 1.66927 17.9618 1.66927 17.9458 1.66927C17.9297 1.66927 17.9137 1.66927 17.8976 1.66927C17.8815 1.66927 17.8653 1.66927 17.8492 1.66927C17.833 1.66927 17.8168 1.66927 17.8006 1.66927C17.7844 1.66927 17.7682 1.66927 17.7519 1.66927C17.7356 1.66927 17.7194 1.66927 17.703 1.66927C17.6867 1.66927 17.6704 1.66927 17.654 1.66927C17.6376 1.66927 17.6212 1.66927 17.6048 1.66927C17.5884 1.66927 17.5719 1.66927 17.5555 1.66927C17.539 1.66927 17.5225 1.66927 17.506 1.66927C17.4894 1.66927 17.4729 1.66927 17.4563 1.66927C17.4397 1.66927 17.4231 1.66927 17.4065 1.66927C17.3899 1.66927 17.3732 1.66927 17.3565 1.66927C17.3398 1.66927 17.3231 1.66927 17.3064 1.66927C17.2897 1.66927 17.2729 1.66927 17.2562 1.66927C17.2394 1.66927 17.2226 1.66927 17.2058 1.66927C17.1889 1.66927 17.1721 1.66927 17.1552 1.66927C17.1383 1.66927 17.1214 1.66927 17.1045 1.66927C17.0876 1.66927 17.0707 1.66927 17.0537 1.66927C17.0367 1.66927 17.0197 1.66927 17.0027 1.66927C16.9857 1.66927 16.9687 1.66927 16.9516 1.66927C16.9346 1.66927 16.9175 1.66927 16.9004 1.66927C16.8833 1.66927 16.8661 1.66927 16.849 1.66927C16.8318 1.66927 16.8147 1.66927 16.7975 1.66927C16.7803 1.66927 16.7631 1.66927 16.7458 1.66927C16.7286 1.66927 16.7114 1.66927 16.6941 1.66927C16.6768 1.66927 16.6595 1.66927 16.6422 1.66927C16.6249 1.66927 16.6075 1.66927 16.5902 1.66927C16.5728 1.66927 16.5554 1.66927 16.538 1.66927C16.5206 1.66927 16.5032 1.66927 16.4858 1.66927C16.4683 1.66927 16.4509 1.66927 16.4334 1.66927C16.4159 1.66927 16.3984 1.66927 16.3809 1.66927C16.3634 1.66927 16.3458 1.66927 16.3283 1.66927C16.3107 1.66927 16.2931 1.66927 16.2755 1.66927C16.2579 1.66927 16.2403 1.66927 16.2227 1.66927C16.205 1.66927 16.1874 1.66927 16.1697 1.66927C16.152 1.66927 16.1343 1.66927 16.1166 1.66927C16.0989 1.66927 16.0812 1.66927 16.0634 1.66927C16.0457 1.66927 16.0279 1.66927 16.0102 1.66927C15.9924 1.66927 15.9746 1.66927 15.9568 1.66927C15.9389 1.66927 15.9211 1.66927 15.9033 1.66927C15.8854 1.66927 15.8675 1.66927 15.8497 1.66927C15.8318 1.66927 15.8139 1.66927 15.796 1.66927C15.778 1.66927 15.7601 1.66927 15.7422 1.66927C15.7242 1.66927 15.7062 1.66927 15.6883 1.66927C15.6703 1.66927 15.6523 1.66927 15.6343 1.66927C15.6163 1.66927 15.5982 1.66927 15.5802 1.66927C15.5621 1.66927 15.5441 1.66927 15.526 1.66927C15.5079 1.66927 15.4898 1.66927 15.4717 1.66927C15.4536 1.66927 15.4355 1.66927 15.4174 1.66927C15.3993 1.66927 15.3811 1.66927 15.3629 1.66927C15.3448 1.66927 15.3266 1.66927 15.3084 1.66927C15.2902 1.66927 15.272 1.66927 15.2538 1.66927C15.2356 1.66927 15.2173 1.66927 15.1991 1.66927C15.1809 1.66927 15.1626 1.66927 15.1443 1.66927C15.1261 1.66927 15.1078 1.66927 15.0895 1.66927C15.0712 1.66927 15.0529 1.66927 15.0345 1.66927C15.0162 1.66927 14.9979 1.66927 14.9795 1.66927C14.9612 1.66927 14.9428 1.66927 14.9245 1.66927C14.9061 1.66927 14.8877 1.66927 14.8693 1.66927C14.8509 1.66927 14.8325 1.66927 14.8141 1.66927C14.7957 1.66927 14.7772 1.66927 14.7588 1.66927C14.7403 1.66927 14.7219 1.66927 14.7034 1.66927C14.685 1.66927 14.6665 1.66927 14.648 1.66927C14.6295 1.66927 14.611 1.66927 14.5925 1.66927C14.574 1.66927 14.5555 1.66927 14.537 1.66927C14.5184 1.66927 14.4999 1.66927 14.4814 1.66927C14.4628 1.66927 14.4442 1.66927 14.4257 1.66927C14.4071 1.66927 14.3885 1.66927 14.37 1.66927C14.3514 1.66927 14.3328 1.66927 14.3142 1.66927C14.2956 1.66927 14.277 1.66927 14.2583 1.66927C14.2397 1.66927 14.2211 1.66927 14.2024 1.66927C14.1838 1.66927 14.1652 1.66927 14.1465 1.66927C14.1279 1.66927 14.1092 1.66927 14.0905 1.66927C14.0719 1.66927 14.0532 1.66927 14.0345 1.66927C14.0158 1.66927 13.9971 1.66927 13.9784 1.66927C13.9597 1.66927 13.941 1.66927 13.9223 1.66927C13.9036 1.66927 13.8849 1.66927 13.8661 1.66927C13.8474 1.66927 13.8287 1.66927 13.8099 1.66927C13.7912 1.66927 13.7724 1.66927 13.7537 1.66927C13.7349 1.66927 13.7162 1.66927 13.6974 1.66927C13.6786 1.66927 13.6599 1.66927 13.6411 1.66927C13.6223 1.66927 13.6035 1.66927 13.5847 1.66927C13.5659 1.66927 13.5471 1.66927 13.5283 1.66927C13.5095 1.66927 13.4907 1.66927 13.4719 1.66927C13.4531 1.66927 13.4343 1.66927 13.4155 1.66927C13.3967 1.66927 13.3778 1.66927 13.359 1.66927C13.3402 1.66927 13.3214 1.66927 13.3025 1.66927C13.2837 1.66927 13.2648 1.66927 13.246 1.66927C13.2272 1.66927 13.2083 1.66927 13.1895 1.66927C13.1706 1.66927 13.1518 1.66927 13.1329 1.66927C13.114 1.66927 13.0952 1.66927 13.0763 1.66927C13.0575 1.66927 13.0386 1.66927 13.0197 1.66927C13.0009 1.66927 12.982 1.66927 12.9631 1.66927C12.9442 1.66927 12.9254 1.66927 12.9065 1.66927C12.8876 1.66927 12.8687 1.66927 12.8499 1.66927C12.831 1.66927 12.8121 1.66927 12.7932 1.66927C12.7743 1.66927 12.7554 1.66927 12.7366 1.66927C12.7177 1.66927 12.6988 1.66927 12.6799 1.66927C12.661 1.66927 12.6421 1.66927 12.6232 1.66927C12.6043 1.66927 12.5854 1.66927 12.5666 1.66927C12.5477 1.66927 12.5288 1.66927 12.5099 1.66927C12.491 1.66927 12.4721 1.66927 12.4532 1.66927C12.4343 1.66927 12.4154 1.66927 12.3965 1.66927C12.3776 1.66927 12.3587 1.66927 12.3399 1.66927C12.321 1.66927 12.3021 1.66927 12.2832 1.66927C12.2643 1.66927 12.2454 1.66927 12.2265 1.66927C12.2076 1.66927 12.1888 1.66927 12.1699 1.66927C12.151 1.66927 12.1321 1.66927 12.1132 1.66927C12.0944 1.66927 12.0755 1.66927 12.0566 1.66927C12.0377 1.66927 12.0189 1.66927 12 1.66927C11.9811 1.66927 11.9623 1.66927 11.9434 1.66927C11.9245 1.66927 11.9057 1.66927 11.8868 1.66927C11.8679 1.66927 11.8491 1.66927 11.8302 1.66927C11.8114 1.66927 11.7925 1.66927 11.7737 1.66927C11.7548 1.66927 11.736 1.66927 11.7172 1.66927C11.6983 1.66927 11.6795 1.66927 11.6607 1.66927C11.6418 1.66927 11.623 1.66927 11.6042 1.66927C11.5854 1.66927 11.5665 1.66927 11.5477 1.66927C11.5289 1.66927 11.5101 1.66927 11.4913 1.66927C11.4725 1.66927 11.4537 1.66927 11.4349 1.66927C11.4161 1.66927 11.3973 1.66927 11.3785 1.66927C11.3598 1.66927 11.341 1.66927 11.3222 1.66927C11.3034 1.66927 11.2847 1.66927 11.2659 1.66927C11.2471 1.66927 11.2284 1.66927 11.2096 1.66927C11.1909 1.66927 11.1722 1.66927 11.1534 1.66927C11.1347 1.66927 11.116 1.66927 11.0972 1.66927C11.0785 1.66927 11.0598 1.66927 11.0411 1.66927C11.0224 1.66927 11.0037 1.66927 10.985 1.66927C10.9663 1.66927 10.9476 1.66927 10.9289 1.66927C10.9103 1.66927 10.8916 1.66927 10.8729 1.66927C10.8543 1.66927 10.8356 1.66927 10.817 1.66927C10.7983 1.66927 10.7797 1.66927 10.7611 1.66927C10.7424 1.66927 10.7238 1.66927 10.7052 1.66927C10.6866 1.66927 10.668 1.66927 10.6494 1.66927C10.6308 1.66927 10.6122 1.66927 10.5937 1.66927C10.5751 1.66927 10.5565 1.66927 10.538 1.66927C10.5194 1.66927 10.5009 1.66927 10.4823 1.66927C10.4638 1.66927 10.4453 1.66927 10.4268 1.66927C10.4082 1.66927 10.3897 1.66927 10.3712 1.66927C10.3527 1.66927 10.3343 1.66927 10.3158 1.66927C10.2973 1.66927 10.2788 1.66927 10.2604 1.66927C10.2419 1.66927 10.2235 1.66927 10.2051 1.66927C10.1866 1.66927 10.1682 1.66927 10.1498 1.66927C10.1314 1.66927 10.113 1.66927 10.0946 1.66927C10.0763 1.66927 10.0579 1.66927 10.0395 1.66927C10.0212 1.66927 10.0028 1.66927 9.98449 1.66927C9.96615 1.66927 9.94783 1.66927 9.92952 1.66927C9.91121 1.66927 9.89292 1.66927 9.87463 1.66927C9.85635 1.66927 9.83808 1.66927 9.81982 1.66927C9.80157 1.66927 9.78332 1.66927 9.76509 1.66927C9.74686 1.66927 9.72865 1.66927 9.71045 1.66927C9.69224 1.66927 9.67405 1.66927 9.65588 1.66927C9.63771 1.66927 9.61954 1.66927 9.6014 1.66927C9.58325 1.66927 9.56512 1.66927 9.547 1.66927C9.52889 1.66927 9.51079 1.66927 9.4927 1.66927C9.47461 1.66927 9.45654 1.66927 9.43848 1.66927C9.42042 1.66927 9.40238 1.66927 9.38436 1.66927C9.36633 1.66927 9.34832 1.66927 9.33032 1.66927C9.31233 1.66927 9.29435 1.66927 9.27638 1.66927C9.25842 1.66927 9.24047 1.66927 9.22254 1.66927C9.20461 1.66927 9.1867 1.66927 9.1688 1.66927C9.1509 1.66927 9.13302 1.66927 9.11516 1.66927C9.09729 1.66927 9.07944 1.66927 9.06161 1.66927C9.04378 1.66927 9.02597 1.66927 9.00817 1.66927C8.99038 1.66927 8.9726 1.66927 8.95484 1.66927C8.93708 1.66927 8.91934 1.66927 8.90161 1.66927C8.88389 1.66927 8.86618 1.66927 8.84849 1.66927C8.8308 1.66927 8.81313 1.66927 8.79548 1.66927C8.77783 1.66927 8.7602 1.66927 8.74258 1.66927C8.72497 1.66927 8.70737 1.66927 8.6898 1.66927C8.67222 1.66927 8.65466 1.66927 8.63713 1.66927C8.61959 1.66927 8.60207 1.66927 8.58457 1.66927C8.56707 1.66927 8.54959 1.66927 8.53214 1.66927C8.51468 1.66927 8.49724 1.66927 8.47982 1.66927C8.4624 1.66927 8.445 1.66927 8.42762 1.66927C8.41024 1.66927 8.39289 1.66927 8.37555 1.66927C8.35821 1.66927 8.3409 1.66927 8.3236 1.66927C8.30631 1.66927 8.28903 1.66927 8.27178 1.66927C8.25453 1.66927 8.2373 1.66927 8.22009 1.66927C8.20288 1.66927 8.18569 1.66927 8.16852 1.66927C8.15136 1.66927 8.13421 1.66927 8.11709 1.66927C8.09997 1.66927 8.08287 1.66927 8.06579 1.66927C8.04872 1.66927 8.03166 1.66927 8.01463 1.66927C7.9976 1.66927 7.98059 1.66927 7.9636 1.66927C7.94662 1.66927 7.92965 1.66927 7.91271 1.66927C7.89577 1.66927 7.87886 1.66927 7.86196 1.66927C7.84507 1.66927 7.8282 1.66927 7.81135 1.66927C7.79451 1.66927 7.77769 1.66927 7.76089 1.66927C7.74409 1.66927 7.72732 1.66927 7.71057 1.66927C7.69382 1.66927 7.67709 1.66927 7.66039 1.66927C7.64369 1.66927 7.62702 1.66927 7.61037 1.66927C7.59372 1.66927 7.57709 1.66927 7.56049 1.66927C7.54389 1.66927 7.52732 1.66927 7.51077 1.66927C7.49422 1.66927 7.47769 1.66927 7.46119 1.66927C7.4447 1.66927 7.42822 1.66927 7.41178 1.66927C7.39533 1.66927 7.37891 1.66927 7.36252 1.66927C7.34612 1.66927 7.32975 1.66927 7.31341 1.66927C7.29707 1.66927 7.28076 1.66927 7.26447 1.66927C7.24818 1.66927 7.23192 1.66927 7.21569 1.66927C7.19946 1.66927 7.18325 1.66927 7.16707 1.66927C7.15089 1.66927 7.13474 1.66927 7.11862 1.66927C7.10249 1.66927 7.0864 1.66927 7.07033 1.66927C7.05426 1.66927 7.03822 1.66927 7.02221 1.66927C7.0062 1.66927 6.99022 1.66927 6.97426 1.66927C6.95831 1.66927 6.94238 1.66927 6.92649 1.66927C6.91059 1.66927 6.89472 1.66927 6.87888 1.66927C6.86304 1.66927 6.84723 1.66927 6.83145 1.66927C6.81567 1.66927 6.79992 1.66927 6.7842 1.66927C6.76848 1.66927 6.75278 1.66927 6.73712 1.66927C6.72146 1.66927 6.70583 1.66927 6.69023 1.66927C6.67462 1.66927 6.65905 1.66927 6.64351 1.66927C6.62797 1.66927 6.61246 1.66927 6.59698 1.66927C6.5815 1.66927 6.56605 1.66927 6.55064 1.66927C6.53522 1.66927 6.51983 1.66927 6.50448 1.66927C6.48912 1.66927 6.4738 1.66927 6.4585 1.66927C6.44321 1.66927 6.42795 1.66927 6.41272 1.66927C6.39749 1.66927 6.3823 1.66927 6.36713 1.66927C6.35197 1.66927 6.33683 1.66927 6.32173 1.66927C6.30663 1.66927 6.29157 1.66927 6.27653 1.66927C6.2615 1.66927 6.2465 1.66927 6.23153 1.66927C6.21656 1.66927 6.20162 1.66927 6.18672 1.66927C6.17182 1.66927 6.15695 1.66927 6.14211 1.66927C6.12727 1.66927 6.11247 1.66927 6.0977 1.66927C6.08294 1.66927 6.0682 1.66927 6.0535 1.66927C6.0388 1.66927 6.02413 1.66927 6.0095 1.66927C5.99487 1.66927 5.98027 1.66927 5.96571 1.66927C5.95115 1.66927 5.93662 1.66927 5.92213 1.66927C5.90763 1.66927 5.89318 1.66927 5.87875 1.66927C5.86433 1.66927 5.84994 1.66927 5.83559 1.66927C5.82124 1.66927 5.80692 1.66927 5.79264 1.66927C5.77836 1.66927 5.76411 1.66927 5.74991 1.66927C5.7357 1.66927 5.72152 1.66927 5.70739 1.66927C5.69325 1.66927 5.67915 1.66927 5.66509 1.66927C5.65102 1.66927 5.637 1.66927 5.62301 1.66927C5.60902 1.66927 5.59506 1.66927 5.58115 1.66927C5.56723 1.66927 5.55335 1.66927 5.53951 1.66927C5.52567 1.66927 5.51187 1.66927 5.4981 1.66927C5.48434 1.66927 5.47061 1.66927 5.45692 1.66927C5.44323 1.66927 5.42957 1.66927 5.41596 1.66927C5.40235 1.66927 5.38877 1.66927 5.37523 1.66927C5.3617 1.66927 5.3482 1.66927 5.33474 1.66927C5.32128 1.66927 5.30786 1.66927 5.29448 1.66927C5.2811 1.66927 5.26775 1.66927 5.25445 1.66927C5.24115 1.66927 5.22789 1.66927 5.21466 1.66927C5.20144 1.66927 5.18825 1.66927 5.17511 1.66927C5.16196 1.66927 5.14886 1.66927 5.1358 1.66927C5.12273 1.66927 5.10971 1.66927 5.09673 1.66927C5.08374 1.66927 5.0708 1.66927 5.0579 1.66927C5.045 1.66927 5.03214 1.66927 5.01932 1.66927C5.0065 1.66927 4.99372 1.66927 4.98098 1.66927C4.96824 1.66927 4.95554 1.66927 4.94289 1.66927C4.93024 1.66927 4.91762 1.66927 4.90505 1.66927C4.89248 1.66927 4.87995 1.66927 4.86747 1.66927C4.85498 1.66927 4.84253 1.66927 4.83013 1.66927C4.81773 1.66927 4.80537 1.66927 4.79305 1.66927C4.78074 1.66927 4.76846 1.66927 4.75623 1.66927C4.744 1.66927 4.73181 1.66927 4.71967 1.66927C4.70752 1.66927 4.69542 1.66927 4.68336 1.66927C4.6713 1.66927 4.65929 1.66927 4.64732 1.66927C4.63535 1.66927 4.62342 1.66927 4.61154 1.66927C4.59966 1.66927 4.58782 1.66927 4.57603 1.66927C4.56423 1.66927 4.55248 1.66927 4.54078 1.66927C4.52907 1.66927 4.51741 1.66927 4.5058 1.66927C4.49418 1.66927 4.48261 1.66927 4.47109 1.66927C4.45956 1.66927 4.44808 1.66927 4.43665 1.66927C4.42521 1.66927 4.41383 1.66927 4.40248 1.66927C4.39114 1.66927 4.37984 1.66927 4.36859 1.66927C4.35734 1.66927 4.34614 1.66927 4.33498 1.66927C4.32382 1.66927 4.31271 1.66927 4.30164 1.66927C4.29058 1.66927 4.27956 1.66927 4.26859 1.66927C4.25761 1.66927 4.24669 1.66927 4.23581 1.66927C4.22493 1.66927 4.2141 1.66927 4.20332 1.66927C4.19254 1.66927 4.1818 1.66927 4.17111 1.66927C4.16043 1.66927 4.14979 1.66927 4.13919 1.66927C4.1286 1.66927 4.11806 1.66927 4.10756 1.66927C4.09707 1.66927 4.08662 1.66927 4.07622 1.66927C4.06582 1.66927 4.05547 1.66927 4.04517 1.66927C4.03487 1.66927 4.02462 1.66927 4.01441 1.66927C4.00421 1.66927 3.99406 1.66927 3.98395 1.66927C3.97385 1.66927 3.96379 1.66927 3.95379 1.66927C3.94378 1.66927 3.93382 1.66927 3.92392 1.66927C3.91401 1.66927 3.90416 1.66927 3.89435 1.66927C3.88454 1.66927 3.87479 1.66927 3.86508 1.66927C3.85538 1.66927 3.84572 1.66927 3.83612 1.66927C3.82652 1.66927 3.81696 1.66927 3.80746 1.66927C3.79796 1.66927 3.78851 1.66927 3.77911 1.66927C3.76971 1.66927 3.76037 1.66927 3.75107 1.66927C3.74177 1.66927 3.73253 1.66927 3.72334 1.66927C3.71414 1.66927 3.705 1.66927 3.69591 1.66927C3.68683 1.66927 3.67779 1.66927 3.66881 1.66927C3.65982 1.66927 3.65089 1.66927 3.64201 1.66927C3.63313 1.66927 3.62431 1.66927 3.61553 1.66927C3.60676 1.66927 3.59804 1.66927 3.58938 1.66927C3.58071 1.66927 3.5721 1.66927 3.56354 1.66927C3.55498 1.66927 3.54647 1.66927 3.53802 1.66927C3.52957 1.66927 3.52117 1.66927 3.51283 1.66927C3.50448 1.66927 3.49619 1.66927 3.48796 1.66927C3.47972 1.66927 3.47154 1.66927 3.46341 1.66927C3.45529 1.66927 3.44722 1.66927 3.4392 1.66927C3.43118 1.66927 3.42322 1.66927 3.41531 1.66927C3.40741 1.66927 3.39956 1.66927 3.39176 1.66927C3.38397 1.66927 3.37623 1.66927 3.36854 1.66927C3.36086 1.66927 3.35323 1.66927 3.34566 1.66927C3.33809 1.66927 3.33057 1.66927 3.32311 1.66927C3.31565 1.66927 3.30825 1.66927 3.3009 1.66927C3.29355 1.66927 3.28626 1.66927 3.27903 1.66927C3.2718 1.66927 3.26462 1.66927 3.2575 1.66927C3.25038 1.66927 3.24332 1.66927 3.23632 1.66927C3.22931 1.66927 3.22236 1.66927 3.21548 1.66927C3.20859 1.66927 3.20175 1.66927 3.19498 1.66927C3.18821 1.66927 3.18149 1.66927 3.17484 1.66927C3.16818 1.66927 3.16158 1.66927 3.15504 1.66927C3.1485 1.66927 3.14202 1.66927 3.1356 1.66927C3.12917 1.66927 3.12281 1.66927 3.11651 1.66927C3.1102 1.66927 3.10396 1.66927 3.09777 1.66927C3.09158 1.66927 3.08546 1.66927 3.07939 1.66927C3.07332 1.66927 3.06732 1.66927 3.06137 1.66927C3.05542 1.66927 3.04954 1.66927 3.04371 1.66927C3.03788 1.66927 3.03212 1.66927 3.02641 1.66927C3.0207 1.66927 3.01506 1.66927 3.00947 1.66927C3.00389 1.66927 2.99836 1.66927 2.9929 1.66927C2.98744 1.66927 2.98204 1.66927 2.9767 1.66927C2.97136 1.66927 2.96608 1.66927 2.96086 1.66927C2.95564 1.66927 2.95049 1.66927 2.94539 1.66927C2.9403 1.66927 2.93527 1.66927 2.9303 1.66927C2.92533 1.66927 2.92042 1.66927 2.91558 1.66927C2.91073 1.66927 2.90595 1.66927 2.90123 1.66927C2.89651 1.66927 2.89185 1.66927 2.88726 1.66927C2.88267 1.66927 2.87814 1.66927 2.87367 1.66927C2.8692 1.66927 2.8648 1.66927 2.86046 1.66927C2.85612 1.66927 2.85184 1.66927 2.84763 1.66927C2.84341 1.66927 2.83927 1.66927 2.83518 1.66927C2.8311 1.66927 2.82707 1.66927 2.82312 1.66927C2.81916 1.66927 2.81527 1.66927 2.81144 1.66927C2.80762 1.66927 2.80385 1.66927 2.80016 1.66927C2.79646 1.66927 2.79283 1.66927 2.78926 1.66927C2.78569 1.66927 2.78219 1.66927 2.77875 1.66927C2.77532 1.66927 2.77195 1.66927 2.76864 1.66927C2.76534 1.66927 2.7621 1.66927 2.75892 1.66927C2.75575 1.66927 2.75264 1.66927 2.7496 1.66927C2.74656 1.66927 2.74359 1.66927 2.74068 1.66927C2.73777 1.66927 2.73493 1.66927 2.73216 1.66927C2.72938 1.66927 2.72668 1.66927 2.72404 1.66927C2.7214 1.66927 2.71883 1.66927 2.71632 1.66927C2.71382 1.66927 2.71138 1.66927 2.70901 1.66927C2.70664 1.66927 2.70434 1.66927 2.7021 1.66927C2.69987 1.66927 2.6977 1.66927 2.6956 1.66927C2.69351 1.66927 2.69148 1.66927 2.68952 1.66927C2.68756 1.66927 2.68566 1.66927 2.68384 1.66927C2.68202 1.66927 2.68026 1.66927 2.67858 1.66927C2.67689 1.66927 2.67528 1.66927 2.67373 1.66927C2.67218 1.66927 2.67071 1.66927 2.6693 1.66927C2.66789 1.66927 2.66655 1.66927 2.66529 1.66927C2.66402 1.66927 2.66282 1.66927 2.66169 1.66927C2.66057 1.66927 2.65951 1.66927 2.65852 1.66927C2.65754 1.66927 2.65662 1.66927 2.65577 1.66927V4.33073C2.65662 4.33073 2.65754 4.33073 2.65852 4.33073C2.65951 4.33073 2.66057 4.33073 2.66169 4.33073C2.66282 4.33073 2.66402 4.33073 2.66529 4.33073C2.66655 4.33073 2.66789 4.33073 2.6693 4.33073C2.67071 4.33073 2.67218 4.33073 2.67373 4.33073C2.67528 4.33073 2.67689 4.33073 2.67858 4.33073C2.68026 4.33073 2.68202 4.33073 2.68384 4.33073C2.68566 4.33073 2.68756 4.33073 2.68952 4.33073C2.69148 4.33073 2.69351 4.33073 2.6956 4.33073C2.6977 4.33073 2.69987 4.33073 2.7021 4.33073C2.70434 4.33073 2.70664 4.33073 2.70901 4.33073C2.71138 4.33073 2.71382 4.33073 2.71632 4.33073C2.71883 4.33073 2.7214 4.33073 2.72404 4.33073C2.72668 4.33073 2.72938 4.33073 2.73216 4.33073C2.73493 4.33073 2.73777 4.33073 2.74068 4.33073C2.74359 4.33073 2.74656 4.33073 2.7496 4.33073C2.75264 4.33073 2.75575 4.33073 2.75892 4.33073C2.7621 4.33073 2.76534 4.33073 2.76864 4.33073C2.77195 4.33073 2.77532 4.33073 2.77875 4.33073C2.78219 4.33073 2.78569 4.33073 2.78926 4.33073C2.79283 4.33073 2.79646 4.33073 2.80016 4.33073C2.80385 4.33073 2.80762 4.33073 2.81144 4.33073C2.81527 4.33073 2.81916 4.33073 2.82312 4.33073C2.82707 4.33073 2.8311 4.33073 2.83518 4.33073C2.83927 4.33073 2.84341 4.33073 2.84763 4.33073C2.85184 4.33073 2.85612 4.33073 2.86046 4.33073C2.8648 4.33073 2.8692 4.33073 2.87367 4.33073C2.87814 4.33073 2.88267 4.33073 2.88726 4.33073C2.89185 4.33073 2.89651 4.33073 2.90123 4.33073C2.90595 4.33073 2.91073 4.33073 2.91558 4.33073C2.92042 4.33073 2.92533 4.33073 2.9303 4.33073C2.93527 4.33073 2.9403 4.33073 2.94539 4.33073C2.95049 4.33073 2.95564 4.33073 2.96086 4.33073C2.96608 4.33073 2.97136 4.33073 2.9767 4.33073C2.98204 4.33073 2.98744 4.33073 2.9929 4.33073C2.99836 4.33073 3.00389 4.33073 3.00947 4.33073C3.01506 4.33073 3.0207 4.33073 3.02641 4.33073C3.03212 4.33073 3.03788 4.33073 3.04371 4.33073C3.04954 4.33073 3.05542 4.33073 3.06137 4.33073C3.06732 4.33073 3.07332 4.33073 3.07939 4.33073C3.08546 4.33073 3.09158 4.33073 3.09777 4.33073C3.10396 4.33073 3.1102 4.33073 3.11651 4.33073C3.12281 4.33073 3.12917 4.33073 3.1356 4.33073C3.14202 4.33073 3.1485 4.33073 3.15504 4.33073C3.16158 4.33073 3.16818 4.33073 3.17484 4.33073C3.18149 4.33073 3.18821 4.33073 3.19498 4.33073C3.20175 4.33073 3.20859 4.33073 3.21548 4.33073C3.22236 4.33073 3.22931 4.33073 3.23632 4.33073C3.24332 4.33073 3.25038 4.33073 3.2575 4.33073C3.26462 4.33073 3.2718 4.33073 3.27903 4.33073C3.28626 4.33073 3.29355 4.33073 3.3009 4.33073C3.30825 4.33073 3.31565 4.33073 3.32311 4.33073C3.33057 4.33073 3.33809 4.33073 3.34566 4.33073C3.35323 4.33073 3.36086 4.33073 3.36854 4.33073C3.37623 4.33073 3.38397 4.33073 3.39176 4.33073C3.39956 4.33073 3.40741 4.33073 3.41531 4.33073C3.42322 4.33073 3.43118 4.33073 3.4392 4.33073C3.44722 4.33073 3.45529 4.33073 3.46341 4.33073C3.47154 4.33073 3.47972 4.33073 3.48796 4.33073C3.49619 4.33073 3.50448 4.33073 3.51283 4.33073C3.52117 4.33073 3.52957 4.33073 3.53802 4.33073C3.54647 4.33073 3.55498 4.33073 3.56354 4.33073C3.5721 4.33073 3.58071 4.33073 3.58938 4.33073C3.59804 4.33073 3.60676 4.33073 3.61553 4.33073C3.62431 4.33073 3.63313 4.33073 3.64201 4.33073C3.65089 4.33073 3.65982 4.33073 3.66881 4.33073C3.67779 4.33073 3.68683 4.33073 3.69591 4.33073C3.705 4.33073 3.71414 4.33073 3.72334 4.33073C3.73253 4.33073 3.74177 4.33073 3.75107 4.33073C3.76037 4.33073 3.76971 4.33073 3.77911 4.33073C3.78851 4.33073 3.79796 4.33073 3.80746 4.33073C3.81696 4.33073 3.82652 4.33073 3.83612 4.33073C3.84572 4.33073 3.85538 4.33073 3.86508 4.33073C3.87479 4.33073 3.88454 4.33073 3.89435 4.33073C3.90416 4.33073 3.91401 4.33073 3.92392 4.33073C3.93382 4.33073 3.94378 4.33073 3.95379 4.33073C3.96379 4.33073 3.97385 4.33073 3.98395 4.33073C3.99406 4.33073 4.00421 4.33073 4.01441 4.33073C4.02462 4.33073 4.03487 4.33073 4.04517 4.33073C4.05547 4.33073 4.06582 4.33073 4.07622 4.33073C4.08662 4.33073 4.09707 4.33073 4.10756 4.33073C4.11806 4.33073 4.1286 4.33073 4.13919 4.33073C4.14979 4.33073 4.16043 4.33073 4.17111 4.33073C4.1818 4.33073 4.19254 4.33073 4.20332 4.33073C4.2141 4.33073 4.22493 4.33073 4.23581 4.33073C4.24669 4.33073 4.25761 4.33073 4.26859 4.33073C4.27956 4.33073 4.29058 4.33073 4.30164 4.33073C4.31271 4.33073 4.32382 4.33073 4.33498 4.33073C4.34614 4.33073 4.35734 4.33073 4.36859 4.33073C4.37984 4.33073 4.39114 4.33073 4.40248 4.33073C4.41383 4.33073 4.42521 4.33073 4.43665 4.33073C4.44808 4.33073 4.45956 4.33073 4.47109 4.33073C4.48261 4.33073 4.49418 4.33073 4.5058 4.33073C4.51741 4.33073 4.52907 4.33073 4.54078 4.33073C4.55248 4.33073 4.56423 4.33073 4.57603 4.33073C4.58782 4.33073 4.59966 4.33073 4.61154 4.33073C4.62342 4.33073 4.63535 4.33073 4.64732 4.33073C4.65929 4.33073 4.6713 4.33073 4.68336 4.33073C4.69542 4.33073 4.70752 4.33073 4.71967 4.33073C4.73181 4.33073 4.744 4.33073 4.75623 4.33073C4.76846 4.33073 4.78074 4.33073 4.79305 4.33073C4.80537 4.33073 4.81773 4.33073 4.83013 4.33073C4.84253 4.33073 4.85498 4.33073 4.86747 4.33073C4.87995 4.33073 4.89248 4.33073 4.90505 4.33073C4.91762 4.33073 4.93024 4.33073 4.94289 4.33073C4.95554 4.33073 4.96824 4.33073 4.98098 4.33073C4.99372 4.33073 5.0065 4.33073 5.01932 4.33073C5.03214 4.33073 5.045 4.33073 5.0579 4.33073C5.0708 4.33073 5.08374 4.33073 5.09673 4.33073C5.10971 4.33073 5.12273 4.33073 5.1358 4.33073C5.14886 4.33073 5.16196 4.33073 5.17511 4.33073C5.18825 4.33073 5.20144 4.33073 5.21466 4.33073C5.22789 4.33073 5.24115 4.33073 5.25445 4.33073C5.26775 4.33073 5.2811 4.33073 5.29448 4.33073C5.30786 4.33073 5.32128 4.33073 5.33474 4.33073C5.3482 4.33073 5.3617 4.33073 5.37523 4.33073C5.38877 4.33073 5.40235 4.33073 5.41596 4.33073C5.42957 4.33073 5.44323 4.33073 5.45692 4.33073C5.47061 4.33073 5.48434 4.33073 5.4981 4.33073C5.51187 4.33073 5.52567 4.33073 5.53951 4.33073C5.55335 4.33073 5.56723 4.33073 5.58115 4.33073C5.59506 4.33073 5.60902 4.33073 5.62301 4.33073C5.637 4.33073 5.65102 4.33073 5.66509 4.33073C5.67915 4.33073 5.69325 4.33073 5.70739 4.33073C5.72152 4.33073 5.7357 4.33073 5.74991 4.33073C5.76411 4.33073 5.77836 4.33073 5.79264 4.33073C5.80692 4.33073 5.82124 4.33073 5.83559 4.33073C5.84994 4.33073 5.86433 4.33073 5.87875 4.33073C5.89318 4.33073 5.90763 4.33073 5.92213 4.33073C5.93662 4.33073 5.95115 4.33073 5.96571 4.33073C5.98027 4.33073 5.99487 4.33073 6.0095 4.33073C6.02413 4.33073 6.0388 4.33073 6.0535 4.33073C6.0682 4.33073 6.08294 4.33073 6.0977 4.33073C6.11247 4.33073 6.12727 4.33073 6.14211 4.33073C6.15695 4.33073 6.17182 4.33073 6.18672 4.33073C6.20162 4.33073 6.21656 4.33073 6.23153 4.33073C6.2465 4.33073 6.2615 4.33073 6.27653 4.33073C6.29157 4.33073 6.30663 4.33073 6.32173 4.33073C6.33683 4.33073 6.35197 4.33073 6.36713 4.33073C6.3823 4.33073 6.39749 4.33073 6.41272 4.33073C6.42795 4.33073 6.44321 4.33073 6.4585 4.33073C6.4738 4.33073 6.48912 4.33073 6.50448 4.33073C6.51983 4.33073 6.53522 4.33073 6.55064 4.33073C6.56605 4.33073 6.5815 4.33073 6.59698 4.33073C6.61246 4.33073 6.62797 4.33073 6.64351 4.33073C6.65905 4.33073 6.67462 4.33073 6.69023 4.33073C6.70583 4.33073 6.72146 4.33073 6.73712 4.33073C6.75278 4.33073 6.76848 4.33073 6.7842 4.33073C6.79992 4.33073 6.81567 4.33073 6.83145 4.33073C6.84723 4.33073 6.86304 4.33073 6.87888 4.33073C6.89472 4.33073 6.91059 4.33073 6.92649 4.33073C6.94238 4.33073 6.95831 4.33073 6.97426 4.33073C6.99022 4.33073 7.0062 4.33073 7.02221 4.33073C7.03822 4.33073 7.05426 4.33073 7.07033 4.33073C7.0864 4.33073 7.10249 4.33073 7.11862 4.33073C7.13474 4.33073 7.15089 4.33073 7.16707 4.33073C7.18325 4.33073 7.19946 4.33073 7.21569 4.33073C7.23192 4.33073 7.24818 4.33073 7.26447 4.33073C7.28076 4.33073 7.29707 4.33073 7.31341 4.33073C7.32975 4.33073 7.34612 4.33073 7.36252 4.33073C7.37891 4.33073 7.39533 4.33073 7.41178 4.33073C7.42822 4.33073 7.4447 4.33073 7.46119 4.33073C7.47769 4.33073 7.49422 4.33073 7.51077 4.33073C7.52732 4.33073 7.54389 4.33073 7.56049 4.33073C7.57709 4.33073 7.59372 4.33073 7.61037 4.33073C7.62702 4.33073 7.64369 4.33073 7.66039 4.33073C7.67709 4.33073 7.69382 4.33073 7.71057 4.33073C7.72732 4.33073 7.74409 4.33073 7.76089 4.33073C7.77769 4.33073 7.79451 4.33073 7.81135 4.33073C7.8282 4.33073 7.84507 4.33073 7.86196 4.33073C7.87886 4.33073 7.89577 4.33073 7.91271 4.33073C7.92965 4.33073 7.94662 4.33073 7.9636 4.33073C7.98059 4.33073 7.9976 4.33073 8.01463 4.33073C8.03166 4.33073 8.04872 4.33073 8.06579 4.33073C8.08287 4.33073 8.09997 4.33073 8.11709 4.33073C8.13421 4.33073 8.15136 4.33073 8.16852 4.33073C8.18569 4.33073 8.20288 4.33073 8.22009 4.33073C8.2373 4.33073 8.25453 4.33073 8.27178 4.33073C8.28903 4.33073 8.30631 4.33073 8.3236 4.33073C8.3409 4.33073 8.35821 4.33073 8.37555 4.33073C8.39289 4.33073 8.41024 4.33073 8.42762 4.33073C8.445 4.33073 8.4624 4.33073 8.47982 4.33073C8.49724 4.33073 8.51468 4.33073 8.53214 4.33073C8.54959 4.33073 8.56707 4.33073 8.58457 4.33073C8.60207 4.33073 8.61959 4.33073 8.63713 4.33073C8.65466 4.33073 8.67222 4.33073 8.6898 4.33073C8.70737 4.33073 8.72497 4.33073 8.74258 4.33073C8.7602 4.33073 8.77783 4.33073 8.79548 4.33073C8.81313 4.33073 8.8308 4.33073 8.84849 4.33073C8.86618 4.33073 8.88389 4.33073 8.90161 4.33073C8.91934 4.33073 8.93708 4.33073 8.95484 4.33073C8.9726 4.33073 8.99038 4.33073 9.00817 4.33073C9.02597 4.33073 9.04378 4.33073 9.06161 4.33073C9.07944 4.33073 9.09729 4.33073 9.11516 4.33073C9.13302 4.33073 9.1509 4.33073 9.1688 4.33073C9.1867 4.33073 9.20461 4.33073 9.22254 4.33073C9.24047 4.33073 9.25842 4.33073 9.27638 4.33073C9.29435 4.33073 9.31233 4.33073 9.33032 4.33073C9.34832 4.33073 9.36633 4.33073 9.38436 4.33073C9.40238 4.33073 9.42042 4.33073 9.43848 4.33073C9.45654 4.33073 9.47461 4.33073 9.4927 4.33073C9.51079 4.33073 9.52889 4.33073 9.547 4.33073C9.56512 4.33073 9.58325 4.33073 9.6014 4.33073C9.61954 4.33073 9.63771 4.33073 9.65588 4.33073C9.67405 4.33073 9.69224 4.33073 9.71045 4.33073C9.72865 4.33073 9.74686 4.33073 9.76509 4.33073C9.78332 4.33073 9.80157 4.33073 9.81982 4.33073C9.83808 4.33073 9.85635 4.33073 9.87463 4.33073C9.89292 4.33073 9.91121 4.33073 9.92952 4.33073C9.94783 4.33073 9.96615 4.33073 9.98449 4.33073C10.0028 4.33073 10.0212 4.33073 10.0395 4.33073C10.0579 4.33073 10.0763 4.33073 10.0946 4.33073C10.113 4.33073 10.1314 4.33073 10.1498 4.33073C10.1682 4.33073 10.1866 4.33073 10.2051 4.33073C10.2235 4.33073 10.2419 4.33073 10.2604 4.33073C10.2788 4.33073 10.2973 4.33073 10.3158 4.33073C10.3343 4.33073 10.3527 4.33073 10.3712 4.33073C10.3897 4.33073 10.4082 4.33073 10.4268 4.33073C10.4453 4.33073 10.4638 4.33073 10.4823 4.33073C10.5009 4.33073 10.5194 4.33073 10.538 4.33073C10.5565 4.33073 10.5751 4.33073 10.5937 4.33073C10.6122 4.33073 10.6308 4.33073 10.6494 4.33073C10.668 4.33073 10.6866 4.33073 10.7052 4.33073C10.7238 4.33073 10.7424 4.33073 10.7611 4.33073C10.7797 4.33073 10.7983 4.33073 10.817 4.33073C10.8356 4.33073 10.8543 4.33073 10.8729 4.33073C10.8916 4.33073 10.9103 4.33073 10.9289 4.33073C10.9476 4.33073 10.9663 4.33073 10.985 4.33073C11.0037 4.33073 11.0224 4.33073 11.0411 4.33073C11.0598 4.33073 11.0785 4.33073 11.0972 4.33073C11.116 4.33073 11.1347 4.33073 11.1534 4.33073C11.1722 4.33073 11.1909 4.33073 11.2096 4.33073C11.2284 4.33073 11.2471 4.33073 11.2659 4.33073C11.2847 4.33073 11.3034 4.33073 11.3222 4.33073C11.341 4.33073 11.3598 4.33073 11.3785 4.33073C11.3973 4.33073 11.4161 4.33073 11.4349 4.33073C11.4537 4.33073 11.4725 4.33073 11.4913 4.33073C11.5101 4.33073 11.5289 4.33073 11.5477 4.33073C11.5665 4.33073 11.5854 4.33073 11.6042 4.33073C11.623 4.33073 11.6418 4.33073 11.6607 4.33073C11.6795 4.33073 11.6983 4.33073 11.7172 4.33073C11.736 4.33073 11.7548 4.33073 11.7737 4.33073C11.7925 4.33073 11.8114 4.33073 11.8302 4.33073C11.8491 4.33073 11.8679 4.33073 11.8868 4.33073C11.9057 4.33073 11.9245 4.33073 11.9434 4.33073C11.9623 4.33073 11.9811 4.33073 12 4.33073C12.0189 4.33073 12.0377 4.33073 12.0566 4.33073C12.0755 4.33073 12.0944 4.33073 12.1132 4.33073C12.1321 4.33073 12.151 4.33073 12.1699 4.33073C12.1888 4.33073 12.2076 4.33073 12.2265 4.33073C12.2454 4.33073 12.2643 4.33073 12.2832 4.33073C12.3021 4.33073 12.321 4.33073 12.3399 4.33073C12.3587 4.33073 12.3776 4.33073 12.3965 4.33073C12.4154 4.33073 12.4343 4.33073 12.4532 4.33073C12.4721 4.33073 12.491 4.33073 12.5099 4.33073C12.5288 4.33073 12.5477 4.33073 12.5666 4.33073C12.5854 4.33073 12.6043 4.33073 12.6232 4.33073C12.6421 4.33073 12.661 4.33073 12.6799 4.33073C12.6988 4.33073 12.7177 4.33073 12.7366 4.33073C12.7554 4.33073 12.7743 4.33073 12.7932 4.33073C12.8121 4.33073 12.831 4.33073 12.8499 4.33073C12.8687 4.33073 12.8876 4.33073 12.9065 4.33073C12.9254 4.33073 12.9442 4.33073 12.9631 4.33073C12.982 4.33073 13.0009 4.33073 13.0197 4.33073C13.0386 4.33073 13.0575 4.33073 13.0763 4.33073C13.0952 4.33073 13.114 4.33073 13.1329 4.33073C13.1518 4.33073 13.1706 4.33073 13.1895 4.33073C13.2083 4.33073 13.2272 4.33073 13.246 4.33073C13.2648 4.33073 13.2837 4.33073 13.3025 4.33073C13.3214 4.33073 13.3402 4.33073 13.359 4.33073C13.3778 4.33073 13.3967 4.33073 13.4155 4.33073C13.4343 4.33073 13.4531 4.33073 13.4719 4.33073C13.4907 4.33073 13.5095 4.33073 13.5283 4.33073C13.5471 4.33073 13.5659 4.33073 13.5847 4.33073C13.6035 4.33073 13.6223 4.33073 13.6411 4.33073C13.6599 4.33073 13.6786 4.33073 13.6974 4.33073C13.7162 4.33073 13.7349 4.33073 13.7537 4.33073C13.7724 4.33073 13.7912 4.33073 13.8099 4.33073C13.8287 4.33073 13.8474 4.33073 13.8661 4.33073C13.8849 4.33073 13.9036 4.33073 13.9223 4.33073C13.941 4.33073 13.9597 4.33073 13.9784 4.33073C13.9971 4.33073 14.0158 4.33073 14.0345 4.33073C14.0532 4.33073 14.0719 4.33073 14.0905 4.33073C14.1092 4.33073 14.1279 4.33073 14.1465 4.33073C14.1652 4.33073 14.1838 4.33073 14.2024 4.33073C14.2211 4.33073 14.2397 4.33073 14.2583 4.33073C14.277 4.33073 14.2956 4.33073 14.3142 4.33073C14.3328 4.33073 14.3514 4.33073 14.37 4.33073C14.3885 4.33073 14.4071 4.33073 14.4257 4.33073C14.4442 4.33073 14.4628 4.33073 14.4814 4.33073C14.4999 4.33073 14.5184 4.33073 14.537 4.33073C14.5555 4.33073 14.574 4.33073 14.5925 4.33073C14.611 4.33073 14.6295 4.33073 14.648 4.33073C14.6665 4.33073 14.685 4.33073 14.7034 4.33073C14.7219 4.33073 14.7403 4.33073 14.7588 4.33073C14.7772 4.33073 14.7957 4.33073 14.8141 4.33073C14.8325 4.33073 14.8509 4.33073 14.8693 4.33073C14.8877 4.33073 14.9061 4.33073 14.9245 4.33073C14.9428 4.33073 14.9612 4.33073 14.9795 4.33073C14.9979 4.33073 15.0162 4.33073 15.0345 4.33073C15.0529 4.33073 15.0712 4.33073 15.0895 4.33073C15.1078 4.33073 15.1261 4.33073 15.1443 4.33073C15.1626 4.33073 15.1809 4.33073 15.1991 4.33073C15.2173 4.33073 15.2356 4.33073 15.2538 4.33073C15.272 4.33073 15.2902 4.33073 15.3084 4.33073C15.3266 4.33073 15.3448 4.33073 15.3629 4.33073C15.3811 4.33073 15.3993 4.33073 15.4174 4.33073C15.4355 4.33073 15.4536 4.33073 15.4717 4.33073C15.4898 4.33073 15.5079 4.33073 15.526 4.33073C15.5441 4.33073 15.5621 4.33073 15.5802 4.33073C15.5982 4.33073 15.6163 4.33073 15.6343 4.33073C15.6523 4.33073 15.6703 4.33073 15.6883 4.33073C15.7062 4.33073 15.7242 4.33073 15.7422 4.33073C15.7601 4.33073 15.778 4.33073 15.796 4.33073C15.8139 4.33073 15.8318 4.33073 15.8497 4.33073C15.8675 4.33073 15.8854 4.33073 15.9033 4.33073C15.9211 4.33073 15.9389 4.33073 15.9568 4.33073C15.9746 4.33073 15.9924 4.33073 16.0102 4.33073C16.0279 4.33073 16.0457 4.33073 16.0634 4.33073C16.0812 4.33073 16.0989 4.33073 16.1166 4.33073C16.1343 4.33073 16.152 4.33073 16.1697 4.33073C16.1874 4.33073 16.205 4.33073 16.2227 4.33073C16.2403 4.33073 16.2579 4.33073 16.2755 4.33073C16.2931 4.33073 16.3107 4.33073 16.3283 4.33073C16.3458 4.33073 16.3634 4.33073 16.3809 4.33073C16.3984 4.33073 16.4159 4.33073 16.4334 4.33073C16.4509 4.33073 16.4683 4.33073 16.4858 4.33073C16.5032 4.33073 16.5206 4.33073 16.538 4.33073C16.5554 4.33073 16.5728 4.33073 16.5902 4.33073C16.6075 4.33073 16.6249 4.33073 16.6422 4.33073C16.6595 4.33073 16.6768 4.33073 16.6941 4.33073C16.7114 4.33073 16.7286 4.33073 16.7458 4.33073C16.7631 4.33073 16.7803 4.33073 16.7975 4.33073C16.8147 4.33073 16.8318 4.33073 16.849 4.33073C16.8661 4.33073 16.8833 4.33073 16.9004 4.33073C16.9175 4.33073 16.9346 4.33073 16.9516 4.33073C16.9687 4.33073 16.9857 4.33073 17.0027 4.33073C17.0197 4.33073 17.0367 4.33073 17.0537 4.33073C17.0707 4.33073 17.0876 4.33073 17.1045 4.33073C17.1214 4.33073 17.1383 4.33073 17.1552 4.33073C17.1721 4.33073 17.1889 4.33073 17.2058 4.33073C17.2226 4.33073 17.2394 4.33073 17.2562 4.33073C17.2729 4.33073 17.2897 4.33073 17.3064 4.33073C17.3231 4.33073 17.3398 4.33073 17.3565 4.33073C17.3732 4.33073 17.3899 4.33073 17.4065 4.33073C17.4231 4.33073 17.4397 4.33073 17.4563 4.33073C17.4729 4.33073 17.4894 4.33073 17.506 4.33073C17.5225 4.33073 17.539 4.33073 17.5555 4.33073C17.5719 4.33073 17.5884 4.33073 17.6048 4.33073C17.6212 4.33073 17.6376 4.33073 17.654 4.33073C17.6704 4.33073 17.6867 4.33073 17.703 4.33073C17.7194 4.33073 17.7356 4.33073 17.7519 4.33073C17.7682 4.33073 17.7844 4.33073 17.8006 4.33073C17.8168 4.33073 17.833 4.33073 17.8492 4.33073C17.8653 4.33073 17.8815 4.33073 17.8976 4.33073C17.9137 4.33073 17.9297 4.33073 17.9458 4.33073C17.9618 4.33073 17.9778 4.33073 17.9938 4.33073C18.0098 4.33073 18.0258 4.33073 18.0417 4.33073C18.0576 4.33073 18.0735 4.33073 18.0894 4.33073C18.1053 4.33073 18.1211 4.33073 18.1369 4.33073C18.1527 4.33073 18.1685 4.33073 18.1843 4.33073C18.2 4.33073 18.2158 4.33073 18.2315 4.33073C18.2472 4.33073 18.2628 4.33073 18.2785 4.33073C18.2941 4.33073 18.3097 4.33073 18.3253 4.33073C18.3408 4.33073 18.3564 4.33073 18.3719 4.33073C18.3874 4.33073 18.4029 4.33073 18.4184 4.33073C18.4338 4.33073 18.4492 4.33073 18.4646 4.33073C18.48 4.33073 18.4954 4.33073 18.5107 4.33073C18.526 4.33073 18.5413 4.33073 18.5566 4.33073C18.5719 4.33073 18.5871 4.33073 18.6023 4.33073C18.6175 4.33073 18.6327 4.33073 18.6478 4.33073C18.6629 4.33073 18.678 4.33073 18.6931 4.33073C18.7082 4.33073 18.7232 4.33073 18.7382 4.33073C18.7532 4.33073 18.7682 4.33073 18.7832 4.33073C18.7981 4.33073 18.813 4.33073 18.8279 4.33073C18.8428 4.33073 18.8576 4.33073 18.8724 4.33073C18.8872 4.33073 18.902 4.33073 18.9167 4.33073C18.9315 4.33073 18.9462 4.33073 18.9608 4.33073C18.9755 4.33073 18.9901 4.33073 19.0047 4.33073C19.0193 4.33073 19.0339 4.33073 19.0484 4.33073C19.063 4.33073 19.0775 4.33073 19.0919 4.33073C19.1064 4.33073 19.1208 4.33073 19.1352 4.33073C19.1496 4.33073 19.164 4.33073 19.1783 4.33073C19.1926 4.33073 19.2069 4.33073 19.2212 4.33073C19.2354 4.33073 19.2496 4.33073 19.2638 4.33073C19.278 4.33073 19.2921 4.33073 19.3062 4.33073C19.3203 4.33073 19.3344 4.33073 19.3484 4.33073C19.3625 4.33073 19.3765 4.33073 19.3904 4.33073C19.4044 4.33073 19.4183 4.33073 19.4322 4.33073C19.4461 4.33073 19.4599 4.33073 19.4737 4.33073C19.4875 4.33073 19.5013 4.33073 19.515 4.33073C19.5288 4.33073 19.5425 4.33073 19.5561 4.33073C19.5698 4.33073 19.5834 4.33073 19.597 4.33073C19.6106 4.33073 19.6241 4.33073 19.6376 4.33073C19.6511 4.33073 19.6646 4.33073 19.678 4.33073C19.6914 4.33073 19.7048 4.33073 19.7182 4.33073C19.7315 4.33073 19.7448 4.33073 19.7581 4.33073C19.7714 4.33073 19.7846 4.33073 19.7978 4.33073C19.811 4.33073 19.8241 4.33073 19.8372 4.33073C19.8503 4.33073 19.8634 4.33073 19.8764 4.33073C19.8895 4.33073 19.9024 4.33073 19.9154 4.33073C19.9283 4.33073 19.9412 4.33073 19.9541 4.33073C19.967 4.33073 19.9798 4.33073 19.9926 4.33073C20.0054 4.33073 20.0181 4.33073 20.0308 4.33073C20.0435 4.33073 20.0562 4.33073 20.0688 4.33073C20.0814 4.33073 20.094 4.33073 20.1065 4.33073C20.1191 4.33073 20.1316 4.33073 20.144 4.33073C20.1565 4.33073 20.1689 4.33073 20.1812 4.33073C20.1936 4.33073 20.2059 4.33073 20.2182 4.33073C20.2305 4.33073 20.2427 4.33073 20.2549 4.33073C20.2671 4.33073 20.2793 4.33073 20.2914 4.33073C20.3035 4.33073 20.3155 4.33073 20.3276 4.33073C20.3396 4.33073 20.3516 4.33073 20.3635 4.33073C20.3754 4.33073 20.3873 4.33073 20.3992 4.33073C20.411 4.33073 20.4228 4.33073 20.4346 4.33073C20.4463 4.33073 20.458 4.33073 20.4697 4.33073C20.4814 4.33073 20.493 4.33073 20.5046 4.33073C20.5161 4.33073 20.5277 4.33073 20.5392 4.33073C20.5506 4.33073 20.5621 4.33073 20.5735 4.33073C20.5849 4.33073 20.5962 4.33073 20.6075 4.33073C20.6188 4.33073 20.6301 4.33073 20.6413 4.33073C20.6525 4.33073 20.6637 4.33073 20.6748 4.33073C20.6859 4.33073 20.697 4.33073 20.708 4.33073C20.719 4.33073 20.73 4.33073 20.7409 4.33073C20.7519 4.33073 20.7628 4.33073 20.7736 4.33073C20.7844 4.33073 20.7952 4.33073 20.806 4.33073C20.8167 4.33073 20.8274 4.33073 20.838 4.33073C20.8487 4.33073 20.8593 4.33073 20.8698 4.33073C20.8804 4.33073 20.8909 4.33073 20.9014 4.33073C20.9118 4.33073 20.9222 4.33073 20.9326 4.33073C20.9429 4.33073 20.9532 4.33073 20.9635 4.33073C20.9737 4.33073 20.984 4.33073 20.9941 4.33073C21.0043 4.33073 21.0144 4.33073 21.0245 4.33073C21.0345 4.33073 21.0445 4.33073 21.0545 4.33073C21.0645 4.33073 21.0744 4.33073 21.0842 4.33073C21.0941 4.33073 21.1039 4.33073 21.1137 4.33073C21.1234 4.33073 21.1331 4.33073 21.1428 4.33073C21.1525 4.33073 21.1621 4.33073 21.1716 4.33073C21.1812 4.33073 21.1907 4.33073 21.2002 4.33073C21.2096 4.33073 21.219 4.33073 21.2284 4.33073C21.2377 4.33073 21.247 4.33073 21.2563 4.33073C21.2655 4.33073 21.2747 4.33073 21.2839 4.33073C21.293 4.33073 21.3021 4.33073 21.3112 4.33073C21.3202 4.33073 21.3292 4.33073 21.3382 4.33073C21.3471 4.33073 21.356 4.33073 21.3648 4.33073C21.3736 4.33073 21.3824 4.33073 21.3912 4.33073C21.3999 4.33073 21.4086 4.33073 21.4172 4.33073C21.4258 4.33073 21.4344 4.33073 21.4429 4.33073C21.4514 4.33073 21.4599 4.33073 21.4683 4.33073C21.4767 4.33073 21.485 4.33073 21.4933 4.33073C21.5016 4.33073 21.5099 4.33073 21.518 4.33073C21.5262 4.33073 21.5344 4.33073 21.5424 4.33073C21.5505 4.33073 21.5585 4.33073 21.5665 4.33073C21.5745 4.33073 21.5824 4.33073 21.5903 4.33073C21.5981 4.33073 21.6059 4.33073 21.6137 4.33073C21.6214 4.33073 21.6291 4.33073 21.6367 4.33073C21.6444 4.33073 21.652 4.33073 21.6595 4.33073C21.667 4.33073 21.6745 4.33073 21.6819 4.33073C21.6893 4.33073 21.6967 4.33073 21.704 4.33073C21.7113 4.33073 21.7185 4.33073 21.7257 4.33073C21.7329 4.33073 21.74 4.33073 21.7471 4.33073C21.7541 4.33073 21.7611 4.33073 21.7681 4.33073C21.775 4.33073 21.7819 4.33073 21.7888 4.33073C21.7956 4.33073 21.8024 4.33073 21.8091 4.33073C21.8159 4.33073 21.8225 4.33073 21.8291 4.33073C21.8357 4.33073 21.8423 4.33073 21.8488 4.33073C21.8553 4.33073 21.8617 4.33073 21.8681 4.33073C21.8744 4.33073 21.8807 4.33073 21.887 4.33073C21.8933 4.33073 21.8994 4.33073 21.9056 4.33073C21.9117 4.33073 21.9178 4.33073 21.9238 4.33073C21.9298 4.33073 21.9358 4.33073 21.9417 4.33073C21.9476 4.33073 21.9534 4.33073 21.9592 4.33073C21.965 4.33073 21.9707 4.33073 21.9763 4.33073C21.982 4.33073 21.9876 4.33073 21.9931 4.33073C21.9986 4.33073 22.0041 4.33073 22.0095 4.33073C22.0149 4.33073 22.0203 4.33073 22.0256 4.33073C22.0309 4.33073 22.0361 4.33073 22.0412 4.33073C22.0464 4.33073 22.0515 4.33073 22.0566 4.33073C22.0616 4.33073 22.0666 4.33073 22.0715 4.33073C22.0764 4.33073 22.0813 4.33073 22.086 4.33073C22.0908 4.33073 22.0956 4.33073 22.1002 4.33073C22.1049 4.33073 22.1095 4.33073 22.114 4.33073C22.1186 4.33073 22.1231 4.33073 22.1275 4.33073C22.1319 4.33073 22.1362 4.33073 22.1405 4.33073C22.1448 4.33073 22.149 4.33073 22.1532 4.33073C22.1573 4.33073 22.1614 4.33073 22.1655 4.33073C22.1695 4.33073 22.1735 4.33073 22.1774 4.33073C22.1813 4.33073 22.1851 4.33073 22.1889 4.33073C22.1926 4.33073 22.1963 4.33073 22.2 4.33073C22.2036 4.33073 22.2072 4.33073 22.2107 4.33073C22.2142 4.33073 22.2177 4.33073 22.2211 4.33073C22.2244 4.33073 22.2277 4.33073 22.231 4.33073C22.2342 4.33073 22.2374 4.33073 22.2405 4.33073C22.2437 4.33073 22.2467 4.33073 22.2497 4.33073C22.2527 4.33073 22.2556 4.33073 22.2584 4.33073C22.2613 4.33073 22.2641 4.33073 22.2668 4.33073C22.2695 4.33073 22.2722 4.33073 22.2747 4.33073C22.2773 4.33073 22.2798 4.33073 22.2823 4.33073C22.2847 4.33073 22.2871 4.33073 22.2894 4.33073C22.2917 4.33073 22.294 4.33073 22.2962 4.33073C22.2983 4.33073 22.3004 4.33073 22.3025 4.33073C22.3045 4.33073 22.3065 4.33073 22.3084 4.33073C22.3103 4.33073 22.3121 4.33073 22.3139 4.33073C22.3157 4.33073 22.3173 4.33073 22.319 4.33073C22.3206 4.33073 22.3222 4.33073 22.3236 4.33073C22.3251 4.33073 22.3265 4.33073 22.3279 4.33073C22.3292 4.33073 22.3305 4.33073 22.3317 4.33073C22.3329 4.33073 22.3341 4.33073 22.3351 4.33073C22.3362 4.33073 22.3372 4.33073 22.3381 4.33073C22.3391 4.33073 22.3399 4.33073 22.3407 4.33073C22.3415 4.33073 22.3422 4.33073 22.3428 4.33073C22.3435 4.33073 22.344 4.33073 22.3445 4.33073V1.66927ZM2.65577 1.66927C1.55655 1.66927 0.669266 2.56149 0.669266 3.65687H3.33073C3.33073 4.027 3.03081 4.33073 2.65577 4.33073V1.66927ZM0.669266 3.65687V8.26426H3.33073V3.65687H0.669266ZM0.669266 8.26426C0.669266 9.35943 1.55634 10.2519 2.65561 10.2519V7.59039C3.03102 7.59039 3.33073 7.89434 3.33073 8.26426H0.669266ZM2.65561 10.2519H3.35289V7.59039H2.65561V10.2519ZM2.02215 8.92113V20.343H4.68362V8.92113H2.02215ZM2.02215 20.343C2.02215 21.4373 2.90806 22.3307 4.0085 22.3307V19.6693C4.38443 19.6693 4.68362 19.9739 4.68362 20.343H2.02215ZM4.0085 22.3307H21.0846V19.6693H4.0085V22.3307ZM21.0846 22.3307C22.1839 22.3307 23.0711 21.4381 23.0711 20.343H20.4096C20.4096 19.9731 20.7092 19.6693 21.0846 19.6693V22.3307ZM23.0711 20.343V8.92113H20.4096V20.343H23.0711ZM21.7404 10.2519H22.3444V7.59039H21.7404V10.2519ZM22.3444 10.2519C23.4437 10.2519 24.3307 9.35943 24.3307 8.26426H21.6693C21.6693 7.89434 21.969 7.59039 22.3444 7.59039V10.2519ZM24.3307 8.26426V3.65687H21.6693V8.26426H24.3307ZM24.3307 3.65746C24.3312 2.56171 23.4437 1.66927 22.3445 1.66927V4.33073C21.9692 4.33073 21.6691 4.02677 21.6693 3.65628L24.3307 3.65746ZM20.429 18.3554H4.66427V21.0168H20.429V18.3554ZM5.99501 19.6861V8.92113H3.33354V19.6861H5.99501ZM4.66427 10.2519H9.04817V7.59039H4.66427V10.2519ZM7.71744 8.92113V14.1981H10.3789V8.92113H7.71744ZM7.71744 14.1981C7.71744 15.8805 9.68855 16.8119 10.9848 15.717L9.26742 13.6837C9.71229 13.308 10.3789 13.63 10.3789 14.1981H7.71744ZM10.9846 15.7171L13.3586 13.7126L11.6416 11.6791L9.26761 13.6836L10.9846 15.7171ZM11.6416 13.7126L14.0155 15.7171L15.7326 13.6836L13.3586 11.6791L11.6416 13.7126ZM14.0148 15.7165C15.3029 16.8056 17.2827 15.8918 17.2827 14.1981H14.6213C14.6213 13.6242 15.2931 13.312 15.7332 13.6842L14.0148 15.7165ZM17.2827 14.1981V8.92113H14.6213V14.1981H17.2827ZM15.952 10.2519H20.429V7.59039H15.952V10.2519ZM19.0982 8.92113V19.6861H21.7597V8.92113H19.0982ZM3.31139 5.64447H9.04817V2.983H3.31139V5.64447ZM7.71744 4.31374V7.60723H10.3789V4.31374H7.71744ZM9.04817 6.2765H3.31139V8.93797H9.04817V6.2765ZM4.64212 7.60723V4.31374H1.98065V7.60723H4.64212ZM15.4991 11.7685L13.7813 10.318L12.0642 12.3515L13.7821 13.802L15.4991 11.7685ZM13.7815 10.3182C13.0415 9.69305 11.9587 9.69305 11.2187 10.3182L12.9362 12.3513C12.6845 12.564 12.3157 12.564 12.064 12.3513L13.7815 10.3182ZM11.2189 10.318L9.50104 11.7685L11.2181 13.802L12.9359 12.3515L11.2189 10.318ZM11.6903 12.7853V4.31374H9.02883V12.7853H11.6903ZM10.3596 5.64447H14.6406V2.983H10.3596V5.64447ZM13.3099 4.31374V12.7853H15.9713V4.31374H13.3099ZM21.6888 6.2765H15.952V8.93797H21.6888V6.2765ZM17.2827 7.60723V4.31374H14.6213V7.60723H17.2827ZM15.952 5.64447H21.6888V2.983H15.952V5.64447ZM20.358 4.31374V7.60723H23.0195V4.31374H20.358Z" fill="#FF7A00" mask="url(#path-1-inside-1_2904_5199)"/>
</svg>
