<svg width="90" height="90" viewBox="0 0 90 90" fill="none" xmlns="http://www.w3.org/2000/svg">
<path d="M51.5 12L18 45L53 80L87 46.5L86.5 12H51.5Z" fill="#FFCCA7"/>
<path d="M44.1178 8L8 44.1178L45.8822 82L82 45.8822V8H44.1178ZM77.6659 44.087L45.8822 75.8707L14.1293 44.1178L45.913 12.3342H77.6659V44.087Z" fill="#FF7A00"/>
<path d="M69.7148 16.6565C67.7225 16.6565 66.1016 18.2774 66.1016 20.2698C66.1016 22.2621 67.7225 23.8831 69.7148 23.8831C71.7072 23.8831 73.3281 22.2621 73.3281 20.2698C73.3281 18.2774 71.7072 16.6565 69.7148 16.6565Z" fill="#FF7A00"/>
<path d="M45.0874 23.2163L42.0215 26.2822L63.7006 47.9613L66.7665 44.8954L45.0874 23.2163Z" fill="#FF7A00"/>
<path d="M37.8609 30.4428L34.7949 33.5088L56.474 55.1879L59.5399 52.1219L37.8609 30.4428Z" fill="#FF7A00"/>
<path d="M30.6343 37.6697L27.5684 40.7356L38.4084 51.5756L41.4743 48.5097L30.6343 37.6697Z" fill="#FF7A00"/>
</svg>
