<svg width="24" height="24" viewBox="0 0 24 24" fill="none" xmlns="http://www.w3.org/2000/svg">
<path d="M20.3483 2.64262L21.2019 1.78906H19.9948H17.2539C17.1741 1.78906 17.1094 1.72434 17.1094 1.64453C17.1094 1.56472 17.1741 1.5 17.2539 1.5H21.5508C21.6306 1.5 21.6953 1.56472 21.6953 1.64453V5.94141C21.6953 6.02122 21.6306 6.08594 21.5508 6.08594C21.471 6.08594 21.4062 6.02122 21.4062 5.94141V3.20056V1.99345L20.5527 2.84701L15.3561 8.04356L15.0496 8.35012L15.3096 8.69702C15.812 9.36715 16.1094 10.1978 16.1094 11.0977C16.1094 13.114 14.6124 14.7893 12.6711 15.0682L12.2422 15.1298V15.5631V19.5625V20.0625H12.7422H14.2461C14.3259 20.0625 14.3906 20.1272 14.3906 20.207C14.3906 20.2868 14.3259 20.3516 14.2461 20.3516H12.7422H12.2422V20.8516V22.3555C12.2422 22.4353 12.1775 22.5 12.0977 22.5C12.0178 22.5 11.9531 22.4353 11.9531 22.3555V20.8516V20.3516H11.4531H9.94922C9.86941 20.3516 9.80469 20.2868 9.80469 20.207C9.80469 20.1272 9.86941 20.0625 9.94922 20.0625H11.4531H11.9531V19.5625V15.5631V15.1298L11.5242 15.0682C9.58296 14.7893 8.08594 13.114 8.08594 11.0977C8.08594 10.1978 8.38334 9.36713 8.88566 8.69695L9.14567 8.35006L8.83913 8.04352L7.16012 6.36451L6.80657 6.01096L6.45302 6.36451L5.38958 7.42795C5.33313 7.4844 5.24164 7.4844 5.18519 7.42795C5.12875 7.3715 5.12875 7.28001 5.18519 7.22356L6.24863 6.16012L6.60218 5.80657L6.24863 5.45302L3.64262 2.84701L2.78906 1.99345V3.20056V5.94141C2.78906 6.02122 2.72434 6.08594 2.64453 6.08594C2.56472 6.08594 2.5 6.02122 2.5 5.94141V1.64453C2.5 1.56472 2.56472 1.5 2.64453 1.5H6.94141C7.02122 1.5 7.08594 1.56472 7.08594 1.64453C7.08594 1.72434 7.02122 1.78906 6.94141 1.78906H4.20056H2.99345L3.84701 2.64262L6.45306 5.24867L6.80661 5.60222L7.16017 5.24867L8.2236 4.18524C8.28005 4.12879 8.37154 4.12879 8.42799 4.18524C8.48444 4.24169 8.48444 4.33318 8.42799 4.38963L7.36456 5.45306L7.011 5.80661L7.36456 6.16017L9.04356 7.83917L9.35012 8.14573L9.69702 7.88569C10.3671 7.38334 11.1978 7.08594 12.0977 7.08594C12.9975 7.08594 13.8281 7.38334 14.4983 7.8857L14.8452 8.14572L15.1518 7.83917L20.3483 2.64262ZM8.375 11.0977C8.375 13.1508 10.0445 14.8203 12.0977 14.8203C14.1508 14.8203 15.8203 13.1508 15.8203 11.0977C15.8203 9.04454 14.1508 7.375 12.0977 7.375C10.0445 7.375 8.375 9.04454 8.375 11.0977Z" stroke="#FF4C00"/>
</svg>
