<svg width="116" height="20" viewBox="0 0 116 20" fill="none" xmlns="http://www.w3.org/2000/svg">
<g clip-path="url(#clip0_1827_8656)">
<path d="M10.5725 2.2577L12.3873 6.5827C12.4312 6.68766 12.503 6.77864 12.5948 6.84583C12.6866 6.91301 12.7951 6.95386 12.9084 6.96395L17.5537 7.36552C17.677 7.37542 17.7945 7.42167 17.8915 7.4984C17.9884 7.57513 18.0605 7.6789 18.0984 7.79658C18.1364 7.91426 18.1386 8.04056 18.1048 8.15949C18.071 8.27843 18.0026 8.38465 17.9084 8.46473L14.3842 11.539C14.2985 11.6142 14.2348 11.7112 14.1999 11.8198C14.165 11.9283 14.1601 12.0443 14.1857 12.1554L15.242 16.7288C15.2699 16.8482 15.2621 16.9733 15.2194 17.0883C15.1768 17.2033 15.1012 17.3032 15.0022 17.3756C14.9032 17.448 14.785 17.4896 14.6625 17.4953C14.5399 17.501 14.4184 17.4706 14.3131 17.4077L10.3209 14.9858C10.2239 14.9268 10.1126 14.8957 9.99903 14.8957C9.8855 14.8957 9.77416 14.9268 9.67715 14.9858L5.68497 17.4077C5.57963 17.4706 5.45813 17.501 5.33559 17.4953C5.21306 17.4896 5.09491 17.448 4.99587 17.3756C4.89683 17.3032 4.82129 17.2033 4.77864 17.0883C4.736 16.9733 4.72815 16.8482 4.75606 16.7288L5.81231 12.1554C5.83799 12.0443 5.83309 11.9283 5.79815 11.8198C5.76321 11.7112 5.69953 11.6142 5.61387 11.539L2.08965 8.46473C1.99543 8.38465 1.92709 8.27843 1.89326 8.15949C1.85943 8.04056 1.86164 7.91426 1.89961 7.79658C1.93758 7.6789 2.00961 7.57513 2.10657 7.4984C2.20354 7.42167 2.32109 7.37542 2.44434 7.36552L7.08965 6.96395C7.20299 6.95386 7.31142 6.91301 7.40325 6.84583C7.49508 6.77864 7.56682 6.68766 7.61075 6.5827L9.42559 2.2577C9.47407 2.14588 9.55417 2.05068 9.65606 1.9838C9.75794 1.91692 9.87716 1.88129 9.99903 1.88129C10.1209 1.88129 10.2401 1.91692 10.342 1.9838C10.4439 2.05068 10.524 2.14588 10.5725 2.2577Z" fill="#F6C733" stroke="#F6C733" stroke-linecap="round" stroke-linejoin="round"/>
</g>
<g clip-path="url(#clip1_1827_8656)">
<path d="M34.5725 2.2577L36.3873 6.5827C36.4312 6.68766 36.503 6.77864 36.5948 6.84583C36.6866 6.91301 36.7951 6.95386 36.9084 6.96395L41.5537 7.36552C41.677 7.37542 41.7945 7.42167 41.8915 7.4984C41.9884 7.57513 42.0605 7.6789 42.0984 7.79658C42.1364 7.91426 42.1386 8.04056 42.1048 8.15949C42.071 8.27843 42.0026 8.38465 41.9084 8.46473L38.3842 11.539C38.2985 11.6142 38.2348 11.7112 38.1999 11.8198C38.165 11.9283 38.1601 12.0443 38.1857 12.1554L39.242 16.7288C39.2699 16.8482 39.2621 16.9733 39.2194 17.0883C39.1768 17.2033 39.1012 17.3032 39.0022 17.3756C38.9032 17.448 38.785 17.4896 38.6625 17.4953C38.5399 17.501 38.4184 17.4706 38.3131 17.4077L34.3209 14.9858C34.2239 14.9268 34.1126 14.8957 33.999 14.8957C33.8855 14.8957 33.7742 14.9268 33.6772 14.9858L29.685 17.4077C29.5796 17.4706 29.4581 17.501 29.3356 17.4953C29.2131 17.4896 29.0949 17.448 28.9959 17.3756C28.8968 17.3032 28.8213 17.2033 28.7786 17.0883C28.736 16.9733 28.7281 16.8482 28.7561 16.7288L29.8123 12.1554C29.838 12.0443 29.8331 11.9283 29.7982 11.8198C29.7632 11.7112 29.6995 11.6142 29.6139 11.539L26.0897 8.46473C25.9954 8.38465 25.9271 8.27843 25.8933 8.15949C25.8594 8.04056 25.8616 7.91426 25.8996 7.79658C25.9376 7.6789 26.0096 7.57513 26.1066 7.4984C26.2035 7.42167 26.3211 7.37542 26.4443 7.36552L31.0897 6.96395C31.203 6.95386 31.3114 6.91301 31.4032 6.84583C31.4951 6.77864 31.5668 6.68766 31.6107 6.5827L33.4256 2.2577C33.4741 2.14588 33.5542 2.05068 33.6561 1.9838C33.7579 1.91692 33.8772 1.88129 33.999 1.88129C34.1209 1.88129 34.2401 1.91692 34.342 1.9838C34.4439 2.05068 34.524 2.14588 34.5725 2.2577Z" fill="#F6C733" stroke="#F6C733" stroke-linecap="round" stroke-linejoin="round"/>
</g>
<g clip-path="url(#clip2_1827_8656)">
<path d="M58.5725 2.2577L60.3873 6.5827C60.4312 6.68766 60.503 6.77864 60.5948 6.84583C60.6866 6.91301 60.7951 6.95386 60.9084 6.96395L65.5537 7.36552C65.677 7.37542 65.7945 7.42167 65.8915 7.4984C65.9884 7.57513 66.0605 7.6789 66.0984 7.79658C66.1364 7.91426 66.1386 8.04056 66.1048 8.15949C66.071 8.27843 66.0026 8.38465 65.9084 8.46473L62.3842 11.539C62.2985 11.6142 62.2348 11.7112 62.1999 11.8198C62.165 11.9283 62.1601 12.0443 62.1857 12.1554L63.242 16.7288C63.2699 16.8482 63.2621 16.9733 63.2194 17.0883C63.1768 17.2033 63.1012 17.3032 63.0022 17.3756C62.9032 17.448 62.785 17.4896 62.6625 17.4953C62.5399 17.501 62.4184 17.4706 62.3131 17.4077L58.3209 14.9858C58.2239 14.9268 58.1126 14.8957 57.999 14.8957C57.8855 14.8957 57.7742 14.9268 57.6772 14.9858L53.685 17.4077C53.5796 17.4706 53.4581 17.501 53.3356 17.4953C53.2131 17.4896 53.0949 17.448 52.9959 17.3756C52.8968 17.3032 52.8213 17.2033 52.7786 17.0883C52.736 16.9733 52.7281 16.8482 52.7561 16.7288L53.8123 12.1554C53.838 12.0443 53.8331 11.9283 53.7982 11.8198C53.7632 11.7112 53.6995 11.6142 53.6139 11.539L50.0897 8.46473C49.9954 8.38465 49.9271 8.27843 49.8933 8.15949C49.8594 8.04056 49.8616 7.91426 49.8996 7.79658C49.9376 7.6789 50.0096 7.57513 50.1066 7.4984C50.2035 7.42167 50.3211 7.37542 50.4443 7.36552L55.0897 6.96395C55.203 6.95386 55.3114 6.91301 55.4032 6.84583C55.4951 6.77864 55.5668 6.68766 55.6107 6.5827L57.4256 2.2577C57.4741 2.14588 57.5542 2.05068 57.6561 1.9838C57.7579 1.91692 57.8772 1.88129 57.999 1.88129C58.1209 1.88129 58.2401 1.91692 58.342 1.9838C58.4439 2.05068 58.524 2.14588 58.5725 2.2577Z" fill="#F6C733" stroke="#F6C733" stroke-linecap="round" stroke-linejoin="round"/>
</g>
<g clip-path="url(#clip3_1827_8656)">
<path d="M82.5725 2.2577L84.3873 6.5827C84.4312 6.68766 84.503 6.77864 84.5948 6.84583C84.6866 6.91301 84.7951 6.95386 84.9084 6.96395L89.5537 7.36552C89.677 7.37542 89.7945 7.42167 89.8915 7.4984C89.9884 7.57513 90.0605 7.6789 90.0984 7.79658C90.1364 7.91426 90.1386 8.04056 90.1048 8.15949C90.071 8.27843 90.0026 8.38465 89.9084 8.46473L86.3842 11.539C86.2985 11.6142 86.2348 11.7112 86.1999 11.8198C86.165 11.9283 86.1601 12.0443 86.1857 12.1554L87.242 16.7288C87.2699 16.8482 87.2621 16.9733 87.2194 17.0883C87.1768 17.2033 87.1012 17.3032 87.0022 17.3756C86.9032 17.448 86.785 17.4896 86.6625 17.4953C86.5399 17.501 86.4184 17.4706 86.3131 17.4077L82.3209 14.9858C82.2239 14.9268 82.1126 14.8957 81.999 14.8957C81.8855 14.8957 81.7742 14.9268 81.6772 14.9858L77.685 17.4077C77.5796 17.4706 77.4581 17.501 77.3356 17.4953C77.2131 17.4896 77.0949 17.448 76.9959 17.3756C76.8968 17.3032 76.8213 17.2033 76.7786 17.0883C76.736 16.9733 76.7281 16.8482 76.7561 16.7288L77.8123 12.1554C77.838 12.0443 77.8331 11.9283 77.7982 11.8198C77.7632 11.7112 77.6995 11.6142 77.6139 11.539L74.0897 8.46473C73.9954 8.38465 73.9271 8.27843 73.8933 8.15949C73.8594 8.04056 73.8616 7.91426 73.8996 7.79658C73.9376 7.6789 74.0096 7.57513 74.1066 7.4984C74.2035 7.42167 74.3211 7.37542 74.4443 7.36552L79.0897 6.96395C79.203 6.95386 79.3114 6.91301 79.4032 6.84583C79.4951 6.77864 79.5668 6.68766 79.6107 6.5827L81.4256 2.2577C81.4741 2.14588 81.5542 2.05068 81.6561 1.9838C81.7579 1.91692 81.8772 1.88129 81.999 1.88129C82.1209 1.88129 82.2401 1.91692 82.342 1.9838C82.4439 2.05068 82.524 2.14588 82.5725 2.2577Z" fill="#F6C733" stroke="#F6C733" stroke-linecap="round" stroke-linejoin="round"/>
</g>
<g clip-path="url(#clip4_1827_8656)">
<path d="M106.572 2.2577L108.387 6.5827C108.431 6.68766 108.503 6.77864 108.595 6.84583C108.687 6.91301 108.795 6.95386 108.908 6.96395L113.554 7.36552C113.677 7.37542 113.795 7.42167 113.891 7.4984C113.988 7.57513 114.06 7.6789 114.098 7.79658C114.136 7.91426 114.139 8.04056 114.105 8.15949C114.071 8.27843 114.003 8.38465 113.908 8.46473L110.384 11.539C110.299 11.6142 110.235 11.7112 110.2 11.8198C110.165 11.9283 110.16 12.0443 110.186 12.1554L111.242 16.7288C111.27 16.8482 111.262 16.9733 111.219 17.0883C111.177 17.2033 111.101 17.3032 111.002 17.3756C110.903 17.448 110.785 17.4896 110.662 17.4953C110.54 17.501 110.418 17.4706 110.313 17.4077L106.321 14.9858C106.224 14.9268 106.113 14.8957 105.999 14.8957C105.886 14.8957 105.774 14.9268 105.677 14.9858L101.685 17.4077C101.58 17.4706 101.458 17.501 101.336 17.4953C101.213 17.4896 101.095 17.448 100.996 17.3756C100.897 17.3032 100.821 17.2033 100.779 17.0883C100.736 16.9733 100.728 16.8482 100.756 16.7288L101.812 12.1554C101.838 12.0443 101.833 11.9283 101.798 11.8198C101.763 11.7112 101.7 11.6142 101.614 11.539L98.0897 8.46473C97.9954 8.38465 97.9271 8.27843 97.8933 8.15949C97.8594 8.04056 97.8616 7.91426 97.8996 7.79658C97.9376 7.6789 98.0096 7.57513 98.1066 7.4984C98.2035 7.42167 98.3211 7.37542 98.4443 7.36552L103.09 6.96395C103.203 6.95386 103.311 6.91301 103.403 6.84583C103.495 6.77864 103.567 6.68766 103.611 6.5827L105.426 2.2577C105.474 2.14588 105.554 2.05068 105.656 1.9838C105.758 1.91692 105.877 1.88129 105.999 1.88129C106.121 1.88129 106.24 1.91692 106.342 1.9838C106.444 2.05068 106.524 2.14588 106.572 2.2577Z" fill="#E9E9E9" stroke="#E9E9E9" stroke-linecap="round" stroke-linejoin="round"/>
</g>
<defs>
<clipPath id="clip0_1827_8656">
<rect width="20" height="20" fill="white"/>
</clipPath>
<clipPath id="clip1_1827_8656">
<rect width="20" height="20" fill="white" transform="translate(24)"/>
</clipPath>
<clipPath id="clip2_1827_8656">
<rect width="20" height="20" fill="white" transform="translate(48)"/>
</clipPath>
<clipPath id="clip3_1827_8656">
<rect width="20" height="20" fill="white" transform="translate(72)"/>
</clipPath>
<clipPath id="clip4_1827_8656">
<rect width="20" height="20" fill="white" transform="translate(96)"/>
</clipPath>
</defs>
</svg>
