<svg width="116" height="20" viewBox="0 0 116 20" fill="none" xmlns="http://www.w3.org/2000/svg">
<g clip-path="url(#clip0_1827_8635)">
<path d="M10.5725 2.25769L12.3873 6.58269C12.4312 6.68765 12.503 6.77863 12.5948 6.84581C12.6866 6.913 12.7951 6.95384 12.9084 6.96394L17.5537 7.3655C17.677 7.37541 17.7945 7.42165 17.8915 7.49838C17.9884 7.57512 18.0605 7.67889 18.0984 7.79657C18.1364 7.91424 18.1386 8.04054 18.1048 8.15948C18.071 8.27841 18.0026 8.38464 17.9084 8.46472L14.3842 11.5389C14.2985 11.6142 14.2348 11.7112 14.1999 11.8198C14.165 11.9283 14.1601 12.0443 14.1857 12.1553L15.242 16.7288C15.2699 16.8482 15.2621 16.9733 15.2194 17.0883C15.1768 17.2033 15.1012 17.3032 15.0022 17.3756C14.9032 17.448 14.785 17.4896 14.6625 17.4953C14.5399 17.501 14.4184 17.4706 14.3131 17.4077L10.3209 14.9858C10.2239 14.9268 10.1126 14.8956 9.99903 14.8956C9.8855 14.8956 9.77416 14.9268 9.67715 14.9858L5.68497 17.4077C5.57963 17.4706 5.45813 17.501 5.33559 17.4953C5.21306 17.4896 5.09491 17.448 4.99587 17.3756C4.89683 17.3032 4.82129 17.2033 4.77864 17.0883C4.736 16.9733 4.72815 16.8482 4.75606 16.7288L5.81231 12.1553C5.83799 12.0443 5.83309 11.9283 5.79815 11.8198C5.76321 11.7112 5.69953 11.6142 5.61387 11.5389L2.08965 8.46472C1.99543 8.38464 1.92709 8.27841 1.89326 8.15948C1.85943 8.04054 1.86164 7.91424 1.89961 7.79657C1.93758 7.67889 2.00961 7.57512 2.10657 7.49838C2.20354 7.42165 2.32109 7.37541 2.44434 7.3655L7.08965 6.96394C7.20299 6.95384 7.31142 6.913 7.40325 6.84581C7.49508 6.77863 7.56682 6.68765 7.61075 6.58269L9.42559 2.25769C9.47407 2.14587 9.55417 2.05066 9.65606 1.98378C9.75794 1.9169 9.87716 1.88127 9.99903 1.88127C10.1209 1.88127 10.2401 1.9169 10.342 1.98378C10.4439 2.05066 10.524 2.14587 10.5725 2.25769Z" fill="#F6C733" stroke="#F6C733" stroke-linecap="round" stroke-linejoin="round"/>
</g>
<g clip-path="url(#clip1_1827_8635)">
<path d="M34.5725 2.25769L36.3873 6.58269C36.4312 6.68765 36.503 6.77863 36.5948 6.84581C36.6866 6.913 36.7951 6.95384 36.9084 6.96394L41.5537 7.3655C41.677 7.37541 41.7945 7.42165 41.8915 7.49838C41.9884 7.57512 42.0605 7.67889 42.0984 7.79657C42.1364 7.91424 42.1386 8.04054 42.1048 8.15948C42.071 8.27841 42.0026 8.38464 41.9084 8.46472L38.3842 11.5389C38.2985 11.6142 38.2348 11.7112 38.1999 11.8198C38.165 11.9283 38.1601 12.0443 38.1857 12.1553L39.242 16.7288C39.2699 16.8482 39.2621 16.9733 39.2194 17.0883C39.1768 17.2033 39.1012 17.3032 39.0022 17.3756C38.9032 17.448 38.785 17.4896 38.6625 17.4953C38.5399 17.501 38.4184 17.4706 38.3131 17.4077L34.3209 14.9858C34.2239 14.9268 34.1126 14.8956 33.999 14.8956C33.8855 14.8956 33.7742 14.9268 33.6772 14.9858L29.685 17.4077C29.5796 17.4706 29.4581 17.501 29.3356 17.4953C29.2131 17.4896 29.0949 17.448 28.9959 17.3756C28.8968 17.3032 28.8213 17.2033 28.7786 17.0883C28.736 16.9733 28.7281 16.8482 28.7561 16.7288L29.8123 12.1553C29.838 12.0443 29.8331 11.9283 29.7982 11.8198C29.7632 11.7112 29.6995 11.6142 29.6139 11.5389L26.0897 8.46472C25.9954 8.38464 25.9271 8.27841 25.8933 8.15948C25.8594 8.04054 25.8616 7.91424 25.8996 7.79657C25.9376 7.67889 26.0096 7.57512 26.1066 7.49838C26.2035 7.42165 26.3211 7.37541 26.4443 7.3655L31.0897 6.96394C31.203 6.95384 31.3114 6.913 31.4032 6.84581C31.4951 6.77863 31.5668 6.68765 31.6107 6.58269L33.4256 2.25769C33.4741 2.14587 33.5542 2.05066 33.6561 1.98378C33.7579 1.9169 33.8772 1.88127 33.999 1.88127C34.1209 1.88127 34.2401 1.9169 34.342 1.98378C34.4439 2.05066 34.524 2.14587 34.5725 2.25769Z" fill="#F6C733" stroke="#F6C733" stroke-linecap="round" stroke-linejoin="round"/>
</g>
<g clip-path="url(#clip2_1827_8635)">
<path d="M58.5725 2.25769L60.3873 6.58269C60.4312 6.68765 60.503 6.77863 60.5948 6.84581C60.6866 6.913 60.7951 6.95384 60.9084 6.96394L65.5537 7.3655C65.677 7.37541 65.7945 7.42165 65.8915 7.49838C65.9884 7.57512 66.0605 7.67889 66.0984 7.79657C66.1364 7.91424 66.1386 8.04054 66.1048 8.15948C66.071 8.27841 66.0026 8.38464 65.9084 8.46472L62.3842 11.5389C62.2985 11.6142 62.2348 11.7112 62.1999 11.8198C62.165 11.9283 62.1601 12.0443 62.1857 12.1553L63.242 16.7288C63.2699 16.8482 63.2621 16.9733 63.2194 17.0883C63.1768 17.2033 63.1012 17.3032 63.0022 17.3756C62.9032 17.448 62.785 17.4896 62.6625 17.4953C62.5399 17.501 62.4184 17.4706 62.3131 17.4077L58.3209 14.9858C58.2239 14.9268 58.1126 14.8956 57.999 14.8956C57.8855 14.8956 57.7742 14.9268 57.6772 14.9858L53.685 17.4077C53.5796 17.4706 53.4581 17.501 53.3356 17.4953C53.2131 17.4896 53.0949 17.448 52.9959 17.3756C52.8968 17.3032 52.8213 17.2033 52.7786 17.0883C52.736 16.9733 52.7281 16.8482 52.7561 16.7288L53.8123 12.1553C53.838 12.0443 53.8331 11.9283 53.7982 11.8198C53.7632 11.7112 53.6995 11.6142 53.6139 11.5389L50.0897 8.46472C49.9954 8.38464 49.9271 8.27841 49.8933 8.15948C49.8594 8.04054 49.8616 7.91424 49.8996 7.79657C49.9376 7.67889 50.0096 7.57512 50.1066 7.49838C50.2035 7.42165 50.3211 7.37541 50.4443 7.3655L55.0897 6.96394C55.203 6.95384 55.3114 6.913 55.4032 6.84581C55.4951 6.77863 55.5668 6.68765 55.6107 6.58269L57.4256 2.25769C57.4741 2.14587 57.5542 2.05066 57.6561 1.98378C57.7579 1.9169 57.8772 1.88127 57.999 1.88127C58.1209 1.88127 58.2401 1.9169 58.342 1.98378C58.4439 2.05066 58.524 2.14587 58.5725 2.25769Z" fill="#F6C733" stroke="#F6C733" stroke-linecap="round" stroke-linejoin="round"/>
</g>
<g clip-path="url(#clip3_1827_8635)">
<path d="M82.5725 2.25769L84.3873 6.58269C84.4312 6.68765 84.503 6.77863 84.5948 6.84581C84.6866 6.913 84.7951 6.95384 84.9084 6.96394L89.5537 7.3655C89.677 7.37541 89.7945 7.42165 89.8915 7.49838C89.9884 7.57512 90.0605 7.67889 90.0984 7.79657C90.1364 7.91424 90.1386 8.04054 90.1048 8.15948C90.071 8.27841 90.0026 8.38464 89.9084 8.46472L86.3842 11.5389C86.2985 11.6142 86.2348 11.7112 86.1999 11.8198C86.165 11.9283 86.1601 12.0443 86.1857 12.1553L87.242 16.7288C87.2699 16.8482 87.2621 16.9733 87.2194 17.0883C87.1768 17.2033 87.1012 17.3032 87.0022 17.3756C86.9032 17.448 86.785 17.4896 86.6625 17.4953C86.5399 17.501 86.4184 17.4706 86.3131 17.4077L82.3209 14.9858C82.2239 14.9268 82.1126 14.8956 81.999 14.8956C81.8855 14.8956 81.7742 14.9268 81.6772 14.9858L77.685 17.4077C77.5796 17.4706 77.4581 17.501 77.3356 17.4953C77.2131 17.4896 77.0949 17.448 76.9959 17.3756C76.8968 17.3032 76.8213 17.2033 76.7786 17.0883C76.736 16.9733 76.7281 16.8482 76.7561 16.7288L77.8123 12.1553C77.838 12.0443 77.8331 11.9283 77.7982 11.8198C77.7632 11.7112 77.6995 11.6142 77.6139 11.5389L74.0897 8.46472C73.9954 8.38464 73.9271 8.27841 73.8933 8.15948C73.8594 8.04054 73.8616 7.91424 73.8996 7.79657C73.9376 7.67889 74.0096 7.57512 74.1066 7.49838C74.2035 7.42165 74.3211 7.37541 74.4443 7.3655L79.0897 6.96394C79.203 6.95384 79.3114 6.913 79.4032 6.84581C79.4951 6.77863 79.5668 6.68765 79.6107 6.58269L81.4256 2.25769C81.4741 2.14587 81.5542 2.05066 81.6561 1.98378C81.7579 1.9169 81.8772 1.88127 81.999 1.88127C82.1209 1.88127 82.2401 1.9169 82.342 1.98378C82.4439 2.05066 82.524 2.14587 82.5725 2.25769Z" fill="#F6C733" stroke="#F6C733" stroke-linecap="round" stroke-linejoin="round"/>
</g>
<g clip-path="url(#clip4_1827_8635)">
<path d="M106.572 2.25769L108.387 6.58269C108.431 6.68765 108.503 6.77863 108.595 6.84581C108.687 6.913 108.795 6.95384 108.908 6.96394L113.554 7.3655C113.677 7.37541 113.795 7.42165 113.891 7.49838C113.988 7.57512 114.06 7.67889 114.098 7.79657C114.136 7.91424 114.139 8.04054 114.105 8.15948C114.071 8.27841 114.003 8.38464 113.908 8.46472L110.384 11.5389C110.299 11.6142 110.235 11.7112 110.2 11.8198C110.165 11.9283 110.16 12.0443 110.186 12.1553L111.242 16.7288C111.27 16.8482 111.262 16.9733 111.219 17.0883C111.177 17.2033 111.101 17.3032 111.002 17.3756C110.903 17.448 110.785 17.4896 110.662 17.4953C110.54 17.501 110.418 17.4706 110.313 17.4077L106.321 14.9858C106.224 14.9268 106.113 14.8956 105.999 14.8956C105.886 14.8956 105.774 14.9268 105.677 14.9858L101.685 17.4077C101.58 17.4706 101.458 17.501 101.336 17.4953C101.213 17.4896 101.095 17.448 100.996 17.3756C100.897 17.3032 100.821 17.2033 100.779 17.0883C100.736 16.9733 100.728 16.8482 100.756 16.7288L101.812 12.1553C101.838 12.0443 101.833 11.9283 101.798 11.8198C101.763 11.7112 101.7 11.6142 101.614 11.5389L98.0897 8.46472C97.9954 8.38464 97.9271 8.27841 97.8933 8.15948C97.8594 8.04054 97.8616 7.91424 97.8996 7.79657C97.9376 7.67889 98.0096 7.57512 98.1066 7.49838C98.2035 7.42165 98.3211 7.37541 98.4443 7.3655L103.09 6.96394C103.203 6.95384 103.311 6.913 103.403 6.84581C103.495 6.77863 103.567 6.68765 103.611 6.58269L105.426 2.25769C105.474 2.14587 105.554 2.05066 105.656 1.98378C105.758 1.9169 105.877 1.88127 105.999 1.88127C106.121 1.88127 106.24 1.9169 106.342 1.98378C106.444 2.05066 106.524 2.14587 106.572 2.25769Z" fill="#F6C733" stroke="#F6C733" stroke-linecap="round" stroke-linejoin="round"/>
</g>
<defs>
<clipPath id="clip0_1827_8635">
<rect width="20" height="20" fill="white"/>
</clipPath>
<clipPath id="clip1_1827_8635">
<rect width="20" height="20" fill="white" transform="translate(24)"/>
</clipPath>
<clipPath id="clip2_1827_8635">
<rect width="20" height="20" fill="white" transform="translate(48)"/>
</clipPath>
<clipPath id="clip3_1827_8635">
<rect width="20" height="20" fill="white" transform="translate(72)"/>
</clipPath>
<clipPath id="clip4_1827_8635">
<rect width="20" height="20" fill="white" transform="translate(96)"/>
</clipPath>
</defs>
</svg>
