<svg width="14" height="13" viewBox="0 0 14 13" fill="none" xmlns="http://www.w3.org/2000/svg">
<path d="M7.40073 1.58039L8.67112 4.60789C8.70187 4.68136 8.75209 4.74504 8.81637 4.79207C8.88065 4.8391 8.95655 4.86769 9.03589 4.87476L12.2876 5.15585C12.3739 5.16279 12.4562 5.19516 12.524 5.24887C12.5919 5.30259 12.6423 5.37523 12.6689 5.4576C12.6955 5.53997 12.697 5.62838 12.6734 5.71164C12.6497 5.79489 12.6018 5.86925 12.5359 5.92531L10.0689 8.07726C10.009 8.12993 9.96439 8.19786 9.93994 8.27383C9.91548 8.34981 9.91205 8.43098 9.93003 8.50875L10.6694 11.7102C10.6889 11.7938 10.6834 11.8813 10.6536 11.9618C10.6237 12.0423 10.5709 12.1123 10.5015 12.1629C10.4322 12.2136 10.3495 12.2427 10.2637 12.2467C10.178 12.2507 10.0929 12.2294 10.0192 12.1854L7.22464 10.4901C7.15673 10.4488 7.07879 10.4269 6.99932 10.4269C6.91985 10.4269 6.84191 10.4488 6.77401 10.4901L3.97948 12.1854C3.90575 12.2294 3.82069 12.2507 3.73492 12.2467C3.64914 12.2427 3.56644 12.2136 3.49711 12.1629C3.42779 12.1123 3.3749 12.0423 3.34505 11.9618C3.3152 11.8813 3.30971 11.7938 3.32925 11.7102L4.06862 8.50875C4.08659 8.43098 4.08317 8.34981 4.05871 8.27383C4.03425 8.19786 3.98968 8.12993 3.92971 8.07726L1.46276 5.92531C1.39681 5.86925 1.34896 5.79489 1.32528 5.71164C1.3016 5.62838 1.30315 5.53997 1.32973 5.4576C1.35631 5.37523 1.40673 5.30259 1.47461 5.24887C1.54248 5.19516 1.62476 5.16279 1.71104 5.15585L4.96276 4.87476C5.04209 4.86769 5.11799 4.8391 5.18228 4.79207C5.24656 4.74504 5.29678 4.68136 5.32753 4.60789L6.59792 1.58039C6.63185 1.50211 6.68792 1.43547 6.75924 1.38865C6.83056 1.34184 6.91401 1.31689 6.99932 1.31689C7.08463 1.31689 7.16809 1.34184 7.2394 1.38865C7.31072 1.43547 7.3668 1.50211 7.40073 1.58039Z" fill="#F6C733" stroke="#F6C733" stroke-linecap="round" stroke-linejoin="round"/>
</svg>
