<svg width="24" height="24" viewBox="0 0 24 24" fill="none" xmlns="http://www.w3.org/2000/svg">
<path d="M18.667 11.9965C18.1558 11.9964 17.6514 12.1141 17.193 12.3404C16.7347 12.5668 16.3346 12.8958 16.0238 13.3018L15.9655 13.2768C16.1946 12.5666 16.229 11.8079 16.0649 11.0799C15.9009 10.352 15.5444 9.68138 15.0328 9.13827C14.5212 8.59515 13.8732 8.1994 13.1564 7.99236C12.4397 7.78532 11.6805 7.77457 10.9582 7.96125L10.8824 7.81788C11.4877 7.27918 11.8758 6.53816 11.974 5.73371C12.0722 4.92926 11.8738 4.11659 11.4159 3.44801C10.958 2.77943 10.2721 2.30082 9.48671 2.10189C8.70132 1.90295 7.87036 1.99735 7.14956 2.36738C6.42876 2.73742 5.8676 3.35769 5.57125 4.11195C5.2749 4.86622 5.2637 5.7027 5.53974 6.46464C5.81579 7.22657 6.36013 7.86166 7.07076 8.25088C7.78139 8.64009 8.60952 8.75672 9.39996 8.57891L9.46079 8.6931C8.62754 9.33271 8.06701 10.2639 7.89174 11.2998C7.71646 12.3357 7.93942 13.3996 8.51584 14.2779L6.94508 15.7474C6.23509 15.355 5.40642 15.2351 4.61436 15.4101C3.82229 15.5851 3.1212 16.043 2.64246 16.698C2.16372 17.353 1.94018 18.1601 2.01374 18.9682C2.0873 19.7762 2.45291 20.5297 3.04205 21.0875C3.6312 21.6452 4.40344 21.9689 5.21407 21.9979C6.0247 22.0269 6.81808 21.7592 7.44554 21.245C8.073 20.7307 8.49148 20.0053 8.62254 19.2046C8.75361 18.4038 8.58827 17.5828 8.15752 16.8952L9.68911 15.4632C10.5303 16.0256 11.5476 16.2621 12.5505 16.1285C13.5534 15.9949 14.4733 15.5002 15.138 14.7372L15.3705 14.8364C15.2696 15.5094 15.3771 16.1972 15.6784 16.8074C15.9798 17.4176 16.4606 17.9209 17.0562 18.2498C17.6519 18.5786 18.3339 18.7173 19.0106 18.6471C19.6874 18.5769 20.3264 18.3012 20.842 17.8571C21.3575 17.4129 21.7248 16.8216 21.8946 16.1626C22.0643 15.5035 22.0284 14.8083 21.7916 14.1703C21.5548 13.5322 21.1285 12.982 20.57 12.5934C20.0114 12.2048 19.3474 11.9965 18.667 11.9965ZM7.00091 5.32807C7.00091 4.99835 7.09865 4.67604 7.28178 4.40188C7.46491 4.12773 7.72519 3.91406 8.02972 3.78788C8.33425 3.6617 8.66934 3.62869 8.99263 3.69301C9.31592 3.75734 9.61287 3.91611 9.84595 4.14926C10.079 4.38241 10.2378 4.67945 10.3021 5.00284C10.3664 5.32622 10.3334 5.66142 10.2072 5.96604C10.0811 6.27066 9.86747 6.53103 9.5934 6.71421C9.31933 6.89739 8.99711 6.99517 8.6675 6.99517C8.22549 6.99517 7.80159 6.81953 7.48904 6.50689C7.1765 6.19425 7.00091 5.77021 7.00091 5.32807ZM5.33433 20.3319C5.00471 20.3319 4.68249 20.2342 4.40842 20.051C4.13435 19.8678 3.92074 19.6074 3.7946 19.3028C3.66846 18.9982 3.63546 18.663 3.69977 18.3396C3.76407 18.0162 3.9228 17.7192 4.15587 17.486C4.38895 17.2529 4.68591 17.0941 5.00919 17.0298C5.33248 16.9654 5.66757 16.9985 5.9721 17.1246C6.27663 17.2508 6.53691 17.4645 6.72004 17.7386C6.90317 18.0128 7.00091 18.3351 7.00091 18.6648C7.00091 19.107 6.82533 19.531 6.51278 19.8437C6.20023 20.1563 5.77633 20.3319 5.33433 20.3319ZM12.0007 14.4971C11.4596 14.496 10.9335 14.3194 10.5013 13.9937C10.0692 13.6681 9.75431 13.2109 9.60404 12.691C9.45376 12.1711 9.47617 11.6164 9.66791 11.1103C9.85966 10.6042 10.2104 10.174 10.6674 9.88424L11.0065 9.70336C11.3473 9.55508 11.7169 9.48467 12.0883 9.49724C12.4597 9.50982 12.8236 9.60507 13.1536 9.77607C13.4836 9.94706 13.7713 10.1895 13.9958 10.4857C14.2203 10.782 14.376 11.1245 14.4515 11.4885C14.527 11.8525 14.5204 12.2288 14.4322 12.5899C14.344 12.951 14.1764 13.2879 13.9417 13.5761C13.7069 13.8643 13.4109 14.0965 13.0751 14.2558C12.7393 14.4151 12.3723 14.4976 12.0007 14.4971ZM18.667 16.9977C18.3374 16.9977 18.0152 16.9 17.7411 16.7168C17.467 16.5336 17.2534 16.2732 17.1273 15.9686C17.0011 15.664 16.9681 15.3288 17.0324 15.0054C17.0967 14.682 17.2555 14.385 17.4885 14.1518C17.7216 13.9187 18.0186 13.7599 18.3419 13.6956C18.6651 13.6313 19.0002 13.6643 19.3048 13.7905C19.6093 13.9166 19.8696 14.1303 20.0527 14.4045C20.2358 14.6786 20.3336 15.0009 20.3336 15.3306C20.3336 15.7728 20.158 16.1968 19.8454 16.5095C19.5329 16.8221 19.109 16.9977 18.667 16.9977Z" fill="#FF7A00"/>
</svg>
