<svg width="24" height="24" viewBox="0 0 24 24" fill="none" xmlns="http://www.w3.org/2000/svg">
<path d="M21.3333 13.9857L16.8949 5.64553C15.6626 3.39905 13.0331 2.3408 10.6202 3.05241C9.72198 2.3908 8.61384 2 7.41572 2C4.42957 2 2 4.4298 2 7.41621V16.5821C2 19.5685 4.42957 21.9983 7.41572 21.9983C9.34205 21.9983 11.0368 20.9867 11.9974 19.4669C12.7023 20.5901 13.7804 21.4059 15.0644 21.7809C15.5668 21.9275 16.0792 22 16.5883 22C17.4865 22 18.3755 21.7742 19.1853 21.3301C20.4534 20.6343 21.3749 19.4869 21.7807 18.0978C22.1856 16.7088 22.0257 15.2456 21.335 13.9857H21.3333ZM15.4285 6.43796L17.3223 9.996L12.8314 12.4591V7.41538C12.8314 6.3438 12.519 5.34389 11.9799 4.50229C13.3705 4.44146 14.7294 5.16224 15.4293 6.43713L15.4285 6.43796ZM7.41572 3.66653C9.48286 3.66653 11.1651 5.34889 11.1651 7.41621V11.1659H3.66638V7.41621C3.66638 5.34889 5.34858 3.66653 7.41572 3.66653ZM7.41572 20.3318C5.34858 20.3318 3.66638 18.6494 3.66638 16.5821V12.8324H11.1651V16.5821C11.1651 18.6494 9.48286 20.3318 7.41572 20.3318ZM20.1793 17.6312C19.8985 18.5928 19.2603 19.3877 18.3821 19.8693C17.504 20.351 16.49 20.461 15.5301 20.1818C14.5686 19.901 13.7738 19.2627 13.2972 18.3936L12.769 17.402C12.8098 17.1346 12.8306 16.8613 12.8306 16.583V14.3615L18.1047 11.4692L19.866 14.7789C20.3476 15.6572 20.4584 16.6704 20.1785 17.632L20.1793 17.6312Z" fill="#FF7A00"/>
</svg>
