<svg width="163" height="183" viewBox="0 0 163 183" fill="none" xmlns="http://www.w3.org/2000/svg">
<ellipse cx="81.5001" cy="166.024" rx="81.2765" ry="16.1375" fill="#FFF1DD"/>
<path d="M115.193 77.4111H54.4136C53.0607 77.4111 51.9639 78.5079 51.9639 79.8609V141.739C51.9639 143.092 53.0607 144.189 54.4136 144.189H115.193C116.546 144.189 117.643 143.092 117.643 141.739V79.8609C117.643 78.5079 116.546 77.4111 115.193 77.4111Z" fill="#FFCCA7"/>
<path d="M113.099 57.2721C113.099 57.2721 113.086 56.0828 113.086 54.415H49.9014C49.9014 56.0691 49.9014 57.2721 49.8746 57.2721C49.8746 57.2721 48.7331 58.8988 47.3633 60.8673C45.9935 62.8494 44.8789 66.7454 44.8789 69.5204V150.734C44.8789 155.573 48.7734 159.537 53.5273 159.537H109.433C114.201 159.537 118.095 155.573 118.095 150.72V69.5341C118.095 66.7454 116.981 62.8631 115.611 60.881C114.241 58.8988 113.57 57.9522 113.099 57.2857V57.2721Z" stroke="#FF4C00" stroke-width="4"/>
<path d="M106.369 37.3545H56.6062C55.9297 37.3545 55.3813 37.9029 55.3813 38.5794V44.8237C55.3813 45.5002 55.9298 46.0486 56.6062 46.0486H106.369C107.046 46.0486 107.594 45.5002 107.594 44.8237V38.5794C107.594 37.9029 107.046 37.3545 106.369 37.3545Z" stroke="#FF4C00" stroke-width="4"/>
<path d="M49.4438 50.3959C49.4438 52.214 49.4438 53.7724 49.4438 54.4149H113.542C113.542 53.7587 113.528 52.2003 113.528 50.3959C113.528 48.0036 111.259 46.0488 108.479 46.0488H54.4932C51.7134 46.0488 49.4438 48.0036 49.4438 50.3959Z" stroke="#FF4C00" stroke-width="4"/>
<g style="mix-blend-mode:multiply" opacity="0.2">
<path d="M107.594 40.9912H55.3813V41.8251H107.594V40.9912Z" fill="#FFF1DD"/>
</g>
<g style="mix-blend-mode:multiply" opacity="0.2">
<path d="M49.9038 54.4297C49.9038 55.3729 49.9038 56.1384 49.9038 56.6442H113.088C113.088 56.1384 113.088 55.3729 113.088 54.4297H49.9038Z" fill="#FFF1DD"/>
</g>
<path d="M68.0634 18.8054C68.0773 17.005 65.7541 13.8945 61.5627 9.88792C60.8599 9.2201 60.3289 8.23239 58.5634 8.58325C58.7812 10.5874 60.5023 11.1468 61.3733 12.3748C62.251 13.6198 63.1721 14.8378 64.2386 15.9151C65.288 16.9731 65.5499 18.9034 68.0634 18.8054Z" fill="#FF4C00"/>
<path d="M54.1429 25.547C53.6532 23.8145 50.5534 21.477 45.4095 18.8011C44.5481 18.3562 43.7623 17.5562 42.1652 18.3864C42.9342 20.2498 44.7431 20.3061 45.9225 21.2418C47.1131 22.192 48.3379 23.1041 49.663 23.8405C50.9661 24.5632 51.7569 26.3434 54.1429 25.547Z" fill="#FF4C00"/>
<path d="M80.3906 16.6229C80.9801 14.5108 77.7708 3.02326 75.8261 1.16211C75.7341 2.28808 75.5116 3.0368 75.6468 3.70236C76.4223 7.4315 77.2549 11.1519 78.1575 14.8551C78.378 15.7452 78.3865 16.9774 80.3906 16.6229Z" fill="#FF4C00"/>
<path d="M92.7116 18.3366C92.7468 16.1441 99.0893 6.04278 101.483 4.81122C101.251 5.91689 101.251 6.69797 100.933 7.29764C99.1291 10.6525 97.2731 13.9827 95.3552 17.2765C94.8907 18.0673 94.5322 19.2462 92.7116 18.3366Z" fill="#FF4C00"/>
<path d="M107.762 22.5936C108.085 20.7648 115.07 14.4096 117.364 14.1776C117.011 15.0281 116.908 15.684 116.544 16.0806C114.494 18.2927 112.4 20.4667 110.256 22.5893C109.737 23.0975 109.262 23.9671 107.762 22.5936Z" fill="#FF4C00"/>
</svg>
