<svg width="20" height="20" viewBox="0 0 20 20" fill="none" xmlns="http://www.w3.org/2000/svg">
<path d="M4.16624 15.75V16.875C4.16624 17.0556 4.10721 17.2049 3.98916 17.3229C3.8711 17.441 3.72179 17.5 3.54124 17.5H3.12457C2.94402 17.5 2.79471 17.441 2.67666 17.3229C2.5586 17.2049 2.49957 17.0556 2.49957 16.875V10.125L4.27041 4.79169C4.33985 4.59724 4.45443 4.44446 4.61416 4.33335C4.77388 4.22224 4.95791 4.16669 5.16624 4.16669H14.8329C15.0412 4.16669 15.2253 4.22224 15.385 4.33335C15.5447 4.44446 15.6593 4.59724 15.7287 4.79169L17.4996 10.125V16.875C17.4996 17.0556 17.4405 17.2049 17.3225 17.3229C17.2044 17.441 17.0551 17.5 16.8746 17.5H16.4371C16.2565 17.5 16.1107 17.441 15.9996 17.3229C15.8885 17.2049 15.8329 17.0556 15.8329 16.875V15.75H4.16624ZM4.22874 8.87502H15.7704L14.6246 5.41669H5.37457L4.22874 8.87502ZM3.74957 10.125V14.5V10.125ZM5.95791 13.4584C6.27735 13.4584 6.54471 13.3472 6.75999 13.125C6.97527 12.9028 7.08291 12.6389 7.08291 12.3334C7.08291 12.0139 6.97527 11.7396 6.75999 11.5104C6.54471 11.2813 6.27735 11.1667 5.95791 11.1667C5.63846 11.1667 5.36416 11.2813 5.13499 11.5104C4.90582 11.7396 4.79124 12.0139 4.79124 12.3334C4.79124 12.6528 4.90582 12.9202 5.13499 13.1354C5.36416 13.3507 5.63846 13.4584 5.95791 13.4584ZM14.0621 13.4584C14.3815 13.4584 14.6558 13.3472 14.885 13.125C15.1142 12.9028 15.2287 12.6389 15.2287 12.3334C15.2287 12.0139 15.1142 11.7396 14.885 11.5104C14.6558 11.2813 14.3815 11.1667 14.0621 11.1667C13.7426 11.1667 13.4753 11.2813 13.26 11.5104C13.0447 11.7396 12.9371 12.0139 12.9371 12.3334C12.9371 12.6528 13.0482 12.9202 13.2704 13.1354C13.4926 13.3507 13.7565 13.4584 14.0621 13.4584ZM3.74957 14.5H16.2496V10.125H3.74957V14.5Z" fill="currentColor"/>
</svg>
