<svg width="22" height="22" viewBox="0 0 22 22" fill="none" xmlns="http://www.w3.org/2000/svg">
<path d="M5.10978 20.4188C4.38597 20.4188 3.772 20.1668 3.26788 19.6626C2.76377 19.1585 2.51172 18.5446 2.51172 17.8207V15.6053C2.51172 15.3854 2.58673 15.1994 2.73676 15.0473C2.8868 14.8952 3.07383 14.8192 3.29785 14.8192H5.48788V2.41279C5.48788 2.22993 5.55356 2.13597 5.68492 2.13092C5.81628 2.12586 5.95038 2.19175 6.08722 2.3286L6.89577 3.13714L8.01321 2.0252C8.08969 1.93784 8.18246 1.89417 8.29151 1.89417C8.40058 1.89417 8.49961 1.93784 8.58862 2.0252L9.67492 3.13714L10.7896 2.0252C10.8661 1.93784 10.9589 1.89417 11.0679 1.89417C11.177 1.89417 11.276 1.93784 11.365 2.0252L12.4797 3.13714L13.5889 2.0252C13.6654 1.93784 13.7582 1.89417 13.8672 1.89417C13.9763 1.89417 14.0753 1.93784 14.1643 2.0252L15.2791 3.13714L16.3937 2.0252C16.4719 1.93784 16.5642 1.89417 16.6706 1.89417C16.7769 1.89417 16.8747 1.93784 16.9637 2.0252L18.0756 3.13714L18.8842 2.3286C19.021 2.19175 19.156 2.12614 19.2892 2.13177C19.4224 2.13739 19.489 2.23314 19.489 2.41903V17.8207C19.489 18.5446 19.2364 19.1585 18.7312 19.6626C18.226 20.1668 17.6126 20.4188 16.8909 20.4188H5.10978ZM16.8937 18.852C17.1974 18.852 17.4447 18.7564 17.6357 18.5652C17.8267 18.3741 17.9222 18.1255 17.9222 17.8197V4.24014H7.04922V14.8192H15.079C15.2994 14.8192 15.4846 14.8952 15.6346 15.0473C15.7847 15.1994 15.8597 15.3854 15.8597 15.6053V17.8172C15.8597 18.1251 15.9561 18.3746 16.1489 18.5655C16.3417 18.7565 16.5899 18.852 16.8937 18.852ZM8.92839 7.89386C8.74505 7.89386 8.58846 7.82511 8.45859 7.68761C8.32873 7.55011 8.2638 7.38588 8.2638 7.1949C8.2638 7.00393 8.32969 6.84352 8.46146 6.71365C8.59323 6.58379 8.75651 6.51886 8.9513 6.51886H12.9722C13.167 6.51886 13.3302 6.58513 13.462 6.71767C13.5938 6.85021 13.6597 7.01445 13.6597 7.21037C13.6597 7.40631 13.5938 7.56921 13.462 7.69907C13.3302 7.82893 13.167 7.89386 12.9722 7.89386H8.92839ZM8.92839 10.9647C8.74505 10.9647 8.58846 10.8959 8.45859 10.7584C8.32873 10.6209 8.2638 10.4567 8.2638 10.2657C8.2638 10.0748 8.32969 9.91435 8.46146 9.78449C8.59323 9.65463 8.75651 9.5897 8.9513 9.5897H12.9722C13.167 9.5897 13.3302 9.65596 13.462 9.7885C13.5938 9.92105 13.6597 10.0853 13.6597 10.2812C13.6597 10.4771 13.5938 10.64 13.462 10.7699C13.3302 10.8998 13.167 10.9647 12.9722 10.9647H8.92839ZM15.7909 7.89386C15.6076 7.89386 15.4472 7.82511 15.3097 7.68761C15.1722 7.55011 15.1034 7.3897 15.1034 7.20636C15.1034 7.02303 15.1722 6.86261 15.3097 6.72511C15.4472 6.58761 15.6076 6.51886 15.7909 6.51886C15.9743 6.51886 16.1347 6.58761 16.2722 6.72511C16.4097 6.86261 16.4784 7.02303 16.4784 7.20636C16.4784 7.3897 16.4097 7.55011 16.2722 7.68761C16.1347 7.82511 15.9743 7.89386 15.7909 7.89386ZM15.7909 10.8501C15.6076 10.8501 15.4472 10.7814 15.3097 10.6439C15.1722 10.5064 15.1034 10.3459 15.1034 10.1626C15.1034 9.97928 15.1722 9.81886 15.3097 9.68136C15.4472 9.54386 15.6076 9.47511 15.7909 9.47511C15.9743 9.47511 16.1347 9.54386 16.2722 9.68136C16.4097 9.81886 16.4784 9.97928 16.4784 10.1626C16.4784 10.3459 16.4097 10.5064 16.2722 10.6439C16.1347 10.7814 15.9743 10.8501 15.7909 10.8501ZM5.08686 18.852H14.2984V16.386H4.07853V17.8207C4.07853 18.1263 4.17516 18.3746 4.36843 18.5655C4.56169 18.7565 4.80117 18.852 5.08686 18.852Z" fill="currentColor"/>
</svg>
