<svg width="22" height="22" viewBox="0 0 22 22" fill="none" xmlns="http://www.w3.org/2000/svg">
<path d="M10.6408 0.823486C12.0778 0.823486 13.3037 1.32241 14.3183 2.32027C15.333 3.31812 15.8403 4.53561 15.8403 5.97275C15.8403 6.78663 15.6703 7.54375 15.3302 8.24413C14.9901 8.9445 14.5178 9.54095 13.9133 10.0335H12.9917V8.92602C13.4493 8.57098 13.7984 8.13606 14.0389 7.62126C14.2793 7.10646 14.3995 6.5583 14.3995 5.97678C14.3995 4.93653 14.0326 4.0568 13.2987 3.33758C12.5648 2.61837 11.6778 2.25876 10.6377 2.25876C9.6026 2.25876 8.71753 2.61801 7.98247 3.33651C7.24741 4.055 6.87988 4.93464 6.87988 5.97541C6.87988 6.55718 7.00029 7.10569 7.24111 7.62091C7.48194 8.13614 7.83082 8.57305 8.28776 8.93163V10.6527C7.39933 10.2024 6.70336 9.55944 6.19985 8.72392C5.69635 7.88839 5.44461 6.97085 5.44461 5.9713C5.44461 4.53513 5.95123 3.31812 6.96449 2.32027C7.97774 1.32241 9.20316 0.823486 10.6408 0.823486ZM9.76889 20.2927C9.50124 20.2927 9.24933 20.2421 9.01317 20.141C8.777 20.0399 8.57124 19.8998 8.39588 19.7208L4.61463 15.9395C4.37795 15.7022 4.26165 15.3778 4.26573 14.9664C4.26982 14.555 4.42825 14.1682 4.741 13.806C5.05763 13.4398 5.37894 13.2062 5.70492 13.1051C6.0309 13.0039 6.38088 12.9916 6.75484 13.068L8.28776 13.4182V6.01858C8.28776 5.36005 8.51489 4.80342 8.96914 4.34871C9.42338 3.894 9.97944 3.66664 10.6373 3.66664C11.2952 3.66664 11.8521 3.894 12.3079 4.34871C12.7637 4.80342 12.9917 5.36005 12.9917 6.01858V9.89998H13.5272C13.6101 9.89998 13.6851 9.91525 13.7521 9.94581C13.819 9.97637 13.8925 10.0087 13.9726 10.043L17.3588 11.693C17.7386 11.8677 18.0185 12.1479 18.1986 12.5334C18.3787 12.919 18.4305 13.3177 18.3542 13.7296L17.5292 18.7254C17.4532 19.1857 17.2338 19.5619 16.8709 19.8542C16.5081 20.1465 16.0963 20.2927 15.6356 20.2927H9.76889ZM9.58556 18.8519H16.0251L17.0106 13.1457L12.8168 11.0602H11.5564V6.01858C11.5564 5.74358 11.4724 5.52205 11.3043 5.354C11.1363 5.18594 10.9147 5.10191 10.6397 5.10191C10.3647 5.10191 10.1432 5.18594 9.97514 5.354C9.80708 5.52205 9.72306 5.74358 9.72306 6.01858V15.1623L6.19389 14.4061L5.66681 14.9332L9.58556 18.8519Z" fill="currentColor"/>
</svg>
