<svg width="22" height="22" viewBox="0 0 22 22" fill="none" xmlns="http://www.w3.org/2000/svg">
<path d="M11.7806 11.4404L11.7806 2.45954C11.7806 2.2317 11.7066 2.04371 11.5585 1.89558C11.4103 1.74746 11.2242 1.6734 11 1.6734C10.7758 1.6734 10.5896 1.74746 10.4415 1.89558C10.2934 2.04371 10.2193 2.2317 10.2193 2.45954L10.2193 11.4404L8.24701 9.49097C8.09124 9.34682 7.9089 9.27275 7.69999 9.26877C7.49108 9.26478 7.30874 9.33885 7.15297 9.49097C6.99356 9.64674 6.91385 9.82908 6.91385 10.038C6.91385 10.2469 6.99356 10.4311 7.15297 10.5905L10.4475 13.885C10.6033 14.0408 10.7874 14.1186 11 14.1186C11.2125 14.1186 11.3967 14.0408 11.5525 13.885L14.8525 10.585C15.0082 10.4292 15.0852 10.2469 15.0834 10.038C15.0816 9.82908 15.0028 9.64674 14.847 9.49097C14.6912 9.33154 14.5089 9.25183 14.3 9.25183C14.0911 9.25183 13.9087 9.33154 13.753 9.49097L11.7806 11.4404ZM11 18.6711C13.1329 18.6711 14.9437 17.9258 16.4325 16.4352C17.9212 14.9446 18.6656 13.1329 18.6656 11C18.6656 10.4364 18.608 9.8833 18.4927 9.34077C18.3775 8.79824 18.1952 8.27789 17.9457 7.77971C17.8541 7.55983 17.8233 7.33507 17.8536 7.10541C17.8838 6.87574 17.9899 6.69033 18.1719 6.54918C18.3386 6.41964 18.5208 6.36617 18.7184 6.38876C18.916 6.41134 19.0607 6.5158 19.1523 6.70212C19.5124 7.3677 19.7824 8.06201 19.9624 8.78504C20.1424 9.50808 20.2324 10.2464 20.2324 11C20.2324 12.2753 19.99 13.4752 19.505 14.5996C19.0201 15.7241 18.3625 16.7015 17.532 17.532C16.7015 18.3625 15.7241 19.0201 14.5996 19.505C13.4752 19.99 12.2753 20.2324 11 20.2324C9.72463 20.2324 8.52474 19.99 7.40033 19.505C6.27591 19.0201 5.29846 18.3625 4.46798 17.532C3.63751 16.7015 2.97983 15.7241 2.49493 14.5996C2.01001 13.4752 1.76755 12.2753 1.76755 11C1.76755 10.25 1.85664 9.51538 2.03483 8.796C2.21301 8.07661 2.48029 7.38596 2.83666 6.72403C2.93199 6.53772 3.07755 6.43053 3.27334 6.40246C3.46912 6.3744 3.6522 6.4233 3.82258 6.54918C4.0119 6.69033 4.12076 6.87574 4.14914 7.10541C4.17754 7.33507 4.14409 7.56166 4.04877 7.78519C3.81827 8.27971 3.64067 8.79732 3.51595 9.33802C3.39124 9.87873 3.32888 10.4327 3.32888 11C3.32888 13.1329 4.07417 14.9446 5.56475 16.4352C7.05532 17.9258 8.86707 18.6711 11 18.6711Z" fill="currentColor"/>
</svg>
