<svg width="21" height="20" viewBox="0 0 21 20" fill="none" xmlns="http://www.w3.org/2000/svg">
<path d="M12.1673 1.66663L5.50065 1.66663C5.05862 1.66663 4.6347 1.84222 4.32214 2.15478C4.00958 2.46734 3.83398 2.89127 3.83398 3.33329L3.83398 16.6666C3.83398 17.1087 4.00958 17.5326 4.32214 17.8451C4.6347 18.1577 5.05862 18.3333 5.50065 18.3333L15.5007 18.3333C15.9427 18.3333 16.3666 18.1577 16.6792 17.8451C16.9917 17.5326 17.1673 17.1087 17.1673 16.6666V6.66663L12.1673 1.66663Z" stroke="white" stroke-width="1.5" stroke-linecap="round" stroke-linejoin="round"/>
<path d="M10.5 15V10" stroke="white" stroke-width="1.5" stroke-linecap="round" stroke-linejoin="round"/>
<path d="M8 12.5H13" stroke="white" stroke-width="1.5" stroke-linecap="round" stroke-linejoin="round"/>
<path d="M12.166 1.66663V6.66663L17.166 6.66663" stroke="white" stroke-width="1.5" stroke-linecap="round" stroke-linejoin="round"/>
</svg>
