<svg width="22" height="22" viewBox="0 0 22 22" fill="none" xmlns="http://www.w3.org/2000/svg">
<path d="M4.17459 19.387C3.75294 19.387 3.38731 19.2322 3.07769 18.9226C2.76808 18.613 2.61328 18.2474 2.61328 17.8257V4.17436C2.61328 3.75121 2.76808 3.38429 3.07769 3.0736C3.38731 2.7629 3.75294 2.60754 4.17459 2.60754H17.826C18.2491 2.60754 18.616 2.7629 18.9267 3.0736C19.2374 3.38429 19.3928 3.75121 19.3928 4.17436V17.8257C19.3928 18.2474 19.2374 18.613 18.9267 18.9226C18.616 19.2322 18.2491 19.387 17.826 19.387H4.17459ZM4.17459 17.8257H17.826V4.17436H4.17459V17.8257ZM6.11254 15.7014H15.9109C16.0645 15.7014 16.177 15.6319 16.2483 15.4928C16.3196 15.3536 16.3116 15.2143 16.2243 15.0747L13.5595 11.4997C13.4747 11.3971 13.3699 11.3449 13.2453 11.343C13.1206 11.3412 13.0164 11.3934 12.9327 11.4997L10.2211 14.997L8.4087 12.508C8.32023 12.4018 8.21366 12.3495 8.08901 12.3514C7.96436 12.3532 7.86019 12.4054 7.7765 12.508L5.8221 15.0747C5.71948 15.2143 5.70383 15.3536 5.77516 15.4928C5.84648 15.6319 5.95894 15.7014 6.11254 15.7014Z" fill="currentColor"/>
</svg>
