<svg width="22" height="22" viewBox="0 0 22 22" fill="none" xmlns="http://www.w3.org/2000/svg">
<path d="M11.0716 15.6436C11.2842 15.6436 11.4616 15.572 11.6035 15.4286C11.7455 15.2853 11.8165 15.1077 11.8165 14.8959V10.8311C11.8165 10.6193 11.7445 10.4417 11.6007 10.2983C11.4568 10.155 11.2785 10.0834 11.0658 10.0834C10.8532 10.0834 10.6758 10.155 10.5339 10.2983C10.3919 10.4417 10.3209 10.6193 10.3209 10.8311V14.8959C10.3209 15.1077 10.3929 15.2853 10.5367 15.4286C10.6806 15.572 10.8589 15.6436 11.0716 15.6436ZM11 8.46972C11.2376 8.46972 11.4367 8.39157 11.5974 8.23526C11.7581 8.07894 11.8384 7.88525 11.8384 7.65419C11.8384 7.40601 11.7581 7.20041 11.5975 7.03738C11.4368 6.87434 11.2378 6.79282 11.0004 6.79282C10.7588 6.79282 10.5586 6.87434 10.3998 7.03738C10.2409 7.20041 10.1615 7.4051 10.1615 7.65144C10.1615 7.88479 10.2419 8.07951 10.4026 8.2356C10.5633 8.39168 10.7624 8.46972 11 8.46972ZM11.0068 20.3037C9.72038 20.3037 8.51313 20.0602 7.38503 19.5731C6.25693 19.0861 5.2703 18.42 4.42514 17.5748C3.57997 16.7297 2.91387 15.7427 2.42683 14.614C1.9398 13.4853 1.69629 12.277 1.69629 10.9893C1.69629 9.7016 1.9398 8.49313 2.42683 7.3639C2.91387 6.23466 3.57968 5.25117 4.42427 4.41345C5.26887 3.57574 6.25567 2.91254 7.38466 2.42387C8.51368 1.93519 9.72219 1.69086 11.0102 1.69086C12.2982 1.69086 13.5071 1.93506 14.6367 2.42346C15.7664 2.91184 16.75 3.57465 17.5874 4.41189C18.4248 5.24913 19.0878 6.23365 19.5763 7.36546C20.0648 8.49728 20.3091 9.70677 20.3091 10.9939C20.3091 12.2808 20.0648 13.4883 19.5761 14.6164C19.0874 15.7444 18.4242 16.7294 17.5865 17.5713C16.7488 18.4132 15.7643 19.0791 14.6332 19.5689C13.502 20.0588 12.2932 20.3037 11.0068 20.3037ZM11.0114 18.7424C13.1586 18.7424 14.9839 17.988 16.4873 16.4793C17.9906 14.9706 18.7423 13.1403 18.7423 10.9886C18.7423 8.84138 17.992 7.01609 16.4915 5.51271C14.991 4.00935 13.1596 3.25767 10.9972 3.25767C8.85582 3.25767 7.03055 4.00792 5.52138 5.50843C4.01219 7.00894 3.2576 8.84038 3.2576 11.0028C3.2576 13.1441 4.01196 14.9694 5.52067 16.4786C7.02938 17.9878 8.85963 18.7424 11.0114 18.7424Z" fill="currentColor"/>
</svg>
