<svg width="22" height="22" viewBox="0 0 22 22" fill="none" xmlns="http://www.w3.org/2000/svg">
<path d="M17.4167 10.0833H4.58333C3.57081 10.0833 2.75 10.9041 2.75 11.9166V18.3333C2.75 19.3458 3.57081 20.1666 4.58333 20.1666H17.4167C18.4292 20.1666 19.25 19.3458 19.25 18.3333V11.9166C19.25 10.9041 18.4292 10.0833 17.4167 10.0833Z" stroke="currentColor" stroke-width="1.5" stroke-linecap="round" stroke-linejoin="round"/>
<path d="M6.41602 10.0833V6.41665C6.41602 5.20107 6.8989 4.03528 7.75844 3.17574C8.61798 2.3162 9.78377 1.83331 10.9993 1.83331C12.2149 1.83331 13.3807 2.3162 14.2403 3.17574C15.0998 4.03528 15.5827 5.20107 15.5827 6.41665V10.0833" stroke="currentColor" stroke-width="1.5" stroke-linecap="round" stroke-linejoin="round"/>
</svg>
