<svg width="22" height="22" viewBox="0 0 22 22" fill="none" xmlns="http://www.w3.org/2000/svg">
<path d="M6.87479 15.4185C7.05812 15.4185 7.21854 15.3506 7.35604 15.215C7.49354 15.0793 7.56229 14.918 7.56229 14.731C7.56229 14.5476 7.49354 14.3872 7.35604 14.2497C7.21854 14.1122 7.05812 14.0435 6.87479 14.0435C6.69146 14.0435 6.53104 14.1122 6.39354 14.2497C6.25604 14.3872 6.18729 14.5476 6.18729 14.731C6.18729 14.918 6.25604 15.0793 6.39354 15.215C6.53104 15.3506 6.69146 15.4185 6.87479 15.4185ZM6.87479 11.6875C7.05812 11.6875 7.21854 11.6188 7.35604 11.4813C7.49354 11.3438 7.56229 11.1834 7.56229 11C7.56229 10.8167 7.49354 10.6563 7.35604 10.5188C7.21854 10.3813 7.05812 10.3125 6.87479 10.3125C6.69146 10.3125 6.53104 10.3813 6.39354 10.5188C6.25604 10.6563 6.18729 10.8167 6.18729 11C6.18729 11.1834 6.25604 11.3438 6.39354 11.4813C6.53104 11.6188 6.69146 11.6875 6.87479 11.6875ZM6.87479 7.95114C7.05812 7.95114 7.21854 7.8833 7.35604 7.74761C7.49354 7.61195 7.56229 7.45062 7.56229 7.26364C7.56229 7.0803 7.49354 6.91989 7.35604 6.78239C7.21854 6.64489 7.05812 6.57614 6.87479 6.57614C6.69146 6.57614 6.53104 6.64489 6.39354 6.78239C6.25604 6.91989 6.18729 7.0803 6.18729 7.26364C6.18729 7.45062 6.25604 7.61195 6.39354 7.74761C6.53104 7.8833 6.69146 7.95114 6.87479 7.95114ZM10.5873 15.4185H14.804C14.9987 15.4185 15.162 15.3522 15.2938 15.2197C15.4256 15.0871 15.4915 14.9229 15.4915 14.727C15.4915 14.5347 15.4256 14.3727 15.2938 14.241C15.162 14.1093 14.9987 14.0435 14.804 14.0435H10.5873C10.3925 14.0435 10.2292 14.1106 10.0974 14.245C9.96567 14.3794 9.89979 14.5427 9.89979 14.735C9.89979 14.9309 9.96567 15.0938 10.0974 15.2237C10.2292 15.3535 10.3925 15.4185 10.5873 15.4185ZM10.5873 11.6875H14.804C14.9987 11.6875 15.162 11.6213 15.2938 11.4887C15.4256 11.3562 15.4915 11.192 15.4915 10.996C15.4915 10.8001 15.4256 10.6372 15.2938 10.5073C15.162 10.3775 14.9987 10.3125 14.804 10.3125H10.5873C10.3925 10.3125 10.2292 10.3788 10.0974 10.5113C9.96567 10.6439 9.89979 10.8081 9.89979 11.0041C9.89979 11.2 9.96567 11.3629 10.0974 11.4927C10.2292 11.6226 10.3925 11.6875 10.5873 11.6875ZM10.5873 7.95114H14.804C14.9987 7.95114 15.162 7.88486 15.2938 7.75231C15.4256 7.61978 15.4915 7.45554 15.4915 7.2596C15.4915 7.06733 15.4256 6.90535 15.2938 6.77366C15.162 6.64198 14.9987 6.57614 14.804 6.57614H10.5873C10.3925 6.57614 10.2292 6.64332 10.0974 6.77769C9.96567 6.91206 9.89979 7.07538 9.89979 7.26765C9.89979 7.46359 9.96567 7.62648 10.0974 7.75635C10.2292 7.88621 10.3925 7.95114 10.5873 7.95114ZM4.17411 19.387C3.75245 19.387 3.38682 19.2322 3.0772 18.9226C2.7676 18.613 2.61279 18.2474 2.61279 17.8257V4.17436C2.61279 3.75121 2.7676 3.38429 3.0772 3.0736C3.38682 2.7629 3.75245 2.60754 4.17411 2.60754H17.8255C18.2486 2.60754 18.6155 2.7629 18.9262 3.0736C19.2369 3.38429 19.3923 3.75121 19.3923 4.17436V17.8257C19.3923 18.2474 19.2369 18.613 18.9262 18.9226C18.6155 19.2322 18.2486 19.387 17.8255 19.387H4.17411ZM4.17411 17.8257H17.8255V4.17436H4.17411V17.8257Z" fill="currentColor"/>
</svg>
