<svg width="20" height="20" viewBox="0 0 20 20" fill="none" xmlns="http://www.w3.org/2000/svg">
<path d="M13.6119 17.5V15.75C12.8202 15.6111 12.1709 15.309 11.6639 14.8438C11.157 14.3785 10.7924 13.7917 10.5702 13.0833L11.7369 12.6042C11.973 13.2708 12.3132 13.7674 12.7577 14.0938C13.2021 14.4201 13.7369 14.5833 14.3619 14.5833C15.0285 14.5833 15.5771 14.4167 16.0077 14.0833C16.4382 13.75 16.6535 13.2917 16.6535 12.7083C16.6535 12.0972 16.4626 11.625 16.0806 11.2917C15.6987 10.9583 14.9799 10.6181 13.9244 10.2708C12.9244 9.95139 12.1778 9.52778 11.6848 9C11.1917 8.47222 10.9452 7.8125 10.9452 7.02083C10.9452 6.25694 11.1917 5.61806 11.6848 5.10417C12.1778 4.59028 12.8202 4.29861 13.6119 4.22917V2.5H14.8619V4.22917C15.4869 4.29861 16.0251 4.50347 16.4764 4.84375C16.9278 5.18403 17.2716 5.61806 17.5077 6.14583L16.341 6.64583C16.1466 6.20139 15.8862 5.87847 15.5598 5.67708C15.2334 5.47569 14.8063 5.375 14.2785 5.375C13.6396 5.375 13.1327 5.52083 12.7577 5.8125C12.3827 6.10417 12.1952 6.5 12.1952 7C12.1952 7.52778 12.4035 7.95486 12.8202 8.28125C13.2369 8.60764 14.0077 8.94444 15.1327 9.29167C16.0771 9.58333 16.7751 10.0035 17.2264 10.5521C17.6778 11.1007 17.9035 11.7917 17.9035 12.625C17.9035 13.5 17.6466 14.2049 17.1327 14.7396C16.6188 15.2743 15.8619 15.6181 14.8619 15.7708V17.5H13.6119Z" fill="currentColor"/>
<path d="M6.102 5.99219V13.0762H4.8V5.99219H6.102ZM8.888 8.90419V10.1502H2V8.90419H8.888Z" fill="currentColor"/>
</svg>
