<svg width="20" height="20" viewBox="0 0 20 20" fill="none" xmlns="http://www.w3.org/2000/svg">
<path d="M9.21936 9.55963V18.5405C9.21936 18.7683 9.29342 18.9563 9.44153 19.1044C9.58967 19.2525 9.77583 19.3266 10 19.3266C10.2242 19.3266 10.4104 19.2525 10.5585 19.1044C10.7066 18.9563 10.7807 18.7683 10.7807 18.5405V9.55963L12.753 11.509C12.9088 11.6532 13.0911 11.7272 13.3 11.7312C13.5089 11.7352 13.6913 11.6612 13.847 11.509C14.0064 11.3533 14.0861 11.1709 14.0861 10.962C14.0861 10.7531 14.0064 10.5689 13.847 10.4095L10.5525 7.11501C10.3967 6.95924 10.2126 6.88136 10 6.88136C9.78745 6.88136 9.60329 6.95924 9.44752 7.11501L6.14752 10.415C5.99176 10.5708 5.91479 10.7531 5.91661 10.962C5.91844 11.1709 5.99724 11.3533 6.15299 11.509C6.30877 11.6685 6.49111 11.7482 6.70001 11.7482C6.90892 11.7482 7.09126 11.6685 7.24704 11.509L9.21936 9.55963ZM10 2.32891C7.8671 2.32891 6.05627 3.0742 4.56753 4.56478C3.07877 6.05535 2.33439 7.8671 2.33439 10C2.33439 10.5636 2.39202 11.1167 2.50727 11.6592C2.62251 12.2018 2.80485 12.7221 3.05427 13.2203C3.14594 13.4402 3.17666 13.6649 3.14644 13.8946C3.11622 14.1243 3.0101 14.3097 2.82808 14.4508C2.66136 14.5804 2.47919 14.6338 2.28159 14.6112C2.08397 14.5887 1.93933 14.4842 1.84766 14.2979C1.48764 13.6323 1.21762 12.938 1.03761 12.215C0.857587 11.4919 0.767578 10.7536 0.767578 10C0.767578 8.72466 1.01004 7.52477 1.49495 6.40036C1.97985 5.27594 2.63754 4.29849 3.46801 3.46801C4.29849 2.63754 5.27594 1.97985 6.40036 1.49495C7.52477 1.01004 8.72466 0.767578 10 0.767578C11.2754 0.767578 12.4753 1.01004 13.5997 1.49495C14.7241 1.97985 15.7015 2.63754 16.532 3.46801C17.3625 4.29849 18.0202 5.27594 18.5051 6.40036C18.99 7.52477 19.2325 8.72466 19.2325 10C19.2325 10.75 19.1434 11.4846 18.9652 12.204C18.787 12.9234 18.5197 13.614 18.1633 14.276C18.068 14.4623 17.9225 14.5695 17.7267 14.5975C17.5309 14.6256 17.3478 14.5767 17.1774 14.4508C16.9881 14.3097 16.8792 14.1243 16.8509 13.8946C16.8225 13.6649 16.8559 13.4383 16.9512 13.2148C17.1817 12.7203 17.3593 12.2027 17.484 11.662C17.6088 11.1213 17.6711 10.5673 17.6711 10C17.6711 7.8671 16.9258 6.05535 15.4353 4.56478C13.9447 3.0742 12.1329 2.32891 10 2.32891Z" fill="currentColor"/>
</svg>
