<svg width="22" height="22" viewBox="0 0 22 22" fill="none" xmlns="http://www.w3.org/2000/svg">
<path d="M4.17459 21.862C3.75294 21.862 3.38731 21.7072 3.07769 21.3975C2.76808 21.088 2.61328 20.7224 2.61328 20.3007V6.64932C2.61328 6.22617 2.76808 5.85925 3.07769 5.54856C3.38731 5.23786 3.75294 5.0825 4.17459 5.0825H13.4504L11.889 6.64932H4.17459V20.3007H17.826V12.5285L19.3928 10.9616V20.3007C19.3928 20.7224 19.2374 21.088 18.9267 21.3975C18.616 21.7072 18.2491 21.862 17.826 21.862H4.17459ZM15.0999 5.38093L16.1675 6.42563L9.66912 12.8956V14.8062H11.5568L18.078 8.29583L19.1118 9.32958L12.6463 15.8235C12.5021 15.9676 12.3308 16.0815 12.1323 16.1652C11.9338 16.2489 11.731 16.2908 11.5239 16.2908H8.96519C8.741 16.2908 8.55484 16.2167 8.40671 16.0686C8.25857 15.9204 8.18451 15.7343 8.18451 15.5101V12.9514C8.18451 12.7443 8.22727 12.5415 8.31279 12.343C8.39832 12.1445 8.51315 11.9731 8.6573 11.829L15.0999 5.38093ZM19.1118 9.32958L15.0999 5.38093L17.3313 3.15503C17.6312 2.85511 18.0015 2.70607 18.4422 2.7079C18.8829 2.70974 19.2533 2.86824 19.5532 3.18342L21.3028 4.95598C21.5954 5.27116 21.7417 5.64066 21.7417 6.06448C21.7417 6.48829 21.5859 6.84996 21.2744 7.1495L19.1118 9.32958Z" fill="currentColor"/>
</svg>
