<svg width="16" height="16" viewBox="0 0 16 16" fill="none" xmlns="http://www.w3.org/2000/svg">
<path d="M2 4H3.33333H14" stroke="currentColor" stroke-width="1.5" stroke-linecap="round" stroke-linejoin="round"/>
<path d="M12.6654 4.00028V13.3336C12.6654 13.6872 12.5249 14.0264 12.2748 14.2764C12.0248 14.5265 11.6857 14.667 11.332 14.667H4.66536C4.31174 14.667 3.9726 14.5265 3.72256 14.2764C3.47251 14.0264 3.33203 13.6872 3.33203 13.3336V4.00028M5.33203 4.00028V2.66695C5.33203 2.31333 5.47251 1.97419 5.72256 1.72414C5.97261 1.47409 6.31174 1.33362 6.66537 1.33362H9.33203C9.68566 1.33362 10.0248 1.47409 10.2748 1.72414C10.5249 1.97419 10.6654 2.31333 10.6654 2.66695V4.00028" stroke="currentColor" stroke-width="1.5" stroke-linecap="round" stroke-linejoin="round"/>
<path d="M6.66797 7.33362V11.3336" stroke="currentColor" stroke-width="1.5" stroke-linecap="round" stroke-linejoin="round"/>
<path d="M9.33203 7.33362V11.3336" stroke="currentColor" stroke-width="1.5" stroke-linecap="round" stroke-linejoin="round"/>
</svg>
