<svg width="20" height="20" viewBox="0 0 20 20" fill="none" xmlns="http://www.w3.org/2000/svg">
<path d="M12.89 13.0004H7.1M5 11.0004C4.60444 11.0004 4.21776 11.1177 3.88886 11.3375C3.55996 11.5573 3.30362 11.8696 3.15224 12.2351C3.00087 12.6005 2.96126 13.0026 3.03843 13.3906C3.1156 13.7786 3.30608 14.1349 3.58579 14.4146C3.86549 14.6943 4.22186 14.8848 4.60982 14.962C4.99778 15.0392 5.39992 14.9996 5.76537 14.8482C6.13082 14.6968 6.44318 14.4405 6.66294 14.1116C6.8827 13.7827 7 13.396 7 13.0004C7 12.47 6.78929 11.9613 6.41421 11.5862C6.03914 11.2111 5.53043 11.0004 5 11.0004ZM15 11.0004C14.6044 11.0004 14.2178 11.1177 13.8889 11.3375C13.56 11.5573 13.3036 11.8696 13.1522 12.2351C13.0009 12.6005 12.9613 13.0026 13.0384 13.3906C13.1156 13.7786 13.3061 14.1349 13.5858 14.4146C13.8655 14.6943 14.2219 14.8848 14.6098 14.962C14.9978 15.0392 15.3999 14.9996 15.7654 14.8482C16.1308 14.6968 16.4432 14.4405 16.6629 14.1116C16.8827 13.7827 17 13.396 17 13.0004C17 12.47 16.7893 11.9613 16.4142 11.5862C16.0391 11.2111 15.5304 11.0004 15 11.0004Z" stroke="currentColor" stroke-width="1.5" stroke-linecap="round" stroke-linejoin="round"/>
<path d="M2.89988 13.0002H1.99995C1.73475 13.0002 1.48042 12.8686 1.29289 12.6341C1.10537 12.3997 1.00002 12.0818 1.00002 11.7503V8.77544C0.998727 8.5425 1.04953 8.31373 1.14671 8.11496C1.24388 7.91619 1.38356 7.75532 1.54998 7.6505L2.99987 6.75054C3.61756 5.59884 4.4522 4.65453 5.43035 4.00066C6.4085 3.3468 7.50021 3.00341 8.60944 3.00071H9.74935C11.2122 2.98111 12.6381 3.57525 13.799 4.68814L15.9989 6.75054L18.3187 7.71299C18.5257 7.79996 18.7042 7.96922 18.8269 8.19493C18.9497 8.42063 19.01 8.69036 18.9986 8.96293V11.7503C18.9986 12.0818 18.8933 12.3997 18.7058 12.6341C18.5182 12.8686 18.2639 13.0002 17.9987 13.0002H17.0888" stroke="currentColor" stroke-width="1.5" stroke-linecap="round" stroke-linejoin="round"/>
</svg>
